<?xml version="1.0" encoding="UTF-8" standalone="no"?>
<!DOCTYPE svg PUBLIC "-//W3C//DTD SVG 1.1//EN"
 "http://www.w3.org/Graphics/SVG/1.1/DTD/svg11.dtd">
<!-- Generated by graphviz version 2.38.0 (20140413.2041)
 -->
<!-- Title: G Pages: 1 -->
<svg width="1355pt" height="476pt"
 viewBox="0.00 0.00 1354.60 476.00" xmlns="http://www.w3.org/2000/svg" xmlns:xlink="http://www.w3.org/1999/xlink">
<g id="graph0" class="graph" transform="scale(1 1) rotate(0) translate(4 472)">
<title>G</title>
<polygon fill="white" stroke="none" points="-4,4 -4,-472 1350.6,-472 1350.6,4 -4,4"/>
<!-- MMQ618AoG6za5fErcbLTqn7gSBhBGVt16r_20180902_09h06m18s -->
<g id="node1" class="node"><title>MMQ618AoG6za5fErcbLTqn7gSBhBGVt16r_20180902_09h06m18s</title>
<ellipse fill="none" stroke="black" cx="804.577" cy="-162" rx="261.054" ry="18"/>
<text text-anchor="middle" x="804.577" y="-158.3" font-family="Times,serif" font-size="14.00">MMQ618AoG6za5fErcbLTqn7gSBhBGVt16r_20180902_09h06m18s</text>
</g>
<!-- MMQ618AoG6za5fErcbLTqn7gSBhBGVt16r_20180902_09h06m18s&#45;&gt;MMQ618AoG6za5fErcbLTqn7gSBhBGVt16r_20180902_09h06m18s -->
<g id="edge1" class="edge"><title>MMQ618AoG6za5fErcbLTqn7gSBhBGVt16r_20180902_09h06m18s&#45;&gt;MMQ618AoG6za5fErcbLTqn7gSBhBGVt16r_20180902_09h06m18s</title>
<path fill="none" stroke="black" d="M977.417,-175.499C1036.39,-175.587 1083.85,-171.088 1083.85,-162 1083.85,-153.445 1041.79,-148.956 987.658,-148.533"/>
<polygon fill="black" stroke="black" points="987.428,-145.032 977.417,-148.501 987.406,-152.032 987.428,-145.032"/>
</g>
<!-- MGsG3Zc95j79nA5iJa5mHbDY5Nf37LsQVn_20180902_09h06m18s -->
<g id="node9" class="node"><title>MGsG3Zc95j79nA5iJa5mHbDY5Nf37LsQVn_20180902_09h06m18s</title>
<ellipse fill="none" stroke="black" cx="262.577" cy="-90" rx="262.653" ry="18"/>
<text text-anchor="middle" x="262.577" y="-86.3" font-family="Times,serif" font-size="14.00">MGsG3Zc95j79nA5iJa5mHbDY5Nf37LsQVn_20180902_09h06m18s</text>
</g>
<!-- MMQ618AoG6za5fErcbLTqn7gSBhBGVt16r_20180902_09h06m18s&#45;&gt;MGsG3Zc95j79nA5iJa5mHbDY5Nf37LsQVn_20180902_09h06m18s -->
<g id="edge9" class="edge"><title>MMQ618AoG6za5fErcbLTqn7gSBhBGVt16r_20180902_09h06m18s&#45;&gt;MGsG3Zc95j79nA5iJa5mHbDY5Nf37LsQVn_20180902_09h06m18s</title>
<path fill="none" stroke="black" d="M687.638,-145.897C599.902,-134.566 479.905,-119.068 389.779,-107.428"/>
<polygon fill="black" stroke="black" points="390.139,-103.946 379.773,-106.136 389.242,-110.888 390.139,-103.946"/>
</g>
<!-- MMQ618AoG6za5fErcbLTqn7gSBhBGVt16r_20180902_09h34m36s -->
<g id="node10" class="node"><title>MMQ618AoG6za5fErcbLTqn7gSBhBGVt16r_20180902_09h34m36s</title>
<ellipse fill="none" stroke="black" cx="804.577" cy="-90" rx="261.054" ry="18"/>
<text text-anchor="middle" x="804.577" y="-86.3" font-family="Times,serif" font-size="14.00">MMQ618AoG6za5fErcbLTqn7gSBhBGVt16r_20180902_09h34m36s</text>
</g>
<!-- MMQ618AoG6za5fErcbLTqn7gSBhBGVt16r_20180902_09h06m18s&#45;&gt;MMQ618AoG6za5fErcbLTqn7gSBhBGVt16r_20180902_09h34m36s -->
<g id="edge10" class="edge"><title>MMQ618AoG6za5fErcbLTqn7gSBhBGVt16r_20180902_09h06m18s&#45;&gt;MMQ618AoG6za5fErcbLTqn7gSBhBGVt16r_20180902_09h34m36s</title>
<path fill="none" stroke="black" d="M804.577,-143.697C804.577,-135.983 804.577,-126.712 804.577,-118.112"/>
<polygon fill="black" stroke="black" points="808.077,-118.104 804.577,-108.104 801.077,-118.104 808.077,-118.104"/>
</g>
<!-- M8Fj6b7Dk76KjrGcxG3yFp3eufQMLKKs8t_20180902_08h55m53s -->
<g id="node2" class="node"><title>M8Fj6b7Dk76KjrGcxG3yFp3eufQMLKKs8t_20180902_08h55m53s</title>
<ellipse fill="none" stroke="black" cx="1020.58" cy="-450" rx="258.054" ry="18"/>
<text text-anchor="middle" x="1020.58" y="-446.3" font-family="Times,serif" font-size="14.00">M8Fj6b7Dk76KjrGcxG3yFp3eufQMLKKs8t_20180902_08h55m53s</text>
</g>
<!-- MMQ618AoG6za5fErcbLTqn7gSBhBGVt16r_20180902_08h55m53s -->
<g id="node3" class="node"><title>MMQ618AoG6za5fErcbLTqn7gSBhBGVt16r_20180902_08h55m53s</title>
<ellipse fill="none" stroke="black" cx="551.577" cy="-378" rx="261.054" ry="18"/>
<text text-anchor="middle" x="551.577" y="-374.3" font-family="Times,serif" font-size="14.00">MMQ618AoG6za5fErcbLTqn7gSBhBGVt16r_20180902_08h55m53s</text>
</g>
<!-- M8Fj6b7Dk76KjrGcxG3yFp3eufQMLKKs8t_20180902_08h55m53s&#45;&gt;MMQ618AoG6za5fErcbLTqn7gSBhBGVt16r_20180902_08h55m53s -->
<g id="edge2" class="edge"><title>M8Fj6b7Dk76KjrGcxG3yFp3eufQMLKKs8t_20180902_08h55m53s&#45;&gt;MMQ618AoG6za5fErcbLTqn7gSBhBGVt16r_20180902_08h55m53s</title>
<path fill="none" stroke="black" d="M916.781,-433.508C842.544,-422.428 742.627,-407.515 666.07,-396.089"/>
<polygon fill="black" stroke="black" points="666.312,-392.586 655.904,-394.571 665.278,-399.509 666.312,-392.586"/>
</g>
<!-- M8Fj6b7Dk76KjrGcxG3yFp3eufQMLKKs8t_20180902_08h56m58s -->
<g id="node4" class="node"><title>M8Fj6b7Dk76KjrGcxG3yFp3eufQMLKKs8t_20180902_08h56m58s</title>
<ellipse fill="none" stroke="black" cx="1088.58" cy="-378" rx="258.054" ry="18"/>
<text text-anchor="middle" x="1088.58" y="-374.3" font-family="Times,serif" font-size="14.00">M8Fj6b7Dk76KjrGcxG3yFp3eufQMLKKs8t_20180902_08h56m58s</text>
</g>
<!-- M8Fj6b7Dk76KjrGcxG3yFp3eufQMLKKs8t_20180902_08h55m53s&#45;&gt;M8Fj6b7Dk76KjrGcxG3yFp3eufQMLKKs8t_20180902_08h56m58s -->
<g id="edge17" class="edge"><title>M8Fj6b7Dk76KjrGcxG3yFp3eufQMLKKs8t_20180902_08h55m53s&#45;&gt;M8Fj6b7Dk76KjrGcxG3yFp3eufQMLKKs8t_20180902_08h56m58s</title>
<path fill="none" stroke="black" d="M1037.39,-431.697C1045.7,-423.135 1055.88,-412.656 1064.97,-403.304"/>
<polygon fill="black" stroke="black" points="1067.5,-405.716 1071.96,-396.104 1062.48,-400.838 1067.5,-405.716"/>
</g>
<!-- MMQ618AoG6za5fErcbLTqn7gSBhBGVt16r_20180902_08h56m58s -->
<g id="node5" class="node"><title>MMQ618AoG6za5fErcbLTqn7gSBhBGVt16r_20180902_08h56m58s</title>
<ellipse fill="none" stroke="black" cx="551.577" cy="-306" rx="261.054" ry="18"/>
<text text-anchor="middle" x="551.577" y="-302.3" font-family="Times,serif" font-size="14.00">MMQ618AoG6za5fErcbLTqn7gSBhBGVt16r_20180902_08h56m58s</text>
</g>
<!-- MMQ618AoG6za5fErcbLTqn7gSBhBGVt16r_20180902_08h55m53s&#45;&gt;MMQ618AoG6za5fErcbLTqn7gSBhBGVt16r_20180902_08h56m58s -->
<g id="edge14" class="edge"><title>MMQ618AoG6za5fErcbLTqn7gSBhBGVt16r_20180902_08h55m53s&#45;&gt;MMQ618AoG6za5fErcbLTqn7gSBhBGVt16r_20180902_08h56m58s</title>
<path fill="none" stroke="black" d="M551.577,-359.697C551.577,-351.983 551.577,-342.712 551.577,-334.112"/>
<polygon fill="black" stroke="black" points="555.077,-334.104 551.577,-324.104 548.077,-334.104 555.077,-334.104"/>
</g>
<!-- M8Fj6b7Dk76KjrGcxG3yFp3eufQMLKKs8t_20180902_08h56m58s&#45;&gt;MMQ618AoG6za5fErcbLTqn7gSBhBGVt16r_20180902_08h56m58s -->
<g id="edge3" class="edge"><title>M8Fj6b7Dk76KjrGcxG3yFp3eufQMLKKs8t_20180902_08h56m58s&#45;&gt;MMQ618AoG6za5fErcbLTqn7gSBhBGVt16r_20180902_08h56m58s</title>
<path fill="none" stroke="black" d="M972.717,-361.897C885.878,-350.577 767.141,-335.1 677.877,-323.464"/>
<polygon fill="black" stroke="black" points="678.06,-319.958 667.691,-322.136 677.155,-326.899 678.06,-319.958"/>
</g>
<!-- M8Fj6b7Dk76KjrGcxG3yFp3eufQMLKKs8t_20180902_09h04m38s -->
<g id="node7" class="node"><title>M8Fj6b7Dk76KjrGcxG3yFp3eufQMLKKs8t_20180902_09h04m38s</title>
<ellipse fill="none" stroke="black" cx="1088.58" cy="-306" rx="258.054" ry="18"/>
<text text-anchor="middle" x="1088.58" y="-302.3" font-family="Times,serif" font-size="14.00">M8Fj6b7Dk76KjrGcxG3yFp3eufQMLKKs8t_20180902_09h04m38s</text>
</g>
<!-- M8Fj6b7Dk76KjrGcxG3yFp3eufQMLKKs8t_20180902_08h56m58s&#45;&gt;M8Fj6b7Dk76KjrGcxG3yFp3eufQMLKKs8t_20180902_09h04m38s -->
<g id="edge8" class="edge"><title>M8Fj6b7Dk76KjrGcxG3yFp3eufQMLKKs8t_20180902_08h56m58s&#45;&gt;M8Fj6b7Dk76KjrGcxG3yFp3eufQMLKKs8t_20180902_09h04m38s</title>
<path fill="none" stroke="black" d="M1088.58,-359.697C1088.58,-351.983 1088.58,-342.712 1088.58,-334.112"/>
<polygon fill="black" stroke="black" points="1092.08,-334.104 1088.58,-324.104 1085.08,-334.104 1092.08,-334.104"/>
</g>
<!-- MMQ618AoG6za5fErcbLTqn7gSBhBGVt16r_20180902_09h04m38s -->
<g id="node6" class="node"><title>MMQ618AoG6za5fErcbLTqn7gSBhBGVt16r_20180902_09h04m38s</title>
<ellipse fill="none" stroke="black" cx="804.577" cy="-234" rx="261.054" ry="18"/>
<text text-anchor="middle" x="804.577" y="-230.3" font-family="Times,serif" font-size="14.00">MMQ618AoG6za5fErcbLTqn7gSBhBGVt16r_20180902_09h04m38s</text>
</g>
<!-- MMQ618AoG6za5fErcbLTqn7gSBhBGVt16r_20180902_08h56m58s&#45;&gt;MMQ618AoG6za5fErcbLTqn7gSBhBGVt16r_20180902_09h04m38s -->
<g id="edge5" class="edge"><title>MMQ618AoG6za5fErcbLTqn7gSBhBGVt16r_20180902_08h56m58s&#45;&gt;MMQ618AoG6za5fErcbLTqn7gSBhBGVt16r_20180902_09h04m38s</title>
<path fill="none" stroke="black" d="M611.534,-288.411C648.422,-278.205 695.863,-265.079 734.483,-254.393"/>
<polygon fill="black" stroke="black" points="735.907,-257.631 744.612,-251.591 734.04,-250.885 735.907,-257.631"/>
</g>
<!-- MMQ618AoG6za5fErcbLTqn7gSBhBGVt16r_20180902_09h04m38s&#45;&gt;MMQ618AoG6za5fErcbLTqn7gSBhBGVt16r_20180902_09h06m18s -->
<g id="edge4" class="edge"><title>MMQ618AoG6za5fErcbLTqn7gSBhBGVt16r_20180902_09h04m38s&#45;&gt;MMQ618AoG6za5fErcbLTqn7gSBhBGVt16r_20180902_09h06m18s</title>
<path fill="none" stroke="black" d="M804.577,-215.697C804.577,-207.983 804.577,-198.712 804.577,-190.112"/>
<polygon fill="black" stroke="black" points="808.077,-190.104 804.577,-180.104 801.077,-190.104 808.077,-190.104"/>
</g>
<!-- M8Fj6b7Dk76KjrGcxG3yFp3eufQMLKKs8t_20180902_09h04m38s&#45;&gt;MMQ618AoG6za5fErcbLTqn7gSBhBGVt16r_20180902_09h04m38s -->
<g id="edge6" class="edge"><title>M8Fj6b7Dk76KjrGcxG3yFp3eufQMLKKs8t_20180902_09h04m38s&#45;&gt;MMQ618AoG6za5fErcbLTqn7gSBhBGVt16r_20180902_09h04m38s</title>
<path fill="none" stroke="black" d="M1021.99,-288.588C979.771,-278.182 925.019,-264.687 881.024,-253.843"/>
<polygon fill="black" stroke="black" points="881.783,-250.425 871.236,-251.43 880.108,-257.222 881.783,-250.425"/>
</g>
<!-- MMQ618AoG6za5fErcbLTqn7gSBhBGVt16r_20180902_08h55m47s -->
<g id="node8" class="node"><title>MMQ618AoG6za5fErcbLTqn7gSBhBGVt16r_20180902_08h55m47s</title>
<ellipse fill="none" stroke="black" cx="330.577" cy="-450" rx="261.054" ry="18"/>
<text text-anchor="middle" x="330.577" y="-446.3" font-family="Times,serif" font-size="14.00">MMQ618AoG6za5fErcbLTqn7gSBhBGVt16r_20180902_08h55m47s</text>
</g>
<!-- MMQ618AoG6za5fErcbLTqn7gSBhBGVt16r_20180902_08h55m47s&#45;&gt;MMQ618AoG6za5fErcbLTqn7gSBhBGVt16r_20180902_08h55m53s -->
<g id="edge7" class="edge"><title>MMQ618AoG6za5fErcbLTqn7gSBhBGVt16r_20180902_08h55m47s&#45;&gt;MMQ618AoG6za5fErcbLTqn7gSBhBGVt16r_20180902_08h55m53s</title>
<path fill="none" stroke="black" d="M383.231,-432.322C415.07,-422.238 455.832,-409.327 489.27,-398.735"/>
<polygon fill="black" stroke="black" points="490.467,-402.027 498.943,-395.671 488.353,-395.354 490.467,-402.027"/>
</g>
<!-- MMQ618AoG6za5fErcbLTqn7gSBhBGVt16r_20180902_08h55m47s&#45;&gt;MMQ618AoG6za5fErcbLTqn7gSBhBGVt16r_20180902_08h55m47s -->
<g id="edge13" class="edge"><title>MMQ618AoG6za5fErcbLTqn7gSBhBGVt16r_20180902_08h55m47s&#45;&gt;MMQ618AoG6za5fErcbLTqn7gSBhBGVt16r_20180902_08h55m47s</title>
<path fill="none" stroke="black" d="M503.417,-463.499C562.394,-463.587 609.854,-459.088 609.854,-450 609.854,-441.445 567.793,-436.956 513.658,-436.533"/>
<polygon fill="black" stroke="black" points="513.428,-433.032 503.417,-436.501 513.406,-440.032 513.428,-433.032"/>
</g>
<!-- MGsG3Zc95j79nA5iJa5mHbDY5Nf37LsQVn_20180902_08h55m47s -->
<g id="node11" class="node"><title>MGsG3Zc95j79nA5iJa5mHbDY5Nf37LsQVn_20180902_08h55m47s</title>
<ellipse fill="none" stroke="black" cx="262.577" cy="-234" rx="262.653" ry="18"/>
<text text-anchor="middle" x="262.577" y="-230.3" font-family="Times,serif" font-size="14.00">MGsG3Zc95j79nA5iJa5mHbDY5Nf37LsQVn_20180902_08h55m47s</text>
</g>
<!-- MMQ618AoG6za5fErcbLTqn7gSBhBGVt16r_20180902_08h55m47s&#45;&gt;MGsG3Zc95j79nA5iJa5mHbDY5Nf37LsQVn_20180902_08h55m47s -->
<g id="edge11" class="edge"><title>MMQ618AoG6za5fErcbLTqn7gSBhBGVt16r_20180902_08h55m47s&#45;&gt;MGsG3Zc95j79nA5iJa5mHbDY5Nf37LsQVn_20180902_08h55m47s</title>
<path fill="none" stroke="black" d="M309.615,-432.051C299.404,-422.572 287.975,-409.885 281.577,-396 261.574,-352.595 259.747,-295.937 260.785,-262.703"/>
<polygon fill="black" stroke="black" points="264.296,-262.524 261.225,-252.384 257.302,-262.226 264.296,-262.524"/>
</g>
<!-- MGsG3Zc95j79nA5iJa5mHbDY5Nf37LsQVn_20180902_09h34m36s -->
<g id="node12" class="node"><title>MGsG3Zc95j79nA5iJa5mHbDY5Nf37LsQVn_20180902_09h34m36s</title>
<ellipse fill="none" stroke="black" cx="533.577" cy="-18" rx="262.653" ry="18"/>
<text text-anchor="middle" x="533.577" y="-14.3" font-family="Times,serif" font-size="14.00">MGsG3Zc95j79nA5iJa5mHbDY5Nf37LsQVn_20180902_09h34m36s</text>
</g>
<!-- MGsG3Zc95j79nA5iJa5mHbDY5Nf37LsQVn_20180902_09h06m18s&#45;&gt;MGsG3Zc95j79nA5iJa5mHbDY5Nf37LsQVn_20180902_09h34m36s -->
<g id="edge16" class="edge"><title>MGsG3Zc95j79nA5iJa5mHbDY5Nf37LsQVn_20180902_09h06m18s&#45;&gt;MGsG3Zc95j79nA5iJa5mHbDY5Nf37LsQVn_20180902_09h34m36s</title>
<path fill="none" stroke="black" d="M326.457,-72.4996C366.441,-62.1717 418.101,-48.8278 459.824,-38.0504"/>
<polygon fill="black" stroke="black" points="460.85,-41.4006 469.656,-35.5108 459.099,-34.623 460.85,-41.4006"/>
</g>
<!-- MMQ618AoG6za5fErcbLTqn7gSBhBGVt16r_20180902_09h34m36s&#45;&gt;MGsG3Zc95j79nA5iJa5mHbDY5Nf37LsQVn_20180902_09h34m36s -->
<g id="edge15" class="edge"><title>MMQ618AoG6za5fErcbLTqn7gSBhBGVt16r_20180902_09h34m36s&#45;&gt;MGsG3Zc95j79nA5iJa5mHbDY5Nf37LsQVn_20180902_09h34m36s</title>
<path fill="none" stroke="black" d="M740.697,-72.4996C700.713,-62.1717 649.053,-48.8278 607.329,-38.0504"/>
<polygon fill="black" stroke="black" points="608.055,-34.623 597.497,-35.5108 606.304,-41.4006 608.055,-34.623"/>
</g>
<!-- MGsG3Zc95j79nA5iJa5mHbDY5Nf37LsQVn_20180902_08h55m47s&#45;&gt;MGsG3Zc95j79nA5iJa5mHbDY5Nf37LsQVn_20180902_09h06m18s -->
<g id="edge12" class="edge"><title>MGsG3Zc95j79nA5iJa5mHbDY5Nf37LsQVn_20180902_08h55m47s&#45;&gt;MGsG3Zc95j79nA5iJa5mHbDY5Nf37LsQVn_20180902_09h06m18s</title>
<path fill="none" stroke="black" d="M262.577,-215.871C262.577,-191.67 262.577,-147.211 262.577,-118.393"/>
<polygon fill="black" stroke="black" points="266.077,-118.189 262.577,-108.189 259.077,-118.189 266.077,-118.189"/>
</g>
</g>
</svg>
