<?xml version="1.0" encoding="UTF-8" standalone="no"?>
<!DOCTYPE svg PUBLIC "-//W3C//DTD SVG 1.1//EN"
 "http://www.w3.org/Graphics/SVG/1.1/DTD/svg11.dtd">
<!-- Generated by graphviz version 2.38.0 (20140413.2041)
 -->
<!-- Title: G Pages: 1 -->
<svg width="4986pt" height="692pt"
 viewBox="0.00 0.00 4986.05 692.00" xmlns="http://www.w3.org/2000/svg" xmlns:xlink="http://www.w3.org/1999/xlink">
<g id="graph0" class="graph" transform="scale(1 1) rotate(0) translate(4 688)">
<title>G</title>
<polygon fill="white" stroke="none" points="-4,4 -4,-688 4982.05,-688 4982.05,4 -4,4"/>
<!-- MVPVmbbm7g3f9PF2xRV6RSoSnw8xfr8kNj_20180826_04h37m26s -->
<g id="node1" class="node"><title>MVPVmbbm7g3f9PF2xRV6RSoSnw8xfr8kNj_20180826_04h37m26s</title>
<ellipse fill="none" stroke="black" cx="2762.23" cy="-378" rx="263.753" ry="18"/>
<text text-anchor="middle" x="2762.23" y="-374.3" font-family="Times,serif" font-size="14.00">MVPVmbbm7g3f9PF2xRV6RSoSnw8xfr8kNj_20180826_04h37m26s</text>
</g>
<!-- MVPVmbbm7g3f9PF2xRV6RSoSnw8xfr8kNj_20180826_04h37m26s&#45;&gt;MVPVmbbm7g3f9PF2xRV6RSoSnw8xfr8kNj_20180826_04h37m26s -->
<g id="edge3" class="edge"><title>MVPVmbbm7g3f9PF2xRV6RSoSnw8xfr8kNj_20180826_04h37m26s&#45;&gt;MVPVmbbm7g3f9PF2xRV6RSoSnw8xfr8kNj_20180826_04h37m26s</title>
<path fill="none" stroke="black" d="M2937.02,-391.499C2996.39,-391.57 3044.1,-387.07 3044.1,-378 3044.1,-369.461 3001.81,-364.973 2947.33,-364.535"/>
<polygon fill="black" stroke="black" points="2947.03,-361.035 2937.02,-364.501 2947.01,-368.034 2947.03,-361.035"/>
</g>
<!-- MUS4NdhwNppYqWojogJxbaSFrBjuxbyfN3_20180826_04h37m26s -->
<g id="node2" class="node"><title>MUS4NdhwNppYqWojogJxbaSFrBjuxbyfN3_20180826_04h37m26s</title>
<ellipse fill="none" stroke="black" cx="3042.23" cy="-306" rx="259.954" ry="18"/>
<text text-anchor="middle" x="3042.23" y="-302.3" font-family="Times,serif" font-size="14.00">MUS4NdhwNppYqWojogJxbaSFrBjuxbyfN3_20180826_04h37m26s</text>
</g>
<!-- MVPVmbbm7g3f9PF2xRV6RSoSnw8xfr8kNj_20180826_04h37m26s&#45;&gt;MUS4NdhwNppYqWojogJxbaSFrBjuxbyfN3_20180826_04h37m26s -->
<g id="edge1" class="edge"><title>MVPVmbbm7g3f9PF2xRV6RSoSnw8xfr8kNj_20180826_04h37m26s&#45;&gt;MUS4NdhwNppYqWojogJxbaSFrBjuxbyfN3_20180826_04h37m26s</title>
<path fill="none" stroke="black" d="M2828.23,-360.5C2869.63,-350.15 2923.14,-336.771 2966.3,-325.982"/>
<polygon fill="black" stroke="black" points="2967.33,-329.332 2976.18,-323.511 2965.63,-322.541 2967.33,-329.332"/>
</g>
<!-- MUS4NdhwNppYqWojogJxbaSFrBjuxbyfN3_20180830_21h32m18s -->
<g id="node17" class="node"><title>MUS4NdhwNppYqWojogJxbaSFrBjuxbyfN3_20180830_21h32m18s</title>
<ellipse fill="none" stroke="black" cx="3042.23" cy="-234" rx="259.954" ry="18"/>
<text text-anchor="middle" x="3042.23" y="-230.3" font-family="Times,serif" font-size="14.00">MUS4NdhwNppYqWojogJxbaSFrBjuxbyfN3_20180830_21h32m18s</text>
</g>
<!-- MUS4NdhwNppYqWojogJxbaSFrBjuxbyfN3_20180826_04h37m26s&#45;&gt;MUS4NdhwNppYqWojogJxbaSFrBjuxbyfN3_20180830_21h32m18s -->
<g id="edge14" class="edge"><title>MUS4NdhwNppYqWojogJxbaSFrBjuxbyfN3_20180826_04h37m26s&#45;&gt;MUS4NdhwNppYqWojogJxbaSFrBjuxbyfN3_20180830_21h32m18s</title>
<path fill="none" stroke="black" d="M3042.23,-287.697C3042.23,-279.983 3042.23,-270.712 3042.23,-262.112"/>
<polygon fill="black" stroke="black" points="3045.73,-262.104 3042.23,-252.104 3038.73,-262.104 3045.73,-262.104"/>
</g>
<!-- MHLv4rDS4Hma6tGdk8TLwV4Nfd5A7PgSwc_20180804_05h43m05s -->
<g id="node3" class="node"><title>MHLv4rDS4Hma6tGdk8TLwV4Nfd5A7PgSwc_20180804_05h43m05s</title>
<ellipse fill="none" stroke="black" cx="4435.23" cy="-522" rx="268.352" ry="18"/>
<text text-anchor="middle" x="4435.23" y="-518.3" font-family="Times,serif" font-size="14.00">MHLv4rDS4Hma6tGdk8TLwV4Nfd5A7PgSwc_20180804_05h43m05s</text>
</g>
<!-- M9SGcHSX9HGHGhBUXYt15Ypco6vATNzME2_20180804_05h43m05s -->
<g id="node4" class="node"><title>M9SGcHSX9HGHGhBUXYt15Ypco6vATNzME2_20180804_05h43m05s</title>
<ellipse fill="none" stroke="black" cx="3879.23" cy="-450" rx="279.45" ry="18"/>
<text text-anchor="middle" x="3879.23" y="-446.3" font-family="Times,serif" font-size="14.00">M9SGcHSX9HGHGhBUXYt15Ypco6vATNzME2_20180804_05h43m05s</text>
</g>
<!-- MHLv4rDS4Hma6tGdk8TLwV4Nfd5A7PgSwc_20180804_05h43m05s&#45;&gt;M9SGcHSX9HGHGhBUXYt15Ypco6vATNzME2_20180804_05h43m05s -->
<g id="edge2" class="edge"><title>MHLv4rDS4Hma6tGdk8TLwV4Nfd5A7PgSwc_20180804_05h43m05s&#45;&gt;M9SGcHSX9HGHGhBUXYt15Ypco6vATNzME2_20180804_05h43m05s</title>
<path fill="none" stroke="black" d="M4315.27,-505.897C4225.48,-494.593 4102.76,-479.143 4010.38,-467.513"/>
<polygon fill="black" stroke="black" points="4010.77,-464.033 4000.41,-466.257 4009.89,-470.979 4010.77,-464.033"/>
</g>
<!-- MQYvri9RMHvwxL8zDWByZQxqEghqnZPj2t_20180804_05h43m05s -->
<g id="node27" class="node"><title>MQYvri9RMHvwxL8zDWByZQxqEghqnZPj2t_20180804_05h43m05s</title>
<ellipse fill="none" stroke="black" cx="4445.23" cy="-450" rx="268.352" ry="18"/>
<text text-anchor="middle" x="4445.23" y="-446.3" font-family="Times,serif" font-size="14.00">MQYvri9RMHvwxL8zDWByZQxqEghqnZPj2t_20180804_05h43m05s</text>
</g>
<!-- MHLv4rDS4Hma6tGdk8TLwV4Nfd5A7PgSwc_20180804_05h43m05s&#45;&gt;MQYvri9RMHvwxL8zDWByZQxqEghqnZPj2t_20180804_05h43m05s -->
<g id="edge24" class="edge"><title>MHLv4rDS4Hma6tGdk8TLwV4Nfd5A7PgSwc_20180804_05h43m05s&#45;&gt;MQYvri9RMHvwxL8zDWByZQxqEghqnZPj2t_20180804_05h43m05s</title>
<path fill="none" stroke="black" d="M4437.7,-503.697C4438.8,-495.983 4440.12,-486.712 4441.35,-478.112"/>
<polygon fill="black" stroke="black" points="4444.83,-478.499 4442.78,-468.104 4437.9,-477.509 4444.83,-478.499"/>
</g>
<!-- MC7JWqUyPx5K21hHunDYJPSzpojBr4GVoe_20180803_14h24m50s -->
<g id="node5" class="node"><title>MC7JWqUyPx5K21hHunDYJPSzpojBr4GVoe_20180803_14h24m50s</title>
<ellipse fill="none" stroke="black" cx="3601.23" cy="-666" rx="265.353" ry="18"/>
<text text-anchor="middle" x="3601.23" y="-662.3" font-family="Times,serif" font-size="14.00">MC7JWqUyPx5K21hHunDYJPSzpojBr4GVoe_20180803_14h24m50s</text>
</g>
<!-- MVPVmbbm7g3f9PF2xRV6RSoSnw8xfr8kNj_20180803_14h24m50s -->
<g id="node6" class="node"><title>MVPVmbbm7g3f9PF2xRV6RSoSnw8xfr8kNj_20180803_14h24m50s</title>
<ellipse fill="none" stroke="black" cx="3328.23" cy="-594" rx="263.753" ry="18"/>
<text text-anchor="middle" x="3328.23" y="-590.3" font-family="Times,serif" font-size="14.00">MVPVmbbm7g3f9PF2xRV6RSoSnw8xfr8kNj_20180803_14h24m50s</text>
</g>
<!-- MC7JWqUyPx5K21hHunDYJPSzpojBr4GVoe_20180803_14h24m50s&#45;&gt;MVPVmbbm7g3f9PF2xRV6RSoSnw8xfr8kNj_20180803_14h24m50s -->
<g id="edge4" class="edge"><title>MC7JWqUyPx5K21hHunDYJPSzpojBr4GVoe_20180803_14h24m50s&#45;&gt;MVPVmbbm7g3f9PF2xRV6RSoSnw8xfr8kNj_20180803_14h24m50s</title>
<path fill="none" stroke="black" d="M3536.87,-648.5C3496.59,-638.172 3444.55,-624.828 3402.52,-614.05"/>
<polygon fill="black" stroke="black" points="3403.17,-610.604 3392.62,-611.511 3401.43,-617.385 3403.17,-610.604"/>
</g>
<!-- MUS4NdhwNppYqWojogJxbaSFrBjuxbyfN3_20180803_14h24m50s -->
<g id="node28" class="node"><title>MUS4NdhwNppYqWojogJxbaSFrBjuxbyfN3_20180803_14h24m50s</title>
<ellipse fill="none" stroke="black" cx="3874.23" cy="-594" rx="259.954" ry="18"/>
<text text-anchor="middle" x="3874.23" y="-590.3" font-family="Times,serif" font-size="14.00">MUS4NdhwNppYqWojogJxbaSFrBjuxbyfN3_20180803_14h24m50s</text>
</g>
<!-- MC7JWqUyPx5K21hHunDYJPSzpojBr4GVoe_20180803_14h24m50s&#45;&gt;MUS4NdhwNppYqWojogJxbaSFrBjuxbyfN3_20180803_14h24m50s -->
<g id="edge25" class="edge"><title>MC7JWqUyPx5K21hHunDYJPSzpojBr4GVoe_20180803_14h24m50s&#45;&gt;MUS4NdhwNppYqWojogJxbaSFrBjuxbyfN3_20180803_14h24m50s</title>
<path fill="none" stroke="black" d="M3665.58,-648.5C3705.86,-638.172 3757.9,-624.828 3799.93,-614.05"/>
<polygon fill="black" stroke="black" points="3801.02,-617.385 3809.83,-611.511 3799.28,-610.604 3801.02,-617.385"/>
</g>
<!-- MVPVmbbm7g3f9PF2xRV6RSoSnw8xfr8kNj_20180826_01h31m21s -->
<g id="node7" class="node"><title>MVPVmbbm7g3f9PF2xRV6RSoSnw8xfr8kNj_20180826_01h31m21s</title>
<ellipse fill="none" stroke="black" cx="3319.23" cy="-522" rx="263.753" ry="18"/>
<text text-anchor="middle" x="3319.23" y="-518.3" font-family="Times,serif" font-size="14.00">MVPVmbbm7g3f9PF2xRV6RSoSnw8xfr8kNj_20180826_01h31m21s</text>
</g>
<!-- MVPVmbbm7g3f9PF2xRV6RSoSnw8xfr8kNj_20180803_14h24m50s&#45;&gt;MVPVmbbm7g3f9PF2xRV6RSoSnw8xfr8kNj_20180826_01h31m21s -->
<g id="edge9" class="edge"><title>MVPVmbbm7g3f9PF2xRV6RSoSnw8xfr8kNj_20180803_14h24m50s&#45;&gt;MVPVmbbm7g3f9PF2xRV6RSoSnw8xfr8kNj_20180826_01h31m21s</title>
<path fill="none" stroke="black" d="M3326,-575.697C3325.01,-567.983 3323.82,-558.712 3322.71,-550.112"/>
<polygon fill="black" stroke="black" points="3326.17,-549.576 3321.42,-540.104 3319.23,-550.469 3326.17,-549.576"/>
</g>
<!-- MVPVmbbm7g3f9PF2xRV6RSoSnw8xfr8kNj_20180826_01h31m21s&#45;&gt;MVPVmbbm7g3f9PF2xRV6RSoSnw8xfr8kNj_20180826_01h31m21s -->
<g id="edge5" class="edge"><title>MVPVmbbm7g3f9PF2xRV6RSoSnw8xfr8kNj_20180826_01h31m21s&#45;&gt;MVPVmbbm7g3f9PF2xRV6RSoSnw8xfr8kNj_20180826_01h31m21s</title>
<path fill="none" stroke="black" d="M3494.02,-535.499C3553.39,-535.57 3601.1,-531.07 3601.1,-522 3601.1,-513.461 3558.81,-508.973 3504.33,-508.535"/>
<polygon fill="black" stroke="black" points="3504.03,-505.035 3494.02,-508.501 3504.01,-512.034 3504.03,-505.035"/>
</g>
<!-- MVPVmbbm7g3f9PF2xRV6RSoSnw8xfr8kNj_20180826_02h30m45s -->
<g id="node14" class="node"><title>MVPVmbbm7g3f9PF2xRV6RSoSnw8xfr8kNj_20180826_02h30m45s</title>
<ellipse fill="none" stroke="black" cx="2762.23" cy="-450" rx="263.753" ry="18"/>
<text text-anchor="middle" x="2762.23" y="-446.3" font-family="Times,serif" font-size="14.00">MVPVmbbm7g3f9PF2xRV6RSoSnw8xfr8kNj_20180826_02h30m45s</text>
</g>
<!-- MVPVmbbm7g3f9PF2xRV6RSoSnw8xfr8kNj_20180826_01h31m21s&#45;&gt;MVPVmbbm7g3f9PF2xRV6RSoSnw8xfr8kNj_20180826_02h30m45s -->
<g id="edge10" class="edge"><title>MVPVmbbm7g3f9PF2xRV6RSoSnw8xfr8kNj_20180826_01h31m21s&#45;&gt;MVPVmbbm7g3f9PF2xRV6RSoSnw8xfr8kNj_20180826_02h30m45s</title>
<path fill="none" stroke="black" d="M3199.39,-505.94C3109,-494.581 2985.15,-479.016 2892.35,-467.353"/>
<polygon fill="black" stroke="black" points="2892.69,-463.868 2882.33,-466.094 2891.82,-470.814 2892.69,-463.868"/>
</g>
<!-- MUS4NdhwNppYqWojogJxbaSFrBjuxbyfN3_20180826_01h31m21s -->
<g id="node26" class="node"><title>MUS4NdhwNppYqWojogJxbaSFrBjuxbyfN3_20180826_01h31m21s</title>
<ellipse fill="none" stroke="black" cx="3322.23" cy="-450" rx="259.954" ry="18"/>
<text text-anchor="middle" x="3322.23" y="-446.3" font-family="Times,serif" font-size="14.00">MUS4NdhwNppYqWojogJxbaSFrBjuxbyfN3_20180826_01h31m21s</text>
</g>
<!-- MVPVmbbm7g3f9PF2xRV6RSoSnw8xfr8kNj_20180826_01h31m21s&#45;&gt;MUS4NdhwNppYqWojogJxbaSFrBjuxbyfN3_20180826_01h31m21s -->
<g id="edge47" class="edge"><title>MVPVmbbm7g3f9PF2xRV6RSoSnw8xfr8kNj_20180826_01h31m21s&#45;&gt;MUS4NdhwNppYqWojogJxbaSFrBjuxbyfN3_20180826_01h31m21s</title>
<path fill="none" stroke="black" d="M3319.97,-503.697C3320.3,-495.983 3320.69,-486.712 3321.06,-478.112"/>
<polygon fill="black" stroke="black" points="3324.56,-478.245 3321.49,-468.104 3317.57,-477.945 3324.56,-478.245"/>
</g>
<!-- MUS4NdhwNppYqWojogJxbaSFrBjuxbyfN3_20180902_19h54m09s -->
<g id="node8" class="node"><title>MUS4NdhwNppYqWojogJxbaSFrBjuxbyfN3_20180902_19h54m09s</title>
<ellipse fill="none" stroke="black" cx="1952.23" cy="-90" rx="259.954" ry="18"/>
<text text-anchor="middle" x="1952.23" y="-86.3" font-family="Times,serif" font-size="14.00">MUS4NdhwNppYqWojogJxbaSFrBjuxbyfN3_20180902_19h54m09s</text>
</g>
<!-- MRh1hxxiD53xz5PiDqZqL7duDgkBu67P7W_20180902_19h54m09s -->
<g id="node9" class="node"><title>MRh1hxxiD53xz5PiDqZqL7duDgkBu67P7W_20180902_19h54m09s</title>
<ellipse fill="none" stroke="black" cx="2493.23" cy="-18" rx="260.754" ry="18"/>
<text text-anchor="middle" x="2493.23" y="-14.3" font-family="Times,serif" font-size="14.00">MRh1hxxiD53xz5PiDqZqL7duDgkBu67P7W_20180902_19h54m09s</text>
</g>
<!-- MUS4NdhwNppYqWojogJxbaSFrBjuxbyfN3_20180902_19h54m09s&#45;&gt;MRh1hxxiD53xz5PiDqZqL7duDgkBu67P7W_20180902_19h54m09s -->
<g id="edge6" class="edge"><title>MUS4NdhwNppYqWojogJxbaSFrBjuxbyfN3_20180902_19h54m09s&#45;&gt;MRh1hxxiD53xz5PiDqZqL7duDgkBu67P7W_20180902_19h54m09s</title>
<path fill="none" stroke="black" d="M2068.95,-73.8972C2156.52,-62.566 2276.3,-47.0683 2366.26,-35.4284"/>
<polygon fill="black" stroke="black" points="2366.78,-38.8904 2376.25,-34.136 2365.88,-31.9482 2366.78,-38.8904"/>
</g>
<!-- MTYLt6M5U633pZn3jj4JjTUkoAru1DKpmp_20180902_19h54m09s -->
<g id="node11" class="node"><title>MTYLt6M5U633pZn3jj4JjTUkoAru1DKpmp_20180902_19h54m09s</title>
<ellipse fill="none" stroke="black" cx="3038.23" cy="-18" rx="261.054" ry="18"/>
<text text-anchor="middle" x="3038.23" y="-14.3" font-family="Times,serif" font-size="14.00">MTYLt6M5U633pZn3jj4JjTUkoAru1DKpmp_20180902_19h54m09s</text>
</g>
<!-- MUS4NdhwNppYqWojogJxbaSFrBjuxbyfN3_20180902_19h54m09s&#45;&gt;MTYLt6M5U633pZn3jj4JjTUkoAru1DKpmp_20180902_19h54m09s -->
<g id="edge33" class="edge"><title>MUS4NdhwNppYqWojogJxbaSFrBjuxbyfN3_20180902_19h54m09s&#45;&gt;MTYLt6M5U633pZn3jj4JjTUkoAru1DKpmp_20180902_19h54m09s</title>
<path fill="none" stroke="black" d="M2135.22,-77.2046C2331.99,-64.5217 2643.54,-44.44 2844.4,-31.4933"/>
<polygon fill="black" stroke="black" points="2844.72,-34.9798 2854.48,-30.8438 2844.27,-27.9943 2844.72,-34.9798"/>
</g>
<!-- MGsG3Zc95j79nA5iJa5mHbDY5Nf37LsQVn_20180902_19h54m09s -->
<g id="node10" class="node"><title>MGsG3Zc95j79nA5iJa5mHbDY5Nf37LsQVn_20180902_19h54m09s</title>
<ellipse fill="none" stroke="black" cx="2493.23" cy="-90" rx="262.653" ry="18"/>
<text text-anchor="middle" x="2493.23" y="-86.3" font-family="Times,serif" font-size="14.00">MGsG3Zc95j79nA5iJa5mHbDY5Nf37LsQVn_20180902_19h54m09s</text>
</g>
<!-- MGsG3Zc95j79nA5iJa5mHbDY5Nf37LsQVn_20180902_19h54m09s&#45;&gt;MRh1hxxiD53xz5PiDqZqL7duDgkBu67P7W_20180902_19h54m09s -->
<g id="edge29" class="edge"><title>MGsG3Zc95j79nA5iJa5mHbDY5Nf37LsQVn_20180902_19h54m09s&#45;&gt;MRh1hxxiD53xz5PiDqZqL7duDgkBu67P7W_20180902_19h54m09s</title>
<path fill="none" stroke="black" d="M2493.23,-71.6966C2493.23,-63.9827 2493.23,-54.7125 2493.23,-46.1124"/>
<polygon fill="black" stroke="black" points="2496.73,-46.1043 2493.23,-36.1043 2489.73,-46.1044 2496.73,-46.1043"/>
</g>
<!-- MGsG3Zc95j79nA5iJa5mHbDY5Nf37LsQVn_20180902_19h54m09s&#45;&gt;MTYLt6M5U633pZn3jj4JjTUkoAru1DKpmp_20180902_19h54m09s -->
<g id="edge7" class="edge"><title>MGsG3Zc95j79nA5iJa5mHbDY5Nf37LsQVn_20180902_19h54m09s&#45;&gt;MTYLt6M5U633pZn3jj4JjTUkoAru1DKpmp_20180902_19h54m09s</title>
<path fill="none" stroke="black" d="M2610.81,-73.8972C2699.03,-62.566 2819.69,-47.0683 2910.32,-35.4284"/>
<polygon fill="black" stroke="black" points="2910.91,-38.8815 2920.38,-34.136 2910.02,-31.9385 2910.91,-38.8815"/>
</g>
<!-- ML2e8PYj2UA7gghC9PJPLzUTCRjCoZohpq_20180830_21h32m18s -->
<g id="node12" class="node"><title>ML2e8PYj2UA7gghC9PJPLzUTCRjCoZohpq_20180830_21h32m18s</title>
<ellipse fill="none" stroke="black" cx="833.225" cy="-234" rx="262.653" ry="18"/>
<text text-anchor="middle" x="833.225" y="-230.3" font-family="Times,serif" font-size="14.00">ML2e8PYj2UA7gghC9PJPLzUTCRjCoZohpq_20180830_21h32m18s</text>
</g>
<!-- MH7iB3uiHMtCmrvgFP3as3Y8vNKRhj2FdE_20180830_21h32m18s -->
<g id="node13" class="node"><title>MH7iB3uiHMtCmrvgFP3as3Y8vNKRhj2FdE_20180830_21h32m18s</title>
<ellipse fill="none" stroke="black" cx="1374.23" cy="-162" rx="261.854" ry="18"/>
<text text-anchor="middle" x="1374.23" y="-158.3" font-family="Times,serif" font-size="14.00">MH7iB3uiHMtCmrvgFP3as3Y8vNKRhj2FdE_20180830_21h32m18s</text>
</g>
<!-- ML2e8PYj2UA7gghC9PJPLzUTCRjCoZohpq_20180830_21h32m18s&#45;&gt;MH7iB3uiHMtCmrvgFP3as3Y8vNKRhj2FdE_20180830_21h32m18s -->
<g id="edge8" class="edge"><title>ML2e8PYj2UA7gghC9PJPLzUTCRjCoZohpq_20180830_21h32m18s&#45;&gt;MH7iB3uiHMtCmrvgFP3as3Y8vNKRhj2FdE_20180830_21h32m18s</title>
<path fill="none" stroke="black" d="M950.281,-217.854C1037.88,-206.52 1157.55,-191.036 1247.41,-179.408"/>
<polygon fill="black" stroke="black" points="1247.92,-182.872 1257.39,-178.118 1247.02,-175.93 1247.92,-182.872"/>
</g>
<!-- MHwGjxKHhU1c3ZhqSH9VwHoMApe9bZP5qn_20180830_21h32m18s -->
<g id="node16" class="node"><title>MHwGjxKHhU1c3ZhqSH9VwHoMApe9bZP5qn_20180830_21h32m18s</title>
<ellipse fill="none" stroke="black" cx="1928.23" cy="-162" rx="274.052" ry="18"/>
<text text-anchor="middle" x="1928.23" y="-158.3" font-family="Times,serif" font-size="14.00">MHwGjxKHhU1c3ZhqSH9VwHoMApe9bZP5qn_20180830_21h32m18s</text>
</g>
<!-- ML2e8PYj2UA7gghC9PJPLzUTCRjCoZohpq_20180830_21h32m18s&#45;&gt;MHwGjxKHhU1c3ZhqSH9VwHoMApe9bZP5qn_20180830_21h32m18s -->
<g id="edge27" class="edge"><title>ML2e8PYj2UA7gghC9PJPLzUTCRjCoZohpq_20180830_21h32m18s&#45;&gt;MHwGjxKHhU1c3ZhqSH9VwHoMApe9bZP5qn_20180830_21h32m18s</title>
<path fill="none" stroke="black" d="M1018.05,-221.185C1215.3,-208.575 1526.7,-188.668 1729.23,-175.721"/>
<polygon fill="black" stroke="black" points="1729.63,-179.203 1739.39,-175.072 1729.19,-172.217 1729.63,-179.203"/>
</g>
<!-- MVPVmbbm7g3f9PF2xRV6RSoSnw8xfr8kNj_20180826_02h30m45s&#45;&gt;MVPVmbbm7g3f9PF2xRV6RSoSnw8xfr8kNj_20180826_04h37m26s -->
<g id="edge44" class="edge"><title>MVPVmbbm7g3f9PF2xRV6RSoSnw8xfr8kNj_20180826_02h30m45s&#45;&gt;MVPVmbbm7g3f9PF2xRV6RSoSnw8xfr8kNj_20180826_04h37m26s</title>
<path fill="none" stroke="black" d="M2762.23,-431.697C2762.23,-423.983 2762.23,-414.712 2762.23,-406.112"/>
<polygon fill="black" stroke="black" points="2765.73,-406.104 2762.23,-396.104 2758.73,-406.104 2765.73,-406.104"/>
</g>
<!-- MVPVmbbm7g3f9PF2xRV6RSoSnw8xfr8kNj_20180826_02h30m45s&#45;&gt;MVPVmbbm7g3f9PF2xRV6RSoSnw8xfr8kNj_20180826_02h30m45s -->
<g id="edge46" class="edge"><title>MVPVmbbm7g3f9PF2xRV6RSoSnw8xfr8kNj_20180826_02h30m45s&#45;&gt;MVPVmbbm7g3f9PF2xRV6RSoSnw8xfr8kNj_20180826_02h30m45s</title>
<path fill="none" stroke="black" d="M2937.02,-463.499C2996.39,-463.57 3044.1,-459.07 3044.1,-450 3044.1,-441.461 3001.81,-436.973 2947.33,-436.535"/>
<polygon fill="black" stroke="black" points="2947.03,-433.035 2937.02,-436.501 2947.01,-440.034 2947.03,-433.035"/>
</g>
<!-- MUS4NdhwNppYqWojogJxbaSFrBjuxbyfN3_20180826_02h30m45s -->
<g id="node20" class="node"><title>MUS4NdhwNppYqWojogJxbaSFrBjuxbyfN3_20180826_02h30m45s</title>
<ellipse fill="none" stroke="black" cx="3322.23" cy="-378" rx="259.954" ry="18"/>
<text text-anchor="middle" x="3322.23" y="-374.3" font-family="Times,serif" font-size="14.00">MUS4NdhwNppYqWojogJxbaSFrBjuxbyfN3_20180826_02h30m45s</text>
</g>
<!-- MVPVmbbm7g3f9PF2xRV6RSoSnw8xfr8kNj_20180826_02h30m45s&#45;&gt;MUS4NdhwNppYqWojogJxbaSFrBjuxbyfN3_20180826_02h30m45s -->
<g id="edge16" class="edge"><title>MVPVmbbm7g3f9PF2xRV6RSoSnw8xfr8kNj_20180826_02h30m45s&#45;&gt;MUS4NdhwNppYqWojogJxbaSFrBjuxbyfN3_20180826_02h30m45s</title>
<path fill="none" stroke="black" d="M2882.7,-433.94C2973.73,-422.561 3098.52,-406.963 3191.88,-395.293"/>
<polygon fill="black" stroke="black" points="3192.47,-398.747 3201.95,-394.034 3191.6,-391.801 3192.47,-398.747"/>
</g>
<!-- MXDvAy8sHKtxgpDZrJU9FjX5CVap8Ve9ku_20180830_21h32m18s -->
<g id="node15" class="node"><title>MXDvAy8sHKtxgpDZrJU9FjX5CVap8Ve9ku_20180830_21h32m18s</title>
<ellipse fill="none" stroke="black" cx="1377.23" cy="-234" rx="263.453" ry="18"/>
<text text-anchor="middle" x="1377.23" y="-230.3" font-family="Times,serif" font-size="14.00">MXDvAy8sHKtxgpDZrJU9FjX5CVap8Ve9ku_20180830_21h32m18s</text>
</g>
<!-- MXDvAy8sHKtxgpDZrJU9FjX5CVap8Ve9ku_20180830_21h32m18s&#45;&gt;MH7iB3uiHMtCmrvgFP3as3Y8vNKRhj2FdE_20180830_21h32m18s -->
<g id="edge32" class="edge"><title>MXDvAy8sHKtxgpDZrJU9FjX5CVap8Ve9ku_20180830_21h32m18s&#45;&gt;MH7iB3uiHMtCmrvgFP3as3Y8vNKRhj2FdE_20180830_21h32m18s</title>
<path fill="none" stroke="black" d="M1376.48,-215.697C1376.15,-207.983 1375.76,-198.712 1375.39,-190.112"/>
<polygon fill="black" stroke="black" points="1378.88,-189.945 1374.96,-180.104 1371.89,-190.245 1378.88,-189.945"/>
</g>
<!-- MXDvAy8sHKtxgpDZrJU9FjX5CVap8Ve9ku_20180830_21h32m18s&#45;&gt;MHwGjxKHhU1c3ZhqSH9VwHoMApe9bZP5qn_20180830_21h32m18s -->
<g id="edge11" class="edge"><title>MXDvAy8sHKtxgpDZrJU9FjX5CVap8Ve9ku_20180830_21h32m18s&#45;&gt;MHwGjxKHhU1c3ZhqSH9VwHoMApe9bZP5qn_20180830_21h32m18s</title>
<path fill="none" stroke="black" d="M1496.11,-217.897C1584.99,-206.605 1706.45,-191.174 1797.97,-179.548"/>
<polygon fill="black" stroke="black" points="1798.65,-182.989 1808.13,-178.257 1797.77,-176.045 1798.65,-182.989"/>
</g>
<!-- MUS4NdhwNppYqWojogJxbaSFrBjuxbyfN3_20180830_21h32m18s&#45;&gt;MH7iB3uiHMtCmrvgFP3as3Y8vNKRhj2FdE_20180830_21h32m18s -->
<g id="edge48" class="edge"><title>MUS4NdhwNppYqWojogJxbaSFrBjuxbyfN3_20180830_21h32m18s&#45;&gt;MH7iB3uiHMtCmrvgFP3as3Y8vNKRhj2FdE_20180830_21h32m18s</title>
<path fill="none" stroke="black" d="M2863.21,-220.904C2833.17,-219.099 2802.32,-217.383 2773.23,-216 2272.2,-192.179 2146.25,-203.704 1645.23,-180 1619.23,-178.77 1591.85,-177.281 1564.89,-175.7"/>
<polygon fill="black" stroke="black" points="1564.77,-172.187 1554.58,-175.09 1564.35,-179.175 1564.77,-172.187"/>
</g>
<!-- MUS4NdhwNppYqWojogJxbaSFrBjuxbyfN3_20180830_21h32m18s&#45;&gt;MHwGjxKHhU1c3ZhqSH9VwHoMApe9bZP5qn_20180830_21h32m18s -->
<g id="edge12" class="edge"><title>MUS4NdhwNppYqWojogJxbaSFrBjuxbyfN3_20180830_21h32m18s&#45;&gt;MHwGjxKHhU1c3ZhqSH9VwHoMApe9bZP5qn_20180830_21h32m18s</title>
<path fill="none" stroke="black" d="M2857.37,-221.306C2829.18,-219.526 2800.43,-217.713 2773.23,-216 2552.98,-202.133 2300.44,-186.303 2129.23,-175.581"/>
<polygon fill="black" stroke="black" points="2129.3,-172.078 2119.1,-174.946 2128.86,-179.064 2129.3,-172.078"/>
</g>
<!-- MUS4NdhwNppYqWojogJxbaSFrBjuxbyfN3_20180902_10h35m36s -->
<g id="node29" class="node"><title>MUS4NdhwNppYqWojogJxbaSFrBjuxbyfN3_20180902_10h35m36s</title>
<ellipse fill="none" stroke="black" cx="3042.23" cy="-162" rx="259.954" ry="18"/>
<text text-anchor="middle" x="3042.23" y="-158.3" font-family="Times,serif" font-size="14.00">MUS4NdhwNppYqWojogJxbaSFrBjuxbyfN3_20180902_10h35m36s</text>
</g>
<!-- MUS4NdhwNppYqWojogJxbaSFrBjuxbyfN3_20180830_21h32m18s&#45;&gt;MUS4NdhwNppYqWojogJxbaSFrBjuxbyfN3_20180902_10h35m36s -->
<g id="edge30" class="edge"><title>MUS4NdhwNppYqWojogJxbaSFrBjuxbyfN3_20180830_21h32m18s&#45;&gt;MUS4NdhwNppYqWojogJxbaSFrBjuxbyfN3_20180902_10h35m36s</title>
<path fill="none" stroke="black" d="M3042.23,-215.697C3042.23,-207.983 3042.23,-198.712 3042.23,-190.112"/>
<polygon fill="black" stroke="black" points="3045.73,-190.104 3042.23,-180.104 3038.73,-190.104 3045.73,-190.104"/>
</g>
<!-- MREPJ21ejZVS57LvCB8wyuADXMwFvDFhUL_20180902_10h35m36s -->
<g id="node18" class="node"><title>MREPJ21ejZVS57LvCB8wyuADXMwFvDFhUL_20180902_10h35m36s</title>
<ellipse fill="none" stroke="black" cx="3596.23" cy="-162" rx="275.651" ry="18"/>
<text text-anchor="middle" x="3596.23" y="-158.3" font-family="Times,serif" font-size="14.00">MREPJ21ejZVS57LvCB8wyuADXMwFvDFhUL_20180902_10h35m36s</text>
</g>
<!-- MTYLt6M5U633pZn3jj4JjTUkoAru1DKpmp_20180902_10h35m36s -->
<g id="node19" class="node"><title>MTYLt6M5U633pZn3jj4JjTUkoAru1DKpmp_20180902_10h35m36s</title>
<ellipse fill="none" stroke="black" cx="4159.23" cy="-90" rx="261.054" ry="18"/>
<text text-anchor="middle" x="4159.23" y="-86.3" font-family="Times,serif" font-size="14.00">MTYLt6M5U633pZn3jj4JjTUkoAru1DKpmp_20180902_10h35m36s</text>
</g>
<!-- MREPJ21ejZVS57LvCB8wyuADXMwFvDFhUL_20180902_10h35m36s&#45;&gt;MTYLt6M5U633pZn3jj4JjTUkoAru1DKpmp_20180902_10h35m36s -->
<g id="edge13" class="edge"><title>MREPJ21ejZVS57LvCB8wyuADXMwFvDFhUL_20180902_10h35m36s&#45;&gt;MTYLt6M5U633pZn3jj4JjTUkoAru1DKpmp_20180902_10h35m36s</title>
<path fill="none" stroke="black" d="M3718.39,-145.811C3809.97,-134.424 3935.1,-118.866 4028.66,-107.234"/>
<polygon fill="black" stroke="black" points="4029.26,-110.686 4038.75,-105.979 4028.4,-103.74 4029.26,-110.686"/>
</g>
<!-- MLYacPEB93AZJPGpp1YSbvMrznXCKBLd9m_20180902_10h35m36s -->
<g id="node24" class="node"><title>MLYacPEB93AZJPGpp1YSbvMrznXCKBLd9m_20180902_10h35m36s</title>
<ellipse fill="none" stroke="black" cx="3606.23" cy="-90" rx="273.751" ry="18"/>
<text text-anchor="middle" x="3606.23" y="-86.3" font-family="Times,serif" font-size="14.00">MLYacPEB93AZJPGpp1YSbvMrznXCKBLd9m_20180902_10h35m36s</text>
</g>
<!-- MREPJ21ejZVS57LvCB8wyuADXMwFvDFhUL_20180902_10h35m36s&#45;&gt;MLYacPEB93AZJPGpp1YSbvMrznXCKBLd9m_20180902_10h35m36s -->
<g id="edge26" class="edge"><title>MREPJ21ejZVS57LvCB8wyuADXMwFvDFhUL_20180902_10h35m36s&#45;&gt;MLYacPEB93AZJPGpp1YSbvMrznXCKBLd9m_20180902_10h35m36s</title>
<path fill="none" stroke="black" d="M3598.7,-143.697C3599.8,-135.983 3601.12,-126.712 3602.35,-118.112"/>
<polygon fill="black" stroke="black" points="3605.83,-118.499 3603.78,-108.104 3598.9,-117.509 3605.83,-118.499"/>
</g>
<!-- MTYLt6M5U633pZn3jj4JjTUkoAru1DKpmp_20180902_10h35m36s&#45;&gt;MTYLt6M5U633pZn3jj4JjTUkoAru1DKpmp_20180902_19h54m09s -->
<g id="edge15" class="edge"><title>MTYLt6M5U633pZn3jj4JjTUkoAru1DKpmp_20180902_10h35m36s&#45;&gt;MTYLt6M5U633pZn3jj4JjTUkoAru1DKpmp_20180902_19h54m09s</title>
<path fill="none" stroke="black" d="M3973.68,-77.3008C3945.39,-75.5218 3916.53,-73.7099 3889.23,-72 3665.06,-57.9627 3407.68,-41.9471 3235.2,-31.2293"/>
<polygon fill="black" stroke="black" points="3235.19,-27.7222 3224.99,-30.5952 3234.76,-34.7087 3235.19,-27.7222"/>
</g>
<!-- MUS4NdhwNppYqWojogJxbaSFrBjuxbyfN3_20180826_02h30m45s&#45;&gt;MUS4NdhwNppYqWojogJxbaSFrBjuxbyfN3_20180826_04h37m26s -->
<g id="edge23" class="edge"><title>MUS4NdhwNppYqWojogJxbaSFrBjuxbyfN3_20180826_02h30m45s&#45;&gt;MUS4NdhwNppYqWojogJxbaSFrBjuxbyfN3_20180826_04h37m26s</title>
<path fill="none" stroke="black" d="M3256.22,-360.5C3214.82,-350.15 3161.31,-336.771 3118.15,-325.982"/>
<polygon fill="black" stroke="black" points="3118.82,-322.541 3108.27,-323.511 3117.12,-329.332 3118.82,-322.541"/>
</g>
<!-- MKCWzu2q5yd2G6dRdHSaKyFfFHsmUbr6iw_20180830_21h32m18s -->
<g id="node21" class="node"><title>MKCWzu2q5yd2G6dRdHSaKyFfFHsmUbr6iw_20180830_21h32m18s</title>
<ellipse fill="none" stroke="black" cx="1926.23" cy="-234" rx="267.553" ry="18"/>
<text text-anchor="middle" x="1926.23" y="-230.3" font-family="Times,serif" font-size="14.00">MKCWzu2q5yd2G6dRdHSaKyFfFHsmUbr6iw_20180830_21h32m18s</text>
</g>
<!-- MKCWzu2q5yd2G6dRdHSaKyFfFHsmUbr6iw_20180830_21h32m18s&#45;&gt;MH7iB3uiHMtCmrvgFP3as3Y8vNKRhj2FdE_20180830_21h32m18s -->
<g id="edge17" class="edge"><title>MKCWzu2q5yd2G6dRdHSaKyFfFHsmUbr6iw_20180830_21h32m18s&#45;&gt;MH7iB3uiHMtCmrvgFP3as3Y8vNKRhj2FdE_20180830_21h32m18s</title>
<path fill="none" stroke="black" d="M1806.79,-217.854C1717.26,-206.501 1594.89,-190.983 1503.15,-179.349"/>
<polygon fill="black" stroke="black" points="1503.32,-175.843 1492.96,-178.057 1502.44,-182.788 1503.32,-175.843"/>
</g>
<!-- MKCWzu2q5yd2G6dRdHSaKyFfFHsmUbr6iw_20180830_21h32m18s&#45;&gt;MHwGjxKHhU1c3ZhqSH9VwHoMApe9bZP5qn_20180830_21h32m18s -->
<g id="edge45" class="edge"><title>MKCWzu2q5yd2G6dRdHSaKyFfFHsmUbr6iw_20180830_21h32m18s&#45;&gt;MHwGjxKHhU1c3ZhqSH9VwHoMApe9bZP5qn_20180830_21h32m18s</title>
<path fill="none" stroke="black" d="M1926.72,-215.697C1926.94,-207.983 1927.21,-198.712 1927.45,-190.112"/>
<polygon fill="black" stroke="black" points="1930.95,-190.2 1927.74,-180.104 1923.95,-190 1930.95,-190.2"/>
</g>
<!-- M8wNsQaL7kr63pANsrwwYmBQNx8HHweoUq_20180830_21h32m18s -->
<g id="node22" class="node"><title>M8wNsQaL7kr63pANsrwwYmBQNx8HHweoUq_20180830_21h32m18s</title>
<ellipse fill="none" stroke="black" cx="2488.23" cy="-234" rx="276.451" ry="18"/>
<text text-anchor="middle" x="2488.23" y="-230.3" font-family="Times,serif" font-size="14.00">M8wNsQaL7kr63pANsrwwYmBQNx8HHweoUq_20180830_21h32m18s</text>
</g>
<!-- M8wNsQaL7kr63pANsrwwYmBQNx8HHweoUq_20180830_21h32m18s&#45;&gt;MH7iB3uiHMtCmrvgFP3as3Y8vNKRhj2FdE_20180830_21h32m18s -->
<g id="edge18" class="edge"><title>M8wNsQaL7kr63pANsrwwYmBQNx8HHweoUq_20180830_21h32m18s&#45;&gt;MH7iB3uiHMtCmrvgFP3as3Y8vNKRhj2FdE_20180830_21h32m18s</title>
<path fill="none" stroke="black" d="M2297.04,-220.986C2094.29,-208.247 1775.62,-188.222 1570.83,-175.354"/>
<polygon fill="black" stroke="black" points="1570.76,-171.843 1560.56,-174.709 1570.32,-178.829 1570.76,-171.843"/>
</g>
<!-- M8wNsQaL7kr63pANsrwwYmBQNx8HHweoUq_20180830_21h32m18s&#45;&gt;MHwGjxKHhU1c3ZhqSH9VwHoMApe9bZP5qn_20180830_21h32m18s -->
<g id="edge20" class="edge"><title>M8wNsQaL7kr63pANsrwwYmBQNx8HHweoUq_20180830_21h32m18s&#45;&gt;MHwGjxKHhU1c3ZhqSH9VwHoMApe9bZP5qn_20180830_21h32m18s</title>
<path fill="none" stroke="black" d="M2366.71,-217.811C2276.09,-206.482 2152.43,-191.025 2059.53,-179.413"/>
<polygon fill="black" stroke="black" points="2059.86,-175.927 2049.5,-178.159 2058.99,-182.873 2059.86,-175.927"/>
</g>
<!-- M8YYdpSwqvPkusWdfhTP4AtmBKEDvh5k2P_20180902_10h35m36s -->
<g id="node23" class="node"><title>M8YYdpSwqvPkusWdfhTP4AtmBKEDvh5k2P_20180902_10h35m36s</title>
<ellipse fill="none" stroke="black" cx="4159.23" cy="-162" rx="269.152" ry="18"/>
<text text-anchor="middle" x="4159.23" y="-158.3" font-family="Times,serif" font-size="14.00">M8YYdpSwqvPkusWdfhTP4AtmBKEDvh5k2P_20180902_10h35m36s</text>
</g>
<!-- M8YYdpSwqvPkusWdfhTP4AtmBKEDvh5k2P_20180902_10h35m36s&#45;&gt;MTYLt6M5U633pZn3jj4JjTUkoAru1DKpmp_20180902_10h35m36s -->
<g id="edge34" class="edge"><title>M8YYdpSwqvPkusWdfhTP4AtmBKEDvh5k2P_20180902_10h35m36s&#45;&gt;MTYLt6M5U633pZn3jj4JjTUkoAru1DKpmp_20180902_10h35m36s</title>
<path fill="none" stroke="black" d="M4159.23,-143.697C4159.23,-135.983 4159.23,-126.712 4159.23,-118.112"/>
<polygon fill="black" stroke="black" points="4162.73,-118.104 4159.23,-108.104 4155.73,-118.104 4162.73,-118.104"/>
</g>
<!-- M8YYdpSwqvPkusWdfhTP4AtmBKEDvh5k2P_20180902_10h35m36s&#45;&gt;MLYacPEB93AZJPGpp1YSbvMrznXCKBLd9m_20180902_10h35m36s -->
<g id="edge19" class="edge"><title>M8YYdpSwqvPkusWdfhTP4AtmBKEDvh5k2P_20180902_10h35m36s&#45;&gt;MLYacPEB93AZJPGpp1YSbvMrznXCKBLd9m_20180902_10h35m36s</title>
<path fill="none" stroke="black" d="M4039.57,-145.854C3950.34,-134.559 3828.55,-119.142 3736.8,-107.528"/>
<polygon fill="black" stroke="black" points="3736.97,-104.022 3726.61,-106.238 3736.09,-110.966 3736.97,-104.022"/>
</g>
<!-- M93QbqnFraNgEtCfT37VPUjYVxVuU5w4ZZ_20180902_10h35m36s -->
<g id="node25" class="node"><title>M93QbqnFraNgEtCfT37VPUjYVxVuU5w4ZZ_20180902_10h35m36s</title>
<ellipse fill="none" stroke="black" cx="4712.23" cy="-162" rx="265.653" ry="18"/>
<text text-anchor="middle" x="4712.23" y="-158.3" font-family="Times,serif" font-size="14.00">M93QbqnFraNgEtCfT37VPUjYVxVuU5w4ZZ_20180902_10h35m36s</text>
</g>
<!-- M93QbqnFraNgEtCfT37VPUjYVxVuU5w4ZZ_20180902_10h35m36s&#45;&gt;MTYLt6M5U633pZn3jj4JjTUkoAru1DKpmp_20180902_10h35m36s -->
<g id="edge21" class="edge"><title>M93QbqnFraNgEtCfT37VPUjYVxVuU5w4ZZ_20180902_10h35m36s&#45;&gt;MTYLt6M5U633pZn3jj4JjTUkoAru1DKpmp_20180902_10h35m36s</title>
<path fill="none" stroke="black" d="M4592.91,-145.897C4503.15,-134.535 4380.3,-118.984 4288.26,-107.333"/>
<polygon fill="black" stroke="black" points="4288.68,-103.859 4278.32,-106.076 4287.8,-110.804 4288.68,-103.859"/>
</g>
<!-- M93QbqnFraNgEtCfT37VPUjYVxVuU5w4ZZ_20180902_10h35m36s&#45;&gt;MLYacPEB93AZJPGpp1YSbvMrznXCKBLd9m_20180902_10h35m36s -->
<g id="edge28" class="edge"><title>M93QbqnFraNgEtCfT37VPUjYVxVuU5w4ZZ_20180902_10h35m36s&#45;&gt;MLYacPEB93AZJPGpp1YSbvMrznXCKBLd9m_20180902_10h35m36s</title>
<path fill="none" stroke="black" d="M4525.55,-149.185C4326.01,-136.556 4010.82,-116.607 3806.29,-103.662"/>
<polygon fill="black" stroke="black" points="3806.23,-100.151 3796.03,-103.013 3805.79,-107.137 3806.23,-100.151"/>
</g>
<!-- MUS4NdhwNppYqWojogJxbaSFrBjuxbyfN3_20180826_01h31m21s&#45;&gt;MUS4NdhwNppYqWojogJxbaSFrBjuxbyfN3_20180826_02h30m45s -->
<g id="edge22" class="edge"><title>MUS4NdhwNppYqWojogJxbaSFrBjuxbyfN3_20180826_01h31m21s&#45;&gt;MUS4NdhwNppYqWojogJxbaSFrBjuxbyfN3_20180826_02h30m45s</title>
<path fill="none" stroke="black" d="M3322.23,-431.697C3322.23,-423.983 3322.23,-414.712 3322.23,-406.112"/>
<polygon fill="black" stroke="black" points="3325.73,-406.104 3322.23,-396.104 3318.73,-406.104 3325.73,-406.104"/>
</g>
<!-- MUS4NdhwNppYqWojogJxbaSFrBjuxbyfN3_20180804_05h43m05s -->
<g id="node30" class="node"><title>MUS4NdhwNppYqWojogJxbaSFrBjuxbyfN3_20180804_05h43m05s</title>
<ellipse fill="none" stroke="black" cx="3879.23" cy="-522" rx="259.954" ry="18"/>
<text text-anchor="middle" x="3879.23" y="-518.3" font-family="Times,serif" font-size="14.00">MUS4NdhwNppYqWojogJxbaSFrBjuxbyfN3_20180804_05h43m05s</text>
</g>
<!-- MUS4NdhwNppYqWojogJxbaSFrBjuxbyfN3_20180803_14h24m50s&#45;&gt;MUS4NdhwNppYqWojogJxbaSFrBjuxbyfN3_20180804_05h43m05s -->
<g id="edge37" class="edge"><title>MUS4NdhwNppYqWojogJxbaSFrBjuxbyfN3_20180803_14h24m50s&#45;&gt;MUS4NdhwNppYqWojogJxbaSFrBjuxbyfN3_20180804_05h43m05s</title>
<path fill="none" stroke="black" d="M3875.46,-575.697C3876.01,-567.983 3876.67,-558.712 3877.29,-550.112"/>
<polygon fill="black" stroke="black" points="3880.78,-550.328 3878,-540.104 3873.8,-549.83 3880.78,-550.328"/>
</g>
<!-- MUS4NdhwNppYqWojogJxbaSFrBjuxbyfN3_20180902_10h35m36s&#45;&gt;MUS4NdhwNppYqWojogJxbaSFrBjuxbyfN3_20180902_19h54m09s -->
<g id="edge40" class="edge"><title>MUS4NdhwNppYqWojogJxbaSFrBjuxbyfN3_20180902_10h35m36s&#45;&gt;MUS4NdhwNppYqWojogJxbaSFrBjuxbyfN3_20180902_19h54m09s</title>
<path fill="none" stroke="black" d="M2858.86,-149.224C2661.13,-136.526 2347.64,-116.394 2145.96,-103.442"/>
<polygon fill="black" stroke="black" points="2146.05,-99.9404 2135.85,-102.792 2145.6,-106.926 2146.05,-99.9404"/>
</g>
<!-- MUS4NdhwNppYqWojogJxbaSFrBjuxbyfN3_20180902_10h35m36s&#45;&gt;MTYLt6M5U633pZn3jj4JjTUkoAru1DKpmp_20180902_10h35m36s -->
<g id="edge43" class="edge"><title>MUS4NdhwNppYqWojogJxbaSFrBjuxbyfN3_20180902_10h35m36s&#45;&gt;MTYLt6M5U633pZn3jj4JjTUkoAru1DKpmp_20180902_10h35m36s</title>
<path fill="none" stroke="black" d="M3226.72,-149.318C3255.02,-147.533 3283.9,-145.714 3311.23,-144 3568.11,-127.883 3632.34,-124.087 3889.23,-108 3913.22,-106.497 3938.42,-104.915 3963.38,-103.347"/>
<polygon fill="black" stroke="black" points="3963.92,-106.82 3973.68,-102.699 3963.48,-99.8336 3963.92,-106.82"/>
</g>
<!-- MUS4NdhwNppYqWojogJxbaSFrBjuxbyfN3_20180902_10h35m36s&#45;&gt;MLYacPEB93AZJPGpp1YSbvMrznXCKBLd9m_20180902_10h35m36s -->
<g id="edge41" class="edge"><title>MUS4NdhwNppYqWojogJxbaSFrBjuxbyfN3_20180902_10h35m36s&#45;&gt;MLYacPEB93AZJPGpp1YSbvMrznXCKBLd9m_20180902_10h35m36s</title>
<path fill="none" stroke="black" d="M3162.87,-146.026C3254.35,-134.672 3379.97,-119.081 3474.15,-107.393"/>
<polygon fill="black" stroke="black" points="3474.82,-110.836 3484.31,-106.131 3473.96,-103.889 3474.82,-110.836"/>
</g>
<!-- MUS4NdhwNppYqWojogJxbaSFrBjuxbyfN3_20180804_05h43m05s&#45;&gt;M9SGcHSX9HGHGhBUXYt15Ypco6vATNzME2_20180804_05h43m05s -->
<g id="edge31" class="edge"><title>MUS4NdhwNppYqWojogJxbaSFrBjuxbyfN3_20180804_05h43m05s&#45;&gt;M9SGcHSX9HGHGhBUXYt15Ypco6vATNzME2_20180804_05h43m05s</title>
<path fill="none" stroke="black" d="M3879.23,-503.697C3879.23,-495.983 3879.23,-486.712 3879.23,-478.112"/>
<polygon fill="black" stroke="black" points="3882.73,-478.104 3879.23,-468.104 3875.73,-478.104 3882.73,-478.104"/>
</g>
<!-- MUS4NdhwNppYqWojogJxbaSFrBjuxbyfN3_20180804_05h43m05s&#45;&gt;MUS4NdhwNppYqWojogJxbaSFrBjuxbyfN3_20180826_01h31m21s -->
<g id="edge35" class="edge"><title>MUS4NdhwNppYqWojogJxbaSFrBjuxbyfN3_20180804_05h43m05s&#45;&gt;MUS4NdhwNppYqWojogJxbaSFrBjuxbyfN3_20180826_01h31m21s</title>
<path fill="none" stroke="black" d="M3759.74,-505.983C3669.21,-494.607 3544.99,-478.995 3452.03,-467.313"/>
<polygon fill="black" stroke="black" points="3452.36,-463.827 3442,-466.052 3451.48,-470.772 3452.36,-463.827"/>
</g>
<!-- MUS4NdhwNppYqWojogJxbaSFrBjuxbyfN3_20180804_05h43m05s&#45;&gt;MQYvri9RMHvwxL8zDWByZQxqEghqnZPj2t_20180804_05h43m05s -->
<g id="edge39" class="edge"><title>MUS4NdhwNppYqWojogJxbaSFrBjuxbyfN3_20180804_05h43m05s&#45;&gt;MQYvri9RMHvwxL8zDWByZQxqEghqnZPj2t_20180804_05h43m05s</title>
<path fill="none" stroke="black" d="M4000.3,-506.026C4092.26,-494.653 4218.6,-479.028 4313.16,-467.333"/>
<polygon fill="black" stroke="black" points="4313.87,-470.772 4323.37,-466.071 4313.02,-463.824 4313.87,-470.772"/>
</g>
<!-- MLm2RRgAz6BUwhQiNPiTrCLgsmuhws9Ux7_20180902_19h54m09s -->
<g id="node31" class="node"><title>MLm2RRgAz6BUwhQiNPiTrCLgsmuhws9Ux7_20180902_19h54m09s</title>
<ellipse fill="none" stroke="black" cx="3044.23" cy="-90" rx="270.252" ry="18"/>
<text text-anchor="middle" x="3044.23" y="-86.3" font-family="Times,serif" font-size="14.00">MLm2RRgAz6BUwhQiNPiTrCLgsmuhws9Ux7_20180902_19h54m09s</text>
</g>
<!-- MLm2RRgAz6BUwhQiNPiTrCLgsmuhws9Ux7_20180902_19h54m09s&#45;&gt;MRh1hxxiD53xz5PiDqZqL7duDgkBu67P7W_20180902_19h54m09s -->
<g id="edge36" class="edge"><title>MLm2RRgAz6BUwhQiNPiTrCLgsmuhws9Ux7_20180902_19h54m09s&#45;&gt;MRh1hxxiD53xz5PiDqZqL7duDgkBu67P7W_20180902_19h54m09s</title>
<path fill="none" stroke="black" d="M2924.67,-73.811C2835.28,-62.4552 2713.24,-46.9506 2621.76,-35.3291"/>
<polygon fill="black" stroke="black" points="2621.96,-31.8272 2611.6,-34.0389 2621.08,-38.7714 2621.96,-31.8272"/>
</g>
<!-- MLm2RRgAz6BUwhQiNPiTrCLgsmuhws9Ux7_20180902_19h54m09s&#45;&gt;MTYLt6M5U633pZn3jj4JjTUkoAru1DKpmp_20180902_19h54m09s -->
<g id="edge42" class="edge"><title>MLm2RRgAz6BUwhQiNPiTrCLgsmuhws9Ux7_20180902_19h54m09s&#45;&gt;MTYLt6M5U633pZn3jj4JjTUkoAru1DKpmp_20180902_19h54m09s</title>
<path fill="none" stroke="black" d="M3042.74,-71.6966C3042.08,-63.9827 3041.29,-54.7125 3040.55,-46.1124"/>
<polygon fill="black" stroke="black" points="3044.03,-45.7689 3039.69,-36.1043 3037.06,-46.3667 3044.03,-45.7689"/>
</g>
<!-- MAxBaUwmTAxYakUQPhK153e4YNjsdKaUEC_20180830_21h32m18s -->
<g id="node32" class="node"><title>MAxBaUwmTAxYakUQPhK153e4YNjsdKaUEC_20180830_21h32m18s</title>
<ellipse fill="none" stroke="black" cx="276.225" cy="-234" rx="276.451" ry="18"/>
<text text-anchor="middle" x="276.225" y="-230.3" font-family="Times,serif" font-size="14.00">MAxBaUwmTAxYakUQPhK153e4YNjsdKaUEC_20180830_21h32m18s</text>
</g>
<!-- MAxBaUwmTAxYakUQPhK153e4YNjsdKaUEC_20180830_21h32m18s&#45;&gt;MH7iB3uiHMtCmrvgFP3as3Y8vNKRhj2FdE_20180830_21h32m18s -->
<g id="edge38" class="edge"><title>MAxBaUwmTAxYakUQPhK153e4YNjsdKaUEC_20180830_21h32m18s&#45;&gt;MH7iB3uiHMtCmrvgFP3as3Y8vNKRhj2FdE_20180830_21h32m18s</title>
<path fill="none" stroke="black" d="M465.916,-220.907C665.355,-208.192 977.602,-188.286 1179.07,-175.441"/>
<polygon fill="black" stroke="black" points="1179.42,-178.926 1189.18,-174.797 1178.98,-171.94 1179.42,-178.926"/>
</g>
<!-- MAxBaUwmTAxYakUQPhK153e4YNjsdKaUEC_20180830_21h32m18s&#45;&gt;MHwGjxKHhU1c3ZhqSH9VwHoMApe9bZP5qn_20180830_21h32m18s -->
<g id="edge49" class="edge"><title>MAxBaUwmTAxYakUQPhK153e4YNjsdKaUEC_20180830_21h32m18s&#45;&gt;MHwGjxKHhU1c3ZhqSH9VwHoMApe9bZP5qn_20180830_21h32m18s</title>
<path fill="none" stroke="black" d="M466.668,-220.942C498.244,-219.143 530.651,-217.419 561.225,-216 1042.75,-193.647 1163.71,-202.454 1645.23,-180 1672.27,-178.739 1700.75,-177.235 1728.81,-175.651"/>
<polygon fill="black" stroke="black" points="1729.34,-179.127 1739.12,-175.064 1728.94,-172.138 1729.34,-179.127"/>
</g>
</g>
</svg>
