<?xml version="1.0" encoding="UTF-8" standalone="no"?>
<!DOCTYPE svg PUBLIC "-//W3C//DTD SVG 1.1//EN"
 "http://www.w3.org/Graphics/SVG/1.1/DTD/svg11.dtd">
<!-- Generated by graphviz version 2.38.0 (20140413.2041)
 -->
<!-- Title: G Pages: 1 -->
<svg width="2225pt" height="260pt"
 viewBox="0.00 0.00 2224.70 260.00" xmlns="http://www.w3.org/2000/svg" xmlns:xlink="http://www.w3.org/1999/xlink">
<g id="graph0" class="graph" transform="scale(1 1) rotate(0) translate(4 256)">
<title>G</title>
<polygon fill="white" stroke="none" points="-4,4 -4,-256 2220.7,-256 2220.7,4 -4,4"/>
<!-- MDTkqmAmNfmKfaFYi2Jx8jZxBw5sHG5SD7_20180829_22h20m47s -->
<g id="node1" class="node"><title>MDTkqmAmNfmKfaFYi2Jx8jZxBw5sHG5SD7_20180829_22h20m47s</title>
<ellipse fill="none" stroke="black" cx="270.376" cy="-90" rx="270.252" ry="18"/>
<text text-anchor="middle" x="270.376" y="-86.3" font-family="Times,serif" font-size="14.00">MDTkqmAmNfmKfaFYi2Jx8jZxBw5sHG5SD7_20180829_22h20m47s</text>
</g>
<!-- MLU6CUnkgTQ6DWznDoN1Smog5R15iuZ9Uo_20180829_22h20m47s -->
<g id="node2" class="node"><title>MLU6CUnkgTQ6DWznDoN1Smog5R15iuZ9Uo_20180829_22h20m47s</title>
<ellipse fill="none" stroke="black" cx="843.376" cy="-18" rx="274.052" ry="18"/>
<text text-anchor="middle" x="843.376" y="-14.3" font-family="Times,serif" font-size="14.00">MLU6CUnkgTQ6DWznDoN1Smog5R15iuZ9Uo_20180829_22h20m47s</text>
</g>
<!-- MDTkqmAmNfmKfaFYi2Jx8jZxBw5sHG5SD7_20180829_22h20m47s&#45;&gt;MLU6CUnkgTQ6DWznDoN1Smog5R15iuZ9Uo_20180829_22h20m47s -->
<g id="edge1" class="edge"><title>MDTkqmAmNfmKfaFYi2Jx8jZxBw5sHG5SD7_20180829_22h20m47s&#45;&gt;MLU6CUnkgTQ6DWznDoN1Smog5R15iuZ9Uo_20180829_22h20m47s</title>
<path fill="none" stroke="black" d="M393.651,-73.9403C486.73,-62.5693 614.302,-46.9846 709.804,-35.3177"/>
<polygon fill="black" stroke="black" points="710.318,-38.781 719.82,-34.0941 709.469,-31.8327 710.318,-38.781"/>
</g>
<!-- MPK4cFy8crHrotM1y2AneDd4qwy8mRGo4X_20180829_22h20m47s -->
<g id="node4" class="node"><title>MPK4cFy8crHrotM1y2AneDd4qwy8mRGo4X_20180829_22h20m47s</title>
<ellipse fill="none" stroke="black" cx="1407.38" cy="-18" rx="265.653" ry="18"/>
<text text-anchor="middle" x="1407.38" y="-14.3" font-family="Times,serif" font-size="14.00">MPK4cFy8crHrotM1y2AneDd4qwy8mRGo4X_20180829_22h20m47s</text>
</g>
<!-- MDTkqmAmNfmKfaFYi2Jx8jZxBw5sHG5SD7_20180829_22h20m47s&#45;&gt;MPK4cFy8crHrotM1y2AneDd4qwy8mRGo4X_20180829_22h20m47s -->
<g id="edge3" class="edge"><title>MDTkqmAmNfmKfaFYi2Jx8jZxBw5sHG5SD7_20180829_22h20m47s&#45;&gt;MPK4cFy8crHrotM1y2AneDd4qwy8mRGo4X_20180829_22h20m47s</title>
<path fill="none" stroke="black" d="M461.325,-77.2441C668.409,-64.4949 997.474,-44.2358 1207.85,-31.2837"/>
<polygon fill="black" stroke="black" points="1208.33,-34.7613 1218.09,-30.6533 1207.9,-27.7745 1208.33,-34.7613"/>
</g>
<!-- MPjgPkjtQyeRRUG5ebDtDDbH8kP5gKFb7r_20180829_22h20m47s -->
<g id="node3" class="node"><title>MPjgPkjtQyeRRUG5ebDtDDbH8kP5gKFb7r_20180829_22h20m47s</title>
<ellipse fill="none" stroke="black" cx="1957.38" cy="-90" rx="259.154" ry="18"/>
<text text-anchor="middle" x="1957.38" y="-86.3" font-family="Times,serif" font-size="14.00">MPjgPkjtQyeRRUG5ebDtDDbH8kP5gKFb7r_20180829_22h20m47s</text>
</g>
<!-- MPjgPkjtQyeRRUG5ebDtDDbH8kP5gKFb7r_20180829_22h20m47s&#45;&gt;MLU6CUnkgTQ6DWznDoN1Smog5R15iuZ9Uo_20180829_22h20m47s -->
<g id="edge8" class="edge"><title>MPjgPkjtQyeRRUG5ebDtDDbH8kP5gKFb7r_20180829_22h20m47s&#45;&gt;MLU6CUnkgTQ6DWznDoN1Smog5R15iuZ9Uo_20180829_22h20m47s</title>
<path fill="none" stroke="black" d="M1773.2,-77.2985C1745.12,-75.5198 1716.48,-73.7086 1689.38,-72 1468.87,-58.0993 1216.03,-42.2744 1044.62,-31.5632"/>
<polygon fill="black" stroke="black" points="1044.67,-28.0598 1034.48,-30.9292 1044.24,-35.0461 1044.67,-28.0598"/>
</g>
<!-- MPjgPkjtQyeRRUG5ebDtDDbH8kP5gKFb7r_20180829_22h20m47s&#45;&gt;MPK4cFy8crHrotM1y2AneDd4qwy8mRGo4X_20180829_22h20m47s -->
<g id="edge2" class="edge"><title>MPjgPkjtQyeRRUG5ebDtDDbH8kP5gKFb7r_20180829_22h20m47s&#45;&gt;MPK4cFy8crHrotM1y2AneDd4qwy8mRGo4X_20180829_22h20m47s</title>
<path fill="none" stroke="black" d="M1839.05,-73.9403C1750.04,-62.6117 1628.17,-47.1006 1536.61,-35.4482"/>
<polygon fill="black" stroke="black" points="1536.81,-31.9451 1526.45,-34.1545 1535.92,-38.8891 1536.81,-31.9451"/>
</g>
<!-- MDTkqmAmNfmKfaFYi2Jx8jZxBw5sHG5SD7_20180828_04h31m40s -->
<g id="node5" class="node"><title>MDTkqmAmNfmKfaFYi2Jx8jZxBw5sHG5SD7_20180828_04h31m40s</title>
<ellipse fill="none" stroke="black" cx="691.376" cy="-162" rx="270.252" ry="18"/>
<text text-anchor="middle" x="691.376" y="-158.3" font-family="Times,serif" font-size="14.00">MDTkqmAmNfmKfaFYi2Jx8jZxBw5sHG5SD7_20180828_04h31m40s</text>
</g>
<!-- MDTkqmAmNfmKfaFYi2Jx8jZxBw5sHG5SD7_20180828_04h31m40s&#45;&gt;MDTkqmAmNfmKfaFYi2Jx8jZxBw5sHG5SD7_20180829_22h20m47s -->
<g id="edge4" class="edge"><title>MDTkqmAmNfmKfaFYi2Jx8jZxBw5sHG5SD7_20180828_04h31m40s&#45;&gt;MDTkqmAmNfmKfaFYi2Jx8jZxBw5sHG5SD7_20180829_22h20m47s</title>
<path fill="none" stroke="black" d="M595.845,-145.116C530.425,-134.239 443.635,-119.808 376.131,-108.584"/>
<polygon fill="black" stroke="black" points="376.332,-105.069 365.893,-106.882 375.184,-111.975 376.332,-105.069"/>
</g>
<!-- M92A9ek5745jKDveURpmKzagwe1pCDkVeM_20180828_04h31m40s -->
<g id="node6" class="node"><title>M92A9ek5745jKDveURpmKzagwe1pCDkVeM_20180828_04h31m40s</title>
<ellipse fill="none" stroke="black" cx="1199.38" cy="-234" rx="269.952" ry="18"/>
<text text-anchor="middle" x="1199.38" y="-230.3" font-family="Times,serif" font-size="14.00">M92A9ek5745jKDveURpmKzagwe1pCDkVeM_20180828_04h31m40s</text>
</g>
<!-- M92A9ek5745jKDveURpmKzagwe1pCDkVeM_20180828_04h31m40s&#45;&gt;MDTkqmAmNfmKfaFYi2Jx8jZxBw5sHG5SD7_20180828_04h31m40s -->
<g id="edge11" class="edge"><title>M92A9ek5745jKDveURpmKzagwe1pCDkVeM_20180828_04h31m40s&#45;&gt;MDTkqmAmNfmKfaFYi2Jx8jZxBw5sHG5SD7_20180828_04h31m40s</title>
<path fill="none" stroke="black" d="M1087.58,-217.595C1006.45,-206.416 896.768,-191.302 813.374,-179.811"/>
<polygon fill="black" stroke="black" points="813.723,-176.326 803.338,-178.428 812.767,-183.26 813.723,-176.326"/>
</g>
<!-- MGsG3Zc95j79nA5iJa5mHbDY5Nf37LsQVn_20180828_04h31m40s -->
<g id="node7" class="node"><title>MGsG3Zc95j79nA5iJa5mHbDY5Nf37LsQVn_20180828_04h31m40s</title>
<ellipse fill="none" stroke="black" cx="1490.38" cy="-162" rx="262.653" ry="18"/>
<text text-anchor="middle" x="1490.38" y="-158.3" font-family="Times,serif" font-size="14.00">MGsG3Zc95j79nA5iJa5mHbDY5Nf37LsQVn_20180828_04h31m40s</text>
</g>
<!-- M92A9ek5745jKDveURpmKzagwe1pCDkVeM_20180828_04h31m40s&#45;&gt;MGsG3Zc95j79nA5iJa5mHbDY5Nf37LsQVn_20180828_04h31m40s -->
<g id="edge5" class="edge"><title>M92A9ek5745jKDveURpmKzagwe1pCDkVeM_20180828_04h31m40s&#45;&gt;MGsG3Zc95j79nA5iJa5mHbDY5Nf37LsQVn_20180828_04h31m40s</title>
<path fill="none" stroke="black" d="M1267.97,-216.5C1311.33,-206.069 1367.49,-192.561 1412.52,-181.729"/>
<polygon fill="black" stroke="black" points="1413.34,-185.131 1422.24,-179.39 1411.7,-178.326 1413.34,-185.131"/>
</g>
<!-- M92A9ek5745jKDveURpmKzagwe1pCDkVeM_20180829_22h20m47s -->
<g id="node8" class="node"><title>M92A9ek5745jKDveURpmKzagwe1pCDkVeM_20180829_22h20m47s</title>
<ellipse fill="none" stroke="black" cx="1410.38" cy="-90" rx="269.952" ry="18"/>
<text text-anchor="middle" x="1410.38" y="-86.3" font-family="Times,serif" font-size="14.00">M92A9ek5745jKDveURpmKzagwe1pCDkVeM_20180829_22h20m47s</text>
</g>
<!-- M92A9ek5745jKDveURpmKzagwe1pCDkVeM_20180828_04h31m40s&#45;&gt;M92A9ek5745jKDveURpmKzagwe1pCDkVeM_20180829_22h20m47s -->
<g id="edge9" class="edge"><title>M92A9ek5745jKDveURpmKzagwe1pCDkVeM_20180828_04h31m40s&#45;&gt;M92A9ek5745jKDveURpmKzagwe1pCDkVeM_20180829_22h20m47s</title>
<path fill="none" stroke="black" d="M1198.12,-215.882C1197.65,-195.993 1200.06,-163.429 1218.38,-144 1233.02,-128.469 1251.76,-117.346 1271.77,-109.408"/>
<polygon fill="black" stroke="black" points="1273.2,-112.614 1281.37,-105.872 1270.78,-106.046 1273.2,-112.614"/>
</g>
<!-- M92A9ek5745jKDveURpmKzagwe1pCDkVeM_20180829_22h20m47s&#45;&gt;MLU6CUnkgTQ6DWznDoN1Smog5R15iuZ9Uo_20180829_22h20m47s -->
<g id="edge6" class="edge"><title>M92A9ek5745jKDveURpmKzagwe1pCDkVeM_20180829_22h20m47s&#45;&gt;MLU6CUnkgTQ6DWznDoN1Smog5R15iuZ9Uo_20180829_22h20m47s</title>
<path fill="none" stroke="black" d="M1288.39,-73.9403C1196.54,-62.6002 1070.74,-47.0692 976.32,-35.4128"/>
<polygon fill="black" stroke="black" points="976.481,-31.9062 966.127,-34.1545 975.623,-38.8535 976.481,-31.9062"/>
</g>
<!-- M92A9ek5745jKDveURpmKzagwe1pCDkVeM_20180829_22h20m47s&#45;&gt;MPK4cFy8crHrotM1y2AneDd4qwy8mRGo4X_20180829_22h20m47s -->
<g id="edge7" class="edge"><title>M92A9ek5745jKDveURpmKzagwe1pCDkVeM_20180829_22h20m47s&#45;&gt;MPK4cFy8crHrotM1y2AneDd4qwy8mRGo4X_20180829_22h20m47s</title>
<path fill="none" stroke="black" d="M1409.63,-71.6966C1409.3,-63.9827 1408.91,-54.7125 1408.54,-46.1124"/>
<polygon fill="black" stroke="black" points="1412.03,-45.9453 1408.11,-36.1043 1405.04,-46.2451 1412.03,-45.9453"/>
</g>
<!-- MWDZgFq6ARsMeDwwvC5Mo39eodUkYQaqWJ_20180829_22h20m47s -->
<g id="node9" class="node"><title>MWDZgFq6ARsMeDwwvC5Mo39eodUkYQaqWJ_20180829_22h20m47s</title>
<ellipse fill="none" stroke="black" cx="840.376" cy="-90" rx="282.15" ry="18"/>
<text text-anchor="middle" x="840.376" y="-86.3" font-family="Times,serif" font-size="14.00">MWDZgFq6ARsMeDwwvC5Mo39eodUkYQaqWJ_20180829_22h20m47s</text>
</g>
<!-- MWDZgFq6ARsMeDwwvC5Mo39eodUkYQaqWJ_20180829_22h20m47s&#45;&gt;MLU6CUnkgTQ6DWznDoN1Smog5R15iuZ9Uo_20180829_22h20m47s -->
<g id="edge12" class="edge"><title>MWDZgFq6ARsMeDwwvC5Mo39eodUkYQaqWJ_20180829_22h20m47s&#45;&gt;MLU6CUnkgTQ6DWznDoN1Smog5R15iuZ9Uo_20180829_22h20m47s</title>
<path fill="none" stroke="black" d="M841.118,-71.6966C841.448,-63.9827 841.845,-54.7125 842.214,-46.1124"/>
<polygon fill="black" stroke="black" points="845.711,-46.2451 842.643,-36.1043 838.718,-45.9453 845.711,-46.2451"/>
</g>
<!-- MWDZgFq6ARsMeDwwvC5Mo39eodUkYQaqWJ_20180829_22h20m47s&#45;&gt;MPK4cFy8crHrotM1y2AneDd4qwy8mRGo4X_20180829_22h20m47s -->
<g id="edge10" class="edge"><title>MWDZgFq6ARsMeDwwvC5Mo39eodUkYQaqWJ_20180829_22h20m47s&#45;&gt;MPK4cFy8crHrotM1y2AneDd4qwy8mRGo4X_20180829_22h20m47s</title>
<path fill="none" stroke="black" d="M963.756,-73.7679C1055.85,-62.398 1181.49,-46.8869 1275.56,-35.274"/>
<polygon fill="black" stroke="black" points="1276.21,-38.7195 1285.71,-34.0205 1275.36,-31.7723 1276.21,-38.7195"/>
</g>
</g>
</svg>
