<?xml version="1.0" encoding="UTF-8" standalone="no"?>
<!DOCTYPE svg PUBLIC "-//W3C//DTD SVG 1.1//EN"
 "http://www.w3.org/Graphics/SVG/1.1/DTD/svg11.dtd">
<!-- Generated by graphviz version 2.38.0 (20140413.2041)
 -->
<!-- Title: G Pages: 1 -->
<svg width="2727pt" height="404pt"
 viewBox="0.00 0.00 2727.25 404.00" xmlns="http://www.w3.org/2000/svg" xmlns:xlink="http://www.w3.org/1999/xlink">
<g id="graph0" class="graph" transform="scale(1 1) rotate(0) translate(4 400)">
<title>G</title>
<polygon fill="white" stroke="none" points="-4,4 -4,-400 2723.25,-400 2723.25,4 -4,4"/>
<!-- MU1aUGyAFE7wKviTUYNsoUykLeqdbFYgCX_20180809_15h24m12s -->
<g id="node1" class="node"><title>MU1aUGyAFE7wKviTUYNsoUykLeqdbFYgCX_20180809_15h24m12s</title>
<ellipse fill="none" stroke="black" cx="1092.38" cy="-378" rx="274.052" ry="18"/>
<text text-anchor="middle" x="1092.38" y="-374.3" font-family="Times,serif" font-size="14.00">MU1aUGyAFE7wKviTUYNsoUykLeqdbFYgCX_20180809_15h24m12s</text>
</g>
<!-- MWyLDkxcDFFzTFuC3HCjK66bU6X7129ELa_20180809_15h24m12s -->
<g id="node2" class="node"><title>MWyLDkxcDFFzTFuC3HCjK66bU6X7129ELa_20180809_15h24m12s</title>
<ellipse fill="none" stroke="black" cx="270.376" cy="-306" rx="270.252" ry="18"/>
<text text-anchor="middle" x="270.376" y="-302.3" font-family="Times,serif" font-size="14.00">MWyLDkxcDFFzTFuC3HCjK66bU6X7129ELa_20180809_15h24m12s</text>
</g>
<!-- MU1aUGyAFE7wKviTUYNsoUykLeqdbFYgCX_20180809_15h24m12s&#45;&gt;MWyLDkxcDFFzTFuC3HCjK66bU6X7129ELa_20180809_15h24m12s -->
<g id="edge1" class="edge"><title>MU1aUGyAFE7wKviTUYNsoUykLeqdbFYgCX_20180809_15h24m12s&#45;&gt;MWyLDkxcDFFzTFuC3HCjK66bU6X7129ELa_20180809_15h24m12s</title>
<path fill="none" stroke="black" d="M931.935,-363.337C790.263,-351.273 584.362,-333.738 439.999,-321.445"/>
<polygon fill="black" stroke="black" points="439.974,-317.93 429.713,-320.569 439.38,-324.905 439.974,-317.93"/>
</g>
<!-- MPYq1eJVWofz49Sthu161bpdzWKjRSjTWe_20180809_15h24m12s -->
<g id="node3" class="node"><title>MPYq1eJVWofz49Sthu161bpdzWKjRSjTWe_20180809_15h24m12s</title>
<ellipse fill="none" stroke="black" cx="820.376" cy="-306" rx="261.854" ry="18"/>
<text text-anchor="middle" x="820.376" y="-302.3" font-family="Times,serif" font-size="14.00">MPYq1eJVWofz49Sthu161bpdzWKjRSjTWe_20180809_15h24m12s</text>
</g>
<!-- MU1aUGyAFE7wKviTUYNsoUykLeqdbFYgCX_20180809_15h24m12s&#45;&gt;MPYq1eJVWofz49Sthu161bpdzWKjRSjTWe_20180809_15h24m12s -->
<g id="edge2" class="edge"><title>MU1aUGyAFE7wKviTUYNsoUykLeqdbFYgCX_20180809_15h24m12s&#45;&gt;MPYq1eJVWofz49Sthu161bpdzWKjRSjTWe_20180809_15h24m12s</title>
<path fill="none" stroke="black" d="M1027.92,-360.411C987.775,-350.081 936.01,-336.759 894.221,-326.004"/>
<polygon fill="black" stroke="black" points="894.93,-322.573 884.374,-323.47 893.186,-329.352 894.93,-322.573"/>
</g>
<!-- MVPVmbbm7g3f9PF2xRV6RSoSnw8xfr8kNj_20180809_15h24m12s -->
<g id="node6" class="node"><title>MVPVmbbm7g3f9PF2xRV6RSoSnw8xfr8kNj_20180809_15h24m12s</title>
<ellipse fill="none" stroke="black" cx="1364.38" cy="-306" rx="263.753" ry="18"/>
<text text-anchor="middle" x="1364.38" y="-302.3" font-family="Times,serif" font-size="14.00">MVPVmbbm7g3f9PF2xRV6RSoSnw8xfr8kNj_20180809_15h24m12s</text>
</g>
<!-- MU1aUGyAFE7wKviTUYNsoUykLeqdbFYgCX_20180809_15h24m12s&#45;&gt;MVPVmbbm7g3f9PF2xRV6RSoSnw8xfr8kNj_20180809_15h24m12s -->
<g id="edge11" class="edge"><title>MU1aUGyAFE7wKviTUYNsoUykLeqdbFYgCX_20180809_15h24m12s&#45;&gt;MVPVmbbm7g3f9PF2xRV6RSoSnw8xfr8kNj_20180809_15h24m12s</title>
<path fill="none" stroke="black" d="M1156.84,-360.411C1196.98,-350.081 1248.74,-336.759 1290.53,-326.004"/>
<polygon fill="black" stroke="black" points="1291.57,-329.352 1300.38,-323.47 1289.82,-322.573 1291.57,-329.352"/>
</g>
<!-- MEA1vsjm6rLo8vpcN1UjjsUpiz4vDFz1QK_20180809_15h24m12s -->
<g id="node8" class="node"><title>MEA1vsjm6rLo8vpcN1UjjsUpiz4vDFz1QK_20180809_15h24m12s</title>
<ellipse fill="none" stroke="black" cx="1910.38" cy="-306" rx="255.355" ry="18"/>
<text text-anchor="middle" x="1910.38" y="-302.3" font-family="Times,serif" font-size="14.00">MEA1vsjm6rLo8vpcN1UjjsUpiz4vDFz1QK_20180809_15h24m12s</text>
</g>
<!-- MU1aUGyAFE7wKviTUYNsoUykLeqdbFYgCX_20180809_15h24m12s&#45;&gt;MEA1vsjm6rLo8vpcN1UjjsUpiz4vDFz1QK_20180809_15h24m12s -->
<g id="edge6" class="edge"><title>MU1aUGyAFE7wKviTUYNsoUykLeqdbFYgCX_20180809_15h24m12s&#45;&gt;MEA1vsjm6rLo8vpcN1UjjsUpiz4vDFz1QK_20180809_15h24m12s</title>
<path fill="none" stroke="black" d="M1252.04,-363.337C1394.04,-351.185 1600.89,-333.484 1744.69,-321.178"/>
<polygon fill="black" stroke="black" points="1745.27,-324.642 1754.93,-320.302 1744.67,-317.667 1745.27,-324.642"/>
</g>
<!-- MGsG3Zc95j79nA5iJa5mHbDY5Nf37LsQVn_20180902_10h35m36s -->
<g id="node4" class="node"><title>MGsG3Zc95j79nA5iJa5mHbDY5Nf37LsQVn_20180902_10h35m36s</title>
<ellipse fill="none" stroke="black" cx="278.376" cy="-90" rx="262.653" ry="18"/>
<text text-anchor="middle" x="278.376" y="-86.3" font-family="Times,serif" font-size="14.00">MGsG3Zc95j79nA5iJa5mHbDY5Nf37LsQVn_20180902_10h35m36s</text>
</g>
<!-- MTYLt6M5U633pZn3jj4JjTUkoAru1DKpmp_20180902_10h35m36s -->
<g id="node5" class="node"><title>MTYLt6M5U633pZn3jj4JjTUkoAru1DKpmp_20180902_10h35m36s</title>
<ellipse fill="none" stroke="black" cx="546.376" cy="-18" rx="261.054" ry="18"/>
<text text-anchor="middle" x="546.376" y="-14.3" font-family="Times,serif" font-size="14.00">MTYLt6M5U633pZn3jj4JjTUkoAru1DKpmp_20180902_10h35m36s</text>
</g>
<!-- MGsG3Zc95j79nA5iJa5mHbDY5Nf37LsQVn_20180902_10h35m36s&#45;&gt;MTYLt6M5U633pZn3jj4JjTUkoAru1DKpmp_20180902_10h35m36s -->
<g id="edge3" class="edge"><title>MGsG3Zc95j79nA5iJa5mHbDY5Nf37LsQVn_20180902_10h35m36s&#45;&gt;MTYLt6M5U633pZn3jj4JjTUkoAru1DKpmp_20180902_10h35m36s</title>
<path fill="none" stroke="black" d="M341.549,-72.4996C381.09,-62.1717 432.178,-48.8278 473.44,-38.0504"/>
<polygon fill="black" stroke="black" points="474.372,-41.4244 483.163,-35.5108 472.603,-34.6516 474.372,-41.4244"/>
</g>
<!-- M8KNqZgR94iXYNWPffmyum41DHs6Ve79A1_20180902_10h35m36s -->
<g id="node14" class="node"><title>M8KNqZgR94iXYNWPffmyum41DHs6Ve79A1_20180902_10h35m36s</title>
<ellipse fill="none" stroke="black" cx="1099.38" cy="-18" rx="273.751" ry="18"/>
<text text-anchor="middle" x="1099.38" y="-14.3" font-family="Times,serif" font-size="14.00">M8KNqZgR94iXYNWPffmyum41DHs6Ve79A1_20180902_10h35m36s</text>
</g>
<!-- MGsG3Zc95j79nA5iJa5mHbDY5Nf37LsQVn_20180902_10h35m36s&#45;&gt;M8KNqZgR94iXYNWPffmyum41DHs6Ve79A1_20180902_10h35m36s -->
<g id="edge14" class="edge"><title>MGsG3Zc95j79nA5iJa5mHbDY5Nf37LsQVn_20180902_10h35m36s&#45;&gt;M8KNqZgR94iXYNWPffmyum41DHs6Ve79A1_20180902_10h35m36s</title>
<path fill="none" stroke="black" d="M435.702,-75.5861C576.998,-63.5389 783.95,-45.8938 929.091,-33.5188"/>
<polygon fill="black" stroke="black" points="929.766,-36.974 939.433,-32.6371 929.171,-29.9993 929.766,-36.974"/>
</g>
<!-- MVPVmbbm7g3f9PF2xRV6RSoSnw8xfr8kNj_20180811_20h44m06s -->
<g id="node7" class="node"><title>MVPVmbbm7g3f9PF2xRV6RSoSnw8xfr8kNj_20180811_20h44m06s</title>
<ellipse fill="none" stroke="black" cx="1359.38" cy="-234" rx="263.753" ry="18"/>
<text text-anchor="middle" x="1359.38" y="-230.3" font-family="Times,serif" font-size="14.00">MVPVmbbm7g3f9PF2xRV6RSoSnw8xfr8kNj_20180811_20h44m06s</text>
</g>
<!-- MVPVmbbm7g3f9PF2xRV6RSoSnw8xfr8kNj_20180809_15h24m12s&#45;&gt;MVPVmbbm7g3f9PF2xRV6RSoSnw8xfr8kNj_20180811_20h44m06s -->
<g id="edge4" class="edge"><title>MVPVmbbm7g3f9PF2xRV6RSoSnw8xfr8kNj_20180809_15h24m12s&#45;&gt;MVPVmbbm7g3f9PF2xRV6RSoSnw8xfr8kNj_20180811_20h44m06s</title>
<path fill="none" stroke="black" d="M1363.14,-287.697C1362.59,-279.983 1361.93,-270.712 1361.31,-262.112"/>
<polygon fill="black" stroke="black" points="1364.8,-261.83 1360.6,-252.104 1357.82,-262.328 1364.8,-261.83"/>
</g>
<!-- MVPVmbbm7g3f9PF2xRV6RSoSnw8xfr8kNj_20180811_20h44m06s&#45;&gt;MVPVmbbm7g3f9PF2xRV6RSoSnw8xfr8kNj_20180811_20h44m06s -->
<g id="edge12" class="edge"><title>MVPVmbbm7g3f9PF2xRV6RSoSnw8xfr8kNj_20180811_20h44m06s&#45;&gt;MVPVmbbm7g3f9PF2xRV6RSoSnw8xfr8kNj_20180811_20h44m06s</title>
<path fill="none" stroke="black" d="M1534.17,-247.499C1593.54,-247.57 1641.25,-243.07 1641.25,-234 1641.25,-225.461 1598.96,-220.973 1544.48,-220.535"/>
<polygon fill="black" stroke="black" points="1544.18,-217.035 1534.17,-220.501 1544.16,-224.034 1544.18,-217.035"/>
</g>
<!-- MEA1vsjm6rLo8vpcN1UjjsUpiz4vDFz1QK_20180811_20h44m06s -->
<g id="node12" class="node"><title>MEA1vsjm6rLo8vpcN1UjjsUpiz4vDFz1QK_20180811_20h44m06s</title>
<ellipse fill="none" stroke="black" cx="1367.38" cy="-162" rx="255.355" ry="18"/>
<text text-anchor="middle" x="1367.38" y="-158.3" font-family="Times,serif" font-size="14.00">MEA1vsjm6rLo8vpcN1UjjsUpiz4vDFz1QK_20180811_20h44m06s</text>
</g>
<!-- MVPVmbbm7g3f9PF2xRV6RSoSnw8xfr8kNj_20180811_20h44m06s&#45;&gt;MEA1vsjm6rLo8vpcN1UjjsUpiz4vDFz1QK_20180811_20h44m06s -->
<g id="edge9" class="edge"><title>MVPVmbbm7g3f9PF2xRV6RSoSnw8xfr8kNj_20180811_20h44m06s&#45;&gt;MEA1vsjm6rLo8vpcN1UjjsUpiz4vDFz1QK_20180811_20h44m06s</title>
<path fill="none" stroke="black" d="M1361.35,-215.697C1362.24,-207.983 1363.29,-198.712 1364.28,-190.112"/>
<polygon fill="black" stroke="black" points="1367.76,-190.437 1365.42,-180.104 1360.81,-189.642 1367.76,-190.437"/>
</g>
<!-- MEA1vsjm6rLo8vpcN1UjjsUpiz4vDFz1QK_20180809_17h16m35s -->
<g id="node9" class="node"><title>MEA1vsjm6rLo8vpcN1UjjsUpiz4vDFz1QK_20180809_17h16m35s</title>
<ellipse fill="none" stroke="black" cx="1914.38" cy="-234" rx="255.355" ry="18"/>
<text text-anchor="middle" x="1914.38" y="-230.3" font-family="Times,serif" font-size="14.00">MEA1vsjm6rLo8vpcN1UjjsUpiz4vDFz1QK_20180809_17h16m35s</text>
</g>
<!-- MEA1vsjm6rLo8vpcN1UjjsUpiz4vDFz1QK_20180809_15h24m12s&#45;&gt;MEA1vsjm6rLo8vpcN1UjjsUpiz4vDFz1QK_20180809_17h16m35s -->
<g id="edge5" class="edge"><title>MEA1vsjm6rLo8vpcN1UjjsUpiz4vDFz1QK_20180809_15h24m12s&#45;&gt;MEA1vsjm6rLo8vpcN1UjjsUpiz4vDFz1QK_20180809_17h16m35s</title>
<path fill="none" stroke="black" d="M1911.36,-287.697C1911.81,-279.983 1912.34,-270.712 1912.83,-262.112"/>
<polygon fill="black" stroke="black" points="1916.32,-262.288 1913.4,-252.104 1909.33,-261.888 1916.32,-262.288"/>
</g>
<!-- MVyBQqKek1szksN74rJZN2UkjgXL8ZZRRh_20180809_17h16m35s -->
<g id="node11" class="node"><title>MVyBQqKek1szksN74rJZN2UkjgXL8ZZRRh_20180809_17h16m35s</title>
<ellipse fill="none" stroke="black" cx="2455.38" cy="-162" rx="263.753" ry="18"/>
<text text-anchor="middle" x="2455.38" y="-158.3" font-family="Times,serif" font-size="14.00">MVyBQqKek1szksN74rJZN2UkjgXL8ZZRRh_20180809_17h16m35s</text>
</g>
<!-- MEA1vsjm6rLo8vpcN1UjjsUpiz4vDFz1QK_20180809_17h16m35s&#45;&gt;MVyBQqKek1szksN74rJZN2UkjgXL8ZZRRh_20180809_17h16m35s -->
<g id="edge8" class="edge"><title>MEA1vsjm6rLo8vpcN1UjjsUpiz4vDFz1QK_20180809_17h16m35s&#45;&gt;MVyBQqKek1szksN74rJZN2UkjgXL8ZZRRh_20180809_17h16m35s</title>
<path fill="none" stroke="black" d="M2030.77,-217.94C2118.32,-206.612 2238.2,-191.101 2328.25,-179.448"/>
<polygon fill="black" stroke="black" points="2328.79,-182.909 2338.25,-178.154 2327.89,-175.967 2328.79,-182.909"/>
</g>
<!-- MEA1vsjm6rLo8vpcN1UjjsUpiz4vDFz1QK_20180809_17h16m35s&#45;&gt;MEA1vsjm6rLo8vpcN1UjjsUpiz4vDFz1QK_20180811_20h44m06s -->
<g id="edge15" class="edge"><title>MEA1vsjm6rLo8vpcN1UjjsUpiz4vDFz1QK_20180809_17h16m35s&#45;&gt;MEA1vsjm6rLo8vpcN1UjjsUpiz4vDFz1QK_20180811_20h44m06s</title>
<path fill="none" stroke="black" d="M1797.03,-217.983C1708.22,-206.619 1586.39,-191.027 1495.13,-179.349"/>
<polygon fill="black" stroke="black" points="1495.36,-175.85 1485,-178.052 1494.47,-182.793 1495.36,-175.85"/>
</g>
<!-- ME9ALAtisW7LhDebe5D2eGDiM2m24ySxet_20180809_17h16m35s -->
<g id="node15" class="node"><title>ME9ALAtisW7LhDebe5D2eGDiM2m24ySxet_20180809_17h16m35s</title>
<ellipse fill="none" stroke="black" cx="1909.38" cy="-162" rx="264.553" ry="18"/>
<text text-anchor="middle" x="1909.38" y="-158.3" font-family="Times,serif" font-size="14.00">ME9ALAtisW7LhDebe5D2eGDiM2m24ySxet_20180809_17h16m35s</text>
</g>
<!-- MEA1vsjm6rLo8vpcN1UjjsUpiz4vDFz1QK_20180809_17h16m35s&#45;&gt;ME9ALAtisW7LhDebe5D2eGDiM2m24ySxet_20180809_17h16m35s -->
<g id="edge18" class="edge"><title>MEA1vsjm6rLo8vpcN1UjjsUpiz4vDFz1QK_20180809_17h16m35s&#45;&gt;ME9ALAtisW7LhDebe5D2eGDiM2m24ySxet_20180809_17h16m35s</title>
<path fill="none" stroke="black" d="M1913.14,-215.697C1912.59,-207.983 1911.93,-198.712 1911.31,-190.112"/>
<polygon fill="black" stroke="black" points="1914.8,-189.83 1910.6,-180.104 1907.82,-190.328 1914.8,-189.83"/>
</g>
<!-- MALWZcApjcWpSEf5fpCaWpqBRctyeivAFN_20180902_10h35m36s -->
<g id="node10" class="node"><title>MALWZcApjcWpSEf5fpCaWpqBRctyeivAFN_20180902_10h35m36s</title>
<ellipse fill="none" stroke="black" cx="826.376" cy="-90" rx="267.253" ry="18"/>
<text text-anchor="middle" x="826.376" y="-86.3" font-family="Times,serif" font-size="14.00">MALWZcApjcWpSEf5fpCaWpqBRctyeivAFN_20180902_10h35m36s</text>
</g>
<!-- MALWZcApjcWpSEf5fpCaWpqBRctyeivAFN_20180902_10h35m36s&#45;&gt;MTYLt6M5U633pZn3jj4JjTUkoAru1DKpmp_20180902_10h35m36s -->
<g id="edge7" class="edge"><title>MALWZcApjcWpSEf5fpCaWpqBRctyeivAFN_20180902_10h35m36s&#45;&gt;MTYLt6M5U633pZn3jj4JjTUkoAru1DKpmp_20180902_10h35m36s</title>
<path fill="none" stroke="black" d="M760.374,-72.4996C718.976,-62.1499 665.462,-48.7715 622.305,-37.9822"/>
<polygon fill="black" stroke="black" points="622.969,-34.5407 612.419,-35.5108 621.272,-41.3317 622.969,-34.5407"/>
</g>
<!-- MALWZcApjcWpSEf5fpCaWpqBRctyeivAFN_20180902_10h35m36s&#45;&gt;M8KNqZgR94iXYNWPffmyum41DHs6Ve79A1_20180902_10h35m36s -->
<g id="edge16" class="edge"><title>MALWZcApjcWpSEf5fpCaWpqBRctyeivAFN_20180902_10h35m36s&#45;&gt;M8KNqZgR94iXYNWPffmyum41DHs6Ve79A1_20180902_10h35m36s</title>
<path fill="none" stroke="black" d="M890.728,-72.4996C931.007,-62.1717 983.048,-48.8278 1025.08,-38.0504"/>
<polygon fill="black" stroke="black" points="1026.17,-41.3849 1034.98,-35.5108 1024.43,-34.6043 1026.17,-41.3849"/>
</g>
<!-- MEA1vsjm6rLo8vpcN1UjjsUpiz4vDFz1QK_20180902_10h35m36s -->
<g id="node13" class="node"><title>MEA1vsjm6rLo8vpcN1UjjsUpiz4vDFz1QK_20180902_10h35m36s</title>
<ellipse fill="none" stroke="black" cx="1367.38" cy="-90" rx="255.355" ry="18"/>
<text text-anchor="middle" x="1367.38" y="-86.3" font-family="Times,serif" font-size="14.00">MEA1vsjm6rLo8vpcN1UjjsUpiz4vDFz1QK_20180902_10h35m36s</text>
</g>
<!-- MEA1vsjm6rLo8vpcN1UjjsUpiz4vDFz1QK_20180811_20h44m06s&#45;&gt;MEA1vsjm6rLo8vpcN1UjjsUpiz4vDFz1QK_20180902_10h35m36s -->
<g id="edge13" class="edge"><title>MEA1vsjm6rLo8vpcN1UjjsUpiz4vDFz1QK_20180811_20h44m06s&#45;&gt;MEA1vsjm6rLo8vpcN1UjjsUpiz4vDFz1QK_20180902_10h35m36s</title>
<path fill="none" stroke="black" d="M1367.38,-143.697C1367.38,-135.983 1367.38,-126.712 1367.38,-118.112"/>
<polygon fill="black" stroke="black" points="1370.88,-118.104 1367.38,-108.104 1363.88,-118.104 1370.88,-118.104"/>
</g>
<!-- MEA1vsjm6rLo8vpcN1UjjsUpiz4vDFz1QK_20180902_10h35m36s&#45;&gt;MTYLt6M5U633pZn3jj4JjTUkoAru1DKpmp_20180902_10h35m36s -->
<g id="edge10" class="edge"><title>MEA1vsjm6rLo8vpcN1UjjsUpiz4vDFz1QK_20180902_10h35m36s&#45;&gt;MTYLt6M5U633pZn3jj4JjTUkoAru1DKpmp_20180902_10h35m36s</title>
<path fill="none" stroke="black" d="M1211.5,-75.71C1069.35,-63.5898 859.871,-45.7292 714.117,-33.3019"/>
<polygon fill="black" stroke="black" points="713.996,-29.779 703.735,-32.4167 713.401,-36.7537 713.996,-29.779"/>
</g>
<!-- MEA1vsjm6rLo8vpcN1UjjsUpiz4vDFz1QK_20180902_10h35m36s&#45;&gt;M8KNqZgR94iXYNWPffmyum41DHs6Ve79A1_20180902_10h35m36s -->
<g id="edge17" class="edge"><title>MEA1vsjm6rLo8vpcN1UjjsUpiz4vDFz1QK_20180902_10h35m36s&#45;&gt;M8KNqZgR94iXYNWPffmyum41DHs6Ve79A1_20180902_10h35m36s</title>
<path fill="none" stroke="black" d="M1304.2,-72.4996C1264.81,-62.2091 1213.94,-48.9244 1172.76,-38.1677"/>
<polygon fill="black" stroke="black" points="1173.61,-34.773 1163.05,-35.6322 1171.84,-41.5458 1173.61,-34.773"/>
</g>
</g>
</svg>
