<?xml version="1.0" encoding="UTF-8" standalone="no"?>
<!DOCTYPE svg PUBLIC "-//W3C//DTD SVG 1.1//EN"
 "http://www.w3.org/Graphics/SVG/1.1/DTD/svg11.dtd">
<!-- Generated by graphviz version 2.38.0 (20140413.2041)
 -->
<!-- Title: G Pages: 1 -->
<svg width="5442pt" height="260pt"
 viewBox="0.00 0.00 5441.65 260.00" xmlns="http://www.w3.org/2000/svg" xmlns:xlink="http://www.w3.org/1999/xlink">
<g id="graph0" class="graph" transform="scale(1 1) rotate(0) translate(4 256)">
<title>G</title>
<polygon fill="white" stroke="none" points="-4,4 -4,-256 5437.65,-256 5437.65,4 -4,4"/>
<!-- M8mrbFK97vVhGVz6DRPHogeyJZVdZCz8PR_20180902_19h56m40s -->
<g id="node1" class="node"><title>M8mrbFK97vVhGVz6DRPHogeyJZVdZCz8PR_20180902_19h56m40s</title>
<ellipse fill="none" stroke="black" cx="804.027" cy="-90" rx="269.952" ry="18"/>
<text text-anchor="middle" x="804.027" y="-86.3" font-family="Times,serif" font-size="14.00">M8mrbFK97vVhGVz6DRPHogeyJZVdZCz8PR_20180902_19h56m40s</text>
</g>
<!-- MTYLt6M5U633pZn3jj4JjTUkoAru1DKpmp_20180902_19h56m40s -->
<g id="node2" class="node"><title>MTYLt6M5U633pZn3jj4JjTUkoAru1DKpmp_20180902_19h56m40s</title>
<ellipse fill="none" stroke="black" cx="1615.03" cy="-18" rx="261.054" ry="18"/>
<text text-anchor="middle" x="1615.03" y="-14.3" font-family="Times,serif" font-size="14.00">MTYLt6M5U633pZn3jj4JjTUkoAru1DKpmp_20180902_19h56m40s</text>
</g>
<!-- M8mrbFK97vVhGVz6DRPHogeyJZVdZCz8PR_20180902_19h56m40s&#45;&gt;MTYLt6M5U633pZn3jj4JjTUkoAru1DKpmp_20180902_19h56m40s -->
<g id="edge1" class="edge"><title>M8mrbFK97vVhGVz6DRPHogeyJZVdZCz8PR_20180902_19h56m40s&#45;&gt;MTYLt6M5U633pZn3jj4JjTUkoAru1DKpmp_20180902_19h56m40s</title>
<path fill="none" stroke="black" d="M961.839,-75.3787C1102.01,-63.2798 1306.2,-45.656 1448.85,-33.3433"/>
<polygon fill="black" stroke="black" points="1449.35,-36.8132 1459.01,-32.4662 1448.75,-29.8391 1449.35,-36.8132"/>
</g>
<!-- MVsj2eHS8NdrCGRR6TJwDHpnizyCQfgCU6_20180902_19h56m40s -->
<g id="node13" class="node"><title>MVsj2eHS8NdrCGRR6TJwDHpnizyCQfgCU6_20180902_19h56m40s</title>
<ellipse fill="none" stroke="black" cx="2160.03" cy="-18" rx="265.653" ry="18"/>
<text text-anchor="middle" x="2160.03" y="-14.3" font-family="Times,serif" font-size="14.00">MVsj2eHS8NdrCGRR6TJwDHpnizyCQfgCU6_20180902_19h56m40s</text>
</g>
<!-- M8mrbFK97vVhGVz6DRPHogeyJZVdZCz8PR_20180902_19h56m40s&#45;&gt;MVsj2eHS8NdrCGRR6TJwDHpnizyCQfgCU6_20180902_19h56m40s -->
<g id="edge17" class="edge"><title>M8mrbFK97vVhGVz6DRPHogeyJZVdZCz8PR_20180902_19h56m40s&#45;&gt;MVsj2eHS8NdrCGRR6TJwDHpnizyCQfgCU6_20180902_19h56m40s</title>
<path fill="none" stroke="black" d="M992.351,-77.1134C1022.67,-75.3185 1053.71,-73.5511 1083.03,-72 1439.33,-53.1492 1528.73,-55.0081 1885.03,-36 1910.65,-34.6329 1937.61,-33.0923 1964.23,-31.5108"/>
<polygon fill="black" stroke="black" points="1964.63,-34.993 1974.41,-30.903 1964.21,-28.0054 1964.63,-34.993"/>
</g>
<!-- MEA6vpvJS61v4L1adoEMNko1SdgajcvqaR_20180902_11h26m26s -->
<g id="node3" class="node"><title>MEA6vpvJS61v4L1adoEMNko1SdgajcvqaR_20180902_11h26m26s</title>
<ellipse fill="none" stroke="black" cx="2431.03" cy="-234" rx="257.254" ry="18"/>
<text text-anchor="middle" x="2431.03" y="-230.3" font-family="Times,serif" font-size="14.00">MEA6vpvJS61v4L1adoEMNko1SdgajcvqaR_20180902_11h26m26s</text>
</g>
<!-- MP7rwbgHiEALz44q96UY4iXkbEJRXjvVoA_20180902_11h26m26s -->
<g id="node4" class="node"><title>MP7rwbgHiEALz44q96UY4iXkbEJRXjvVoA_20180902_11h26m26s</title>
<ellipse fill="none" stroke="black" cx="2965.03" cy="-162" rx="262.653" ry="18"/>
<text text-anchor="middle" x="2965.03" y="-158.3" font-family="Times,serif" font-size="14.00">MP7rwbgHiEALz44q96UY4iXkbEJRXjvVoA_20180902_11h26m26s</text>
</g>
<!-- MEA6vpvJS61v4L1adoEMNko1SdgajcvqaR_20180902_11h26m26s&#45;&gt;MP7rwbgHiEALz44q96UY4iXkbEJRXjvVoA_20180902_11h26m26s -->
<g id="edge2" class="edge"><title>MEA6vpvJS61v4L1adoEMNko1SdgajcvqaR_20180902_11h26m26s&#45;&gt;MP7rwbgHiEALz44q96UY4iXkbEJRXjvVoA_20180902_11h26m26s</title>
<path fill="none" stroke="black" d="M2546.24,-217.897C2632.45,-206.597 2750.26,-191.153 2838.98,-179.523"/>
<polygon fill="black" stroke="black" points="2839.64,-182.967 2849.1,-178.196 2838.73,-176.026 2839.64,-182.967"/>
</g>
<!-- MVoVXLsqobu5K3AWJTAh4ZBSRs1J6iiMW7_20180902_11h26m26s -->
<g id="node7" class="node"><title>MVoVXLsqobu5K3AWJTAh4ZBSRs1J6iiMW7_20180902_11h26m26s</title>
<ellipse fill="none" stroke="black" cx="3518.03" cy="-162" rx="272.152" ry="18"/>
<text text-anchor="middle" x="3518.03" y="-158.3" font-family="Times,serif" font-size="14.00">MVoVXLsqobu5K3AWJTAh4ZBSRs1J6iiMW7_20180902_11h26m26s</text>
</g>
<!-- MEA6vpvJS61v4L1adoEMNko1SdgajcvqaR_20180902_11h26m26s&#45;&gt;MVoVXLsqobu5K3AWJTAh4ZBSRs1J6iiMW7_20180902_11h26m26s -->
<g id="edge21" class="edge"><title>MEA6vpvJS61v4L1adoEMNko1SdgajcvqaR_20180902_11h26m26s&#45;&gt;MVoVXLsqobu5K3AWJTAh4ZBSRs1J6iiMW7_20180902_11h26m26s</title>
<path fill="none" stroke="black" d="M2613.27,-221.264C2809.02,-208.658 3119.01,-188.695 3320.48,-175.722"/>
<polygon fill="black" stroke="black" points="3320.83,-179.206 3330.59,-175.071 3320.38,-172.221 3320.83,-179.206"/>
</g>
<!-- MP7rwbgHiEALz44q96UY4iXkbEJRXjvVoA_20180902_19h56m40s -->
<g id="node11" class="node"><title>MP7rwbgHiEALz44q96UY4iXkbEJRXjvVoA_20180902_19h56m40s</title>
<ellipse fill="none" stroke="black" cx="2965.03" cy="-90" rx="262.653" ry="18"/>
<text text-anchor="middle" x="2965.03" y="-86.3" font-family="Times,serif" font-size="14.00">MP7rwbgHiEALz44q96UY4iXkbEJRXjvVoA_20180902_19h56m40s</text>
</g>
<!-- MP7rwbgHiEALz44q96UY4iXkbEJRXjvVoA_20180902_11h26m26s&#45;&gt;MP7rwbgHiEALz44q96UY4iXkbEJRXjvVoA_20180902_19h56m40s -->
<g id="edge9" class="edge"><title>MP7rwbgHiEALz44q96UY4iXkbEJRXjvVoA_20180902_11h26m26s&#45;&gt;MP7rwbgHiEALz44q96UY4iXkbEJRXjvVoA_20180902_19h56m40s</title>
<path fill="none" stroke="black" d="M2965.03,-143.697C2965.03,-135.983 2965.03,-126.712 2965.03,-118.112"/>
<polygon fill="black" stroke="black" points="2968.53,-118.104 2965.03,-108.104 2961.53,-118.104 2968.53,-118.104"/>
</g>
<!-- MFckG1iHPNAp9bUdC3Ta3yLHvPddPL82sn_20180902_11h26m26s -->
<g id="node5" class="node"><title>MFckG1iHPNAp9bUdC3Ta3yLHvPddPL82sn_20180902_11h26m26s</title>
<ellipse fill="none" stroke="black" cx="2970.03" cy="-234" rx="263.453" ry="18"/>
<text text-anchor="middle" x="2970.03" y="-230.3" font-family="Times,serif" font-size="14.00">MFckG1iHPNAp9bUdC3Ta3yLHvPddPL82sn_20180902_11h26m26s</text>
</g>
<!-- MFckG1iHPNAp9bUdC3Ta3yLHvPddPL82sn_20180902_11h26m26s&#45;&gt;MP7rwbgHiEALz44q96UY4iXkbEJRXjvVoA_20180902_11h26m26s -->
<g id="edge3" class="edge"><title>MFckG1iHPNAp9bUdC3Ta3yLHvPddPL82sn_20180902_11h26m26s&#45;&gt;MP7rwbgHiEALz44q96UY4iXkbEJRXjvVoA_20180902_11h26m26s</title>
<path fill="none" stroke="black" d="M2968.79,-215.697C2968.24,-207.983 2967.58,-198.712 2966.96,-190.112"/>
<polygon fill="black" stroke="black" points="2970.45,-189.83 2966.25,-180.104 2963.47,-190.328 2970.45,-189.83"/>
</g>
<!-- MFckG1iHPNAp9bUdC3Ta3yLHvPddPL82sn_20180902_11h26m26s&#45;&gt;MVoVXLsqobu5K3AWJTAh4ZBSRs1J6iiMW7_20180902_11h26m26s -->
<g id="edge7" class="edge"><title>MFckG1iHPNAp9bUdC3Ta3yLHvPddPL82sn_20180902_11h26m26s&#45;&gt;MVoVXLsqobu5K3AWJTAh4ZBSRs1J6iiMW7_20180902_11h26m26s</title>
<path fill="none" stroke="black" d="M3088.26,-217.897C3176.82,-206.585 3297.88,-191.121 3388.95,-179.488"/>
<polygon fill="black" stroke="black" points="3389.59,-182.935 3399.06,-178.196 3388.7,-175.992 3389.59,-182.935"/>
</g>
<!-- MGsG3Zc95j79nA5iJa5mHbDY5Nf37LsQVn_20180902_11h26m26s -->
<g id="node6" class="node"><title>MGsG3Zc95j79nA5iJa5mHbDY5Nf37LsQVn_20180902_11h26m26s</title>
<ellipse fill="none" stroke="black" cx="3514.03" cy="-234" rx="262.653" ry="18"/>
<text text-anchor="middle" x="3514.03" y="-230.3" font-family="Times,serif" font-size="14.00">MGsG3Zc95j79nA5iJa5mHbDY5Nf37LsQVn_20180902_11h26m26s</text>
</g>
<!-- MGsG3Zc95j79nA5iJa5mHbDY5Nf37LsQVn_20180902_11h26m26s&#45;&gt;MP7rwbgHiEALz44q96UY4iXkbEJRXjvVoA_20180902_11h26m26s -->
<g id="edge29" class="edge"><title>MGsG3Zc95j79nA5iJa5mHbDY5Nf37LsQVn_20180902_11h26m26s&#45;&gt;MP7rwbgHiEALz44q96UY4iXkbEJRXjvVoA_20180902_11h26m26s</title>
<path fill="none" stroke="black" d="M3395.58,-217.897C3306.56,-206.547 3184.75,-191.015 3093.4,-179.369"/>
<polygon fill="black" stroke="black" points="3093.63,-175.869 3083.26,-178.076 3092.74,-182.812 3093.63,-175.869"/>
</g>
<!-- MGsG3Zc95j79nA5iJa5mHbDY5Nf37LsQVn_20180902_11h26m26s&#45;&gt;MVoVXLsqobu5K3AWJTAh4ZBSRs1J6iiMW7_20180902_11h26m26s -->
<g id="edge4" class="edge"><title>MGsG3Zc95j79nA5iJa5mHbDY5Nf37LsQVn_20180902_11h26m26s&#45;&gt;MVoVXLsqobu5K3AWJTAh4ZBSRs1J6iiMW7_20180902_11h26m26s</title>
<path fill="none" stroke="black" d="M3515.02,-215.697C3515.46,-207.983 3515.99,-198.712 3516.48,-190.112"/>
<polygon fill="black" stroke="black" points="3519.97,-190.288 3517.05,-180.104 3512.98,-189.888 3519.97,-190.288"/>
</g>
<!-- MExUJ6Ctj7wJcYhNZWx8g65Bc8i5xQwyGh_20180902_19h56m40s -->
<g id="node8" class="node"><title>MExUJ6Ctj7wJcYhNZWx8g65Bc8i5xQwyGh_20180902_19h56m40s</title>
<ellipse fill="none" stroke="black" cx="1355.03" cy="-90" rx="263.453" ry="18"/>
<text text-anchor="middle" x="1355.03" y="-86.3" font-family="Times,serif" font-size="14.00">MExUJ6Ctj7wJcYhNZWx8g65Bc8i5xQwyGh_20180902_19h56m40s</text>
</g>
<!-- MExUJ6Ctj7wJcYhNZWx8g65Bc8i5xQwyGh_20180902_19h56m40s&#45;&gt;MTYLt6M5U633pZn3jj4JjTUkoAru1DKpmp_20180902_19h56m40s -->
<g id="edge5" class="edge"><title>MExUJ6Ctj7wJcYhNZWx8g65Bc8i5xQwyGh_20180902_19h56m40s&#45;&gt;MTYLt6M5U633pZn3jj4JjTUkoAru1DKpmp_20180902_19h56m40s</title>
<path fill="none" stroke="black" d="M1416.64,-72.411C1454.71,-62.1614 1503.72,-48.9671 1543.5,-38.2572"/>
<polygon fill="black" stroke="black" points="1544.66,-41.5706 1553.4,-35.5911 1542.84,-34.8113 1544.66,-41.5706"/>
</g>
<!-- MExUJ6Ctj7wJcYhNZWx8g65Bc8i5xQwyGh_20180902_19h56m40s&#45;&gt;MVsj2eHS8NdrCGRR6TJwDHpnizyCQfgCU6_20180902_19h56m40s -->
<g id="edge14" class="edge"><title>MExUJ6Ctj7wJcYhNZWx8g65Bc8i5xQwyGh_20180902_19h56m40s&#45;&gt;MVsj2eHS8NdrCGRR6TJwDHpnizyCQfgCU6_20180902_19h56m40s</title>
<path fill="none" stroke="black" d="M1510.72,-75.4618C1649.42,-63.4009 1851.8,-45.802 1993.66,-33.4669"/>
<polygon fill="black" stroke="black" points="1994.11,-36.9413 2003.76,-32.588 1993.5,-29.9676 1994.11,-36.9413"/>
</g>
<!-- MAy5hYuXaxPRnjizN68JdZ9EYjtiR5Hjz2_20180902_19h56m40s -->
<g id="node9" class="node"><title>MAy5hYuXaxPRnjizN68JdZ9EYjtiR5Hjz2_20180902_19h56m40s</title>
<ellipse fill="none" stroke="black" cx="1888.03" cy="-90" rx="252.355" ry="18"/>
<text text-anchor="middle" x="1888.03" y="-86.3" font-family="Times,serif" font-size="14.00">MAy5hYuXaxPRnjizN68JdZ9EYjtiR5Hjz2_20180902_19h56m40s</text>
</g>
<!-- MAy5hYuXaxPRnjizN68JdZ9EYjtiR5Hjz2_20180902_19h56m40s&#45;&gt;MTYLt6M5U633pZn3jj4JjTUkoAru1DKpmp_20180902_19h56m40s -->
<g id="edge6" class="edge"><title>MAy5hYuXaxPRnjizN68JdZ9EYjtiR5Hjz2_20180902_19h56m40s&#45;&gt;MTYLt6M5U633pZn3jj4JjTUkoAru1DKpmp_20180902_19h56m40s</title>
<path fill="none" stroke="black" d="M1824.02,-72.5881C1783.75,-62.2627 1731.62,-48.8968 1689.5,-38.0967"/>
<polygon fill="black" stroke="black" points="1690.13,-34.6451 1679.58,-35.5516 1688.4,-41.4258 1690.13,-34.6451"/>
</g>
<!-- MAy5hYuXaxPRnjizN68JdZ9EYjtiR5Hjz2_20180902_19h56m40s&#45;&gt;MVsj2eHS8NdrCGRR6TJwDHpnizyCQfgCU6_20180902_19h56m40s -->
<g id="edge20" class="edge"><title>MAy5hYuXaxPRnjizN68JdZ9EYjtiR5Hjz2_20180902_19h56m40s&#45;&gt;MVsj2eHS8NdrCGRR6TJwDHpnizyCQfgCU6_20180902_19h56m40s</title>
<path fill="none" stroke="black" d="M1952.14,-72.4996C1992.27,-62.1717 2044.12,-48.8278 2086,-38.0504"/>
<polygon fill="black" stroke="black" points="2087.06,-41.3927 2095.87,-35.5108 2085.31,-34.6136 2087.06,-41.3927"/>
</g>
<!-- MCMJaA2B85pgrpXZmqPkgy6dFqvSXJfw2e_20180902_19h56m40s -->
<g id="node10" class="node"><title>MCMJaA2B85pgrpXZmqPkgy6dFqvSXJfw2e_20180902_19h56m40s</title>
<ellipse fill="none" stroke="black" cx="2421.03" cy="-90" rx="263.453" ry="18"/>
<text text-anchor="middle" x="2421.03" y="-86.3" font-family="Times,serif" font-size="14.00">MCMJaA2B85pgrpXZmqPkgy6dFqvSXJfw2e_20180902_19h56m40s</text>
</g>
<!-- MCMJaA2B85pgrpXZmqPkgy6dFqvSXJfw2e_20180902_19h56m40s&#45;&gt;MTYLt6M5U633pZn3jj4JjTUkoAru1DKpmp_20180902_19h56m40s -->
<g id="edge8" class="edge"><title>MCMJaA2B85pgrpXZmqPkgy6dFqvSXJfw2e_20180902_19h56m40s&#45;&gt;MTYLt6M5U633pZn3jj4JjTUkoAru1DKpmp_20180902_19h56m40s</title>
<path fill="none" stroke="black" d="M2265.14,-75.4618C2125.94,-63.3718 1922.65,-45.717 1780.58,-33.3777"/>
<polygon fill="black" stroke="black" points="1780.72,-29.8771 1770.45,-32.4986 1780.11,-36.8508 1780.72,-29.8771"/>
</g>
<!-- MCMJaA2B85pgrpXZmqPkgy6dFqvSXJfw2e_20180902_19h56m40s&#45;&gt;MVsj2eHS8NdrCGRR6TJwDHpnizyCQfgCU6_20180902_19h56m40s -->
<g id="edge16" class="edge"><title>MCMJaA2B85pgrpXZmqPkgy6dFqvSXJfw2e_20180902_19h56m40s&#45;&gt;MVsj2eHS8NdrCGRR6TJwDHpnizyCQfgCU6_20180902_19h56m40s</title>
<path fill="none" stroke="black" d="M2359.17,-72.411C2320.88,-62.1397 2271.55,-48.9112 2231.58,-38.1891"/>
<polygon fill="black" stroke="black" points="2232.45,-34.8011 2221.89,-35.5911 2230.64,-41.5621 2232.45,-34.8011"/>
</g>
<!-- MP7rwbgHiEALz44q96UY4iXkbEJRXjvVoA_20180902_19h56m40s&#45;&gt;MTYLt6M5U633pZn3jj4JjTUkoAru1DKpmp_20180902_19h56m40s -->
<g id="edge31" class="edge"><title>MP7rwbgHiEALz44q96UY4iXkbEJRXjvVoA_20180902_19h56m40s&#45;&gt;MTYLt6M5U633pZn3jj4JjTUkoAru1DKpmp_20180902_19h56m40s</title>
<path fill="none" stroke="black" d="M2781.8,-77.0985C2752.13,-75.3007 2721.73,-73.5362 2693.03,-72 2334.07,-52.7878 2243.98,-55.295 1885.03,-36 1859.87,-34.6475 1833.39,-33.1154 1807.27,-31.5382"/>
<polygon fill="black" stroke="black" points="1807.47,-28.044 1797.27,-30.9318 1807.04,-35.0311 1807.47,-28.044"/>
</g>
<!-- MP7rwbgHiEALz44q96UY4iXkbEJRXjvVoA_20180902_19h56m40s&#45;&gt;MVsj2eHS8NdrCGRR6TJwDHpnizyCQfgCU6_20180902_19h56m40s -->
<g id="edge11" class="edge"><title>MP7rwbgHiEALz44q96UY4iXkbEJRXjvVoA_20180902_19h56m40s&#45;&gt;MVsj2eHS8NdrCGRR6TJwDHpnizyCQfgCU6_20180902_19h56m40s</title>
<path fill="none" stroke="black" d="M2809.34,-75.4618C2670.64,-63.4009 2468.25,-45.802 2326.4,-33.4669"/>
<polygon fill="black" stroke="black" points="2326.56,-29.9676 2316.29,-32.588 2325.95,-36.9413 2326.56,-29.9676"/>
</g>
<!-- MMGHVgKfzQfp9DeVppeVVrXDAiDKX1WVRa_20180902_19h56m40s -->
<g id="node12" class="node"><title>MMGHVgKfzQfp9DeVppeVVrXDAiDKX1WVRa_20180902_19h56m40s</title>
<ellipse fill="none" stroke="black" cx="3528.03" cy="-90" rx="282.15" ry="18"/>
<text text-anchor="middle" x="3528.03" y="-86.3" font-family="Times,serif" font-size="14.00">MMGHVgKfzQfp9DeVppeVVrXDAiDKX1WVRa_20180902_19h56m40s</text>
</g>
<!-- MMGHVgKfzQfp9DeVppeVVrXDAiDKX1WVRa_20180902_19h56m40s&#45;&gt;MTYLt6M5U633pZn3jj4JjTUkoAru1DKpmp_20180902_19h56m40s -->
<g id="edge10" class="edge"><title>MMGHVgKfzQfp9DeVppeVVrXDAiDKX1WVRa_20180902_19h56m40s&#45;&gt;MTYLt6M5U633pZn3jj4JjTUkoAru1DKpmp_20180902_19h56m40s</title>
<path fill="none" stroke="black" d="M3334.76,-76.8477C3302.14,-75.0442 3268.63,-73.3434 3237.03,-72 2636.47,-46.4687 2485.53,-62.8906 1885.03,-36 1858.7,-34.8211 1830.94,-33.3423 1803.65,-31.7517"/>
<polygon fill="black" stroke="black" points="1803.8,-28.2549 1793.62,-31.161 1803.39,-35.2428 1803.8,-28.2549"/>
</g>
<!-- MMGHVgKfzQfp9DeVppeVVrXDAiDKX1WVRa_20180902_19h56m40s&#45;&gt;MVsj2eHS8NdrCGRR6TJwDHpnizyCQfgCU6_20180902_19h56m40s -->
<g id="edge15" class="edge"><title>MMGHVgKfzQfp9DeVppeVVrXDAiDKX1WVRa_20180902_19h56m40s&#45;&gt;MVsj2eHS8NdrCGRR6TJwDHpnizyCQfgCU6_20180902_19h56m40s</title>
<path fill="none" stroke="black" d="M3329.63,-77.1656C3298.64,-75.3873 3266.97,-73.6113 3237.03,-72 2941.45,-56.0941 2600.15,-39.6181 2382.35,-29.344"/>
<polygon fill="black" stroke="black" points="2382.23,-25.8344 2372.07,-28.8595 2381.9,-32.8266 2382.23,-25.8344"/>
</g>
<!-- M8PWmpVoG6MyM29x86bg5bHrQ3X7pXiGyf_20180902_11h26m26s -->
<g id="node14" class="node"><title>M8PWmpVoG6MyM29x86bg5bHrQ3X7pXiGyf_20180902_11h26m26s</title>
<ellipse fill="none" stroke="black" cx="4068.03" cy="-234" rx="273.751" ry="18"/>
<text text-anchor="middle" x="4068.03" y="-230.3" font-family="Times,serif" font-size="14.00">M8PWmpVoG6MyM29x86bg5bHrQ3X7pXiGyf_20180902_11h26m26s</text>
</g>
<!-- M8PWmpVoG6MyM29x86bg5bHrQ3X7pXiGyf_20180902_11h26m26s&#45;&gt;MP7rwbgHiEALz44q96UY4iXkbEJRXjvVoA_20180902_11h26m26s -->
<g id="edge12" class="edge"><title>M8PWmpVoG6MyM29x86bg5bHrQ3X7pXiGyf_20180902_11h26m26s&#45;&gt;MP7rwbgHiEALz44q96UY4iXkbEJRXjvVoA_20180902_11h26m26s</title>
<path fill="none" stroke="black" d="M3878.73,-220.986C3678.29,-208.266 3363.41,-188.283 3160.61,-175.413"/>
<polygon fill="black" stroke="black" points="3160.64,-171.907 3150.44,-174.767 3160.2,-178.893 3160.64,-171.907"/>
</g>
<!-- M8PWmpVoG6MyM29x86bg5bHrQ3X7pXiGyf_20180902_11h26m26s&#45;&gt;MVoVXLsqobu5K3AWJTAh4ZBSRs1J6iiMW7_20180902_11h26m26s -->
<g id="edge22" class="edge"><title>M8PWmpVoG6MyM29x86bg5bHrQ3X7pXiGyf_20180902_11h26m26s&#45;&gt;MVoVXLsqobu5K3AWJTAh4ZBSRs1J6iiMW7_20180902_11h26m26s</title>
<path fill="none" stroke="black" d="M3948.35,-217.768C3859.56,-206.468 3738.63,-191.077 3647.57,-179.488"/>
<polygon fill="black" stroke="black" points="3647.83,-175.992 3637.46,-178.201 3646.94,-182.936 3647.83,-175.992"/>
</g>
<!-- MDKqrNEgRdyTdAx7iuQjjiunatPAQugJ22_20180902_11h26m26s -->
<g id="node15" class="node"><title>MDKqrNEgRdyTdAx7iuQjjiunatPAQugJ22_20180902_11h26m26s</title>
<ellipse fill="none" stroke="black" cx="4614.03" cy="-234" rx="254.255" ry="18"/>
<text text-anchor="middle" x="4614.03" y="-230.3" font-family="Times,serif" font-size="14.00">MDKqrNEgRdyTdAx7iuQjjiunatPAQugJ22_20180902_11h26m26s</text>
</g>
<!-- MDKqrNEgRdyTdAx7iuQjjiunatPAQugJ22_20180902_11h26m26s&#45;&gt;MP7rwbgHiEALz44q96UY4iXkbEJRXjvVoA_20180902_11h26m26s -->
<g id="edge13" class="edge"><title>MDKqrNEgRdyTdAx7iuQjjiunatPAQugJ22_20180902_11h26m26s&#45;&gt;MP7rwbgHiEALz44q96UY4iXkbEJRXjvVoA_20180902_11h26m26s</title>
<path fill="none" stroke="black" d="M4439.36,-220.918C4409.88,-219.106 4379.59,-217.384 4351.03,-216 3856.24,-192.02 3731.84,-203.453 3237.03,-180 3210.82,-178.758 3183.21,-177.257 3156.03,-175.667"/>
<polygon fill="black" stroke="black" points="3156.23,-172.172 3146.04,-175.077 3155.82,-179.16 3156.23,-172.172"/>
</g>
<!-- MDKqrNEgRdyTdAx7iuQjjiunatPAQugJ22_20180902_11h26m26s&#45;&gt;MVoVXLsqobu5K3AWJTAh4ZBSRs1J6iiMW7_20180902_11h26m26s -->
<g id="edge23" class="edge"><title>MDKqrNEgRdyTdAx7iuQjjiunatPAQugJ22_20180902_11h26m26s&#45;&gt;MVoVXLsqobu5K3AWJTAh4ZBSRs1J6iiMW7_20180902_11h26m26s</title>
<path fill="none" stroke="black" d="M4433.65,-221.316C4405.98,-219.531 4377.74,-217.713 4351.03,-216 4134.27,-202.099 3885.77,-186.307 3717.01,-175.604"/>
<polygon fill="black" stroke="black" points="3717.22,-172.11 3707.02,-174.97 3716.78,-179.096 3717.22,-172.11"/>
</g>
<!-- MMwu2QS7FQqNdtSN6xpZtveQV5jFjZiiBt_20180902_19h56m40s -->
<g id="node16" class="node"><title>MMwu2QS7FQqNdtSN6xpZtveQV5jFjZiiBt_20180902_19h56m40s</title>
<ellipse fill="none" stroke="black" cx="258.027" cy="-90" rx="258.054" ry="18"/>
<text text-anchor="middle" x="258.027" y="-86.3" font-family="Times,serif" font-size="14.00">MMwu2QS7FQqNdtSN6xpZtveQV5jFjZiiBt_20180902_19h56m40s</text>
</g>
<!-- MMwu2QS7FQqNdtSN6xpZtveQV5jFjZiiBt_20180902_19h56m40s&#45;&gt;MTYLt6M5U633pZn3jj4JjTUkoAru1DKpmp_20180902_19h56m40s -->
<g id="edge18" class="edge"><title>MMwu2QS7FQqNdtSN6xpZtveQV5jFjZiiBt_20180902_19h56m40s&#45;&gt;MTYLt6M5U633pZn3jj4JjTUkoAru1DKpmp_20180902_19h56m40s</title>
<path fill="none" stroke="black" d="M438.611,-77.1333C467.508,-75.3407 497.086,-73.5687 525.027,-72 824.851,-55.1667 1171.25,-38.8608 1391.61,-28.8822"/>
<polygon fill="black" stroke="black" points="1391.85,-32.375 1401.68,-28.4266 1391.53,-25.3822 1391.85,-32.375"/>
</g>
<!-- MMwu2QS7FQqNdtSN6xpZtveQV5jFjZiiBt_20180902_19h56m40s&#45;&gt;MVsj2eHS8NdrCGRR6TJwDHpnizyCQfgCU6_20180902_19h56m40s -->
<g id="edge28" class="edge"><title>MMwu2QS7FQqNdtSN6xpZtveQV5jFjZiiBt_20180902_19h56m40s&#45;&gt;MVsj2eHS8NdrCGRR6TJwDHpnizyCQfgCU6_20180902_19h56m40s</title>
<path fill="none" stroke="black" d="M434.271,-76.8493C464.534,-75.0289 495.678,-73.3223 525.027,-72 1129.07,-44.7849 1280.96,-62.6579 1885.03,-36 1911.84,-34.8167 1940.11,-33.3355 1967.91,-31.7437"/>
<polygon fill="black" stroke="black" points="1968.35,-35.2244 1978.13,-31.1526 1967.94,-28.2361 1968.35,-35.2244"/>
</g>
<!-- M8KNqZgR94iXYNWPffmyum41DHs6Ve79A1_20180902_11h26m26s -->
<g id="node17" class="node"><title>M8KNqZgR94iXYNWPffmyum41DHs6Ve79A1_20180902_11h26m26s</title>
<ellipse fill="none" stroke="black" cx="5160.03" cy="-234" rx="273.751" ry="18"/>
<text text-anchor="middle" x="5160.03" y="-230.3" font-family="Times,serif" font-size="14.00">M8KNqZgR94iXYNWPffmyum41DHs6Ve79A1_20180902_11h26m26s</text>
</g>
<!-- M8KNqZgR94iXYNWPffmyum41DHs6Ve79A1_20180902_11h26m26s&#45;&gt;MP7rwbgHiEALz44q96UY4iXkbEJRXjvVoA_20180902_11h26m26s -->
<g id="edge19" class="edge"><title>M8KNqZgR94iXYNWPffmyum41DHs6Ve79A1_20180902_11h26m26s&#45;&gt;MP7rwbgHiEALz44q96UY4iXkbEJRXjvVoA_20180902_11h26m26s</title>
<path fill="none" stroke="black" d="M4973.6,-220.791C4941.4,-218.971 4908.26,-217.28 4877.03,-216 4148.57,-186.136 3965.44,-210.745 3237.03,-180 3210.19,-178.867 3181.87,-177.401 3154.06,-175.804"/>
<polygon fill="black" stroke="black" points="3154.02,-172.296 3143.84,-175.21 3153.62,-179.284 3154.02,-172.296"/>
</g>
<!-- M8KNqZgR94iXYNWPffmyum41DHs6Ve79A1_20180902_11h26m26s&#45;&gt;MVoVXLsqobu5K3AWJTAh4ZBSRs1J6iiMW7_20180902_11h26m26s -->
<g id="edge25" class="edge"><title>M8KNqZgR94iXYNWPffmyum41DHs6Ve79A1_20180902_11h26m26s&#45;&gt;MVoVXLsqobu5K3AWJTAh4ZBSRs1J6iiMW7_20180902_11h26m26s</title>
<path fill="none" stroke="black" d="M4969.77,-221.021C4938.78,-219.228 4907.01,-217.485 4877.03,-216 4489.02,-196.782 4038.41,-180.375 3765.94,-171.103"/>
<polygon fill="black" stroke="black" points="3766.03,-167.605 3755.92,-170.763 3765.79,-174.601 3766.03,-167.605"/>
</g>
<!-- M8cCoN1oQXmrk8CPBGjhiexrn47mR7jX2T_20180902_11h26m26s -->
<g id="node18" class="node"><title>M8cCoN1oQXmrk8CPBGjhiexrn47mR7jX2T_20180902_11h26m26s</title>
<ellipse fill="none" stroke="black" cx="1350.03" cy="-234" rx="262.653" ry="18"/>
<text text-anchor="middle" x="1350.03" y="-230.3" font-family="Times,serif" font-size="14.00">M8cCoN1oQXmrk8CPBGjhiexrn47mR7jX2T_20180902_11h26m26s</text>
</g>
<!-- M8cCoN1oQXmrk8CPBGjhiexrn47mR7jX2T_20180902_11h26m26s&#45;&gt;MP7rwbgHiEALz44q96UY4iXkbEJRXjvVoA_20180902_11h26m26s -->
<g id="edge24" class="edge"><title>M8cCoN1oQXmrk8CPBGjhiexrn47mR7jX2T_20180902_11h26m26s&#45;&gt;MP7rwbgHiEALz44q96UY4iXkbEJRXjvVoA_20180902_11h26m26s</title>
<path fill="none" stroke="black" d="M1531.85,-221.011C1561.64,-219.214 1592.19,-217.473 1621.03,-216 2006.26,-196.324 2453.94,-179.973 2723.08,-170.848"/>
<polygon fill="black" stroke="black" points="2723.49,-174.336 2733.37,-170.5 2723.26,-167.34 2723.49,-174.336"/>
</g>
<!-- M8cCoN1oQXmrk8CPBGjhiexrn47mR7jX2T_20180902_11h26m26s&#45;&gt;MVoVXLsqobu5K3AWJTAh4ZBSRs1J6iiMW7_20180902_11h26m26s -->
<g id="edge26" class="edge"><title>M8cCoN1oQXmrk8CPBGjhiexrn47mR7jX2T_20180902_11h26m26s&#45;&gt;MVoVXLsqobu5K3AWJTAh4ZBSRs1J6iiMW7_20180902_11h26m26s</title>
<path fill="none" stroke="black" d="M1528.54,-220.774C1559.37,-218.957 1591.12,-217.271 1621.03,-216 2338.78,-185.505 2519.24,-209.697 3237.03,-180 3264.77,-178.852 3294.03,-177.377 3322.77,-175.776"/>
<polygon fill="black" stroke="black" points="3323.13,-179.262 3332.92,-175.205 3322.74,-172.273 3323.13,-179.262"/>
</g>
<!-- MNDv4oRHUxJxjn6EtrytHfFevoTz1WVYGv_20180902_11h26m26s -->
<g id="node19" class="node"><title>MNDv4oRHUxJxjn6EtrytHfFevoTz1WVYGv_20180902_11h26m26s</title>
<ellipse fill="none" stroke="black" cx="1893.03" cy="-234" rx="262.653" ry="18"/>
<text text-anchor="middle" x="1893.03" y="-230.3" font-family="Times,serif" font-size="14.00">MNDv4oRHUxJxjn6EtrytHfFevoTz1WVYGv_20180902_11h26m26s</text>
</g>
<!-- MNDv4oRHUxJxjn6EtrytHfFevoTz1WVYGv_20180902_11h26m26s&#45;&gt;MP7rwbgHiEALz44q96UY4iXkbEJRXjvVoA_20180902_11h26m26s -->
<g id="edge30" class="edge"><title>MNDv4oRHUxJxjn6EtrytHfFevoTz1WVYGv_20180902_11h26m26s&#45;&gt;MP7rwbgHiEALz44q96UY4iXkbEJRXjvVoA_20180902_11h26m26s</title>
<path fill="none" stroke="black" d="M2075.79,-221.066C2269.56,-208.413 2574.35,-188.511 2771.95,-175.608"/>
<polygon fill="black" stroke="black" points="2772.41,-179.085 2782.16,-174.941 2771.95,-172.1 2772.41,-179.085"/>
</g>
<!-- MNDv4oRHUxJxjn6EtrytHfFevoTz1WVYGv_20180902_11h26m26s&#45;&gt;MVoVXLsqobu5K3AWJTAh4ZBSRs1J6iiMW7_20180902_11h26m26s -->
<g id="edge27" class="edge"><title>MNDv4oRHUxJxjn6EtrytHfFevoTz1WVYGv_20180902_11h26m26s&#45;&gt;MVoVXLsqobu5K3AWJTAh4ZBSRs1J6iiMW7_20180902_11h26m26s</title>
<path fill="none" stroke="black" d="M2074.05,-220.955C2104.41,-219.144 2135.61,-217.413 2165.03,-216 2641.19,-193.129 2760.84,-202.396 3237.03,-180 3263.88,-178.737 3292.16,-177.232 3320.02,-175.648"/>
<polygon fill="black" stroke="black" points="3320.48,-179.128 3330.26,-175.061 3320.08,-172.139 3320.48,-179.128"/>
</g>
</g>
</svg>
