<?xml version="1.0" encoding="UTF-8" standalone="no"?>
<!DOCTYPE svg PUBLIC "-//W3C//DTD SVG 1.1//EN"
 "http://www.w3.org/Graphics/SVG/1.1/DTD/svg11.dtd">
<!-- Generated by graphviz version 2.38.0 (20140413.2041)
 -->
<!-- Title: G Pages: 1 -->
<svg width="3075pt" height="836pt"
 viewBox="0.00 0.00 3074.60 836.00" xmlns="http://www.w3.org/2000/svg" xmlns:xlink="http://www.w3.org/1999/xlink">
<g id="graph0" class="graph" transform="scale(1 1) rotate(0) translate(4 832)">
<title>G</title>
<polygon fill="white" stroke="none" points="-4,4 -4,-832 3070.6,-832 3070.6,4 -4,4"/>
<!-- MHLYxrmQYkQyfgTtTAdb3TTpsvbPwDSHLw_20180829_21h53m42s -->
<g id="node1" class="node"><title>MHLYxrmQYkQyfgTtTAdb3TTpsvbPwDSHLw_20180829_21h53m42s</title>
<ellipse fill="none" stroke="black" cx="272.326" cy="-90" rx="272.152" ry="18"/>
<text text-anchor="middle" x="272.326" y="-86.3" font-family="Times,serif" font-size="14.00">MHLYxrmQYkQyfgTtTAdb3TTpsvbPwDSHLw_20180829_21h53m42s</text>
</g>
<!-- MFvV8HvDtWQxXfjDBLiYAhjUjdUzBTFTiN_20180829_21h53m42s -->
<g id="node2" class="node"><title>MFvV8HvDtWQxXfjDBLiYAhjUjdUzBTFTiN_20180829_21h53m42s</title>
<ellipse fill="none" stroke="black" cx="1370.33" cy="-18" rx="268.352" ry="18"/>
<text text-anchor="middle" x="1370.33" y="-14.3" font-family="Times,serif" font-size="14.00">MFvV8HvDtWQxXfjDBLiYAhjUjdUzBTFTiN_20180829_21h53m42s</text>
</g>
<!-- MHLYxrmQYkQyfgTtTAdb3TTpsvbPwDSHLw_20180829_21h53m42s&#45;&gt;MFvV8HvDtWQxXfjDBLiYAhjUjdUzBTFTiN_20180829_21h53m42s -->
<g id="edge1" class="edge"><title>MHLYxrmQYkQyfgTtTAdb3TTpsvbPwDSHLw_20180829_21h53m42s&#45;&gt;MFvV8HvDtWQxXfjDBLiYAhjUjdUzBTFTiN_20180829_21h53m42s</title>
<path fill="none" stroke="black" d="M460.767,-76.9865C659.394,-64.3235 970.912,-44.4635 1172.88,-31.5879"/>
<polygon fill="black" stroke="black" points="1173.25,-35.0711 1183.01,-30.9419 1172.81,-28.0853 1173.25,-35.0711"/>
</g>
<!-- MLU6CUnkgTQ6DWznDoN1Smog5R15iuZ9Uo_20180829_21h53m42s -->
<g id="node11" class="node"><title>MLU6CUnkgTQ6DWznDoN1Smog5R15iuZ9Uo_20180829_21h53m42s</title>
<ellipse fill="none" stroke="black" cx="1931.33" cy="-18" rx="274.052" ry="18"/>
<text text-anchor="middle" x="1931.33" y="-14.3" font-family="Times,serif" font-size="14.00">MLU6CUnkgTQ6DWznDoN1Smog5R15iuZ9Uo_20180829_21h53m42s</text>
</g>
<!-- MHLYxrmQYkQyfgTtTAdb3TTpsvbPwDSHLw_20180829_21h53m42s&#45;&gt;MLU6CUnkgTQ6DWznDoN1Smog5R15iuZ9Uo_20180829_21h53m42s -->
<g id="edge23" class="edge"><title>MHLYxrmQYkQyfgTtTAdb3TTpsvbPwDSHLw_20180829_21h53m42s&#45;&gt;MLU6CUnkgTQ6DWznDoN1Smog5R15iuZ9Uo_20180829_21h53m42s</title>
<path fill="none" stroke="black" d="M460.382,-76.9472C491.746,-75.1426 523.95,-73.4156 554.326,-72 1039.84,-49.3743 1161.81,-58.523 1647.33,-36 1674.69,-34.7306 1703.53,-33.2133 1731.92,-31.6151"/>
<polygon fill="black" stroke="black" points="1732.15,-35.1076 1741.93,-31.0467 1731.75,-28.1188 1732.15,-35.1076"/>
</g>
<!-- MLU6CUnkgTQ6DWznDoN1Smog5R15iuZ9Uo_20180829_20h29m47s -->
<g id="node3" class="node"><title>MLU6CUnkgTQ6DWznDoN1Smog5R15iuZ9Uo_20180829_20h29m47s</title>
<ellipse fill="none" stroke="black" cx="2505.33" cy="-234" rx="274.052" ry="18"/>
<text text-anchor="middle" x="2505.33" y="-230.3" font-family="Times,serif" font-size="14.00">MLU6CUnkgTQ6DWznDoN1Smog5R15iuZ9Uo_20180829_20h29m47s</text>
</g>
<!-- MLU6CUnkgTQ6DWznDoN1Smog5R15iuZ9Uo_20180829_21h28m46s -->
<g id="node4" class="node"><title>MLU6CUnkgTQ6DWznDoN1Smog5R15iuZ9Uo_20180829_21h28m46s</title>
<ellipse fill="none" stroke="black" cx="2480.33" cy="-162" rx="274.052" ry="18"/>
<text text-anchor="middle" x="2480.33" y="-158.3" font-family="Times,serif" font-size="14.00">MLU6CUnkgTQ6DWznDoN1Smog5R15iuZ9Uo_20180829_21h28m46s</text>
</g>
<!-- MLU6CUnkgTQ6DWznDoN1Smog5R15iuZ9Uo_20180829_20h29m47s&#45;&gt;MLU6CUnkgTQ6DWznDoN1Smog5R15iuZ9Uo_20180829_21h28m46s -->
<g id="edge2" class="edge"><title>MLU6CUnkgTQ6DWznDoN1Smog5R15iuZ9Uo_20180829_20h29m47s&#45;&gt;MLU6CUnkgTQ6DWznDoN1Smog5R15iuZ9Uo_20180829_21h28m46s</title>
<path fill="none" stroke="black" d="M2499.15,-215.697C2496.33,-207.813 2492.93,-198.304 2489.81,-189.546"/>
<polygon fill="black" stroke="black" points="2493.09,-188.345 2486.43,-180.104 2486.5,-190.699 2493.09,-188.345"/>
</g>
<!-- MLU6CUnkgTQ6DWznDoN1Smog5R15iuZ9Uo_20180829_21h47m46s -->
<g id="node10" class="node"><title>MLU6CUnkgTQ6DWznDoN1Smog5R15iuZ9Uo_20180829_21h47m46s</title>
<ellipse fill="none" stroke="black" cx="2480.33" cy="-90" rx="274.052" ry="18"/>
<text text-anchor="middle" x="2480.33" y="-86.3" font-family="Times,serif" font-size="14.00">MLU6CUnkgTQ6DWznDoN1Smog5R15iuZ9Uo_20180829_21h47m46s</text>
</g>
<!-- MLU6CUnkgTQ6DWznDoN1Smog5R15iuZ9Uo_20180829_21h28m46s&#45;&gt;MLU6CUnkgTQ6DWznDoN1Smog5R15iuZ9Uo_20180829_21h47m46s -->
<g id="edge38" class="edge"><title>MLU6CUnkgTQ6DWznDoN1Smog5R15iuZ9Uo_20180829_21h28m46s&#45;&gt;MLU6CUnkgTQ6DWznDoN1Smog5R15iuZ9Uo_20180829_21h47m46s</title>
<path fill="none" stroke="black" d="M2480.33,-143.697C2480.33,-135.983 2480.33,-126.712 2480.33,-118.112"/>
<polygon fill="black" stroke="black" points="2483.83,-118.104 2480.33,-108.104 2476.83,-118.104 2483.83,-118.104"/>
</g>
<!-- M92A9ek5745jKDveURpmKzagwe1pCDkVeM_20180829_19h30m56s -->
<g id="node5" class="node"><title>M92A9ek5745jKDveURpmKzagwe1pCDkVeM_20180829_19h30m56s</title>
<ellipse fill="none" stroke="black" cx="1736.33" cy="-450" rx="269.952" ry="18"/>
<text text-anchor="middle" x="1736.33" y="-446.3" font-family="Times,serif" font-size="14.00">M92A9ek5745jKDveURpmKzagwe1pCDkVeM_20180829_19h30m56s</text>
</g>
<!-- MLU6CUnkgTQ6DWznDoN1Smog5R15iuZ9Uo_20180829_19h30m56s -->
<g id="node6" class="node"><title>MLU6CUnkgTQ6DWznDoN1Smog5R15iuZ9Uo_20180829_19h30m56s</title>
<ellipse fill="none" stroke="black" cx="2792.33" cy="-378" rx="274.052" ry="18"/>
<text text-anchor="middle" x="2792.33" y="-374.3" font-family="Times,serif" font-size="14.00">MLU6CUnkgTQ6DWznDoN1Smog5R15iuZ9Uo_20180829_19h30m56s</text>
</g>
<!-- M92A9ek5745jKDveURpmKzagwe1pCDkVeM_20180829_19h30m56s&#45;&gt;MLU6CUnkgTQ6DWznDoN1Smog5R15iuZ9Uo_20180829_19h30m56s -->
<g id="edge3" class="edge"><title>M92A9ek5745jKDveURpmKzagwe1pCDkVeM_20180829_19h30m56s&#45;&gt;MLU6CUnkgTQ6DWznDoN1Smog5R15iuZ9Uo_20180829_19h30m56s</title>
<path fill="none" stroke="black" d="M1920.27,-436.807C2109.61,-424.255 2403.52,-404.773 2596.95,-391.951"/>
<polygon fill="black" stroke="black" points="2597.2,-395.442 2606.95,-391.288 2596.74,-388.457 2597.2,-395.442"/>
</g>
<!-- M92A9ek5745jKDveURpmKzagwe1pCDkVeM_20180829_19h56m21s -->
<g id="node12" class="node"><title>M92A9ek5745jKDveURpmKzagwe1pCDkVeM_20180829_19h56m21s</title>
<ellipse fill="none" stroke="black" cx="1643.33" cy="-378" rx="269.952" ry="18"/>
<text text-anchor="middle" x="1643.33" y="-374.3" font-family="Times,serif" font-size="14.00">M92A9ek5745jKDveURpmKzagwe1pCDkVeM_20180829_19h56m21s</text>
</g>
<!-- M92A9ek5745jKDveURpmKzagwe1pCDkVeM_20180829_19h30m56s&#45;&gt;M92A9ek5745jKDveURpmKzagwe1pCDkVeM_20180829_19h56m21s -->
<g id="edge16" class="edge"><title>M92A9ek5745jKDveURpmKzagwe1pCDkVeM_20180829_19h30m56s&#45;&gt;M92A9ek5745jKDveURpmKzagwe1pCDkVeM_20180829_19h56m21s</title>
<path fill="none" stroke="black" d="M1713.81,-432.055C1701.91,-423.093 1687.11,-411.957 1674.15,-402.204"/>
<polygon fill="black" stroke="black" points="1676.05,-399.249 1665.95,-396.032 1671.84,-404.842 1676.05,-399.249"/>
</g>
<!-- MQ7YLWGCeU5xTLD8KMLegGQY23fQgGE5Q4_20180829_19h30m56s -->
<g id="node34" class="node"><title>MQ7YLWGCeU5xTLD8KMLegGQY23fQgGE5Q4_20180829_19h30m56s</title>
<ellipse fill="none" stroke="black" cx="2215.33" cy="-378" rx="284.85" ry="18"/>
<text text-anchor="middle" x="2215.33" y="-374.3" font-family="Times,serif" font-size="14.00">MQ7YLWGCeU5xTLD8KMLegGQY23fQgGE5Q4_20180829_19h30m56s</text>
</g>
<!-- M92A9ek5745jKDveURpmKzagwe1pCDkVeM_20180829_19h30m56s&#45;&gt;MQ7YLWGCeU5xTLD8KMLegGQY23fQgGE5Q4_20180829_19h30m56s -->
<g id="edge43" class="edge"><title>M92A9ek5745jKDveURpmKzagwe1pCDkVeM_20180829_19h30m56s&#45;&gt;MQ7YLWGCeU5xTLD8KMLegGQY23fQgGE5Q4_20180829_19h30m56s</title>
<path fill="none" stroke="black" d="M1842.93,-433.421C1918.38,-422.394 2019.59,-407.604 2097.45,-396.226"/>
<polygon fill="black" stroke="black" points="2098.4,-399.624 2107.79,-394.715 2097.39,-392.698 2098.4,-399.624"/>
</g>
<!-- MLU6CUnkgTQ6DWznDoN1Smog5R15iuZ9Uo_20180829_19h56m21s -->
<g id="node9" class="node"><title>MLU6CUnkgTQ6DWznDoN1Smog5R15iuZ9Uo_20180829_19h56m21s</title>
<ellipse fill="none" stroke="black" cx="2785.33" cy="-306" rx="274.052" ry="18"/>
<text text-anchor="middle" x="2785.33" y="-302.3" font-family="Times,serif" font-size="14.00">MLU6CUnkgTQ6DWznDoN1Smog5R15iuZ9Uo_20180829_19h56m21s</text>
</g>
<!-- MLU6CUnkgTQ6DWznDoN1Smog5R15iuZ9Uo_20180829_19h30m56s&#45;&gt;MLU6CUnkgTQ6DWznDoN1Smog5R15iuZ9Uo_20180829_19h56m21s -->
<g id="edge5" class="edge"><title>MLU6CUnkgTQ6DWznDoN1Smog5R15iuZ9Uo_20180829_19h30m56s&#45;&gt;MLU6CUnkgTQ6DWznDoN1Smog5R15iuZ9Uo_20180829_19h56m21s</title>
<path fill="none" stroke="black" d="M2790.6,-359.697C2789.82,-351.983 2788.9,-342.712 2788.04,-334.112"/>
<polygon fill="black" stroke="black" points="2791.51,-333.706 2787.04,-324.104 2784.55,-334.403 2791.51,-333.706"/>
</g>
<!-- MAT8jAxGPxUJrGzszPsdBg9Hrsy4frPWx5_20180828_18h31m04s -->
<g id="node7" class="node"><title>MAT8jAxGPxUJrGzszPsdBg9Hrsy4frPWx5_20180828_18h31m04s</title>
<ellipse fill="none" stroke="black" cx="1159.33" cy="-810" rx="256.955" ry="18"/>
<text text-anchor="middle" x="1159.33" y="-806.3" font-family="Times,serif" font-size="14.00">MAT8jAxGPxUJrGzszPsdBg9Hrsy4frPWx5_20180828_18h31m04s</text>
</g>
<!-- MDSVHvNdqRYDqCWNaDKZcXEsUmjpbHMYFv_20180828_18h31m04s -->
<g id="node8" class="node"><title>MDSVHvNdqRYDqCWNaDKZcXEsUmjpbHMYFv_20180828_18h31m04s</title>
<ellipse fill="none" stroke="black" cx="871.326" cy="-738" rx="287.849" ry="18"/>
<text text-anchor="middle" x="871.326" y="-734.3" font-family="Times,serif" font-size="14.00">MDSVHvNdqRYDqCWNaDKZcXEsUmjpbHMYFv_20180828_18h31m04s</text>
</g>
<!-- MAT8jAxGPxUJrGzszPsdBg9Hrsy4frPWx5_20180828_18h31m04s&#45;&gt;MDSVHvNdqRYDqCWNaDKZcXEsUmjpbHMYFv_20180828_18h31m04s -->
<g id="edge4" class="edge"><title>MAT8jAxGPxUJrGzszPsdBg9Hrsy4frPWx5_20180828_18h31m04s&#45;&gt;MDSVHvNdqRYDqCWNaDKZcXEsUmjpbHMYFv_20180828_18h31m04s</title>
<path fill="none" stroke="black" d="M1091.8,-792.588C1049.14,-782.219 993.866,-768.784 949.333,-757.96"/>
<polygon fill="black" stroke="black" points="949.968,-754.512 939.424,-755.552 948.314,-761.314 949.968,-754.512"/>
</g>
<!-- M92A9ek5745jKDveURpmKzagwe1pCDkVeM_20180828_18h31m04s -->
<g id="node14" class="node"><title>M92A9ek5745jKDveURpmKzagwe1pCDkVeM_20180828_18h31m04s</title>
<ellipse fill="none" stroke="black" cx="1447.33" cy="-738" rx="269.952" ry="18"/>
<text text-anchor="middle" x="1447.33" y="-734.3" font-family="Times,serif" font-size="14.00">M92A9ek5745jKDveURpmKzagwe1pCDkVeM_20180828_18h31m04s</text>
</g>
<!-- MAT8jAxGPxUJrGzszPsdBg9Hrsy4frPWx5_20180828_18h31m04s&#45;&gt;M92A9ek5745jKDveURpmKzagwe1pCDkVeM_20180828_18h31m04s -->
<g id="edge30" class="edge"><title>MAT8jAxGPxUJrGzszPsdBg9Hrsy4frPWx5_20180828_18h31m04s&#45;&gt;M92A9ek5745jKDveURpmKzagwe1pCDkVeM_20180828_18h31m04s</title>
<path fill="none" stroke="black" d="M1226.85,-792.588C1269.66,-782.182 1325.19,-768.687 1369.8,-757.843"/>
<polygon fill="black" stroke="black" points="1370.84,-761.193 1379.73,-755.43 1369.18,-754.391 1370.84,-761.193"/>
</g>
<!-- MLU6CUnkgTQ6DWznDoN1Smog5R15iuZ9Uo_20180829_19h56m21s&#45;&gt;MLU6CUnkgTQ6DWznDoN1Smog5R15iuZ9Uo_20180829_20h29m47s -->
<g id="edge18" class="edge"><title>MLU6CUnkgTQ6DWznDoN1Smog5R15iuZ9Uo_20180829_19h56m21s&#45;&gt;MLU6CUnkgTQ6DWznDoN1Smog5R15iuZ9Uo_20180829_20h29m47s</title>
<path fill="none" stroke="black" d="M2719.32,-288.5C2677.93,-278.15 2624.41,-264.771 2581.25,-253.982"/>
<polygon fill="black" stroke="black" points="2581.92,-250.541 2571.37,-251.511 2580.22,-257.332 2581.92,-250.541"/>
</g>
<!-- MLU6CUnkgTQ6DWznDoN1Smog5R15iuZ9Uo_20180829_21h47m46s&#45;&gt;MLU6CUnkgTQ6DWznDoN1Smog5R15iuZ9Uo_20180829_21h53m42s -->
<g id="edge6" class="edge"><title>MLU6CUnkgTQ6DWznDoN1Smog5R15iuZ9Uo_20180829_21h47m46s&#45;&gt;MLU6CUnkgTQ6DWznDoN1Smog5R15iuZ9Uo_20180829_21h53m42s</title>
<path fill="none" stroke="black" d="M2360.86,-73.7679C2272.39,-62.487 2151.94,-47.1296 2061.11,-35.5476"/>
<polygon fill="black" stroke="black" points="2061.38,-32.0544 2051.02,-34.2614 2060.5,-38.9982 2061.38,-32.0544"/>
</g>
<!-- M92A9ek5745jKDveURpmKzagwe1pCDkVeM_20180829_19h56m21s&#45;&gt;MLU6CUnkgTQ6DWznDoN1Smog5R15iuZ9Uo_20180829_19h56m21s -->
<g id="edge35" class="edge"><title>M92A9ek5745jKDveURpmKzagwe1pCDkVeM_20180829_19h56m21s&#45;&gt;MLU6CUnkgTQ6DWznDoN1Smog5R15iuZ9Uo_20180829_19h56m21s</title>
<path fill="none" stroke="black" d="M1834.47,-365.284C2041.67,-352.583 2371,-332.396 2582.62,-319.425"/>
<polygon fill="black" stroke="black" points="2582.84,-322.919 2592.6,-318.813 2582.41,-315.932 2582.84,-322.919"/>
</g>
<!-- MEFWw8jjoKYHkFDsxw1C6VNx2AoSZ4d4iU_20180829_19h56m21s -->
<g id="node13" class="node"><title>MEFWw8jjoKYHkFDsxw1C6VNx2AoSZ4d4iU_20180829_19h56m21s</title>
<ellipse fill="none" stroke="black" cx="1092.33" cy="-306" rx="271.052" ry="18"/>
<text text-anchor="middle" x="1092.33" y="-302.3" font-family="Times,serif" font-size="14.00">MEFWw8jjoKYHkFDsxw1C6VNx2AoSZ4d4iU_20180829_19h56m21s</text>
</g>
<!-- M92A9ek5745jKDveURpmKzagwe1pCDkVeM_20180829_19h56m21s&#45;&gt;MEFWw8jjoKYHkFDsxw1C6VNx2AoSZ4d4iU_20180829_19h56m21s -->
<g id="edge7" class="edge"><title>M92A9ek5745jKDveURpmKzagwe1pCDkVeM_20180829_19h56m21s&#45;&gt;MEFWw8jjoKYHkFDsxw1C6VNx2AoSZ4d4iU_20180829_19h56m21s</title>
<path fill="none" stroke="black" d="M1523.77,-361.811C1434.84,-350.513 1313.59,-335.109 1222.27,-323.508"/>
<polygon fill="black" stroke="black" points="1222.49,-320.008 1212.13,-322.22 1221.61,-326.952 1222.49,-320.008"/>
</g>
<!-- M92A9ek5745jKDveURpmKzagwe1pCDkVeM_20180829_20h29m47s -->
<g id="node18" class="node"><title>M92A9ek5745jKDveURpmKzagwe1pCDkVeM_20180829_20h29m47s</title>
<ellipse fill="none" stroke="black" cx="1651.33" cy="-306" rx="269.952" ry="18"/>
<text text-anchor="middle" x="1651.33" y="-302.3" font-family="Times,serif" font-size="14.00">M92A9ek5745jKDveURpmKzagwe1pCDkVeM_20180829_20h29m47s</text>
</g>
<!-- M92A9ek5745jKDveURpmKzagwe1pCDkVeM_20180829_19h56m21s&#45;&gt;M92A9ek5745jKDveURpmKzagwe1pCDkVeM_20180829_20h29m47s -->
<g id="edge14" class="edge"><title>M92A9ek5745jKDveURpmKzagwe1pCDkVeM_20180829_19h56m21s&#45;&gt;M92A9ek5745jKDveURpmKzagwe1pCDkVeM_20180829_20h29m47s</title>
<path fill="none" stroke="black" d="M1645.3,-359.697C1646.18,-351.983 1647.24,-342.712 1648.23,-334.112"/>
<polygon fill="black" stroke="black" points="1651.71,-334.437 1649.37,-324.104 1644.76,-333.642 1651.71,-334.437"/>
</g>
<!-- M92A9ek5745jKDveURpmKzagwe1pCDkVeM_20180828_21h51m54s -->
<g id="node15" class="node"><title>M92A9ek5745jKDveURpmKzagwe1pCDkVeM_20180828_21h51m54s</title>
<ellipse fill="none" stroke="black" cx="1447.33" cy="-666" rx="269.952" ry="18"/>
<text text-anchor="middle" x="1447.33" y="-662.3" font-family="Times,serif" font-size="14.00">M92A9ek5745jKDveURpmKzagwe1pCDkVeM_20180828_21h51m54s</text>
</g>
<!-- M92A9ek5745jKDveURpmKzagwe1pCDkVeM_20180828_18h31m04s&#45;&gt;M92A9ek5745jKDveURpmKzagwe1pCDkVeM_20180828_21h51m54s -->
<g id="edge8" class="edge"><title>M92A9ek5745jKDveURpmKzagwe1pCDkVeM_20180828_18h31m04s&#45;&gt;M92A9ek5745jKDveURpmKzagwe1pCDkVeM_20180828_21h51m54s</title>
<path fill="none" stroke="black" d="M1447.33,-719.697C1447.33,-711.983 1447.33,-702.712 1447.33,-694.112"/>
<polygon fill="black" stroke="black" points="1450.83,-694.104 1447.33,-684.104 1443.83,-694.104 1450.83,-694.104"/>
</g>
<!-- M92A9ek5745jKDveURpmKzagwe1pCDkVeM_20180828_21h52m57s -->
<g id="node16" class="node"><title>M92A9ek5745jKDveURpmKzagwe1pCDkVeM_20180828_21h52m57s</title>
<ellipse fill="none" stroke="black" cx="1459.33" cy="-594" rx="269.952" ry="18"/>
<text text-anchor="middle" x="1459.33" y="-590.3" font-family="Times,serif" font-size="14.00">M92A9ek5745jKDveURpmKzagwe1pCDkVeM_20180828_21h52m57s</text>
</g>
<!-- M92A9ek5745jKDveURpmKzagwe1pCDkVeM_20180828_21h51m54s&#45;&gt;M92A9ek5745jKDveURpmKzagwe1pCDkVeM_20180828_21h52m57s -->
<g id="edge32" class="edge"><title>M92A9ek5745jKDveURpmKzagwe1pCDkVeM_20180828_21h51m54s&#45;&gt;M92A9ek5745jKDveURpmKzagwe1pCDkVeM_20180828_21h52m57s</title>
<path fill="none" stroke="black" d="M1450.29,-647.697C1451.61,-639.983 1453.2,-630.712 1454.68,-622.112"/>
<polygon fill="black" stroke="black" points="1458.15,-622.552 1456.39,-612.104 1451.25,-621.369 1458.15,-622.552"/>
</g>
<!-- M92A9ek5745jKDveURpmKzagwe1pCDkVeM_20180828_22h58m06s -->
<g id="node17" class="node"><title>M92A9ek5745jKDveURpmKzagwe1pCDkVeM_20180828_22h58m06s</title>
<ellipse fill="none" stroke="black" cx="1606.33" cy="-522" rx="269.952" ry="18"/>
<text text-anchor="middle" x="1606.33" y="-518.3" font-family="Times,serif" font-size="14.00">M92A9ek5745jKDveURpmKzagwe1pCDkVeM_20180828_22h58m06s</text>
</g>
<!-- M92A9ek5745jKDveURpmKzagwe1pCDkVeM_20180828_21h52m57s&#45;&gt;M92A9ek5745jKDveURpmKzagwe1pCDkVeM_20180828_22h58m06s -->
<g id="edge9" class="edge"><title>M92A9ek5745jKDveURpmKzagwe1pCDkVeM_20180828_21h52m57s&#45;&gt;M92A9ek5745jKDveURpmKzagwe1pCDkVeM_20180828_22h58m06s</title>
<path fill="none" stroke="black" d="M1494.91,-576.055C1514.97,-566.503 1540.22,-554.481 1561.6,-544.297"/>
<polygon fill="black" stroke="black" points="1563.29,-547.37 1570.81,-539.91 1560.28,-541.05 1563.29,-547.37"/>
</g>
<!-- M92A9ek5745jKDveURpmKzagwe1pCDkVeM_20180828_22h58m06s&#45;&gt;M92A9ek5745jKDveURpmKzagwe1pCDkVeM_20180829_19h30m56s -->
<g id="edge22" class="edge"><title>M92A9ek5745jKDveURpmKzagwe1pCDkVeM_20180828_22h58m06s&#45;&gt;M92A9ek5745jKDveURpmKzagwe1pCDkVeM_20180829_19h30m56s</title>
<path fill="none" stroke="black" d="M1637.8,-504.055C1655.23,-494.666 1677.1,-482.891 1695.8,-472.821"/>
<polygon fill="black" stroke="black" points="1697.55,-475.854 1704.7,-468.032 1694.23,-469.691 1697.55,-475.854"/>
</g>
<!-- M92A9ek5745jKDveURpmKzagwe1pCDkVeM_20180829_20h29m47s&#45;&gt;MLU6CUnkgTQ6DWznDoN1Smog5R15iuZ9Uo_20180829_20h29m47s -->
<g id="edge10" class="edge"><title>M92A9ek5745jKDveURpmKzagwe1pCDkVeM_20180829_20h29m47s&#45;&gt;MLU6CUnkgTQ6DWznDoN1Smog5R15iuZ9Uo_20180829_20h29m47s</title>
<path fill="none" stroke="black" d="M1814.22,-291.648C1962.08,-279.528 2179.53,-261.705 2330.88,-249.299"/>
<polygon fill="black" stroke="black" points="2331.53,-252.758 2341.21,-248.452 2330.96,-245.781 2331.53,-252.758"/>
</g>
<!-- M92A9ek5745jKDveURpmKzagwe1pCDkVeM_20180829_21h28m46s -->
<g id="node19" class="node"><title>M92A9ek5745jKDveURpmKzagwe1pCDkVeM_20180829_21h28m46s</title>
<ellipse fill="none" stroke="black" cx="1361.33" cy="-234" rx="269.952" ry="18"/>
<text text-anchor="middle" x="1361.33" y="-230.3" font-family="Times,serif" font-size="14.00">M92A9ek5745jKDveURpmKzagwe1pCDkVeM_20180829_21h28m46s</text>
</g>
<!-- M92A9ek5745jKDveURpmKzagwe1pCDkVeM_20180829_20h29m47s&#45;&gt;M92A9ek5745jKDveURpmKzagwe1pCDkVeM_20180829_21h28m46s -->
<g id="edge26" class="edge"><title>M92A9ek5745jKDveURpmKzagwe1pCDkVeM_20180829_20h29m47s&#45;&gt;M92A9ek5745jKDveURpmKzagwe1pCDkVeM_20180829_21h28m46s</title>
<path fill="none" stroke="black" d="M1582.97,-288.5C1539.92,-278.109 1484.23,-264.667 1439.44,-253.855"/>
<polygon fill="black" stroke="black" points="1440.02,-250.394 1429.48,-251.45 1438.38,-257.199 1440.02,-250.394"/>
</g>
<!-- MFg6zRUBoZKXAbPLXzKaRcK9WwDZRbeUxU_20180829_20h29m47s -->
<g id="node23" class="node"><title>MFg6zRUBoZKXAbPLXzKaRcK9WwDZRbeUxU_20180829_20h29m47s</title>
<ellipse fill="none" stroke="black" cx="1931.33" cy="-234" rx="282.15" ry="18"/>
<text text-anchor="middle" x="1931.33" y="-230.3" font-family="Times,serif" font-size="14.00">MFg6zRUBoZKXAbPLXzKaRcK9WwDZRbeUxU_20180829_20h29m47s</text>
</g>
<!-- M92A9ek5745jKDveURpmKzagwe1pCDkVeM_20180829_20h29m47s&#45;&gt;MFg6zRUBoZKXAbPLXzKaRcK9WwDZRbeUxU_20180829_20h29m47s -->
<g id="edge15" class="edge"><title>M92A9ek5745jKDveURpmKzagwe1pCDkVeM_20180829_20h29m47s&#45;&gt;MFg6zRUBoZKXAbPLXzKaRcK9WwDZRbeUxU_20180829_20h29m47s</title>
<path fill="none" stroke="black" d="M1717.33,-288.5C1758.73,-278.15 1812.24,-264.771 1855.4,-253.982"/>
<polygon fill="black" stroke="black" points="1856.43,-257.332 1865.28,-251.511 1854.73,-250.541 1856.43,-257.332"/>
</g>
<!-- M92A9ek5745jKDveURpmKzagwe1pCDkVeM_20180829_21h28m46s&#45;&gt;MLU6CUnkgTQ6DWznDoN1Smog5R15iuZ9Uo_20180829_21h28m46s -->
<g id="edge42" class="edge"><title>M92A9ek5745jKDveURpmKzagwe1pCDkVeM_20180829_21h28m46s&#45;&gt;MLU6CUnkgTQ6DWznDoN1Smog5R15iuZ9Uo_20180829_21h28m46s</title>
<path fill="none" stroke="black" d="M1550.52,-221.165C1752.86,-208.507 2072.49,-188.513 2279.28,-175.577"/>
<polygon fill="black" stroke="black" points="2279.58,-179.065 2289.35,-174.947 2279.15,-172.078 2279.58,-179.065"/>
</g>
<!-- M92A9ek5745jKDveURpmKzagwe1pCDkVeM_20180829_21h47m46s -->
<g id="node20" class="node"><title>M92A9ek5745jKDveURpmKzagwe1pCDkVeM_20180829_21h47m46s</title>
<ellipse fill="none" stroke="black" cx="1387.33" cy="-162" rx="269.952" ry="18"/>
<text text-anchor="middle" x="1387.33" y="-158.3" font-family="Times,serif" font-size="14.00">M92A9ek5745jKDveURpmKzagwe1pCDkVeM_20180829_21h47m46s</text>
</g>
<!-- M92A9ek5745jKDveURpmKzagwe1pCDkVeM_20180829_21h28m46s&#45;&gt;M92A9ek5745jKDveURpmKzagwe1pCDkVeM_20180829_21h47m46s -->
<g id="edge11" class="edge"><title>M92A9ek5745jKDveURpmKzagwe1pCDkVeM_20180829_21h28m46s&#45;&gt;M92A9ek5745jKDveURpmKzagwe1pCDkVeM_20180829_21h47m46s</title>
<path fill="none" stroke="black" d="M1367.75,-215.697C1370.68,-207.813 1374.21,-198.304 1377.47,-189.546"/>
<polygon fill="black" stroke="black" points="1380.77,-190.697 1380.97,-180.104 1374.21,-188.26 1380.77,-190.697"/>
</g>
<!-- MS3fKBYyqEE9jy1bnorwVf8q3pj3A6Zv8L_20180829_21h28m46s -->
<g id="node21" class="node"><title>MS3fKBYyqEE9jy1bnorwVf8q3pj3A6Zv8L_20180829_21h28m46s</title>
<ellipse fill="none" stroke="black" cx="843.326" cy="-162" rx="256.955" ry="18"/>
<text text-anchor="middle" x="843.326" y="-158.3" font-family="Times,serif" font-size="14.00">MS3fKBYyqEE9jy1bnorwVf8q3pj3A6Zv8L_20180829_21h28m46s</text>
</g>
<!-- M92A9ek5745jKDveURpmKzagwe1pCDkVeM_20180829_21h28m46s&#45;&gt;MS3fKBYyqEE9jy1bnorwVf8q3pj3A6Zv8L_20180829_21h28m46s -->
<g id="edge12" class="edge"><title>M92A9ek5745jKDveURpmKzagwe1pCDkVeM_20180829_21h28m46s&#45;&gt;MS3fKBYyqEE9jy1bnorwVf8q3pj3A6Zv8L_20180829_21h28m46s</title>
<path fill="none" stroke="black" d="M1247.65,-217.638C1164.28,-206.373 1051.22,-191.094 965.853,-179.558"/>
<polygon fill="black" stroke="black" points="966.225,-176.076 955.846,-178.205 965.288,-183.013 966.225,-176.076"/>
</g>
<!-- M92A9ek5745jKDveURpmKzagwe1pCDkVeM_20180829_21h47m46s&#45;&gt;MLU6CUnkgTQ6DWznDoN1Smog5R15iuZ9Uo_20180829_21h47m46s -->
<g id="edge19" class="edge"><title>M92A9ek5745jKDveURpmKzagwe1pCDkVeM_20180829_21h47m46s&#45;&gt;MLU6CUnkgTQ6DWznDoN1Smog5R15iuZ9Uo_20180829_21h47m46s</title>
<path fill="none" stroke="black" d="M1574.6,-149.006C1771.52,-136.395 2080.15,-116.629 2281.36,-103.742"/>
<polygon fill="black" stroke="black" points="2281.71,-107.228 2291.46,-103.096 2281.26,-100.242 2281.71,-107.228"/>
</g>
<!-- MPYgJ9eqeeqnTpB8Rdwmmu87abNKM76Fkx_20180829_21h47m46s -->
<g id="node28" class="node"><title>MPYgJ9eqeeqnTpB8Rdwmmu87abNKM76Fkx_20180829_21h47m46s</title>
<ellipse fill="none" stroke="black" cx="831.326" cy="-90" rx="268.352" ry="18"/>
<text text-anchor="middle" x="831.326" y="-86.3" font-family="Times,serif" font-size="14.00">MPYgJ9eqeeqnTpB8Rdwmmu87abNKM76Fkx_20180829_21h47m46s</text>
</g>
<!-- M92A9ek5745jKDveURpmKzagwe1pCDkVeM_20180829_21h47m46s&#45;&gt;MPYgJ9eqeeqnTpB8Rdwmmu87abNKM76Fkx_20180829_21h47m46s -->
<g id="edge24" class="edge"><title>M92A9ek5745jKDveURpmKzagwe1pCDkVeM_20180829_21h47m46s&#45;&gt;MPYgJ9eqeeqnTpB8Rdwmmu87abNKM76Fkx_20180829_21h47m46s</title>
<path fill="none" stroke="black" d="M1267.02,-145.854C1176.91,-134.509 1053.76,-119.005 961.376,-107.373"/>
<polygon fill="black" stroke="black" points="961.761,-103.894 951.402,-106.118 960.887,-110.839 961.761,-103.894"/>
</g>
<!-- M92A9ek5745jKDveURpmKzagwe1pCDkVeM_20180829_21h53m42s -->
<g id="node29" class="node"><title>M92A9ek5745jKDveURpmKzagwe1pCDkVeM_20180829_21h53m42s</title>
<ellipse fill="none" stroke="black" cx="1387.33" cy="-90" rx="269.952" ry="18"/>
<text text-anchor="middle" x="1387.33" y="-86.3" font-family="Times,serif" font-size="14.00">M92A9ek5745jKDveURpmKzagwe1pCDkVeM_20180829_21h53m42s</text>
</g>
<!-- M92A9ek5745jKDveURpmKzagwe1pCDkVeM_20180829_21h47m46s&#45;&gt;M92A9ek5745jKDveURpmKzagwe1pCDkVeM_20180829_21h53m42s -->
<g id="edge33" class="edge"><title>M92A9ek5745jKDveURpmKzagwe1pCDkVeM_20180829_21h47m46s&#45;&gt;M92A9ek5745jKDveURpmKzagwe1pCDkVeM_20180829_21h53m42s</title>
<path fill="none" stroke="black" d="M1387.33,-143.697C1387.33,-135.983 1387.33,-126.712 1387.33,-118.112"/>
<polygon fill="black" stroke="black" points="1390.83,-118.104 1387.33,-108.104 1383.83,-118.104 1390.83,-118.104"/>
</g>
<!-- MMCfHozN8CUAcp6fAjJdoodcjfzj7W89p4_20180829_21h53m42s -->
<g id="node22" class="node"><title>MMCfHozN8CUAcp6fAjJdoodcjfzj7W89p4_20180829_21h53m42s</title>
<ellipse fill="none" stroke="black" cx="1931.33" cy="-90" rx="256.955" ry="18"/>
<text text-anchor="middle" x="1931.33" y="-86.3" font-family="Times,serif" font-size="14.00">MMCfHozN8CUAcp6fAjJdoodcjfzj7W89p4_20180829_21h53m42s</text>
</g>
<!-- MMCfHozN8CUAcp6fAjJdoodcjfzj7W89p4_20180829_21h53m42s&#45;&gt;MFvV8HvDtWQxXfjDBLiYAhjUjdUzBTFTiN_20180829_21h53m42s -->
<g id="edge13" class="edge"><title>MMCfHozN8CUAcp6fAjJdoodcjfzj7W89p4_20180829_21h53m42s&#45;&gt;MFvV8HvDtWQxXfjDBLiYAhjUjdUzBTFTiN_20180829_21h53m42s</title>
<path fill="none" stroke="black" d="M1811.67,-74.0691C1720.54,-62.6986 1595.21,-47.0598 1501.38,-35.3526"/>
<polygon fill="black" stroke="black" points="1501.61,-31.8541 1491.25,-34.0889 1500.74,-38.8002 1501.61,-31.8541"/>
</g>
<!-- MMCfHozN8CUAcp6fAjJdoodcjfzj7W89p4_20180829_21h53m42s&#45;&gt;MLU6CUnkgTQ6DWznDoN1Smog5R15iuZ9Uo_20180829_21h53m42s -->
<g id="edge28" class="edge"><title>MMCfHozN8CUAcp6fAjJdoodcjfzj7W89p4_20180829_21h53m42s&#45;&gt;MLU6CUnkgTQ6DWznDoN1Smog5R15iuZ9Uo_20180829_21h53m42s</title>
<path fill="none" stroke="black" d="M1931.33,-71.6966C1931.33,-63.9827 1931.33,-54.7125 1931.33,-46.1124"/>
<polygon fill="black" stroke="black" points="1934.83,-46.1043 1931.33,-36.1043 1927.83,-46.1044 1934.83,-46.1043"/>
</g>
<!-- MLU6CUnkgTQ6DWznDoN1Smog5R15iuZ9Uo_20180828_21h51m54s -->
<g id="node24" class="node"><title>MLU6CUnkgTQ6DWznDoN1Smog5R15iuZ9Uo_20180828_21h51m54s</title>
<ellipse fill="none" stroke="black" cx="2564.33" cy="-738" rx="274.052" ry="18"/>
<text text-anchor="middle" x="2564.33" y="-734.3" font-family="Times,serif" font-size="14.00">MLU6CUnkgTQ6DWznDoN1Smog5R15iuZ9Uo_20180828_21h51m54s</text>
</g>
<!-- MLU6CUnkgTQ6DWznDoN1Smog5R15iuZ9Uo_20180828_21h51m54s&#45;&gt;MLU6CUnkgTQ6DWznDoN1Smog5R15iuZ9Uo_20180829_19h30m56s -->
<g id="edge17" class="edge"><title>MLU6CUnkgTQ6DWznDoN1Smog5R15iuZ9Uo_20180828_21h51m54s&#45;&gt;MLU6CUnkgTQ6DWznDoN1Smog5R15iuZ9Uo_20180829_19h30m56s</title>
<path fill="none" stroke="black" d="M2713.33,-722.878C2767.24,-714.788 2819.52,-702.449 2838.33,-684 2867.2,-655.676 2857.33,-635.447 2857.33,-595 2857.33,-595 2857.33,-595 2857.33,-521 2857.33,-476.963 2831.16,-431.645 2812.03,-404.398"/>
<polygon fill="black" stroke="black" points="2814.81,-402.262 2806.11,-396.211 2809.14,-406.365 2814.81,-402.262"/>
</g>
<!-- MLU6CUnkgTQ6DWznDoN1Smog5R15iuZ9Uo_20180828_21h51m54s&#45;&gt;M92A9ek5745jKDveURpmKzagwe1pCDkVeM_20180828_21h51m54s -->
<g id="edge29" class="edge"><title>MLU6CUnkgTQ6DWznDoN1Smog5R15iuZ9Uo_20180828_21h51m54s&#45;&gt;M92A9ek5745jKDveURpmKzagwe1pCDkVeM_20180828_21h51m54s</title>
<path fill="none" stroke="black" d="M2373.58,-725.046C2170.96,-712.349 1852.1,-692.366 1646.37,-679.474"/>
<polygon fill="black" stroke="black" points="1646.56,-675.979 1636.36,-678.846 1646.12,-682.965 1646.56,-675.979"/>
</g>
<!-- MKmNttX2o7KGvPxeiHLhR6dAthNP2P594G_20180828_21h51m54s -->
<g id="node30" class="node"><title>MKmNttX2o7KGvPxeiHLhR6dAthNP2P594G_20180828_21h51m54s</title>
<ellipse fill="none" stroke="black" cx="2564.33" cy="-666" rx="265.353" ry="18"/>
<text text-anchor="middle" x="2564.33" y="-662.3" font-family="Times,serif" font-size="14.00">MKmNttX2o7KGvPxeiHLhR6dAthNP2P594G_20180828_21h51m54s</text>
</g>
<!-- MLU6CUnkgTQ6DWznDoN1Smog5R15iuZ9Uo_20180828_21h51m54s&#45;&gt;MKmNttX2o7KGvPxeiHLhR6dAthNP2P594G_20180828_21h51m54s -->
<g id="edge27" class="edge"><title>MLU6CUnkgTQ6DWznDoN1Smog5R15iuZ9Uo_20180828_21h51m54s&#45;&gt;MKmNttX2o7KGvPxeiHLhR6dAthNP2P594G_20180828_21h51m54s</title>
<path fill="none" stroke="black" d="M2564.33,-719.697C2564.33,-711.983 2564.33,-702.712 2564.33,-694.112"/>
<polygon fill="black" stroke="black" points="2567.83,-694.104 2564.33,-684.104 2560.83,-694.104 2567.83,-694.104"/>
</g>
<!-- MCUL7on4PdM1Rkm7k3wDStZ76ChVGWs4RZ_20180829_20h29m47s -->
<g id="node25" class="node"><title>MCUL7on4PdM1Rkm7k3wDStZ76ChVGWs4RZ_20180829_20h29m47s</title>
<ellipse fill="none" stroke="black" cx="2216.33" cy="-306" rx="276.751" ry="18"/>
<text text-anchor="middle" x="2216.33" y="-302.3" font-family="Times,serif" font-size="14.00">MCUL7on4PdM1Rkm7k3wDStZ76ChVGWs4RZ_20180829_20h29m47s</text>
</g>
<!-- MCUL7on4PdM1Rkm7k3wDStZ76ChVGWs4RZ_20180829_20h29m47s&#45;&gt;MLU6CUnkgTQ6DWznDoN1Smog5R15iuZ9Uo_20180829_20h29m47s -->
<g id="edge31" class="edge"><title>MCUL7on4PdM1Rkm7k3wDStZ76ChVGWs4RZ_20180829_20h29m47s&#45;&gt;MLU6CUnkgTQ6DWznDoN1Smog5R15iuZ9Uo_20180829_20h29m47s</title>
<path fill="none" stroke="black" d="M2284.45,-288.5C2327.27,-278.128 2382.64,-264.715 2427.24,-253.914"/>
<polygon fill="black" stroke="black" points="2428.26,-257.267 2437.16,-251.511 2426.62,-250.463 2428.26,-257.267"/>
</g>
<!-- MCUL7on4PdM1Rkm7k3wDStZ76ChVGWs4RZ_20180829_20h29m47s&#45;&gt;MFg6zRUBoZKXAbPLXzKaRcK9WwDZRbeUxU_20180829_20h29m47s -->
<g id="edge20" class="edge"><title>MCUL7on4PdM1Rkm7k3wDStZ76ChVGWs4RZ_20180829_20h29m47s&#45;&gt;MFg6zRUBoZKXAbPLXzKaRcK9WwDZRbeUxU_20180829_20h29m47s</title>
<path fill="none" stroke="black" d="M2149.15,-288.5C2106.92,-278.128 2052.31,-264.715 2008.33,-253.914"/>
<polygon fill="black" stroke="black" points="2009.09,-250.497 1998.55,-251.511 2007.42,-257.295 2009.09,-250.497"/>
</g>
<!-- MMJKeY5uMd4PqYucPuNjF6uTb99J4bLdk9_20180828_22h58m06s -->
<g id="node26" class="node"><title>MMJKeY5uMd4PqYucPuNjF6uTb99J4bLdk9_20180828_22h58m06s</title>
<ellipse fill="none" stroke="black" cx="2010.33" cy="-594" rx="263.453" ry="18"/>
<text text-anchor="middle" x="2010.33" y="-590.3" font-family="Times,serif" font-size="14.00">MMJKeY5uMd4PqYucPuNjF6uTb99J4bLdk9_20180828_22h58m06s</text>
</g>
<!-- MMJKeY5uMd4PqYucPuNjF6uTb99J4bLdk9_20180828_22h58m06s&#45;&gt;M92A9ek5745jKDveURpmKzagwe1pCDkVeM_20180828_22h58m06s -->
<g id="edge37" class="edge"><title>MMJKeY5uMd4PqYucPuNjF6uTb99J4bLdk9_20180828_22h58m06s&#45;&gt;M92A9ek5745jKDveURpmKzagwe1pCDkVeM_20180828_22h58m06s</title>
<path fill="none" stroke="black" d="M1918.65,-577.116C1856.11,-566.28 1773.22,-551.918 1708.55,-540.712"/>
<polygon fill="black" stroke="black" points="1708.79,-537.201 1698.34,-538.942 1707.59,-544.098 1708.79,-537.201"/>
</g>
<!-- MJpHGCYzeXMLX7edHH46VeNNp68e1yv7Yx_20180828_22h58m06s -->
<g id="node27" class="node"><title>MJpHGCYzeXMLX7edHH46VeNNp68e1yv7Yx_20180828_22h58m06s</title>
<ellipse fill="none" stroke="black" cx="2167.33" cy="-522" rx="273.751" ry="18"/>
<text text-anchor="middle" x="2167.33" y="-518.3" font-family="Times,serif" font-size="14.00">MJpHGCYzeXMLX7edHH46VeNNp68e1yv7Yx_20180828_22h58m06s</text>
</g>
<!-- MMJKeY5uMd4PqYucPuNjF6uTb99J4bLdk9_20180828_22h58m06s&#45;&gt;MJpHGCYzeXMLX7edHH46VeNNp68e1yv7Yx_20180828_22h58m06s -->
<g id="edge21" class="edge"><title>MMJKeY5uMd4PqYucPuNjF6uTb99J4bLdk9_20180828_22h58m06s&#45;&gt;MJpHGCYzeXMLX7edHH46VeNNp68e1yv7Yx_20180828_22h58m06s</title>
<path fill="none" stroke="black" d="M2048.33,-576.055C2069.95,-566.417 2097.2,-554.265 2120.17,-544.023"/>
<polygon fill="black" stroke="black" points="2121.69,-547.179 2129.4,-539.91 2118.84,-540.786 2121.69,-547.179"/>
</g>
<!-- M92A9ek5745jKDveURpmKzagwe1pCDkVeM_20180829_21h53m42s&#45;&gt;MFvV8HvDtWQxXfjDBLiYAhjUjdUzBTFTiN_20180829_21h53m42s -->
<g id="edge25" class="edge"><title>M92A9ek5745jKDveURpmKzagwe1pCDkVeM_20180829_21h53m42s&#45;&gt;MFvV8HvDtWQxXfjDBLiYAhjUjdUzBTFTiN_20180829_21h53m42s</title>
<path fill="none" stroke="black" d="M1383.12,-71.6966C1381.23,-63.8979 1378.95,-54.5085 1376.84,-45.8292"/>
<polygon fill="black" stroke="black" points="1380.24,-44.9959 1374.48,-36.1043 1373.44,-46.6479 1380.24,-44.9959"/>
</g>
<!-- M92A9ek5745jKDveURpmKzagwe1pCDkVeM_20180829_21h53m42s&#45;&gt;MLU6CUnkgTQ6DWznDoN1Smog5R15iuZ9Uo_20180829_21h53m42s -->
<g id="edge39" class="edge"><title>M92A9ek5745jKDveURpmKzagwe1pCDkVeM_20180829_21h53m42s&#45;&gt;MLU6CUnkgTQ6DWznDoN1Smog5R15iuZ9Uo_20180829_21h53m42s</title>
<path fill="none" stroke="black" d="M1505.37,-73.811C1593.01,-62.5327 1712.47,-47.1621 1802.57,-35.5676"/>
<polygon fill="black" stroke="black" points="1803.11,-39.0277 1812.58,-34.28 1802.21,-32.085 1803.11,-39.0277"/>
</g>
<!-- M9h74q4TqA2QSdijGaJGBmcT4YVx4qmmQP_20180829_19h30m56s -->
<g id="node31" class="node"><title>M9h74q4TqA2QSdijGaJGBmcT4YVx4qmmQP_20180829_19h30m56s</title>
<ellipse fill="none" stroke="black" cx="2387.33" cy="-450" rx="270.252" ry="18"/>
<text text-anchor="middle" x="2387.33" y="-446.3" font-family="Times,serif" font-size="14.00">M9h74q4TqA2QSdijGaJGBmcT4YVx4qmmQP_20180829_19h30m56s</text>
</g>
<!-- M9h74q4TqA2QSdijGaJGBmcT4YVx4qmmQP_20180829_19h30m56s&#45;&gt;MLU6CUnkgTQ6DWznDoN1Smog5R15iuZ9Uo_20180829_19h30m56s -->
<g id="edge34" class="edge"><title>M9h74q4TqA2QSdijGaJGBmcT4YVx4qmmQP_20180829_19h30m56s&#45;&gt;MLU6CUnkgTQ6DWznDoN1Smog5R15iuZ9Uo_20180829_19h30m56s</title>
<path fill="none" stroke="black" d="M2479.48,-433.072C2542.07,-422.254 2624.92,-407.935 2689.63,-396.75"/>
<polygon fill="black" stroke="black" points="2690.59,-400.135 2699.85,-394.983 2689.4,-393.238 2690.59,-400.135"/>
</g>
<!-- M9h74q4TqA2QSdijGaJGBmcT4YVx4qmmQP_20180829_19h30m56s&#45;&gt;MQ7YLWGCeU5xTLD8KMLegGQY23fQgGE5Q4_20180829_19h30m56s -->
<g id="edge40" class="edge"><title>M9h74q4TqA2QSdijGaJGBmcT4YVx4qmmQP_20180829_19h30m56s&#45;&gt;MQ7YLWGCeU5xTLD8KMLegGQY23fQgGE5Q4_20180829_19h30m56s</title>
<path fill="none" stroke="black" d="M2345.69,-432.055C2321.8,-422.332 2291.62,-410.049 2266.31,-399.75"/>
<polygon fill="black" stroke="black" points="2267.46,-396.438 2256.88,-395.91 2264.82,-402.922 2267.46,-396.438"/>
</g>
<!-- M7uPAAZV6f4T5JYBZDTi6JHMQUDPxpaxpD_20180828_21h52m57s -->
<g id="node32" class="node"><title>M7uPAAZV6f4T5JYBZDTi6JHMQUDPxpaxpD_20180828_21h52m57s</title>
<ellipse fill="none" stroke="black" cx="2008.33" cy="-666" rx="272.952" ry="18"/>
<text text-anchor="middle" x="2008.33" y="-662.3" font-family="Times,serif" font-size="14.00">M7uPAAZV6f4T5JYBZDTi6JHMQUDPxpaxpD_20180828_21h52m57s</text>
</g>
<!-- M7uPAAZV6f4T5JYBZDTi6JHMQUDPxpaxpD_20180828_21h52m57s&#45;&gt;M92A9ek5745jKDveURpmKzagwe1pCDkVeM_20180828_21h52m57s -->
<g id="edge41" class="edge"><title>M7uPAAZV6f4T5JYBZDTi6JHMQUDPxpaxpD_20180828_21h52m57s&#45;&gt;M92A9ek5745jKDveURpmKzagwe1pCDkVeM_20180828_21h52m57s</title>
<path fill="none" stroke="black" d="M1888.86,-649.768C1800.24,-638.468 1679.53,-623.077 1588.64,-611.488"/>
<polygon fill="black" stroke="black" points="1588.91,-607.994 1578.55,-610.201 1588.02,-614.938 1588.91,-607.994"/>
</g>
<!-- MMj4KWv2sE9aDt9PcnS8bQvhXgDyeH6r1o_20180828_21h52m57s -->
<g id="node33" class="node"><title>MMj4KWv2sE9aDt9PcnS8bQvhXgDyeH6r1o_20180828_21h52m57s</title>
<ellipse fill="none" stroke="black" cx="2554.33" cy="-594" rx="263.453" ry="18"/>
<text text-anchor="middle" x="2554.33" y="-590.3" font-family="Times,serif" font-size="14.00">MMj4KWv2sE9aDt9PcnS8bQvhXgDyeH6r1o_20180828_21h52m57s</text>
</g>
<!-- M7uPAAZV6f4T5JYBZDTi6JHMQUDPxpaxpD_20180828_21h52m57s&#45;&gt;MMj4KWv2sE9aDt9PcnS8bQvhXgDyeH6r1o_20180828_21h52m57s -->
<g id="edge36" class="edge"><title>M7uPAAZV6f4T5JYBZDTi6JHMQUDPxpaxpD_20180828_21h52m57s&#45;&gt;MMj4KWv2sE9aDt9PcnS8bQvhXgDyeH6r1o_20180828_21h52m57s</title>
<path fill="none" stroke="black" d="M2127.14,-649.768C2215.43,-638.448 2335.74,-623.024 2426.18,-611.428"/>
<polygon fill="black" stroke="black" points="2426.75,-614.884 2436.23,-610.141 2425.86,-607.941 2426.75,-614.884"/>
</g>
</g>
</svg>
