<?xml version="1.0" encoding="UTF-8" standalone="no"?>
<!DOCTYPE svg PUBLIC "-//W3C//DTD SVG 1.1//EN"
 "http://www.w3.org/Graphics/SVG/1.1/DTD/svg11.dtd">
<!-- Generated by graphviz version 2.38.0 (20140413.2041)
 -->
<!-- Title: G Pages: 1 -->
<svg width="4648pt" height="836pt"
 viewBox="0.00 0.00 4647.95 836.00" xmlns="http://www.w3.org/2000/svg" xmlns:xlink="http://www.w3.org/1999/xlink">
<g id="graph0" class="graph" transform="scale(1 1) rotate(0) translate(4 832)">
<title>G</title>
<polygon fill="white" stroke="none" points="-4,4 -4,-832 4643.95,-832 4643.95,4 -4,4"/>
<!-- MMQ618AoG6za5fErcbLTqn7gSBhBGVt16r_20180902_09h06m18s -->
<g id="node1" class="node"><title>MMQ618AoG6za5fErcbLTqn7gSBhBGVt16r_20180902_09h06m18s</title>
<ellipse fill="none" stroke="black" cx="3258.58" cy="-666" rx="261.054" ry="18"/>
<text text-anchor="middle" x="3258.58" y="-662.3" font-family="Times,serif" font-size="14.00">MMQ618AoG6za5fErcbLTqn7gSBhBGVt16r_20180902_09h06m18s</text>
</g>
<!-- MMQ618AoG6za5fErcbLTqn7gSBhBGVt16r_20180902_09h06m18s&#45;&gt;MMQ618AoG6za5fErcbLTqn7gSBhBGVt16r_20180902_09h06m18s -->
<g id="edge1" class="edge"><title>MMQ618AoG6za5fErcbLTqn7gSBhBGVt16r_20180902_09h06m18s&#45;&gt;MMQ618AoG6za5fErcbLTqn7gSBhBGVt16r_20180902_09h06m18s</title>
<path fill="none" stroke="black" d="M3431.42,-679.499C3490.39,-679.587 3537.85,-675.088 3537.85,-666 3537.85,-657.445 3495.79,-652.956 3441.66,-652.533"/>
<polygon fill="black" stroke="black" points="3441.43,-649.032 3431.42,-652.501 3441.41,-656.032 3441.43,-649.032"/>
</g>
<!-- MGsG3Zc95j79nA5iJa5mHbDY5Nf37LsQVn_20180902_09h06m18s -->
<g id="node12" class="node"><title>MGsG3Zc95j79nA5iJa5mHbDY5Nf37LsQVn_20180902_09h06m18s</title>
<ellipse fill="none" stroke="black" cx="3818.58" cy="-594" rx="262.653" ry="18"/>
<text text-anchor="middle" x="3818.58" y="-590.3" font-family="Times,serif" font-size="14.00">MGsG3Zc95j79nA5iJa5mHbDY5Nf37LsQVn_20180902_09h06m18s</text>
</g>
<!-- MMQ618AoG6za5fErcbLTqn7gSBhBGVt16r_20180902_09h06m18s&#45;&gt;MGsG3Zc95j79nA5iJa5mHbDY5Nf37LsQVn_20180902_09h06m18s -->
<g id="edge7" class="edge"><title>MMQ618AoG6za5fErcbLTqn7gSBhBGVt16r_20180902_09h06m18s&#45;&gt;MGsG3Zc95j79nA5iJa5mHbDY5Nf37LsQVn_20180902_09h06m18s</title>
<path fill="none" stroke="black" d="M3378.71,-649.983C3469.72,-638.607 3594.61,-622.995 3688.07,-611.313"/>
<polygon fill="black" stroke="black" points="3688.67,-614.766 3698.16,-610.052 3687.8,-607.82 3688.67,-614.766"/>
</g>
<!-- MMQ618AoG6za5fErcbLTqn7gSBhBGVt16r_20180902_09h34m36s -->
<g id="node27" class="node"><title>MMQ618AoG6za5fErcbLTqn7gSBhBGVt16r_20180902_09h34m36s</title>
<ellipse fill="none" stroke="black" cx="3258.58" cy="-594" rx="261.054" ry="18"/>
<text text-anchor="middle" x="3258.58" y="-590.3" font-family="Times,serif" font-size="14.00">MMQ618AoG6za5fErcbLTqn7gSBhBGVt16r_20180902_09h34m36s</text>
</g>
<!-- MMQ618AoG6za5fErcbLTqn7gSBhBGVt16r_20180902_09h06m18s&#45;&gt;MMQ618AoG6za5fErcbLTqn7gSBhBGVt16r_20180902_09h34m36s -->
<g id="edge28" class="edge"><title>MMQ618AoG6za5fErcbLTqn7gSBhBGVt16r_20180902_09h06m18s&#45;&gt;MMQ618AoG6za5fErcbLTqn7gSBhBGVt16r_20180902_09h34m36s</title>
<path fill="none" stroke="black" d="M3258.58,-647.697C3258.58,-639.983 3258.58,-630.712 3258.58,-622.112"/>
<polygon fill="black" stroke="black" points="3262.08,-622.104 3258.58,-612.104 3255.08,-622.104 3262.08,-622.104"/>
</g>
<!-- MGsG3Zc95j79nA5iJa5mHbDY5Nf37LsQVn_20180902_10h35m36s -->
<g id="node2" class="node"><title>MGsG3Zc95j79nA5iJa5mHbDY5Nf37LsQVn_20180902_10h35m36s</title>
<ellipse fill="none" stroke="black" cx="3538.58" cy="-450" rx="262.653" ry="18"/>
<text text-anchor="middle" x="3538.58" y="-446.3" font-family="Times,serif" font-size="14.00">MGsG3Zc95j79nA5iJa5mHbDY5Nf37LsQVn_20180902_10h35m36s</text>
</g>
<!-- M8PWmpVoG6MyM29x86bg5bHrQ3X7pXiGyf_20180902_10h35m36s -->
<g id="node3" class="node"><title>M8PWmpVoG6MyM29x86bg5bHrQ3X7pXiGyf_20180902_10h35m36s</title>
<ellipse fill="none" stroke="black" cx="3538.58" cy="-378" rx="273.751" ry="18"/>
<text text-anchor="middle" x="3538.58" y="-374.3" font-family="Times,serif" font-size="14.00">M8PWmpVoG6MyM29x86bg5bHrQ3X7pXiGyf_20180902_10h35m36s</text>
</g>
<!-- MGsG3Zc95j79nA5iJa5mHbDY5Nf37LsQVn_20180902_10h35m36s&#45;&gt;M8PWmpVoG6MyM29x86bg5bHrQ3X7pXiGyf_20180902_10h35m36s -->
<g id="edge2" class="edge"><title>MGsG3Zc95j79nA5iJa5mHbDY5Nf37LsQVn_20180902_10h35m36s&#45;&gt;M8PWmpVoG6MyM29x86bg5bHrQ3X7pXiGyf_20180902_10h35m36s</title>
<path fill="none" stroke="black" d="M3538.58,-431.697C3538.58,-423.983 3538.58,-414.712 3538.58,-406.112"/>
<polygon fill="black" stroke="black" points="3542.08,-406.104 3538.58,-396.104 3535.08,-406.104 3542.08,-406.104"/>
</g>
<!-- MGsG3Zc95j79nA5iJa5mHbDY5Nf37LsQVn_20180902_11h04m00s -->
<g id="node6" class="node"><title>MGsG3Zc95j79nA5iJa5mHbDY5Nf37LsQVn_20180902_11h04m00s</title>
<ellipse fill="none" stroke="black" cx="808.577" cy="-378" rx="262.653" ry="18"/>
<text text-anchor="middle" x="808.577" y="-374.3" font-family="Times,serif" font-size="14.00">MGsG3Zc95j79nA5iJa5mHbDY5Nf37LsQVn_20180902_11h04m00s</text>
</g>
<!-- MGsG3Zc95j79nA5iJa5mHbDY5Nf37LsQVn_20180902_10h35m36s&#45;&gt;MGsG3Zc95j79nA5iJa5mHbDY5Nf37LsQVn_20180902_11h04m00s -->
<g id="edge40" class="edge"><title>MGsG3Zc95j79nA5iJa5mHbDY5Nf37LsQVn_20180902_10h35m36s&#45;&gt;MGsG3Zc95j79nA5iJa5mHbDY5Nf37LsQVn_20180902_11h04m00s</title>
<path fill="none" stroke="black" d="M3279.9,-446.851C2832.07,-442.362 1883.41,-429.471 1082.58,-396 1055.21,-394.856 1026.32,-393.369 997.969,-391.75"/>
<polygon fill="black" stroke="black" points="998.153,-388.255 987.967,-391.173 997.749,-395.244 998.153,-388.255"/>
</g>
<!-- MVoVXLsqobu5K3AWJTAh4ZBSRs1J6iiMW7_20180902_10h35m36s -->
<g id="node20" class="node"><title>MVoVXLsqobu5K3AWJTAh4ZBSRs1J6iiMW7_20180902_10h35m36s</title>
<ellipse fill="none" stroke="black" cx="4239.58" cy="-306" rx="272.152" ry="18"/>
<text text-anchor="middle" x="4239.58" y="-302.3" font-family="Times,serif" font-size="14.00">MVoVXLsqobu5K3AWJTAh4ZBSRs1J6iiMW7_20180902_10h35m36s</text>
</g>
<!-- MGsG3Zc95j79nA5iJa5mHbDY5Nf37LsQVn_20180902_10h35m36s&#45;&gt;MVoVXLsqobu5K3AWJTAh4ZBSRs1J6iiMW7_20180902_10h35m36s -->
<g id="edge16" class="edge"><title>MGsG3Zc95j79nA5iJa5mHbDY5Nf37LsQVn_20180902_10h35m36s&#45;&gt;MVoVXLsqobu5K3AWJTAh4ZBSRs1J6iiMW7_20180902_10h35m36s</title>
<path fill="none" stroke="black" d="M3626.96,-433.027C3682.83,-422.786 3756.51,-409.018 3821.58,-396 3937.57,-372.793 4071.22,-343.971 4155.54,-325.53"/>
<polygon fill="black" stroke="black" points="4156.3,-328.947 4165.32,-323.389 4154.8,-322.109 4156.3,-328.947"/>
</g>
<!-- M8PWmpVoG6MyM29x86bg5bHrQ3X7pXiGyf_20180902_11h26m26s -->
<g id="node25" class="node"><title>M8PWmpVoG6MyM29x86bg5bHrQ3X7pXiGyf_20180902_11h26m26s</title>
<ellipse fill="none" stroke="black" cx="3538.58" cy="-234" rx="273.751" ry="18"/>
<text text-anchor="middle" x="3538.58" y="-230.3" font-family="Times,serif" font-size="14.00">M8PWmpVoG6MyM29x86bg5bHrQ3X7pXiGyf_20180902_11h26m26s</text>
</g>
<!-- M8PWmpVoG6MyM29x86bg5bHrQ3X7pXiGyf_20180902_10h35m36s&#45;&gt;M8PWmpVoG6MyM29x86bg5bHrQ3X7pXiGyf_20180902_11h26m26s -->
<g id="edge24" class="edge"><title>M8PWmpVoG6MyM29x86bg5bHrQ3X7pXiGyf_20180902_10h35m36s&#45;&gt;M8PWmpVoG6MyM29x86bg5bHrQ3X7pXiGyf_20180902_11h26m26s</title>
<path fill="none" stroke="black" d="M3538.58,-359.871C3538.58,-335.67 3538.58,-291.211 3538.58,-262.393"/>
<polygon fill="black" stroke="black" points="3542.08,-262.189 3538.58,-252.189 3535.08,-262.189 3542.08,-262.189"/>
</g>
<!-- MGsG3Zc95j79nA5iJa5mHbDY5Nf37LsQVn_20180903_01h16m21s -->
<g id="node4" class="node"><title>MGsG3Zc95j79nA5iJa5mHbDY5Nf37LsQVn_20180903_01h16m21s</title>
<ellipse fill="none" stroke="black" cx="795.577" cy="-90" rx="262.653" ry="18"/>
<text text-anchor="middle" x="795.577" y="-86.3" font-family="Times,serif" font-size="14.00">MGsG3Zc95j79nA5iJa5mHbDY5Nf37LsQVn_20180903_01h16m21s</text>
</g>
<!-- MErEeQot1S6RmSYUTBXmXkrks83NnsnWEg_20180903_01h16m21s -->
<g id="node5" class="node"><title>MErEeQot1S6RmSYUTBXmXkrks83NnsnWEg_20180903_01h16m21s</title>
<ellipse fill="none" stroke="black" cx="516.577" cy="-18" rx="271.852" ry="18"/>
<text text-anchor="middle" x="516.577" y="-14.3" font-family="Times,serif" font-size="14.00">MErEeQot1S6RmSYUTBXmXkrks83NnsnWEg_20180903_01h16m21s</text>
</g>
<!-- MGsG3Zc95j79nA5iJa5mHbDY5Nf37LsQVn_20180903_01h16m21s&#45;&gt;MErEeQot1S6RmSYUTBXmXkrks83NnsnWEg_20180903_01h16m21s -->
<g id="edge3" class="edge"><title>MGsG3Zc95j79nA5iJa5mHbDY5Nf37LsQVn_20180903_01h16m21s&#45;&gt;MErEeQot1S6RmSYUTBXmXkrks83NnsnWEg_20180903_01h16m21s</title>
<path fill="none" stroke="black" d="M729.811,-72.4996C688.56,-62.1499 635.237,-48.7715 592.235,-37.9822"/>
<polygon fill="black" stroke="black" points="592.935,-34.5496 582.384,-35.5108 591.231,-41.3392 592.935,-34.5496"/>
</g>
<!-- MH691iHvYsHUfWrXhPRM6Z9oaFfN6qd2Yz_20180903_01h16m21s -->
<g id="node32" class="node"><title>MH691iHvYsHUfWrXhPRM6Z9oaFfN6qd2Yz_20180903_01h16m21s</title>
<ellipse fill="none" stroke="black" cx="1074.58" cy="-18" rx="268.352" ry="18"/>
<text text-anchor="middle" x="1074.58" y="-14.3" font-family="Times,serif" font-size="14.00">MH691iHvYsHUfWrXhPRM6Z9oaFfN6qd2Yz_20180903_01h16m21s</text>
</g>
<!-- MGsG3Zc95j79nA5iJa5mHbDY5Nf37LsQVn_20180903_01h16m21s&#45;&gt;MH691iHvYsHUfWrXhPRM6Z9oaFfN6qd2Yz_20180903_01h16m21s -->
<g id="edge44" class="edge"><title>MGsG3Zc95j79nA5iJa5mHbDY5Nf37LsQVn_20180903_01h16m21s&#45;&gt;MH691iHvYsHUfWrXhPRM6Z9oaFfN6qd2Yz_20180903_01h16m21s</title>
<path fill="none" stroke="black" d="M861.343,-72.4996C902.594,-62.1499 955.916,-48.7715 998.919,-37.9822"/>
<polygon fill="black" stroke="black" points="999.922,-41.3392 1008.77,-35.5108 998.218,-34.5496 999.922,-41.3392"/>
</g>
<!-- MGbkJuJ9fdTXvEBNek4SK8rCwydW5NPKmX_20180902_11h04m00s -->
<g id="node7" class="node"><title>MGbkJuJ9fdTXvEBNek4SK8rCwydW5NPKmX_20180902_11h04m00s</title>
<ellipse fill="none" stroke="black" cx="1360.58" cy="-306" rx="272.152" ry="18"/>
<text text-anchor="middle" x="1360.58" y="-302.3" font-family="Times,serif" font-size="14.00">MGbkJuJ9fdTXvEBNek4SK8rCwydW5NPKmX_20180902_11h04m00s</text>
</g>
<!-- MGsG3Zc95j79nA5iJa5mHbDY5Nf37LsQVn_20180902_11h04m00s&#45;&gt;MGbkJuJ9fdTXvEBNek4SK8rCwydW5NPKmX_20180902_11h04m00s -->
<g id="edge4" class="edge"><title>MGsG3Zc95j79nA5iJa5mHbDY5Nf37LsQVn_20180902_11h04m00s&#45;&gt;MGbkJuJ9fdTXvEBNek4SK8rCwydW5NPKmX_20180902_11h04m00s</title>
<path fill="none" stroke="black" d="M927.334,-361.94C1016.51,-350.631 1138.56,-335.154 1230.4,-323.508"/>
<polygon fill="black" stroke="black" points="1231.12,-326.945 1240.6,-322.215 1230.24,-320.001 1231.12,-326.945"/>
</g>
<!-- MGsG3Zc95j79nA5iJa5mHbDY5Nf37LsQVn_20180902_11h26m26s -->
<g id="node8" class="node"><title>MGsG3Zc95j79nA5iJa5mHbDY5Nf37LsQVn_20180902_11h26m26s</title>
<ellipse fill="none" stroke="black" cx="262.577" cy="-234" rx="262.653" ry="18"/>
<text text-anchor="middle" x="262.577" y="-230.3" font-family="Times,serif" font-size="14.00">MGsG3Zc95j79nA5iJa5mHbDY5Nf37LsQVn_20180902_11h26m26s</text>
</g>
<!-- MGsG3Zc95j79nA5iJa5mHbDY5Nf37LsQVn_20180902_11h04m00s&#45;&gt;MGsG3Zc95j79nA5iJa5mHbDY5Nf37LsQVn_20180902_11h26m26s -->
<g id="edge47" class="edge"><title>MGsG3Zc95j79nA5iJa5mHbDY5Nf37LsQVn_20180902_11h04m00s&#45;&gt;MGsG3Zc95j79nA5iJa5mHbDY5Nf37LsQVn_20180902_11h26m26s</title>
<path fill="none" stroke="black" d="M711.225,-361.227C658.57,-351.93 592.617,-339.046 534.577,-324 458.352,-304.24 372.259,-274.836 317.73,-255.302"/>
<polygon fill="black" stroke="black" points="318.853,-251.986 308.258,-251.894 316.483,-258.573 318.853,-251.986"/>
</g>
<!-- MFckG1iHPNAp9bUdC3Ta3yLHvPddPL82sn_20180902_11h04m00s -->
<g id="node14" class="node"><title>MFckG1iHPNAp9bUdC3Ta3yLHvPddPL82sn_20180902_11h04m00s</title>
<ellipse fill="none" stroke="black" cx="806.577" cy="-306" rx="263.453" ry="18"/>
<text text-anchor="middle" x="806.577" y="-302.3" font-family="Times,serif" font-size="14.00">MFckG1iHPNAp9bUdC3Ta3yLHvPddPL82sn_20180902_11h04m00s</text>
</g>
<!-- MGsG3Zc95j79nA5iJa5mHbDY5Nf37LsQVn_20180902_11h04m00s&#45;&gt;MFckG1iHPNAp9bUdC3Ta3yLHvPddPL82sn_20180902_11h04m00s -->
<g id="edge9" class="edge"><title>MGsG3Zc95j79nA5iJa5mHbDY5Nf37LsQVn_20180902_11h04m00s&#45;&gt;MFckG1iHPNAp9bUdC3Ta3yLHvPddPL82sn_20180902_11h04m00s</title>
<path fill="none" stroke="black" d="M808.082,-359.697C807.862,-351.983 807.597,-342.712 807.351,-334.112"/>
<polygon fill="black" stroke="black" points="810.85,-334 807.065,-324.104 803.853,-334.2 810.85,-334"/>
</g>
<!-- MGsG3Zc95j79nA5iJa5mHbDY5Nf37LsQVn_20180902_19h54m09s -->
<g id="node9" class="node"><title>MGsG3Zc95j79nA5iJa5mHbDY5Nf37LsQVn_20180902_19h54m09s</title>
<ellipse fill="none" stroke="black" cx="795.577" cy="-162" rx="262.653" ry="18"/>
<text text-anchor="middle" x="795.577" y="-158.3" font-family="Times,serif" font-size="14.00">MGsG3Zc95j79nA5iJa5mHbDY5Nf37LsQVn_20180902_19h54m09s</text>
</g>
<!-- MGsG3Zc95j79nA5iJa5mHbDY5Nf37LsQVn_20180902_11h26m26s&#45;&gt;MGsG3Zc95j79nA5iJa5mHbDY5Nf37LsQVn_20180902_19h54m09s -->
<g id="edge5" class="edge"><title>MGsG3Zc95j79nA5iJa5mHbDY5Nf37LsQVn_20180902_11h26m26s&#45;&gt;MGsG3Zc95j79nA5iJa5mHbDY5Nf37LsQVn_20180902_19h54m09s</title>
<path fill="none" stroke="black" d="M378.23,-217.811C464.167,-206.525 581.307,-191.14 669.612,-179.543"/>
<polygon fill="black" stroke="black" points="670.231,-182.992 679.69,-178.22 669.319,-176.052 670.231,-182.992"/>
</g>
<!-- MP7rwbgHiEALz44q96UY4iXkbEJRXjvVoA_20180902_11h26m26s -->
<g id="node17" class="node"><title>MP7rwbgHiEALz44q96UY4iXkbEJRXjvVoA_20180902_11h26m26s</title>
<ellipse fill="none" stroke="black" cx="1338.58" cy="-162" rx="262.653" ry="18"/>
<text text-anchor="middle" x="1338.58" y="-158.3" font-family="Times,serif" font-size="14.00">MP7rwbgHiEALz44q96UY4iXkbEJRXjvVoA_20180902_11h26m26s</text>
</g>
<!-- MGsG3Zc95j79nA5iJa5mHbDY5Nf37LsQVn_20180902_11h26m26s&#45;&gt;MP7rwbgHiEALz44q96UY4iXkbEJRXjvVoA_20180902_11h26m26s -->
<g id="edge50" class="edge"><title>MGsG3Zc95j79nA5iJa5mHbDY5Nf37LsQVn_20180902_11h26m26s&#45;&gt;MP7rwbgHiEALz44q96UY4iXkbEJRXjvVoA_20180902_11h26m26s</title>
<path fill="none" stroke="black" d="M445.715,-221.086C640.302,-208.427 946.684,-188.495 1145.12,-175.586"/>
<polygon fill="black" stroke="black" points="1145.62,-179.061 1155.37,-174.919 1145.16,-172.075 1145.62,-179.061"/>
</g>
<!-- MVoVXLsqobu5K3AWJTAh4ZBSRs1J6iiMW7_20180902_11h26m26s -->
<g id="node19" class="node"><title>MVoVXLsqobu5K3AWJTAh4ZBSRs1J6iiMW7_20180902_11h26m26s</title>
<ellipse fill="none" stroke="black" cx="2987.58" cy="-162" rx="272.152" ry="18"/>
<text text-anchor="middle" x="2987.58" y="-158.3" font-family="Times,serif" font-size="14.00">MVoVXLsqobu5K3AWJTAh4ZBSRs1J6iiMW7_20180902_11h26m26s</text>
</g>
<!-- MGsG3Zc95j79nA5iJa5mHbDY5Nf37LsQVn_20180902_11h26m26s&#45;&gt;MVoVXLsqobu5K3AWJTAh4ZBSRs1J6iiMW7_20180902_11h26m26s -->
<g id="edge13" class="edge"><title>MGsG3Zc95j79nA5iJa5mHbDY5Nf37LsQVn_20180902_11h26m26s&#45;&gt;MVoVXLsqobu5K3AWJTAh4ZBSRs1J6iiMW7_20180902_11h26m26s</title>
<path fill="none" stroke="black" d="M440.287,-220.717C471.688,-218.882 504.083,-217.205 534.577,-216 1499.29,-177.878 1741.83,-217.16 2706.58,-180 2734.65,-178.919 2764.27,-177.466 2793.35,-175.864"/>
<polygon fill="black" stroke="black" points="2793.82,-179.343 2803.61,-175.291 2793.43,-172.354 2793.82,-179.343"/>
</g>
<!-- MGsG3Zc95j79nA5iJa5mHbDY5Nf37LsQVn_20180902_19h54m09s&#45;&gt;MGsG3Zc95j79nA5iJa5mHbDY5Nf37LsQVn_20180903_01h16m21s -->
<g id="edge15" class="edge"><title>MGsG3Zc95j79nA5iJa5mHbDY5Nf37LsQVn_20180902_19h54m09s&#45;&gt;MGsG3Zc95j79nA5iJa5mHbDY5Nf37LsQVn_20180903_01h16m21s</title>
<path fill="none" stroke="black" d="M795.577,-143.697C795.577,-135.983 795.577,-126.712 795.577,-118.112"/>
<polygon fill="black" stroke="black" points="799.077,-118.104 795.577,-108.104 792.077,-118.104 799.077,-118.104"/>
</g>
<!-- MRh1hxxiD53xz5PiDqZqL7duDgkBu67P7W_20180902_19h54m09s -->
<g id="node11" class="node"><title>MRh1hxxiD53xz5PiDqZqL7duDgkBu67P7W_20180902_19h54m09s</title>
<ellipse fill="none" stroke="black" cx="1619.58" cy="-90" rx="260.754" ry="18"/>
<text text-anchor="middle" x="1619.58" y="-86.3" font-family="Times,serif" font-size="14.00">MRh1hxxiD53xz5PiDqZqL7duDgkBu67P7W_20180902_19h54m09s</text>
</g>
<!-- MGsG3Zc95j79nA5iJa5mHbDY5Nf37LsQVn_20180902_19h54m09s&#45;&gt;MRh1hxxiD53xz5PiDqZqL7duDgkBu67P7W_20180902_19h54m09s -->
<g id="edge25" class="edge"><title>MGsG3Zc95j79nA5iJa5mHbDY5Nf37LsQVn_20180902_19h54m09s&#45;&gt;MRh1hxxiD53xz5PiDqZqL7duDgkBu67P7W_20180902_19h54m09s</title>
<path fill="none" stroke="black" d="M953.477,-147.586C1096.32,-135.452 1306.01,-117.638 1451.82,-105.251"/>
<polygon fill="black" stroke="black" points="1452.54,-108.702 1462.21,-104.368 1451.95,-101.728 1452.54,-108.702"/>
</g>
<!-- MTYLt6M5U633pZn3jj4JjTUkoAru1DKpmp_20180902_19h54m09s -->
<g id="node15" class="node"><title>MTYLt6M5U633pZn3jj4JjTUkoAru1DKpmp_20180902_19h54m09s</title>
<ellipse fill="none" stroke="black" cx="2159.58" cy="-90" rx="261.054" ry="18"/>
<text text-anchor="middle" x="2159.58" y="-86.3" font-family="Times,serif" font-size="14.00">MTYLt6M5U633pZn3jj4JjTUkoAru1DKpmp_20180902_19h54m09s</text>
</g>
<!-- MGsG3Zc95j79nA5iJa5mHbDY5Nf37LsQVn_20180902_19h54m09s&#45;&gt;MTYLt6M5U633pZn3jj4JjTUkoAru1DKpmp_20180902_19h54m09s -->
<g id="edge10" class="edge"><title>MGsG3Zc95j79nA5iJa5mHbDY5Nf37LsQVn_20180902_19h54m09s&#45;&gt;MTYLt6M5U633pZn3jj4JjTUkoAru1DKpmp_20180902_19h54m09s</title>
<path fill="none" stroke="black" d="M978.496,-149.052C1007.94,-147.265 1038.1,-145.516 1066.58,-144 1432.19,-124.538 1523.97,-127.504 1889.58,-108 1914.84,-106.652 1941.43,-105.119 1967.66,-103.538"/>
<polygon fill="black" stroke="black" points="1967.93,-107.028 1977.7,-102.93 1967.5,-100.041 1967.93,-107.028"/>
</g>
<!-- MUS4NdhwNppYqWojogJxbaSFrBjuxbyfN3_20180902_19h54m09s -->
<g id="node10" class="node"><title>MUS4NdhwNppYqWojogJxbaSFrBjuxbyfN3_20180902_19h54m09s</title>
<ellipse fill="none" stroke="black" cx="2437.58" cy="-162" rx="259.954" ry="18"/>
<text text-anchor="middle" x="2437.58" y="-158.3" font-family="Times,serif" font-size="14.00">MUS4NdhwNppYqWojogJxbaSFrBjuxbyfN3_20180902_19h54m09s</text>
</g>
<!-- MUS4NdhwNppYqWojogJxbaSFrBjuxbyfN3_20180902_19h54m09s&#45;&gt;MRh1hxxiD53xz5PiDqZqL7duDgkBu67P7W_20180902_19h54m09s -->
<g id="edge6" class="edge"><title>MUS4NdhwNppYqWojogJxbaSFrBjuxbyfN3_20180902_19h54m09s&#45;&gt;MRh1hxxiD53xz5PiDqZqL7duDgkBu67P7W_20180902_19h54m09s</title>
<path fill="none" stroke="black" d="M2280.83,-147.586C2139.14,-135.461 1931.19,-117.666 1786.45,-105.281"/>
<polygon fill="black" stroke="black" points="1786.41,-101.764 1776.14,-104.398 1785.81,-108.738 1786.41,-101.764"/>
</g>
<!-- MUS4NdhwNppYqWojogJxbaSFrBjuxbyfN3_20180902_19h54m09s&#45;&gt;MTYLt6M5U633pZn3jj4JjTUkoAru1DKpmp_20180902_19h54m09s -->
<g id="edge27" class="edge"><title>MUS4NdhwNppYqWojogJxbaSFrBjuxbyfN3_20180902_19h54m09s&#45;&gt;MTYLt6M5U633pZn3jj4JjTUkoAru1DKpmp_20180902_19h54m09s</title>
<path fill="none" stroke="black" d="M2372.05,-144.5C2330.94,-134.15 2277.81,-120.771 2234.96,-109.982"/>
<polygon fill="black" stroke="black" points="2235.7,-106.559 2225.15,-107.511 2233.99,-113.347 2235.7,-106.559"/>
</g>
<!-- MGsG3Zc95j79nA5iJa5mHbDY5Nf37LsQVn_20180902_09h34m36s -->
<g id="node33" class="node"><title>MGsG3Zc95j79nA5iJa5mHbDY5Nf37LsQVn_20180902_09h34m36s</title>
<ellipse fill="none" stroke="black" cx="3538.58" cy="-522" rx="262.653" ry="18"/>
<text text-anchor="middle" x="3538.58" y="-518.3" font-family="Times,serif" font-size="14.00">MGsG3Zc95j79nA5iJa5mHbDY5Nf37LsQVn_20180902_09h34m36s</text>
</g>
<!-- MGsG3Zc95j79nA5iJa5mHbDY5Nf37LsQVn_20180902_09h06m18s&#45;&gt;MGsG3Zc95j79nA5iJa5mHbDY5Nf37LsQVn_20180902_09h34m36s -->
<g id="edge49" class="edge"><title>MGsG3Zc95j79nA5iJa5mHbDY5Nf37LsQVn_20180902_09h06m18s&#45;&gt;MGsG3Zc95j79nA5iJa5mHbDY5Nf37LsQVn_20180902_09h34m36s</title>
<path fill="none" stroke="black" d="M3752.58,-576.5C3711.18,-566.15 3657.66,-552.771 3614.51,-541.982"/>
<polygon fill="black" stroke="black" points="3615.17,-538.541 3604.62,-539.511 3613.47,-545.332 3615.17,-538.541"/>
</g>
<!-- MBopwQ782dmp9SaJvHPyaN9kFb2sKgf9Am_20180902_11h04m00s -->
<g id="node13" class="node"><title>MBopwQ782dmp9SaJvHPyaN9kFb2sKgf9Am_20180902_11h04m00s</title>
<ellipse fill="none" stroke="black" cx="1356.58" cy="-378" rx="265.353" ry="18"/>
<text text-anchor="middle" x="1356.58" y="-374.3" font-family="Times,serif" font-size="14.00">MBopwQ782dmp9SaJvHPyaN9kFb2sKgf9Am_20180902_11h04m00s</text>
</g>
<!-- MBopwQ782dmp9SaJvHPyaN9kFb2sKgf9Am_20180902_11h04m00s&#45;&gt;MGbkJuJ9fdTXvEBNek4SK8rCwydW5NPKmX_20180902_11h04m00s -->
<g id="edge33" class="edge"><title>MBopwQ782dmp9SaJvHPyaN9kFb2sKgf9Am_20180902_11h04m00s&#45;&gt;MGbkJuJ9fdTXvEBNek4SK8rCwydW5NPKmX_20180902_11h04m00s</title>
<path fill="none" stroke="black" d="M1357.57,-359.697C1358.01,-351.983 1358.54,-342.712 1359.03,-334.112"/>
<polygon fill="black" stroke="black" points="1362.52,-334.288 1359.6,-324.104 1355.53,-333.888 1362.52,-334.288"/>
</g>
<!-- MBopwQ782dmp9SaJvHPyaN9kFb2sKgf9Am_20180902_11h04m00s&#45;&gt;MFckG1iHPNAp9bUdC3Ta3yLHvPddPL82sn_20180902_11h04m00s -->
<g id="edge8" class="edge"><title>MBopwQ782dmp9SaJvHPyaN9kFb2sKgf9Am_20180902_11h04m00s&#45;&gt;MFckG1iHPNAp9bUdC3Ta3yLHvPddPL82sn_20180902_11h04m00s</title>
<path fill="none" stroke="black" d="M1237.91,-361.897C1148.73,-350.547 1026.7,-335.015 935.188,-323.369"/>
<polygon fill="black" stroke="black" points="935.391,-319.866 925.029,-322.076 934.507,-326.81 935.391,-319.866"/>
</g>
<!-- MFckG1iHPNAp9bUdC3Ta3yLHvPddPL82sn_20180902_11h26m26s -->
<g id="node18" class="node"><title>MFckG1iHPNAp9bUdC3Ta3yLHvPddPL82sn_20180902_11h26m26s</title>
<ellipse fill="none" stroke="black" cx="806.577" cy="-234" rx="263.453" ry="18"/>
<text text-anchor="middle" x="806.577" y="-230.3" font-family="Times,serif" font-size="14.00">MFckG1iHPNAp9bUdC3Ta3yLHvPddPL82sn_20180902_11h26m26s</text>
</g>
<!-- MFckG1iHPNAp9bUdC3Ta3yLHvPddPL82sn_20180902_11h04m00s&#45;&gt;MFckG1iHPNAp9bUdC3Ta3yLHvPddPL82sn_20180902_11h26m26s -->
<g id="edge20" class="edge"><title>MFckG1iHPNAp9bUdC3Ta3yLHvPddPL82sn_20180902_11h04m00s&#45;&gt;MFckG1iHPNAp9bUdC3Ta3yLHvPddPL82sn_20180902_11h26m26s</title>
<path fill="none" stroke="black" d="M806.577,-287.697C806.577,-279.983 806.577,-270.712 806.577,-262.112"/>
<polygon fill="black" stroke="black" points="810.077,-262.104 806.577,-252.104 803.077,-262.104 810.077,-262.104"/>
</g>
<!-- MEA6vpvJS61v4L1adoEMNko1SdgajcvqaR_20180902_11h26m26s -->
<g id="node16" class="node"><title>MEA6vpvJS61v4L1adoEMNko1SdgajcvqaR_20180902_11h26m26s</title>
<ellipse fill="none" stroke="black" cx="4087.58" cy="-234" rx="257.254" ry="18"/>
<text text-anchor="middle" x="4087.58" y="-230.3" font-family="Times,serif" font-size="14.00">MEA6vpvJS61v4L1adoEMNko1SdgajcvqaR_20180902_11h26m26s</text>
</g>
<!-- MEA6vpvJS61v4L1adoEMNko1SdgajcvqaR_20180902_11h26m26s&#45;&gt;MP7rwbgHiEALz44q96UY4iXkbEJRXjvVoA_20180902_11h26m26s -->
<g id="edge11" class="edge"><title>MEA6vpvJS61v4L1adoEMNko1SdgajcvqaR_20180902_11h26m26s&#45;&gt;MP7rwbgHiEALz44q96UY4iXkbEJRXjvVoA_20180902_11h26m26s</title>
<path fill="none" stroke="black" d="M3913.79,-220.7C3883.08,-218.867 3851.4,-217.195 3821.58,-216 2839.57,-176.648 2592.61,-218.663 1610.58,-180 1583.42,-178.931 1554.75,-177.485 1526.62,-175.886"/>
<polygon fill="black" stroke="black" points="1526.47,-172.372 1516.29,-175.291 1526.07,-179.36 1526.47,-172.372"/>
</g>
<!-- MEA6vpvJS61v4L1adoEMNko1SdgajcvqaR_20180902_11h26m26s&#45;&gt;MVoVXLsqobu5K3AWJTAh4ZBSRs1J6iiMW7_20180902_11h26m26s -->
<g id="edge34" class="edge"><title>MEA6vpvJS61v4L1adoEMNko1SdgajcvqaR_20180902_11h26m26s&#45;&gt;MVoVXLsqobu5K3AWJTAh4ZBSRs1J6iiMW7_20180902_11h26m26s</title>
<path fill="none" stroke="black" d="M3904.78,-221.309C3876.91,-219.529 3848.48,-217.714 3821.58,-216 3604.37,-202.158 3355.35,-186.339 3186.38,-175.614"/>
<polygon fill="black" stroke="black" points="3186.58,-172.119 3176.38,-174.979 3186.14,-179.105 3186.58,-172.119"/>
</g>
<!-- MFckG1iHPNAp9bUdC3Ta3yLHvPddPL82sn_20180902_11h26m26s&#45;&gt;MP7rwbgHiEALz44q96UY4iXkbEJRXjvVoA_20180902_11h26m26s -->
<g id="edge12" class="edge"><title>MFckG1iHPNAp9bUdC3Ta3yLHvPddPL82sn_20180902_11h26m26s&#45;&gt;MP7rwbgHiEALz44q96UY4iXkbEJRXjvVoA_20180902_11h26m26s</title>
<path fill="none" stroke="black" d="M922.013,-217.811C1007.79,-206.525 1124.71,-191.14 1212.85,-179.543"/>
<polygon fill="black" stroke="black" points="1213.45,-182.994 1222.91,-178.22 1212.54,-176.054 1213.45,-182.994"/>
</g>
<!-- MFckG1iHPNAp9bUdC3Ta3yLHvPddPL82sn_20180902_11h26m26s&#45;&gt;MVoVXLsqobu5K3AWJTAh4ZBSRs1J6iiMW7_20180902_11h26m26s -->
<g id="edge14" class="edge"><title>MFckG1iHPNAp9bUdC3Ta3yLHvPddPL82sn_20180902_11h26m26s&#45;&gt;MVoVXLsqobu5K3AWJTAh4ZBSRs1J6iiMW7_20180902_11h26m26s</title>
<path fill="none" stroke="black" d="M985.754,-220.772C1016.7,-218.955 1048.56,-217.269 1078.58,-216 1801.66,-185.421 1983.46,-209.858 2706.58,-180 2734.31,-178.855 2763.58,-177.381 2792.32,-175.78"/>
<polygon fill="black" stroke="black" points="2792.68,-179.266 2802.47,-175.209 2792.29,-172.277 2792.68,-179.266"/>
</g>
<!-- MVoVXLsqobu5K3AWJTAh4ZBSRs1J6iiMW7_20180902_10h35m36s&#45;&gt;MVoVXLsqobu5K3AWJTAh4ZBSRs1J6iiMW7_20180902_11h26m26s -->
<g id="edge26" class="edge"><title>MVoVXLsqobu5K3AWJTAh4ZBSRs1J6iiMW7_20180902_10h35m36s&#45;&gt;MVoVXLsqobu5K3AWJTAh4ZBSRs1J6iiMW7_20180902_11h26m26s</title>
<path fill="none" stroke="black" d="M4306.69,-288.458C4325.02,-280.535 4342.78,-268.929 4353.58,-252 4362.18,-238.511 4364.67,-227.531 4353.58,-216 4316.6,-177.563 3657.87,-166.973 3268.9,-164.075"/>
<polygon fill="black" stroke="black" points="3268.65,-160.573 3258.62,-164 3268.59,-167.573 3268.65,-160.573"/>
</g>
<!-- M92A9ek5745jKDveURpmKzagwe1pCDkVeM_20180828_04h31m40s -->
<g id="node21" class="node"><title>M92A9ek5745jKDveURpmKzagwe1pCDkVeM_20180828_04h31m40s</title>
<ellipse fill="none" stroke="black" cx="4093.58" cy="-810" rx="269.952" ry="18"/>
<text text-anchor="middle" x="4093.58" y="-806.3" font-family="Times,serif" font-size="14.00">M92A9ek5745jKDveURpmKzagwe1pCDkVeM_20180828_04h31m40s</text>
</g>
<!-- MGsG3Zc95j79nA5iJa5mHbDY5Nf37LsQVn_20180828_04h31m40s -->
<g id="node22" class="node"><title>MGsG3Zc95j79nA5iJa5mHbDY5Nf37LsQVn_20180828_04h31m40s</title>
<ellipse fill="none" stroke="black" cx="3818.58" cy="-738" rx="262.653" ry="18"/>
<text text-anchor="middle" x="3818.58" y="-734.3" font-family="Times,serif" font-size="14.00">MGsG3Zc95j79nA5iJa5mHbDY5Nf37LsQVn_20180828_04h31m40s</text>
</g>
<!-- M92A9ek5745jKDveURpmKzagwe1pCDkVeM_20180828_04h31m40s&#45;&gt;MGsG3Zc95j79nA5iJa5mHbDY5Nf37LsQVn_20180828_04h31m40s -->
<g id="edge17" class="edge"><title>M92A9ek5745jKDveURpmKzagwe1pCDkVeM_20180828_04h31m40s&#45;&gt;MGsG3Zc95j79nA5iJa5mHbDY5Nf37LsQVn_20180828_04h31m40s</title>
<path fill="none" stroke="black" d="M4028.75,-792.5C3988.09,-782.15 3935.54,-768.771 3893.15,-757.982"/>
<polygon fill="black" stroke="black" points="3893.99,-754.586 3883.44,-755.511 3892.27,-761.369 3893.99,-754.586"/>
</g>
<!-- MDTkqmAmNfmKfaFYi2Jx8jZxBw5sHG5SD7_20180828_04h31m40s -->
<g id="node34" class="node"><title>MDTkqmAmNfmKfaFYi2Jx8jZxBw5sHG5SD7_20180828_04h31m40s</title>
<ellipse fill="none" stroke="black" cx="4369.58" cy="-738" rx="270.252" ry="18"/>
<text text-anchor="middle" x="4369.58" y="-734.3" font-family="Times,serif" font-size="14.00">MDTkqmAmNfmKfaFYi2Jx8jZxBw5sHG5SD7_20180828_04h31m40s</text>
</g>
<!-- M92A9ek5745jKDveURpmKzagwe1pCDkVeM_20180828_04h31m40s&#45;&gt;MDTkqmAmNfmKfaFYi2Jx8jZxBw5sHG5SD7_20180828_04h31m40s -->
<g id="edge51" class="edge"><title>M92A9ek5745jKDveURpmKzagwe1pCDkVeM_20180828_04h31m40s&#45;&gt;MDTkqmAmNfmKfaFYi2Jx8jZxBw5sHG5SD7_20180828_04h31m40s</title>
<path fill="none" stroke="black" d="M4158.64,-792.5C4199.44,-782.15 4252.19,-768.771 4294.73,-757.982"/>
<polygon fill="black" stroke="black" points="4295.64,-761.362 4304.48,-755.511 4293.92,-754.577 4295.64,-761.362"/>
</g>
<!-- MGsG3Zc95j79nA5iJa5mHbDY5Nf37LsQVn_20180902_08h55m47s -->
<g id="node24" class="node"><title>MGsG3Zc95j79nA5iJa5mHbDY5Nf37LsQVn_20180902_08h55m47s</title>
<ellipse fill="none" stroke="black" cx="3818.58" cy="-666" rx="262.653" ry="18"/>
<text text-anchor="middle" x="3818.58" y="-662.3" font-family="Times,serif" font-size="14.00">MGsG3Zc95j79nA5iJa5mHbDY5Nf37LsQVn_20180902_08h55m47s</text>
</g>
<!-- MGsG3Zc95j79nA5iJa5mHbDY5Nf37LsQVn_20180828_04h31m40s&#45;&gt;MGsG3Zc95j79nA5iJa5mHbDY5Nf37LsQVn_20180902_08h55m47s -->
<g id="edge19" class="edge"><title>MGsG3Zc95j79nA5iJa5mHbDY5Nf37LsQVn_20180828_04h31m40s&#45;&gt;MGsG3Zc95j79nA5iJa5mHbDY5Nf37LsQVn_20180902_08h55m47s</title>
<path fill="none" stroke="black" d="M3818.58,-719.697C3818.58,-711.983 3818.58,-702.712 3818.58,-694.112"/>
<polygon fill="black" stroke="black" points="3822.08,-694.104 3818.58,-684.104 3815.08,-694.104 3822.08,-694.104"/>
</g>
<!-- MMQ618AoG6za5fErcbLTqn7gSBhBGVt16r_20180902_08h55m47s -->
<g id="node23" class="node"><title>MMQ618AoG6za5fErcbLTqn7gSBhBGVt16r_20180902_08h55m47s</title>
<ellipse fill="none" stroke="black" cx="3258.58" cy="-738" rx="261.054" ry="18"/>
<text text-anchor="middle" x="3258.58" y="-734.3" font-family="Times,serif" font-size="14.00">MMQ618AoG6za5fErcbLTqn7gSBhBGVt16r_20180902_08h55m47s</text>
</g>
<!-- MMQ618AoG6za5fErcbLTqn7gSBhBGVt16r_20180902_08h55m47s&#45;&gt;MMQ618AoG6za5fErcbLTqn7gSBhBGVt16r_20180902_09h06m18s -->
<g id="edge18" class="edge"><title>MMQ618AoG6za5fErcbLTqn7gSBhBGVt16r_20180902_08h55m47s&#45;&gt;MMQ618AoG6za5fErcbLTqn7gSBhBGVt16r_20180902_09h06m18s</title>
<path fill="none" stroke="black" d="M3258.58,-719.697C3258.58,-711.983 3258.58,-702.712 3258.58,-694.112"/>
<polygon fill="black" stroke="black" points="3262.08,-694.104 3258.58,-684.104 3255.08,-694.104 3262.08,-694.104"/>
</g>
<!-- MMQ618AoG6za5fErcbLTqn7gSBhBGVt16r_20180902_08h55m47s&#45;&gt;MMQ618AoG6za5fErcbLTqn7gSBhBGVt16r_20180902_08h55m47s -->
<g id="edge21" class="edge"><title>MMQ618AoG6za5fErcbLTqn7gSBhBGVt16r_20180902_08h55m47s&#45;&gt;MMQ618AoG6za5fErcbLTqn7gSBhBGVt16r_20180902_08h55m47s</title>
<path fill="none" stroke="black" d="M3431.42,-751.499C3490.39,-751.587 3537.85,-747.088 3537.85,-738 3537.85,-729.445 3495.79,-724.956 3441.66,-724.533"/>
<polygon fill="black" stroke="black" points="3441.43,-721.032 3431.42,-724.501 3441.41,-728.032 3441.43,-721.032"/>
</g>
<!-- MMQ618AoG6za5fErcbLTqn7gSBhBGVt16r_20180902_08h55m47s&#45;&gt;MGsG3Zc95j79nA5iJa5mHbDY5Nf37LsQVn_20180902_08h55m47s -->
<g id="edge29" class="edge"><title>MMQ618AoG6za5fErcbLTqn7gSBhBGVt16r_20180902_08h55m47s&#45;&gt;MGsG3Zc95j79nA5iJa5mHbDY5Nf37LsQVn_20180902_08h55m47s</title>
<path fill="none" stroke="black" d="M3378.71,-721.983C3469.72,-710.607 3594.61,-694.995 3688.07,-683.313"/>
<polygon fill="black" stroke="black" points="3688.67,-686.766 3698.16,-682.052 3687.8,-679.82 3688.67,-686.766"/>
</g>
<!-- MGsG3Zc95j79nA5iJa5mHbDY5Nf37LsQVn_20180902_08h55m47s&#45;&gt;MGsG3Zc95j79nA5iJa5mHbDY5Nf37LsQVn_20180902_09h06m18s -->
<g id="edge30" class="edge"><title>MGsG3Zc95j79nA5iJa5mHbDY5Nf37LsQVn_20180902_08h55m47s&#45;&gt;MGsG3Zc95j79nA5iJa5mHbDY5Nf37LsQVn_20180902_09h06m18s</title>
<path fill="none" stroke="black" d="M3818.58,-647.697C3818.58,-639.983 3818.58,-630.712 3818.58,-622.112"/>
<polygon fill="black" stroke="black" points="3822.08,-622.104 3818.58,-612.104 3815.08,-622.104 3822.08,-622.104"/>
</g>
<!-- M8PWmpVoG6MyM29x86bg5bHrQ3X7pXiGyf_20180902_11h26m26s&#45;&gt;MP7rwbgHiEALz44q96UY4iXkbEJRXjvVoA_20180902_11h26m26s -->
<g id="edge22" class="edge"><title>M8PWmpVoG6MyM29x86bg5bHrQ3X7pXiGyf_20180902_11h26m26s&#45;&gt;MP7rwbgHiEALz44q96UY4iXkbEJRXjvVoA_20180902_11h26m26s</title>
<path fill="none" stroke="black" d="M3352.43,-220.765C3320.47,-218.954 3287.57,-217.273 3256.58,-216 2525.46,-185.979 2341.66,-210.828 1610.58,-180 1583.74,-178.868 1555.42,-177.402 1527.61,-175.806"/>
<polygon fill="black" stroke="black" points="1527.57,-172.298 1517.39,-175.212 1527.17,-179.286 1527.57,-172.298"/>
</g>
<!-- M8PWmpVoG6MyM29x86bg5bHrQ3X7pXiGyf_20180902_11h26m26s&#45;&gt;MVoVXLsqobu5K3AWJTAh4ZBSRs1J6iiMW7_20180902_11h26m26s -->
<g id="edge36" class="edge"><title>M8PWmpVoG6MyM29x86bg5bHrQ3X7pXiGyf_20180902_11h26m26s&#45;&gt;MVoVXLsqobu5K3AWJTAh4ZBSRs1J6iiMW7_20180902_11h26m26s</title>
<path fill="none" stroke="black" d="M3418.68,-217.768C3329.73,-206.468 3208.58,-191.077 3117.36,-179.488"/>
<polygon fill="black" stroke="black" points="3117.59,-175.989 3107.23,-178.201 3116.71,-182.934 3117.59,-175.989"/>
</g>
<!-- MDKqrNEgRdyTdAx7iuQjjiunatPAQugJ22_20180902_11h26m26s -->
<g id="node26" class="node"><title>MDKqrNEgRdyTdAx7iuQjjiunatPAQugJ22_20180902_11h26m26s</title>
<ellipse fill="none" stroke="black" cx="1341.58" cy="-234" rx="254.255" ry="18"/>
<text text-anchor="middle" x="1341.58" y="-230.3" font-family="Times,serif" font-size="14.00">MDKqrNEgRdyTdAx7iuQjjiunatPAQugJ22_20180902_11h26m26s</text>
</g>
<!-- MDKqrNEgRdyTdAx7iuQjjiunatPAQugJ22_20180902_11h26m26s&#45;&gt;MP7rwbgHiEALz44q96UY4iXkbEJRXjvVoA_20180902_11h26m26s -->
<g id="edge23" class="edge"><title>MDKqrNEgRdyTdAx7iuQjjiunatPAQugJ22_20180902_11h26m26s&#45;&gt;MP7rwbgHiEALz44q96UY4iXkbEJRXjvVoA_20180902_11h26m26s</title>
<path fill="none" stroke="black" d="M1340.84,-215.697C1340.5,-207.983 1340.11,-198.712 1339.74,-190.112"/>
<polygon fill="black" stroke="black" points="1343.23,-189.945 1339.31,-180.104 1336.24,-190.245 1343.23,-189.945"/>
</g>
<!-- MDKqrNEgRdyTdAx7iuQjjiunatPAQugJ22_20180902_11h26m26s&#45;&gt;MVoVXLsqobu5K3AWJTAh4ZBSRs1J6iiMW7_20180902_11h26m26s -->
<g id="edge37" class="edge"><title>MDKqrNEgRdyTdAx7iuQjjiunatPAQugJ22_20180902_11h26m26s&#45;&gt;MVoVXLsqobu5K3AWJTAh4ZBSRs1J6iiMW7_20180902_11h26m26s</title>
<path fill="none" stroke="black" d="M1516.6,-220.905C1545.96,-219.1 1576.13,-217.384 1604.58,-216 2094.04,-192.192 2217.07,-202.798 2706.58,-180 2733.54,-178.744 2761.94,-177.24 2789.91,-175.651"/>
<polygon fill="black" stroke="black" points="2790.4,-179.129 2800.19,-175.063 2790,-172.14 2790.4,-179.129"/>
</g>
<!-- MMQ618AoG6za5fErcbLTqn7gSBhBGVt16r_20180902_09h34m36s&#45;&gt;MMQ618AoG6za5fErcbLTqn7gSBhBGVt16r_20180902_09h34m36s -->
<g id="edge43" class="edge"><title>MMQ618AoG6za5fErcbLTqn7gSBhBGVt16r_20180902_09h34m36s&#45;&gt;MMQ618AoG6za5fErcbLTqn7gSBhBGVt16r_20180902_09h34m36s</title>
<path fill="none" stroke="black" d="M3431.42,-607.499C3490.39,-607.587 3537.85,-603.088 3537.85,-594 3537.85,-585.445 3495.79,-580.956 3441.66,-580.533"/>
<polygon fill="black" stroke="black" points="3441.43,-577.032 3431.42,-580.501 3441.41,-584.032 3441.43,-577.032"/>
</g>
<!-- MMQ618AoG6za5fErcbLTqn7gSBhBGVt16r_20180902_09h34m36s&#45;&gt;MGsG3Zc95j79nA5iJa5mHbDY5Nf37LsQVn_20180902_09h34m36s -->
<g id="edge48" class="edge"><title>MMQ618AoG6za5fErcbLTqn7gSBhBGVt16r_20180902_09h34m36s&#45;&gt;MGsG3Zc95j79nA5iJa5mHbDY5Nf37LsQVn_20180902_09h34m36s</title>
<path fill="none" stroke="black" d="M3324.58,-576.5C3365.98,-566.15 3419.49,-552.771 3462.65,-541.982"/>
<polygon fill="black" stroke="black" points="3463.68,-545.332 3472.53,-539.511 3461.98,-538.541 3463.68,-545.332"/>
</g>
<!-- MLm2RRgAz6BUwhQiNPiTrCLgsmuhws9Ux7_20180902_19h54m09s -->
<g id="node28" class="node"><title>MLm2RRgAz6BUwhQiNPiTrCLgsmuhws9Ux7_20180902_19h54m09s</title>
<ellipse fill="none" stroke="black" cx="1889.58" cy="-162" rx="270.252" ry="18"/>
<text text-anchor="middle" x="1889.58" y="-158.3" font-family="Times,serif" font-size="14.00">MLm2RRgAz6BUwhQiNPiTrCLgsmuhws9Ux7_20180902_19h54m09s</text>
</g>
<!-- MLm2RRgAz6BUwhQiNPiTrCLgsmuhws9Ux7_20180902_19h54m09s&#45;&gt;MRh1hxxiD53xz5PiDqZqL7duDgkBu67P7W_20180902_19h54m09s -->
<g id="edge31" class="edge"><title>MLm2RRgAz6BUwhQiNPiTrCLgsmuhws9Ux7_20180902_19h54m09s&#45;&gt;MRh1hxxiD53xz5PiDqZqL7duDgkBu67P7W_20180902_19h54m09s</title>
<path fill="none" stroke="black" d="M1825.93,-144.5C1786.1,-134.172 1734.63,-120.828 1693.06,-110.05"/>
<polygon fill="black" stroke="black" points="1693.82,-106.632 1683.26,-107.511 1692.06,-113.408 1693.82,-106.632"/>
</g>
<!-- MLm2RRgAz6BUwhQiNPiTrCLgsmuhws9Ux7_20180902_19h54m09s&#45;&gt;MTYLt6M5U633pZn3jj4JjTUkoAru1DKpmp_20180902_19h54m09s -->
<g id="edge39" class="edge"><title>MLm2RRgAz6BUwhQiNPiTrCLgsmuhws9Ux7_20180902_19h54m09s&#45;&gt;MTYLt6M5U633pZn3jj4JjTUkoAru1DKpmp_20180902_19h54m09s</title>
<path fill="none" stroke="black" d="M1953.22,-144.5C1993.06,-134.172 2044.53,-120.828 2086.1,-110.05"/>
<polygon fill="black" stroke="black" points="2087.09,-113.408 2095.89,-107.511 2085.33,-106.632 2087.09,-113.408"/>
</g>
<!-- M8KNqZgR94iXYNWPffmyum41DHs6Ve79A1_20180902_11h26m26s -->
<g id="node29" class="node"><title>M8KNqZgR94iXYNWPffmyum41DHs6Ve79A1_20180902_11h26m26s</title>
<ellipse fill="none" stroke="black" cx="1887.58" cy="-234" rx="273.751" ry="18"/>
<text text-anchor="middle" x="1887.58" y="-230.3" font-family="Times,serif" font-size="14.00">M8KNqZgR94iXYNWPffmyum41DHs6Ve79A1_20180902_11h26m26s</text>
</g>
<!-- M8KNqZgR94iXYNWPffmyum41DHs6Ve79A1_20180902_11h26m26s&#45;&gt;MP7rwbgHiEALz44q96UY4iXkbEJRXjvVoA_20180902_11h26m26s -->
<g id="edge32" class="edge"><title>M8KNqZgR94iXYNWPffmyum41DHs6Ve79A1_20180902_11h26m26s&#45;&gt;MP7rwbgHiEALz44q96UY4iXkbEJRXjvVoA_20180902_11h26m26s</title>
<path fill="none" stroke="black" d="M1768.11,-217.768C1679.18,-206.429 1557.95,-190.971 1466.95,-179.369"/>
<polygon fill="black" stroke="black" points="1467.21,-175.874 1456.85,-178.081 1466.33,-182.817 1467.21,-175.874"/>
</g>
<!-- M8KNqZgR94iXYNWPffmyum41DHs6Ve79A1_20180902_11h26m26s&#45;&gt;MVoVXLsqobu5K3AWJTAh4ZBSRs1J6iiMW7_20180902_11h26m26s -->
<g id="edge41" class="edge"><title>M8KNqZgR94iXYNWPffmyum41DHs6Ve79A1_20180902_11h26m26s&#45;&gt;MVoVXLsqobu5K3AWJTAh4ZBSRs1J6iiMW7_20180902_11h26m26s</title>
<path fill="none" stroke="black" d="M2076.67,-220.967C2275.41,-208.319 2586.71,-188.509 2788.96,-175.639"/>
<polygon fill="black" stroke="black" points="2789.35,-179.121 2799.11,-174.993 2788.91,-172.136 2789.35,-179.121"/>
</g>
<!-- MNDv4oRHUxJxjn6EtrytHfFevoTz1WVYGv_20180902_11h26m26s -->
<g id="node30" class="node"><title>MNDv4oRHUxJxjn6EtrytHfFevoTz1WVYGv_20180902_11h26m26s</title>
<ellipse fill="none" stroke="black" cx="2441.58" cy="-234" rx="262.653" ry="18"/>
<text text-anchor="middle" x="2441.58" y="-230.3" font-family="Times,serif" font-size="14.00">MNDv4oRHUxJxjn6EtrytHfFevoTz1WVYGv_20180902_11h26m26s</text>
</g>
<!-- MNDv4oRHUxJxjn6EtrytHfFevoTz1WVYGv_20180902_11h26m26s&#45;&gt;MP7rwbgHiEALz44q96UY4iXkbEJRXjvVoA_20180902_11h26m26s -->
<g id="edge35" class="edge"><title>MNDv4oRHUxJxjn6EtrytHfFevoTz1WVYGv_20180902_11h26m26s&#45;&gt;MP7rwbgHiEALz44q96UY4iXkbEJRXjvVoA_20180902_11h26m26s</title>
<path fill="none" stroke="black" d="M2256.03,-221.224C2055.78,-208.516 1738.23,-188.363 1534.17,-175.413"/>
<polygon fill="black" stroke="black" points="1534.13,-171.904 1523.93,-174.763 1533.69,-178.889 1534.13,-171.904"/>
</g>
<!-- MNDv4oRHUxJxjn6EtrytHfFevoTz1WVYGv_20180902_11h26m26s&#45;&gt;MVoVXLsqobu5K3AWJTAh4ZBSRs1J6iiMW7_20180902_11h26m26s -->
<g id="edge46" class="edge"><title>MNDv4oRHUxJxjn6EtrytHfFevoTz1WVYGv_20180902_11h26m26s&#45;&gt;MVoVXLsqobu5K3AWJTAh4ZBSRs1J6iiMW7_20180902_11h26m26s</title>
<path fill="none" stroke="black" d="M2559.38,-217.897C2647.46,-206.605 2767.82,-191.174 2858.5,-179.548"/>
<polygon fill="black" stroke="black" points="2859.1,-183 2868.57,-178.257 2858.21,-176.057 2859.1,-183"/>
</g>
<!-- M8cCoN1oQXmrk8CPBGjhiexrn47mR7jX2T_20180902_11h26m26s -->
<g id="node31" class="node"><title>M8cCoN1oQXmrk8CPBGjhiexrn47mR7jX2T_20180902_11h26m26s</title>
<ellipse fill="none" stroke="black" cx="2984.58" cy="-234" rx="262.653" ry="18"/>
<text text-anchor="middle" x="2984.58" y="-230.3" font-family="Times,serif" font-size="14.00">M8cCoN1oQXmrk8CPBGjhiexrn47mR7jX2T_20180902_11h26m26s</text>
</g>
<!-- M8cCoN1oQXmrk8CPBGjhiexrn47mR7jX2T_20180902_11h26m26s&#45;&gt;MP7rwbgHiEALz44q96UY4iXkbEJRXjvVoA_20180902_11h26m26s -->
<g id="edge38" class="edge"><title>M8cCoN1oQXmrk8CPBGjhiexrn47mR7jX2T_20180902_11h26m26s&#45;&gt;MP7rwbgHiEALz44q96UY4iXkbEJRXjvVoA_20180902_11h26m26s</title>
<path fill="none" stroke="black" d="M2803.86,-220.906C2773.72,-219.107 2742.77,-217.392 2713.58,-216 2223.65,-192.643 2100.51,-203.3 1610.58,-180 1584.37,-178.754 1556.76,-177.25 1529.58,-175.659"/>
<polygon fill="black" stroke="black" points="1529.78,-172.165 1519.59,-175.069 1529.37,-179.152 1529.78,-172.165"/>
</g>
<!-- M8cCoN1oQXmrk8CPBGjhiexrn47mR7jX2T_20180902_11h26m26s&#45;&gt;MVoVXLsqobu5K3AWJTAh4ZBSRs1J6iiMW7_20180902_11h26m26s -->
<g id="edge42" class="edge"><title>M8cCoN1oQXmrk8CPBGjhiexrn47mR7jX2T_20180902_11h26m26s&#45;&gt;MVoVXLsqobu5K3AWJTAh4ZBSRs1J6iiMW7_20180902_11h26m26s</title>
<path fill="none" stroke="black" d="M2985.32,-215.697C2985.65,-207.983 2986.05,-198.712 2986.41,-190.112"/>
<polygon fill="black" stroke="black" points="2989.91,-190.245 2986.84,-180.104 2982.92,-189.945 2989.91,-190.245"/>
</g>
<!-- MGsG3Zc95j79nA5iJa5mHbDY5Nf37LsQVn_20180902_09h34m36s&#45;&gt;MGsG3Zc95j79nA5iJa5mHbDY5Nf37LsQVn_20180902_10h35m36s -->
<g id="edge45" class="edge"><title>MGsG3Zc95j79nA5iJa5mHbDY5Nf37LsQVn_20180902_09h34m36s&#45;&gt;MGsG3Zc95j79nA5iJa5mHbDY5Nf37LsQVn_20180902_10h35m36s</title>
<path fill="none" stroke="black" d="M3538.58,-503.697C3538.58,-495.983 3538.58,-486.712 3538.58,-478.112"/>
<polygon fill="black" stroke="black" points="3542.08,-478.104 3538.58,-468.104 3535.08,-478.104 3542.08,-478.104"/>
</g>
</g>
</svg>
