<?xml version="1.0" encoding="UTF-8" standalone="no"?>
<!DOCTYPE svg PUBLIC "-//W3C//DTD SVG 1.1//EN"
 "http://www.w3.org/Graphics/SVG/1.1/DTD/svg11.dtd">
<!-- Generated by graphviz version 2.38.0 (20140413.2041)
 -->
<!-- Title: G Pages: 1 -->
<svg width="2767pt" height="260pt"
 viewBox="0.00 0.00 2767.20 260.00" xmlns="http://www.w3.org/2000/svg" xmlns:xlink="http://www.w3.org/1999/xlink">
<g id="graph0" class="graph" transform="scale(1 1) rotate(0) translate(4 256)">
<title>G</title>
<polygon fill="white" stroke="none" points="-4,4 -4,-256 2763.2,-256 2763.2,4 -4,4"/>
<!-- MSWzZ1iazdeKKyBHCBaE7jsSisrrUiB2WP_20180902_10h03m36s -->
<g id="node1" class="node"><title>MSWzZ1iazdeKKyBHCBaE7jsSisrrUiB2WP_20180902_10h03m36s</title>
<ellipse fill="none" stroke="black" cx="2499.23" cy="-234" rx="259.954" ry="18"/>
<text text-anchor="middle" x="2499.23" y="-230.3" font-family="Times,serif" font-size="14.00">MSWzZ1iazdeKKyBHCBaE7jsSisrrUiB2WP_20180902_10h03m36s</text>
</g>
<!-- MBopwQ782dmp9SaJvHPyaN9kFb2sKgf9Am_20180902_10h03m36s -->
<g id="node2" class="node"><title>MBopwQ782dmp9SaJvHPyaN9kFb2sKgf9Am_20180902_10h03m36s</title>
<ellipse fill="none" stroke="black" cx="1110.23" cy="-162" rx="265.353" ry="18"/>
<text text-anchor="middle" x="1110.23" y="-158.3" font-family="Times,serif" font-size="14.00">MBopwQ782dmp9SaJvHPyaN9kFb2sKgf9Am_20180902_10h03m36s</text>
</g>
<!-- MSWzZ1iazdeKKyBHCBaE7jsSisrrUiB2WP_20180902_10h03m36s&#45;&gt;MBopwQ782dmp9SaJvHPyaN9kFb2sKgf9Am_20180902_10h03m36s -->
<g id="edge1" class="edge"><title>MSWzZ1iazdeKKyBHCBaE7jsSisrrUiB2WP_20180902_10h03m36s&#45;&gt;MBopwQ782dmp9SaJvHPyaN9kFb2sKgf9Am_20180902_10h03m36s</title>
<path fill="none" stroke="black" d="M2318.38,-221.059C2288.92,-219.261 2258.73,-217.507 2230.23,-216 1854.41,-196.131 1760.05,-199.653 1384.23,-180 1358.59,-178.659 1331.61,-177.13 1304.98,-175.551"/>
<polygon fill="black" stroke="black" points="1304.99,-172.045 1294.8,-174.944 1304.57,-179.033 1304.99,-172.045"/>
</g>
<!-- MTYLt6M5U633pZn3jj4JjTUkoAru1DKpmp_20180902_10h03m36s -->
<g id="node7" class="node"><title>MTYLt6M5U633pZn3jj4JjTUkoAru1DKpmp_20180902_10h03m36s</title>
<ellipse fill="none" stroke="black" cx="1654.23" cy="-162" rx="261.054" ry="18"/>
<text text-anchor="middle" x="1654.23" y="-158.3" font-family="Times,serif" font-size="14.00">MTYLt6M5U633pZn3jj4JjTUkoAru1DKpmp_20180902_10h03m36s</text>
</g>
<!-- MSWzZ1iazdeKKyBHCBaE7jsSisrrUiB2WP_20180902_10h03m36s&#45;&gt;MTYLt6M5U633pZn3jj4JjTUkoAru1DKpmp_20180902_10h03m36s -->
<g id="edge6" class="edge"><title>MSWzZ1iazdeKKyBHCBaE7jsSisrrUiB2WP_20180902_10h03m36s&#45;&gt;MTYLt6M5U633pZn3jj4JjTUkoAru1DKpmp_20180902_10h03m36s</title>
<path fill="none" stroke="black" d="M2339.29,-219.751C2192.2,-207.566 1974.75,-189.552 1824.47,-177.103"/>
<polygon fill="black" stroke="black" points="1824.47,-173.592 1814.22,-176.254 1823.9,-180.568 1824.47,-173.592"/>
</g>
<!-- MBopwQ782dmp9SaJvHPyaN9kFb2sKgf9Am_20180902_11h04m00s -->
<g id="node5" class="node"><title>MBopwQ782dmp9SaJvHPyaN9kFb2sKgf9Am_20180902_11h04m00s</title>
<ellipse fill="none" stroke="black" cx="1110.23" cy="-90" rx="265.353" ry="18"/>
<text text-anchor="middle" x="1110.23" y="-86.3" font-family="Times,serif" font-size="14.00">MBopwQ782dmp9SaJvHPyaN9kFb2sKgf9Am_20180902_11h04m00s</text>
</g>
<!-- MBopwQ782dmp9SaJvHPyaN9kFb2sKgf9Am_20180902_10h03m36s&#45;&gt;MBopwQ782dmp9SaJvHPyaN9kFb2sKgf9Am_20180902_11h04m00s -->
<g id="edge10" class="edge"><title>MBopwQ782dmp9SaJvHPyaN9kFb2sKgf9Am_20180902_10h03m36s&#45;&gt;MBopwQ782dmp9SaJvHPyaN9kFb2sKgf9Am_20180902_11h04m00s</title>
<path fill="none" stroke="black" d="M1110.23,-143.697C1110.23,-135.983 1110.23,-126.712 1110.23,-118.112"/>
<polygon fill="black" stroke="black" points="1113.73,-118.104 1110.23,-108.104 1106.73,-118.104 1113.73,-118.104"/>
</g>
<!-- MEKgLwfV7oNhwdCkNdHHsAix1RyNMeHuqC_20180902_10h03m36s -->
<g id="node3" class="node"><title>MEKgLwfV7oNhwdCkNdHHsAix1RyNMeHuqC_20180902_10h03m36s</title>
<ellipse fill="none" stroke="black" cx="276.225" cy="-234" rx="276.451" ry="18"/>
<text text-anchor="middle" x="276.225" y="-230.3" font-family="Times,serif" font-size="14.00">MEKgLwfV7oNhwdCkNdHHsAix1RyNMeHuqC_20180902_10h03m36s</text>
</g>
<!-- MEKgLwfV7oNhwdCkNdHHsAix1RyNMeHuqC_20180902_10h03m36s&#45;&gt;MBopwQ782dmp9SaJvHPyaN9kFb2sKgf9Am_20180902_10h03m36s -->
<g id="edge2" class="edge"><title>MEKgLwfV7oNhwdCkNdHHsAix1RyNMeHuqC_20180902_10h03m36s&#45;&gt;MBopwQ782dmp9SaJvHPyaN9kFb2sKgf9Am_20180902_10h03m36s</title>
<path fill="none" stroke="black" d="M438.513,-219.379C583.04,-207.248 793.734,-189.564 940.481,-177.247"/>
<polygon fill="black" stroke="black" points="940.821,-180.731 950.493,-176.407 940.236,-173.756 940.821,-180.731"/>
</g>
<!-- MEKgLwfV7oNhwdCkNdHHsAix1RyNMeHuqC_20180902_10h03m36s&#45;&gt;MTYLt6M5U633pZn3jj4JjTUkoAru1DKpmp_20180902_10h03m36s -->
<g id="edge7" class="edge"><title>MEKgLwfV7oNhwdCkNdHHsAix1RyNMeHuqC_20180902_10h03m36s&#45;&gt;MTYLt6M5U633pZn3jj4JjTUkoAru1DKpmp_20180902_10h03m36s</title>
<path fill="none" stroke="black" d="M468.984,-221.086C499.829,-219.299 531.401,-217.542 561.225,-216 926.865,-197.099 1018.62,-199.504 1384.23,-180 1409.49,-178.652 1436.08,-177.119 1462.31,-175.538"/>
<polygon fill="black" stroke="black" points="1462.58,-179.028 1472.35,-174.93 1462.15,-172.041 1462.58,-179.028"/>
</g>
<!-- ML2e8PYj2UA7gghC9PJPLzUTCRjCoZohpq_20180902_10h03m36s -->
<g id="node4" class="node"><title>ML2e8PYj2UA7gghC9PJPLzUTCRjCoZohpq_20180902_10h03m36s</title>
<ellipse fill="none" stroke="black" cx="833.225" cy="-234" rx="262.653" ry="18"/>
<text text-anchor="middle" x="833.225" y="-230.3" font-family="Times,serif" font-size="14.00">ML2e8PYj2UA7gghC9PJPLzUTCRjCoZohpq_20180902_10h03m36s</text>
</g>
<!-- ML2e8PYj2UA7gghC9PJPLzUTCRjCoZohpq_20180902_10h03m36s&#45;&gt;MBopwQ782dmp9SaJvHPyaN9kFb2sKgf9Am_20180902_10h03m36s -->
<g id="edge3" class="edge"><title>ML2e8PYj2UA7gghC9PJPLzUTCRjCoZohpq_20180902_10h03m36s&#45;&gt;MBopwQ782dmp9SaJvHPyaN9kFb2sKgf9Am_20180902_10h03m36s</title>
<path fill="none" stroke="black" d="M898.52,-216.5C939.475,-206.15 992.416,-192.771 1035.11,-181.982"/>
<polygon fill="black" stroke="black" points="1036.05,-185.354 1044.89,-179.511 1034.34,-178.568 1036.05,-185.354"/>
</g>
<!-- ML2e8PYj2UA7gghC9PJPLzUTCRjCoZohpq_20180902_10h03m36s&#45;&gt;MTYLt6M5U633pZn3jj4JjTUkoAru1DKpmp_20180902_10h03m36s -->
<g id="edge5" class="edge"><title>ML2e8PYj2UA7gghC9PJPLzUTCRjCoZohpq_20180902_10h03m36s&#45;&gt;MTYLt6M5U633pZn3jj4JjTUkoAru1DKpmp_20180902_10h03m36s</title>
<path fill="none" stroke="black" d="M990.551,-219.586C1132.76,-207.461 1341.47,-189.666 1486.74,-177.281"/>
<polygon fill="black" stroke="black" points="1487.42,-180.735 1497.08,-176.398 1486.82,-173.761 1487.42,-180.735"/>
</g>
<!-- MGbkJuJ9fdTXvEBNek4SK8rCwydW5NPKmX_20180902_11h04m00s -->
<g id="node6" class="node"><title>MGbkJuJ9fdTXvEBNek4SK8rCwydW5NPKmX_20180902_11h04m00s</title>
<ellipse fill="none" stroke="black" cx="1108.23" cy="-18" rx="272.152" ry="18"/>
<text text-anchor="middle" x="1108.23" y="-14.3" font-family="Times,serif" font-size="14.00">MGbkJuJ9fdTXvEBNek4SK8rCwydW5NPKmX_20180902_11h04m00s</text>
</g>
<!-- MBopwQ782dmp9SaJvHPyaN9kFb2sKgf9Am_20180902_11h04m00s&#45;&gt;MGbkJuJ9fdTXvEBNek4SK8rCwydW5NPKmX_20180902_11h04m00s -->
<g id="edge4" class="edge"><title>MBopwQ782dmp9SaJvHPyaN9kFb2sKgf9Am_20180902_11h04m00s&#45;&gt;MGbkJuJ9fdTXvEBNek4SK8rCwydW5NPKmX_20180902_11h04m00s</title>
<path fill="none" stroke="black" d="M1109.73,-71.6966C1109.51,-63.9827 1109.25,-54.7125 1109,-46.1124"/>
<polygon fill="black" stroke="black" points="1112.5,-46.0003 1108.71,-36.1043 1105.5,-46.2002 1112.5,-46.0003"/>
</g>
<!-- MFckG1iHPNAp9bUdC3Ta3yLHvPddPL82sn_20180902_11h04m00s -->
<g id="node10" class="node"><title>MFckG1iHPNAp9bUdC3Ta3yLHvPddPL82sn_20180902_11h04m00s</title>
<ellipse fill="none" stroke="black" cx="1662.23" cy="-18" rx="263.453" ry="18"/>
<text text-anchor="middle" x="1662.23" y="-14.3" font-family="Times,serif" font-size="14.00">MFckG1iHPNAp9bUdC3Ta3yLHvPddPL82sn_20180902_11h04m00s</text>
</g>
<!-- MBopwQ782dmp9SaJvHPyaN9kFb2sKgf9Am_20180902_11h04m00s&#45;&gt;MFckG1iHPNAp9bUdC3Ta3yLHvPddPL82sn_20180902_11h04m00s -->
<g id="edge11" class="edge"><title>MBopwQ782dmp9SaJvHPyaN9kFb2sKgf9Am_20180902_11h04m00s&#45;&gt;MFckG1iHPNAp9bUdC3Ta3yLHvPddPL82sn_20180902_11h04m00s</title>
<path fill="none" stroke="black" d="M1229.32,-73.8972C1318.83,-62.5466 1441.31,-47.0153 1533.15,-35.3687"/>
<polygon fill="black" stroke="black" points="1533.86,-38.806 1543.34,-34.0757 1532.98,-31.8616 1533.86,-38.806"/>
</g>
<!-- MGppSUEddokfQAydpP45MXfFMeiYLGu19n_20180902_10h03m36s -->
<g id="node8" class="node"><title>MGppSUEddokfQAydpP45MXfFMeiYLGu19n_20180902_10h03m36s</title>
<ellipse fill="none" stroke="black" cx="1382.23" cy="-234" rx="268.352" ry="18"/>
<text text-anchor="middle" x="1382.23" y="-230.3" font-family="Times,serif" font-size="14.00">MGppSUEddokfQAydpP45MXfFMeiYLGu19n_20180902_10h03m36s</text>
</g>
<!-- MGppSUEddokfQAydpP45MXfFMeiYLGu19n_20180902_10h03m36s&#45;&gt;MBopwQ782dmp9SaJvHPyaN9kFb2sKgf9Am_20180902_10h03m36s -->
<g id="edge14" class="edge"><title>MGppSUEddokfQAydpP45MXfFMeiYLGu19n_20180902_10h03m36s&#45;&gt;MBopwQ782dmp9SaJvHPyaN9kFb2sKgf9Am_20180902_10h03m36s</title>
<path fill="none" stroke="black" d="M1318.11,-216.5C1277.98,-206.172 1226.13,-192.828 1184.25,-182.05"/>
<polygon fill="black" stroke="black" points="1184.94,-178.614 1174.38,-179.511 1183.19,-185.393 1184.94,-178.614"/>
</g>
<!-- MGppSUEddokfQAydpP45MXfFMeiYLGu19n_20180902_10h03m36s&#45;&gt;MTYLt6M5U633pZn3jj4JjTUkoAru1DKpmp_20180902_10h03m36s -->
<g id="edge8" class="edge"><title>MGppSUEddokfQAydpP45MXfFMeiYLGu19n_20180902_10h03m36s&#45;&gt;MTYLt6M5U633pZn3jj4JjTUkoAru1DKpmp_20180902_10h03m36s</title>
<path fill="none" stroke="black" d="M1446.34,-216.5C1486.47,-206.172 1538.32,-192.828 1580.2,-182.05"/>
<polygon fill="black" stroke="black" points="1581.26,-185.393 1590.07,-179.511 1579.51,-178.614 1581.26,-185.393"/>
</g>
<!-- MGsG3Zc95j79nA5iJa5mHbDY5Nf37LsQVn_20180902_11h04m00s -->
<g id="node9" class="node"><title>MGsG3Zc95j79nA5iJa5mHbDY5Nf37LsQVn_20180902_11h04m00s</title>
<ellipse fill="none" stroke="black" cx="1660.23" cy="-90" rx="262.653" ry="18"/>
<text text-anchor="middle" x="1660.23" y="-86.3" font-family="Times,serif" font-size="14.00">MGsG3Zc95j79nA5iJa5mHbDY5Nf37LsQVn_20180902_11h04m00s</text>
</g>
<!-- MGsG3Zc95j79nA5iJa5mHbDY5Nf37LsQVn_20180902_11h04m00s&#45;&gt;MGbkJuJ9fdTXvEBNek4SK8rCwydW5NPKmX_20180902_11h04m00s -->
<g id="edge9" class="edge"><title>MGsG3Zc95j79nA5iJa5mHbDY5Nf37LsQVn_20180902_11h04m00s&#45;&gt;MGbkJuJ9fdTXvEBNek4SK8rCwydW5NPKmX_20180902_11h04m00s</title>
<path fill="none" stroke="black" d="M1541.47,-73.9403C1452.29,-62.631 1330.24,-47.1537 1238.4,-35.508"/>
<polygon fill="black" stroke="black" points="1238.57,-32.0008 1228.21,-34.2149 1237.69,-38.9452 1238.57,-32.0008"/>
</g>
<!-- MGsG3Zc95j79nA5iJa5mHbDY5Nf37LsQVn_20180902_11h04m00s&#45;&gt;MFckG1iHPNAp9bUdC3Ta3yLHvPddPL82sn_20180902_11h04m00s -->
<g id="edge13" class="edge"><title>MGsG3Zc95j79nA5iJa5mHbDY5Nf37LsQVn_20180902_11h04m00s&#45;&gt;MFckG1iHPNAp9bUdC3Ta3yLHvPddPL82sn_20180902_11h04m00s</title>
<path fill="none" stroke="black" d="M1660.72,-71.6966C1660.94,-63.9827 1661.21,-54.7125 1661.45,-46.1124"/>
<polygon fill="black" stroke="black" points="1664.95,-46.2002 1661.74,-36.1043 1657.95,-46.0003 1664.95,-46.2002"/>
</g>
<!-- MGG9zyhV7GmK6cv654JKSdPWgTPELT1FHN_20180902_10h03m36s -->
<g id="node11" class="node"><title>MGG9zyhV7GmK6cv654JKSdPWgTPELT1FHN_20180902_10h03m36s</title>
<ellipse fill="none" stroke="black" cx="1945.23" cy="-234" rx="276.451" ry="18"/>
<text text-anchor="middle" x="1945.23" y="-230.3" font-family="Times,serif" font-size="14.00">MGG9zyhV7GmK6cv654JKSdPWgTPELT1FHN_20180902_10h03m36s</text>
</g>
<!-- MGG9zyhV7GmK6cv654JKSdPWgTPELT1FHN_20180902_10h03m36s&#45;&gt;MBopwQ782dmp9SaJvHPyaN9kFb2sKgf9Am_20180902_10h03m36s -->
<g id="edge15" class="edge"><title>MGG9zyhV7GmK6cv654JKSdPWgTPELT1FHN_20180902_10h03m36s&#45;&gt;MBopwQ782dmp9SaJvHPyaN9kFb2sKgf9Am_20180902_10h03m36s</title>
<path fill="none" stroke="black" d="M1782.74,-219.379C1637.93,-207.238 1426.76,-189.536 1279.82,-177.218"/>
<polygon fill="black" stroke="black" points="1280.05,-173.725 1269.8,-176.377 1279.47,-180.7 1280.05,-173.725"/>
</g>
<!-- MGG9zyhV7GmK6cv654JKSdPWgTPELT1FHN_20180902_10h03m36s&#45;&gt;MTYLt6M5U633pZn3jj4JjTUkoAru1DKpmp_20180902_10h03m36s -->
<g id="edge12" class="edge"><title>MGG9zyhV7GmK6cv654JKSdPWgTPELT1FHN_20180902_10h03m36s&#45;&gt;MTYLt6M5U633pZn3jj4JjTUkoAru1DKpmp_20180902_10h03m36s</title>
<path fill="none" stroke="black" d="M1876.63,-216.5C1833.27,-206.069 1777.12,-192.561 1732.08,-181.729"/>
<polygon fill="black" stroke="black" points="1732.9,-178.326 1722.36,-179.39 1731.26,-185.131 1732.9,-178.326"/>
</g>
</g>
</svg>
