<?xml version="1.0" encoding="UTF-8" standalone="no"?>
<!DOCTYPE svg PUBLIC "-//W3C//DTD SVG 1.1//EN"
 "http://www.w3.org/Graphics/SVG/1.1/DTD/svg11.dtd">
<!-- Generated by graphviz version 2.38.0 (20140413.2041)
 -->
<!-- Title: G Pages: 1 -->
<svg width="4354pt" height="260pt"
 viewBox="0.00 0.00 4354.20 260.00" xmlns="http://www.w3.org/2000/svg" xmlns:xlink="http://www.w3.org/1999/xlink">
<g id="graph0" class="graph" transform="scale(1 1) rotate(0) translate(4 256)">
<title>G</title>
<polygon fill="white" stroke="none" points="-4,4 -4,-256 4350.2,-256 4350.2,4 -4,4"/>
<!-- MGsG3Zc95j79nA5iJa5mHbDY5Nf37LsQVn_20180902_11h04m00s -->
<g id="node1" class="node"><title>MGsG3Zc95j79nA5iJa5mHbDY5Nf37LsQVn_20180902_11h04m00s</title>
<ellipse fill="none" stroke="black" cx="2281.58" cy="-234" rx="262.653" ry="18"/>
<text text-anchor="middle" x="2281.58" y="-230.3" font-family="Times,serif" font-size="14.00">MGsG3Zc95j79nA5iJa5mHbDY5Nf37LsQVn_20180902_11h04m00s</text>
</g>
<!-- MGbkJuJ9fdTXvEBNek4SK8rCwydW5NPKmX_20180902_11h04m00s -->
<g id="node2" class="node"><title>MGbkJuJ9fdTXvEBNek4SK8rCwydW5NPKmX_20180902_11h04m00s</title>
<ellipse fill="none" stroke="black" cx="2281.58" cy="-162" rx="272.152" ry="18"/>
<text text-anchor="middle" x="2281.58" y="-158.3" font-family="Times,serif" font-size="14.00">MGbkJuJ9fdTXvEBNek4SK8rCwydW5NPKmX_20180902_11h04m00s</text>
</g>
<!-- MGsG3Zc95j79nA5iJa5mHbDY5Nf37LsQVn_20180902_11h04m00s&#45;&gt;MGbkJuJ9fdTXvEBNek4SK8rCwydW5NPKmX_20180902_11h04m00s -->
<g id="edge1" class="edge"><title>MGsG3Zc95j79nA5iJa5mHbDY5Nf37LsQVn_20180902_11h04m00s&#45;&gt;MGbkJuJ9fdTXvEBNek4SK8rCwydW5NPKmX_20180902_11h04m00s</title>
<path fill="none" stroke="black" d="M2281.58,-215.697C2281.58,-207.983 2281.58,-198.712 2281.58,-190.112"/>
<polygon fill="black" stroke="black" points="2285.08,-190.104 2281.58,-180.104 2278.08,-190.104 2285.08,-190.104"/>
</g>
<!-- MFckG1iHPNAp9bUdC3Ta3yLHvPddPL82sn_20180902_11h04m00s -->
<g id="node4" class="node"><title>MFckG1iHPNAp9bUdC3Ta3yLHvPddPL82sn_20180902_11h04m00s</title>
<ellipse fill="none" stroke="black" cx="1727.58" cy="-162" rx="263.453" ry="18"/>
<text text-anchor="middle" x="1727.58" y="-158.3" font-family="Times,serif" font-size="14.00">MFckG1iHPNAp9bUdC3Ta3yLHvPddPL82sn_20180902_11h04m00s</text>
</g>
<!-- MGsG3Zc95j79nA5iJa5mHbDY5Nf37LsQVn_20180902_11h04m00s&#45;&gt;MFckG1iHPNAp9bUdC3Ta3yLHvPddPL82sn_20180902_11h04m00s -->
<g id="edge3" class="edge"><title>MGsG3Zc95j79nA5iJa5mHbDY5Nf37LsQVn_20180902_11h04m00s&#45;&gt;MFckG1iHPNAp9bUdC3Ta3yLHvPddPL82sn_20180902_11h04m00s</title>
<path fill="none" stroke="black" d="M2162.39,-217.94C2072.49,-206.581 1949.3,-191.016 1857,-179.353"/>
<polygon fill="black" stroke="black" points="1857.4,-175.875 1847.04,-178.094 1856.52,-182.82 1857.4,-175.875"/>
</g>
<!-- MGsG3Zc95j79nA5iJa5mHbDY5Nf37LsQVn_20180902_11h26m26s -->
<g id="node8" class="node"><title>MGsG3Zc95j79nA5iJa5mHbDY5Nf37LsQVn_20180902_11h26m26s</title>
<ellipse fill="none" stroke="black" cx="2426.58" cy="-90" rx="262.653" ry="18"/>
<text text-anchor="middle" x="2426.58" y="-86.3" font-family="Times,serif" font-size="14.00">MGsG3Zc95j79nA5iJa5mHbDY5Nf37LsQVn_20180902_11h26m26s</text>
</g>
<!-- MGsG3Zc95j79nA5iJa5mHbDY5Nf37LsQVn_20180902_11h04m00s&#45;&gt;MGsG3Zc95j79nA5iJa5mHbDY5Nf37LsQVn_20180902_11h26m26s -->
<g id="edge20" class="edge"><title>MGsG3Zc95j79nA5iJa5mHbDY5Nf37LsQVn_20180902_11h04m00s&#45;&gt;MGsG3Zc95j79nA5iJa5mHbDY5Nf37LsQVn_20180902_11h26m26s</title>
<path fill="none" stroke="black" d="M2445.61,-219.87C2497.82,-212.047 2546.3,-199.635 2562.58,-180 2572.79,-167.682 2571.61,-157.209 2562.58,-144 2552.65,-129.485 2538.12,-118.945 2522.2,-111.291"/>
<polygon fill="black" stroke="black" points="2523.26,-107.932 2512.7,-107.11 2520.44,-114.339 2523.26,-107.932"/>
</g>
<!-- MBopwQ782dmp9SaJvHPyaN9kFb2sKgf9Am_20180902_11h04m00s -->
<g id="node3" class="node"><title>MBopwQ782dmp9SaJvHPyaN9kFb2sKgf9Am_20180902_11h04m00s</title>
<ellipse fill="none" stroke="black" cx="1731.58" cy="-234" rx="265.353" ry="18"/>
<text text-anchor="middle" x="1731.58" y="-230.3" font-family="Times,serif" font-size="14.00">MBopwQ782dmp9SaJvHPyaN9kFb2sKgf9Am_20180902_11h04m00s</text>
</g>
<!-- MBopwQ782dmp9SaJvHPyaN9kFb2sKgf9Am_20180902_11h04m00s&#45;&gt;MGbkJuJ9fdTXvEBNek4SK8rCwydW5NPKmX_20180902_11h04m00s -->
<g id="edge12" class="edge"><title>MBopwQ782dmp9SaJvHPyaN9kFb2sKgf9Am_20180902_11h04m00s&#45;&gt;MGbkJuJ9fdTXvEBNek4SK8rCwydW5NPKmX_20180902_11h04m00s</title>
<path fill="none" stroke="black" d="M1850.24,-217.897C1939.12,-206.585 2060.62,-191.121 2152.03,-179.488"/>
<polygon fill="black" stroke="black" points="2152.7,-182.931 2162.18,-178.196 2151.81,-175.987 2152.7,-182.931"/>
</g>
<!-- MBopwQ782dmp9SaJvHPyaN9kFb2sKgf9Am_20180902_11h04m00s&#45;&gt;MFckG1iHPNAp9bUdC3Ta3yLHvPddPL82sn_20180902_11h04m00s -->
<g id="edge2" class="edge"><title>MBopwQ782dmp9SaJvHPyaN9kFb2sKgf9Am_20180902_11h04m00s&#45;&gt;MFckG1iHPNAp9bUdC3Ta3yLHvPddPL82sn_20180902_11h04m00s</title>
<path fill="none" stroke="black" d="M1730.59,-215.697C1730.15,-207.983 1729.62,-198.712 1729.13,-190.112"/>
<polygon fill="black" stroke="black" points="1732.62,-189.888 1728.55,-180.104 1725.63,-190.288 1732.62,-189.888"/>
</g>
<!-- MFckG1iHPNAp9bUdC3Ta3yLHvPddPL82sn_20180902_11h26m26s -->
<g id="node7" class="node"><title>MFckG1iHPNAp9bUdC3Ta3yLHvPddPL82sn_20180902_11h26m26s</title>
<ellipse fill="none" stroke="black" cx="1882.58" cy="-90" rx="263.453" ry="18"/>
<text text-anchor="middle" x="1882.58" y="-86.3" font-family="Times,serif" font-size="14.00">MFckG1iHPNAp9bUdC3Ta3yLHvPddPL82sn_20180902_11h26m26s</text>
</g>
<!-- MFckG1iHPNAp9bUdC3Ta3yLHvPddPL82sn_20180902_11h04m00s&#45;&gt;MFckG1iHPNAp9bUdC3Ta3yLHvPddPL82sn_20180902_11h26m26s -->
<g id="edge8" class="edge"><title>MFckG1iHPNAp9bUdC3Ta3yLHvPddPL82sn_20180902_11h04m00s&#45;&gt;MFckG1iHPNAp9bUdC3Ta3yLHvPddPL82sn_20180902_11h26m26s</title>
<path fill="none" stroke="black" d="M1765.1,-144.055C1786.34,-134.46 1813.11,-122.373 1835.72,-112.16"/>
<polygon fill="black" stroke="black" points="1837.46,-115.216 1845.13,-107.91 1834.58,-108.836 1837.46,-115.216"/>
</g>
<!-- MEA6vpvJS61v4L1adoEMNko1SdgajcvqaR_20180902_11h26m26s -->
<g id="node5" class="node"><title>MEA6vpvJS61v4L1adoEMNko1SdgajcvqaR_20180902_11h26m26s</title>
<ellipse fill="none" stroke="black" cx="1343.58" cy="-90" rx="257.254" ry="18"/>
<text text-anchor="middle" x="1343.58" y="-86.3" font-family="Times,serif" font-size="14.00">MEA6vpvJS61v4L1adoEMNko1SdgajcvqaR_20180902_11h26m26s</text>
</g>
<!-- MP7rwbgHiEALz44q96UY4iXkbEJRXjvVoA_20180902_11h26m26s -->
<g id="node6" class="node"><title>MP7rwbgHiEALz44q96UY4iXkbEJRXjvVoA_20180902_11h26m26s</title>
<ellipse fill="none" stroke="black" cx="1877.58" cy="-18" rx="262.653" ry="18"/>
<text text-anchor="middle" x="1877.58" y="-14.3" font-family="Times,serif" font-size="14.00">MP7rwbgHiEALz44q96UY4iXkbEJRXjvVoA_20180902_11h26m26s</text>
</g>
<!-- MEA6vpvJS61v4L1adoEMNko1SdgajcvqaR_20180902_11h26m26s&#45;&gt;MP7rwbgHiEALz44q96UY4iXkbEJRXjvVoA_20180902_11h26m26s -->
<g id="edge4" class="edge"><title>MEA6vpvJS61v4L1adoEMNko1SdgajcvqaR_20180902_11h26m26s&#45;&gt;MP7rwbgHiEALz44q96UY4iXkbEJRXjvVoA_20180902_11h26m26s</title>
<path fill="none" stroke="black" d="M1458.79,-73.8972C1545,-62.5968 1662.81,-47.1526 1751.53,-35.5235"/>
<polygon fill="black" stroke="black" points="1752.19,-38.9665 1761.65,-34.1964 1751.28,-32.0259 1752.19,-38.9665"/>
</g>
<!-- MVoVXLsqobu5K3AWJTAh4ZBSRs1J6iiMW7_20180902_11h26m26s -->
<g id="node9" class="node"><title>MVoVXLsqobu5K3AWJTAh4ZBSRs1J6iiMW7_20180902_11h26m26s</title>
<ellipse fill="none" stroke="black" cx="2430.58" cy="-18" rx="272.152" ry="18"/>
<text text-anchor="middle" x="2430.58" y="-14.3" font-family="Times,serif" font-size="14.00">MVoVXLsqobu5K3AWJTAh4ZBSRs1J6iiMW7_20180902_11h26m26s</text>
</g>
<!-- MEA6vpvJS61v4L1adoEMNko1SdgajcvqaR_20180902_11h26m26s&#45;&gt;MVoVXLsqobu5K3AWJTAh4ZBSRs1J6iiMW7_20180902_11h26m26s -->
<g id="edge13" class="edge"><title>MEA6vpvJS61v4L1adoEMNko1SdgajcvqaR_20180902_11h26m26s&#45;&gt;MVoVXLsqobu5K3AWJTAh4ZBSRs1J6iiMW7_20180902_11h26m26s</title>
<path fill="none" stroke="black" d="M1525.82,-77.2639C1721.57,-64.6585 2031.56,-44.6954 2233.03,-31.7216"/>
<polygon fill="black" stroke="black" points="2233.38,-35.2061 2243.14,-31.0706 2232.93,-28.2206 2233.38,-35.2061"/>
</g>
<!-- MFckG1iHPNAp9bUdC3Ta3yLHvPddPL82sn_20180902_11h26m26s&#45;&gt;MP7rwbgHiEALz44q96UY4iXkbEJRXjvVoA_20180902_11h26m26s -->
<g id="edge5" class="edge"><title>MFckG1iHPNAp9bUdC3Ta3yLHvPddPL82sn_20180902_11h26m26s&#45;&gt;MP7rwbgHiEALz44q96UY4iXkbEJRXjvVoA_20180902_11h26m26s</title>
<path fill="none" stroke="black" d="M1881.34,-71.6966C1880.79,-63.9827 1880.13,-54.7125 1879.51,-46.1124"/>
<polygon fill="black" stroke="black" points="1883,-45.8295 1878.8,-36.1043 1876.02,-46.3283 1883,-45.8295"/>
</g>
<!-- MFckG1iHPNAp9bUdC3Ta3yLHvPddPL82sn_20180902_11h26m26s&#45;&gt;MVoVXLsqobu5K3AWJTAh4ZBSRs1J6iiMW7_20180902_11h26m26s -->
<g id="edge7" class="edge"><title>MFckG1iHPNAp9bUdC3Ta3yLHvPddPL82sn_20180902_11h26m26s&#45;&gt;MVoVXLsqobu5K3AWJTAh4ZBSRs1J6iiMW7_20180902_11h26m26s</title>
<path fill="none" stroke="black" d="M2000.81,-73.8972C2089.37,-62.5853 2210.43,-47.1212 2301.5,-35.4881"/>
<polygon fill="black" stroke="black" points="2302.13,-38.9353 2311.61,-34.1964 2301.25,-31.9917 2302.13,-38.9353"/>
</g>
<!-- MGsG3Zc95j79nA5iJa5mHbDY5Nf37LsQVn_20180902_11h26m26s&#45;&gt;MP7rwbgHiEALz44q96UY4iXkbEJRXjvVoA_20180902_11h26m26s -->
<g id="edge21" class="edge"><title>MGsG3Zc95j79nA5iJa5mHbDY5Nf37LsQVn_20180902_11h26m26s&#45;&gt;MP7rwbgHiEALz44q96UY4iXkbEJRXjvVoA_20180902_11h26m26s</title>
<path fill="none" stroke="black" d="M2308.13,-73.8972C2219.11,-62.5466 2097.3,-47.0153 2005.95,-35.3687"/>
<polygon fill="black" stroke="black" points="2006.18,-31.8687 1995.81,-34.0757 2005.29,-38.8125 2006.18,-31.8687"/>
</g>
<!-- MGsG3Zc95j79nA5iJa5mHbDY5Nf37LsQVn_20180902_11h26m26s&#45;&gt;MVoVXLsqobu5K3AWJTAh4ZBSRs1J6iiMW7_20180902_11h26m26s -->
<g id="edge6" class="edge"><title>MGsG3Zc95j79nA5iJa5mHbDY5Nf37LsQVn_20180902_11h26m26s&#45;&gt;MVoVXLsqobu5K3AWJTAh4ZBSRs1J6iiMW7_20180902_11h26m26s</title>
<path fill="none" stroke="black" d="M2427.57,-71.6966C2428.01,-63.9827 2428.54,-54.7125 2429.03,-46.1124"/>
<polygon fill="black" stroke="black" points="2432.52,-46.2878 2429.6,-36.1043 2425.53,-45.8883 2432.52,-46.2878"/>
</g>
<!-- M8PWmpVoG6MyM29x86bg5bHrQ3X7pXiGyf_20180902_11h26m26s -->
<g id="node10" class="node"><title>M8PWmpVoG6MyM29x86bg5bHrQ3X7pXiGyf_20180902_11h26m26s</title>
<ellipse fill="none" stroke="black" cx="2980.58" cy="-90" rx="273.751" ry="18"/>
<text text-anchor="middle" x="2980.58" y="-86.3" font-family="Times,serif" font-size="14.00">M8PWmpVoG6MyM29x86bg5bHrQ3X7pXiGyf_20180902_11h26m26s</text>
</g>
<!-- M8PWmpVoG6MyM29x86bg5bHrQ3X7pXiGyf_20180902_11h26m26s&#45;&gt;MP7rwbgHiEALz44q96UY4iXkbEJRXjvVoA_20180902_11h26m26s -->
<g id="edge9" class="edge"><title>M8PWmpVoG6MyM29x86bg5bHrQ3X7pXiGyf_20180902_11h26m26s&#45;&gt;MP7rwbgHiEALz44q96UY4iXkbEJRXjvVoA_20180902_11h26m26s</title>
<path fill="none" stroke="black" d="M2791.28,-76.9865C2590.84,-64.2659 2275.96,-44.2826 2073.16,-31.4125"/>
<polygon fill="black" stroke="black" points="2073.19,-27.9074 2062.99,-30.7669 2072.75,-34.8933 2073.19,-27.9074"/>
</g>
<!-- M8PWmpVoG6MyM29x86bg5bHrQ3X7pXiGyf_20180902_11h26m26s&#45;&gt;MVoVXLsqobu5K3AWJTAh4ZBSRs1J6iiMW7_20180902_11h26m26s -->
<g id="edge14" class="edge"><title>M8PWmpVoG6MyM29x86bg5bHrQ3X7pXiGyf_20180902_11h26m26s&#45;&gt;MVoVXLsqobu5K3AWJTAh4ZBSRs1J6iiMW7_20180902_11h26m26s</title>
<path fill="none" stroke="black" d="M2860.9,-73.7679C2772.11,-62.4676 2651.18,-47.0768 2560.12,-35.4879"/>
<polygon fill="black" stroke="black" points="2560.38,-31.9917 2550.01,-34.201 2559.49,-38.9357 2560.38,-31.9917"/>
</g>
<!-- MDKqrNEgRdyTdAx7iuQjjiunatPAQugJ22_20180902_11h26m26s -->
<g id="node11" class="node"><title>MDKqrNEgRdyTdAx7iuQjjiunatPAQugJ22_20180902_11h26m26s</title>
<ellipse fill="none" stroke="black" cx="3526.58" cy="-90" rx="254.255" ry="18"/>
<text text-anchor="middle" x="3526.58" y="-86.3" font-family="Times,serif" font-size="14.00">MDKqrNEgRdyTdAx7iuQjjiunatPAQugJ22_20180902_11h26m26s</text>
</g>
<!-- MDKqrNEgRdyTdAx7iuQjjiunatPAQugJ22_20180902_11h26m26s&#45;&gt;MP7rwbgHiEALz44q96UY4iXkbEJRXjvVoA_20180902_11h26m26s -->
<g id="edge10" class="edge"><title>MDKqrNEgRdyTdAx7iuQjjiunatPAQugJ22_20180902_11h26m26s&#45;&gt;MP7rwbgHiEALz44q96UY4iXkbEJRXjvVoA_20180902_11h26m26s</title>
<path fill="none" stroke="black" d="M3351.91,-76.9177C3322.43,-75.106 3292.14,-73.3843 3263.58,-72 2768.79,-48.0202 2644.39,-59.4528 2149.58,-36 2123.37,-34.7581 2095.76,-33.2568 2068.58,-31.6666"/>
<polygon fill="black" stroke="black" points="2068.78,-28.1723 2058.59,-31.0771 2068.37,-35.1602 2068.78,-28.1723"/>
</g>
<!-- MDKqrNEgRdyTdAx7iuQjjiunatPAQugJ22_20180902_11h26m26s&#45;&gt;MVoVXLsqobu5K3AWJTAh4ZBSRs1J6iiMW7_20180902_11h26m26s -->
<g id="edge15" class="edge"><title>MDKqrNEgRdyTdAx7iuQjjiunatPAQugJ22_20180902_11h26m26s&#45;&gt;MVoVXLsqobu5K3AWJTAh4ZBSRs1J6iiMW7_20180902_11h26m26s</title>
<path fill="none" stroke="black" d="M3346.2,-77.3163C3318.53,-75.531 3290.29,-73.7131 3263.58,-72 3046.82,-58.0987 2798.32,-42.3068 2629.56,-31.6037"/>
<polygon fill="black" stroke="black" points="2629.77,-28.1102 2619.57,-30.9702 2629.33,-35.0961 2629.77,-28.1102"/>
</g>
<!-- M8KNqZgR94iXYNWPffmyum41DHs6Ve79A1_20180902_11h26m26s -->
<g id="node12" class="node"><title>M8KNqZgR94iXYNWPffmyum41DHs6Ve79A1_20180902_11h26m26s</title>
<ellipse fill="none" stroke="black" cx="4072.58" cy="-90" rx="273.751" ry="18"/>
<text text-anchor="middle" x="4072.58" y="-86.3" font-family="Times,serif" font-size="14.00">M8KNqZgR94iXYNWPffmyum41DHs6Ve79A1_20180902_11h26m26s</text>
</g>
<!-- M8KNqZgR94iXYNWPffmyum41DHs6Ve79A1_20180902_11h26m26s&#45;&gt;MP7rwbgHiEALz44q96UY4iXkbEJRXjvVoA_20180902_11h26m26s -->
<g id="edge11" class="edge"><title>M8KNqZgR94iXYNWPffmyum41DHs6Ve79A1_20180902_11h26m26s&#45;&gt;MP7rwbgHiEALz44q96UY4iXkbEJRXjvVoA_20180902_11h26m26s</title>
<path fill="none" stroke="black" d="M3886.15,-76.7907C3853.95,-74.9714 3820.81,-73.2803 3789.58,-72 3061.12,-42.1363 2877.99,-66.7452 2149.58,-36 2122.74,-34.8671 2094.42,-33.4006 2066.61,-31.804"/>
<polygon fill="black" stroke="black" points="2066.57,-28.2962 2056.39,-31.2103 2066.17,-35.2844 2066.57,-28.2962"/>
</g>
<!-- M8KNqZgR94iXYNWPffmyum41DHs6Ve79A1_20180902_11h26m26s&#45;&gt;MVoVXLsqobu5K3AWJTAh4ZBSRs1J6iiMW7_20180902_11h26m26s -->
<g id="edge17" class="edge"><title>M8KNqZgR94iXYNWPffmyum41DHs6Ve79A1_20180902_11h26m26s&#45;&gt;MVoVXLsqobu5K3AWJTAh4ZBSRs1J6iiMW7_20180902_11h26m26s</title>
<path fill="none" stroke="black" d="M3882.32,-77.021C3851.33,-75.228 3819.56,-73.4853 3789.58,-72 3401.57,-52.7823 2950.96,-36.3749 2678.49,-27.1034"/>
<polygon fill="black" stroke="black" points="2678.58,-23.6047 2668.47,-26.763 2678.34,-30.6006 2678.58,-23.6047"/>
</g>
<!-- M8cCoN1oQXmrk8CPBGjhiexrn47mR7jX2T_20180902_11h26m26s -->
<g id="node13" class="node"><title>M8cCoN1oQXmrk8CPBGjhiexrn47mR7jX2T_20180902_11h26m26s</title>
<ellipse fill="none" stroke="black" cx="262.577" cy="-90" rx="262.653" ry="18"/>
<text text-anchor="middle" x="262.577" y="-86.3" font-family="Times,serif" font-size="14.00">M8cCoN1oQXmrk8CPBGjhiexrn47mR7jX2T_20180902_11h26m26s</text>
</g>
<!-- M8cCoN1oQXmrk8CPBGjhiexrn47mR7jX2T_20180902_11h26m26s&#45;&gt;MP7rwbgHiEALz44q96UY4iXkbEJRXjvVoA_20180902_11h26m26s -->
<g id="edge16" class="edge"><title>M8cCoN1oQXmrk8CPBGjhiexrn47mR7jX2T_20180902_11h26m26s&#45;&gt;MP7rwbgHiEALz44q96UY4iXkbEJRXjvVoA_20180902_11h26m26s</title>
<path fill="none" stroke="black" d="M444.395,-77.0109C474.189,-75.214 504.74,-73.4728 533.577,-72 918.814,-52.3238 1366.49,-35.9728 1635.62,-26.8483"/>
<polygon fill="black" stroke="black" points="1636.04,-30.3363 1645.92,-26.4999 1635.8,-23.3403 1636.04,-30.3363"/>
</g>
<!-- M8cCoN1oQXmrk8CPBGjhiexrn47mR7jX2T_20180902_11h26m26s&#45;&gt;MVoVXLsqobu5K3AWJTAh4ZBSRs1J6iiMW7_20180902_11h26m26s -->
<g id="edge18" class="edge"><title>M8cCoN1oQXmrk8CPBGjhiexrn47mR7jX2T_20180902_11h26m26s&#45;&gt;MVoVXLsqobu5K3AWJTAh4ZBSRs1J6iiMW7_20180902_11h26m26s</title>
<path fill="none" stroke="black" d="M441.095,-76.7744C471.925,-74.9569 503.669,-73.2707 533.577,-72 1251.33,-41.5051 1431.79,-65.6967 2149.58,-36 2177.31,-34.8524 2206.58,-33.3771 2235.32,-31.7761"/>
<polygon fill="black" stroke="black" points="2235.68,-35.2617 2245.47,-31.2048 2235.29,-28.2727 2235.68,-35.2617"/>
</g>
<!-- MNDv4oRHUxJxjn6EtrytHfFevoTz1WVYGv_20180902_11h26m26s -->
<g id="node14" class="node"><title>MNDv4oRHUxJxjn6EtrytHfFevoTz1WVYGv_20180902_11h26m26s</title>
<ellipse fill="none" stroke="black" cx="805.577" cy="-90" rx="262.653" ry="18"/>
<text text-anchor="middle" x="805.577" y="-86.3" font-family="Times,serif" font-size="14.00">MNDv4oRHUxJxjn6EtrytHfFevoTz1WVYGv_20180902_11h26m26s</text>
</g>
<!-- MNDv4oRHUxJxjn6EtrytHfFevoTz1WVYGv_20180902_11h26m26s&#45;&gt;MP7rwbgHiEALz44q96UY4iXkbEJRXjvVoA_20180902_11h26m26s -->
<g id="edge22" class="edge"><title>MNDv4oRHUxJxjn6EtrytHfFevoTz1WVYGv_20180902_11h26m26s&#45;&gt;MP7rwbgHiEALz44q96UY4iXkbEJRXjvVoA_20180902_11h26m26s</title>
<path fill="none" stroke="black" d="M988.338,-77.066C1182.11,-64.4132 1486.9,-44.5107 1684.5,-31.6075"/>
<polygon fill="black" stroke="black" points="1684.96,-35.0852 1694.71,-30.9409 1684.5,-28.1 1684.96,-35.0852"/>
</g>
<!-- MNDv4oRHUxJxjn6EtrytHfFevoTz1WVYGv_20180902_11h26m26s&#45;&gt;MVoVXLsqobu5K3AWJTAh4ZBSRs1J6iiMW7_20180902_11h26m26s -->
<g id="edge19" class="edge"><title>MNDv4oRHUxJxjn6EtrytHfFevoTz1WVYGv_20180902_11h26m26s&#45;&gt;MVoVXLsqobu5K3AWJTAh4ZBSRs1J6iiMW7_20180902_11h26m26s</title>
<path fill="none" stroke="black" d="M986.595,-76.9549C1016.96,-75.1441 1048.16,-73.413 1077.58,-72 1553.74,-49.1293 1673.39,-58.3958 2149.58,-36 2176.43,-34.7372 2204.71,-33.2325 2232.57,-31.6479"/>
<polygon fill="black" stroke="black" points="2233.03,-35.1275 2242.81,-31.0609 2232.62,-28.139 2233.03,-35.1275"/>
</g>
</g>
</svg>
