<?xml version="1.0" encoding="UTF-8" standalone="no"?>
<!DOCTYPE svg PUBLIC "-//W3C//DTD SVG 1.1//EN"
 "http://www.w3.org/Graphics/SVG/1.1/DTD/svg11.dtd">
<!-- Generated by graphviz version 2.38.0 (20140413.2041)
 -->
<!-- Title: G Pages: 1 -->
<svg width="4372pt" height="260pt"
 viewBox="0.00 0.00 4371.97 260.00" xmlns="http://www.w3.org/2000/svg" xmlns:xlink="http://www.w3.org/1999/xlink">
<g id="graph0" class="graph" transform="scale(1 1) rotate(0) translate(4 256)">
<title>G</title>
<polygon fill="white" stroke="none" points="-4,4 -4,-256 4367.97,-256 4367.97,4 -4,4"/>
<!-- M8KNqZgR94iXYNWPffmyum41DHs6Ve79A1_20180902_11h26m26s -->
<g id="node1" class="node"><title>M8KNqZgR94iXYNWPffmyum41DHs6Ve79A1_20180902_11h26m26s</title>
<ellipse fill="none" stroke="black" cx="4072.63" cy="-90" rx="273.751" ry="18"/>
<text text-anchor="middle" x="4072.63" y="-86.3" font-family="Times,serif" font-size="14.00">M8KNqZgR94iXYNWPffmyum41DHs6Ve79A1_20180902_11h26m26s</text>
</g>
<!-- MP7rwbgHiEALz44q96UY4iXkbEJRXjvVoA_20180902_11h26m26s -->
<g id="node2" class="node"><title>MP7rwbgHiEALz44q96UY4iXkbEJRXjvVoA_20180902_11h26m26s</title>
<ellipse fill="none" stroke="black" cx="1895.63" cy="-18" rx="262.653" ry="18"/>
<text text-anchor="middle" x="1895.63" y="-14.3" font-family="Times,serif" font-size="14.00">MP7rwbgHiEALz44q96UY4iXkbEJRXjvVoA_20180902_11h26m26s</text>
</g>
<!-- M8KNqZgR94iXYNWPffmyum41DHs6Ve79A1_20180902_11h26m26s&#45;&gt;MP7rwbgHiEALz44q96UY4iXkbEJRXjvVoA_20180902_11h26m26s -->
<g id="edge1" class="edge"><title>M8KNqZgR94iXYNWPffmyum41DHs6Ve79A1_20180902_11h26m26s&#45;&gt;MP7rwbgHiEALz44q96UY4iXkbEJRXjvVoA_20180902_11h26m26s</title>
<path fill="none" stroke="black" d="M3886.48,-76.7732C3854.52,-74.9616 3821.62,-73.2776 3790.63,-72 3069.73,-42.2864 2888.49,-66.5095 2167.63,-36 2140.79,-34.864 2112.47,-33.3958 2084.66,-31.7984"/>
<polygon fill="black" stroke="black" points="2084.62,-28.2906 2074.44,-31.2045 2084.22,-35.2788 2084.62,-28.2906"/>
</g>
<!-- MVoVXLsqobu5K3AWJTAh4ZBSRs1J6iiMW7_20180902_11h26m26s -->
<g id="node8" class="node"><title>MVoVXLsqobu5K3AWJTAh4ZBSRs1J6iiMW7_20180902_11h26m26s</title>
<ellipse fill="none" stroke="black" cx="2448.63" cy="-18" rx="272.152" ry="18"/>
<text text-anchor="middle" x="2448.63" y="-14.3" font-family="Times,serif" font-size="14.00">MVoVXLsqobu5K3AWJTAh4ZBSRs1J6iiMW7_20180902_11h26m26s</text>
</g>
<!-- M8KNqZgR94iXYNWPffmyum41DHs6Ve79A1_20180902_11h26m26s&#45;&gt;MVoVXLsqobu5K3AWJTAh4ZBSRs1J6iiMW7_20180902_11h26m26s -->
<g id="edge11" class="edge"><title>M8KNqZgR94iXYNWPffmyum41DHs6Ve79A1_20180902_11h26m26s&#45;&gt;MVoVXLsqobu5K3AWJTAh4ZBSRs1J6iiMW7_20180902_11h26m26s</title>
<path fill="none" stroke="black" d="M3882.66,-77.0082C3851.9,-75.2217 3820.38,-73.4845 3790.63,-72 3408.67,-52.9468 2965.28,-36.5524 2695.96,-27.2309"/>
<polygon fill="black" stroke="black" points="2695.77,-23.7224 2685.66,-26.8748 2695.53,-30.7182 2695.77,-23.7224"/>
</g>
<!-- MGsG3Zc95j79nA5iJa5mHbDY5Nf37LsQVn_20180902_10h35m36s -->
<g id="node3" class="node"><title>MGsG3Zc95j79nA5iJa5mHbDY5Nf37LsQVn_20180902_10h35m36s</title>
<ellipse fill="none" stroke="black" cx="1360.63" cy="-234" rx="262.653" ry="18"/>
<text text-anchor="middle" x="1360.63" y="-230.3" font-family="Times,serif" font-size="14.00">MGsG3Zc95j79nA5iJa5mHbDY5Nf37LsQVn_20180902_10h35m36s</text>
</g>
<!-- MVoVXLsqobu5K3AWJTAh4ZBSRs1J6iiMW7_20180902_10h35m36s -->
<g id="node4" class="node"><title>MVoVXLsqobu5K3AWJTAh4ZBSRs1J6iiMW7_20180902_10h35m36s</title>
<ellipse fill="none" stroke="black" cx="3017.63" cy="-162" rx="272.152" ry="18"/>
<text text-anchor="middle" x="3017.63" y="-158.3" font-family="Times,serif" font-size="14.00">MVoVXLsqobu5K3AWJTAh4ZBSRs1J6iiMW7_20180902_10h35m36s</text>
</g>
<!-- MGsG3Zc95j79nA5iJa5mHbDY5Nf37LsQVn_20180902_10h35m36s&#45;&gt;MVoVXLsqobu5K3AWJTAh4ZBSRs1J6iiMW7_20180902_10h35m36s -->
<g id="edge2" class="edge"><title>MGsG3Zc95j79nA5iJa5mHbDY5Nf37LsQVn_20180902_10h35m36s&#45;&gt;MVoVXLsqobu5K3AWJTAh4ZBSRs1J6iiMW7_20180902_10h35m36s</title>
<path fill="none" stroke="black" d="M1577.68,-223.831C1890.01,-210.636 2463.86,-186.394 2784.76,-172.837"/>
<polygon fill="black" stroke="black" points="2785.28,-176.319 2795.12,-172.4 2784.98,-169.325 2785.28,-176.319"/>
</g>
<!-- MGsG3Zc95j79nA5iJa5mHbDY5Nf37LsQVn_20180902_11h26m26s -->
<g id="node5" class="node"><title>MGsG3Zc95j79nA5iJa5mHbDY5Nf37LsQVn_20180902_11h26m26s</title>
<ellipse fill="none" stroke="black" cx="1360.63" cy="-90" rx="262.653" ry="18"/>
<text text-anchor="middle" x="1360.63" y="-86.3" font-family="Times,serif" font-size="14.00">MGsG3Zc95j79nA5iJa5mHbDY5Nf37LsQVn_20180902_11h26m26s</text>
</g>
<!-- MGsG3Zc95j79nA5iJa5mHbDY5Nf37LsQVn_20180902_10h35m36s&#45;&gt;MGsG3Zc95j79nA5iJa5mHbDY5Nf37LsQVn_20180902_11h26m26s -->
<g id="edge3" class="edge"><title>MGsG3Zc95j79nA5iJa5mHbDY5Nf37LsQVn_20180902_10h35m36s&#45;&gt;MGsG3Zc95j79nA5iJa5mHbDY5Nf37LsQVn_20180902_11h26m26s</title>
<path fill="none" stroke="black" d="M1360.63,-215.871C1360.63,-191.67 1360.63,-147.211 1360.63,-118.393"/>
<polygon fill="black" stroke="black" points="1364.13,-118.189 1360.63,-108.189 1357.13,-118.189 1364.13,-118.189"/>
</g>
<!-- M8PWmpVoG6MyM29x86bg5bHrQ3X7pXiGyf_20180902_10h35m36s -->
<g id="node6" class="node"><title>M8PWmpVoG6MyM29x86bg5bHrQ3X7pXiGyf_20180902_10h35m36s</title>
<ellipse fill="none" stroke="black" cx="666.626" cy="-162" rx="273.751" ry="18"/>
<text text-anchor="middle" x="666.626" y="-158.3" font-family="Times,serif" font-size="14.00">M8PWmpVoG6MyM29x86bg5bHrQ3X7pXiGyf_20180902_10h35m36s</text>
</g>
<!-- MGsG3Zc95j79nA5iJa5mHbDY5Nf37LsQVn_20180902_10h35m36s&#45;&gt;M8PWmpVoG6MyM29x86bg5bHrQ3X7pXiGyf_20180902_10h35m36s -->
<g id="edge4" class="edge"><title>MGsG3Zc95j79nA5iJa5mHbDY5Nf37LsQVn_20180902_10h35m36s&#45;&gt;M8PWmpVoG6MyM29x86bg5bHrQ3X7pXiGyf_20180902_10h35m36s</title>
<path fill="none" stroke="black" d="M1219.77,-218.792C1103.48,-207.063 938.752,-190.448 819.329,-178.402"/>
<polygon fill="black" stroke="black" points="819.667,-174.919 809.366,-177.397 818.964,-181.883 819.667,-174.919"/>
</g>
<!-- MVoVXLsqobu5K3AWJTAh4ZBSRs1J6iiMW7_20180902_10h35m36s&#45;&gt;MVoVXLsqobu5K3AWJTAh4ZBSRs1J6iiMW7_20180902_11h26m26s -->
<g id="edge10" class="edge"><title>MVoVXLsqobu5K3AWJTAh4ZBSRs1J6iiMW7_20180902_10h35m36s&#45;&gt;MVoVXLsqobu5K3AWJTAh4ZBSRs1J6iiMW7_20180902_11h26m26s</title>
<path fill="none" stroke="black" d="M3288.23,-159.76C3668.57,-156.661 4319.27,-145.829 4355.63,-108 4366.71,-96.4646 4366.78,-83.4698 4355.63,-72 4327.64,-43.2266 3248.02,-27.6349 2725.88,-21.7637"/>
<polygon fill="black" stroke="black" points="2725.6,-18.2604 2715.56,-21.6481 2725.52,-25.2599 2725.6,-18.2604"/>
</g>
<!-- MGsG3Zc95j79nA5iJa5mHbDY5Nf37LsQVn_20180902_11h26m26s&#45;&gt;MP7rwbgHiEALz44q96UY4iXkbEJRXjvVoA_20180902_11h26m26s -->
<g id="edge19" class="edge"><title>MGsG3Zc95j79nA5iJa5mHbDY5Nf37LsQVn_20180902_11h26m26s&#45;&gt;MP7rwbgHiEALz44q96UY4iXkbEJRXjvVoA_20180902_11h26m26s</title>
<path fill="none" stroke="black" d="M1476.71,-73.811C1563.12,-62.5054 1680.96,-47.0877 1769.64,-35.4835"/>
<polygon fill="black" stroke="black" points="1770.3,-38.9272 1779.77,-34.1593 1769.4,-31.9863 1770.3,-38.9272"/>
</g>
<!-- MGsG3Zc95j79nA5iJa5mHbDY5Nf37LsQVn_20180902_11h26m26s&#45;&gt;MVoVXLsqobu5K3AWJTAh4ZBSRs1J6iiMW7_20180902_11h26m26s -->
<g id="edge15" class="edge"><title>MGsG3Zc95j79nA5iJa5mHbDY5Nf37LsQVn_20180902_11h26m26s&#45;&gt;MVoVXLsqobu5K3AWJTAh4ZBSRs1J6iiMW7_20180902_11h26m26s</title>
<path fill="none" stroke="black" d="M1544.88,-77.1453C1740.83,-64.5382 2049.65,-44.6693 2250.67,-31.7358"/>
<polygon fill="black" stroke="black" points="2251.01,-35.2217 2260.76,-31.0868 2250.56,-28.2362 2251.01,-35.2217"/>
</g>
<!-- M8PWmpVoG6MyM29x86bg5bHrQ3X7pXiGyf_20180902_11h26m26s -->
<g id="node9" class="node"><title>M8PWmpVoG6MyM29x86bg5bHrQ3X7pXiGyf_20180902_11h26m26s</title>
<ellipse fill="none" stroke="black" cx="273.626" cy="-90" rx="273.751" ry="18"/>
<text text-anchor="middle" x="273.626" y="-86.3" font-family="Times,serif" font-size="14.00">M8PWmpVoG6MyM29x86bg5bHrQ3X7pXiGyf_20180902_11h26m26s</text>
</g>
<!-- M8PWmpVoG6MyM29x86bg5bHrQ3X7pXiGyf_20180902_10h35m36s&#45;&gt;M8PWmpVoG6MyM29x86bg5bHrQ3X7pXiGyf_20180902_11h26m26s -->
<g id="edge6" class="edge"><title>M8PWmpVoG6MyM29x86bg5bHrQ3X7pXiGyf_20180902_10h35m36s&#45;&gt;M8PWmpVoG6MyM29x86bg5bHrQ3X7pXiGyf_20180902_11h26m26s</title>
<path fill="none" stroke="black" d="M576.464,-144.941C515.911,-134.155 436.079,-119.936 373.584,-108.804"/>
<polygon fill="black" stroke="black" points="374.167,-105.353 363.708,-107.045 372.939,-112.245 374.167,-105.353"/>
</g>
<!-- MEA6vpvJS61v4L1adoEMNko1SdgajcvqaR_20180902_11h26m26s -->
<g id="node7" class="node"><title>MEA6vpvJS61v4L1adoEMNko1SdgajcvqaR_20180902_11h26m26s</title>
<ellipse fill="none" stroke="black" cx="822.626" cy="-90" rx="257.254" ry="18"/>
<text text-anchor="middle" x="822.626" y="-86.3" font-family="Times,serif" font-size="14.00">MEA6vpvJS61v4L1adoEMNko1SdgajcvqaR_20180902_11h26m26s</text>
</g>
<!-- MEA6vpvJS61v4L1adoEMNko1SdgajcvqaR_20180902_11h26m26s&#45;&gt;MP7rwbgHiEALz44q96UY4iXkbEJRXjvVoA_20180902_11h26m26s -->
<g id="edge13" class="edge"><title>MEA6vpvJS61v4L1adoEMNko1SdgajcvqaR_20180902_11h26m26s&#45;&gt;MP7rwbgHiEALz44q96UY4iXkbEJRXjvVoA_20180902_11h26m26s</title>
<path fill="none" stroke="black" d="M1003.74,-77.1848C1197.66,-64.5335 1504.19,-44.5365 1702.59,-31.5933"/>
<polygon fill="black" stroke="black" points="1703.09,-35.0683 1712.84,-30.9246 1702.63,-28.0831 1703.09,-35.0683"/>
</g>
<!-- MEA6vpvJS61v4L1adoEMNko1SdgajcvqaR_20180902_11h26m26s&#45;&gt;MVoVXLsqobu5K3AWJTAh4ZBSRs1J6iiMW7_20180902_11h26m26s -->
<g id="edge5" class="edge"><title>MEA6vpvJS61v4L1adoEMNko1SdgajcvqaR_20180902_11h26m26s&#45;&gt;MVoVXLsqobu5K3AWJTAh4ZBSRs1J6iiMW7_20180902_11h26m26s</title>
<path fill="none" stroke="black" d="M999.648,-76.9309C1029.35,-75.1229 1059.85,-73.3991 1088.63,-72 1567.88,-48.6958 1688.33,-58.4898 2167.63,-36 2194.47,-34.7402 2222.76,-33.2371 2250.62,-31.6533"/>
<polygon fill="black" stroke="black" points="2251.07,-35.1329 2260.86,-31.0665 2250.67,-28.1444 2251.07,-35.1329"/>
</g>
<!-- M8PWmpVoG6MyM29x86bg5bHrQ3X7pXiGyf_20180902_11h26m26s&#45;&gt;MP7rwbgHiEALz44q96UY4iXkbEJRXjvVoA_20180902_11h26m26s -->
<g id="edge17" class="edge"><title>M8PWmpVoG6MyM29x86bg5bHrQ3X7pXiGyf_20180902_11h26m26s&#45;&gt;MP7rwbgHiEALz44q96UY4iXkbEJRXjvVoA_20180902_11h26m26s</title>
<path fill="none" stroke="black" d="M463.881,-77.0362C494.874,-75.2412 526.638,-73.494 556.626,-72 940.743,-52.8629 1387.13,-36.3408 1655.18,-27.0364"/>
<polygon fill="black" stroke="black" points="1655.56,-30.5254 1665.44,-26.681 1655.32,-23.5296 1655.56,-30.5254"/>
</g>
<!-- M8PWmpVoG6MyM29x86bg5bHrQ3X7pXiGyf_20180902_11h26m26s&#45;&gt;MVoVXLsqobu5K3AWJTAh4ZBSRs1J6iiMW7_20180902_11h26m26s -->
<g id="edge7" class="edge"><title>M8PWmpVoG6MyM29x86bg5bHrQ3X7pXiGyf_20180902_11h26m26s&#45;&gt;MVoVXLsqobu5K3AWJTAh4ZBSRs1J6iiMW7_20180902_11h26m26s</title>
<path fill="none" stroke="black" d="M460.054,-76.8012C492.249,-74.9806 525.397,-73.2864 556.626,-72 1272.2,-42.5228 1452.06,-65.6296 2167.63,-36 2195.36,-34.8514 2224.63,-33.3756 2253.37,-31.7743"/>
<polygon fill="black" stroke="black" points="2253.73,-35.2599 2263.52,-31.203 2253.33,-28.271 2253.73,-35.2599"/>
</g>
<!-- MDKqrNEgRdyTdAx7iuQjjiunatPAQugJ22_20180902_11h26m26s -->
<g id="node10" class="node"><title>MDKqrNEgRdyTdAx7iuQjjiunatPAQugJ22_20180902_11h26m26s</title>
<ellipse fill="none" stroke="black" cx="1895.63" cy="-90" rx="254.255" ry="18"/>
<text text-anchor="middle" x="1895.63" y="-86.3" font-family="Times,serif" font-size="14.00">MDKqrNEgRdyTdAx7iuQjjiunatPAQugJ22_20180902_11h26m26s</text>
</g>
<!-- MDKqrNEgRdyTdAx7iuQjjiunatPAQugJ22_20180902_11h26m26s&#45;&gt;MP7rwbgHiEALz44q96UY4iXkbEJRXjvVoA_20180902_11h26m26s -->
<g id="edge18" class="edge"><title>MDKqrNEgRdyTdAx7iuQjjiunatPAQugJ22_20180902_11h26m26s&#45;&gt;MP7rwbgHiEALz44q96UY4iXkbEJRXjvVoA_20180902_11h26m26s</title>
<path fill="none" stroke="black" d="M1895.63,-71.6966C1895.63,-63.9827 1895.63,-54.7125 1895.63,-46.1124"/>
<polygon fill="black" stroke="black" points="1899.13,-46.1043 1895.63,-36.1043 1892.13,-46.1044 1899.13,-46.1043"/>
</g>
<!-- MDKqrNEgRdyTdAx7iuQjjiunatPAQugJ22_20180902_11h26m26s&#45;&gt;MVoVXLsqobu5K3AWJTAh4ZBSRs1J6iiMW7_20180902_11h26m26s -->
<g id="edge8" class="edge"><title>MDKqrNEgRdyTdAx7iuQjjiunatPAQugJ22_20180902_11h26m26s&#45;&gt;MVoVXLsqobu5K3AWJTAh4ZBSRs1J6iiMW7_20180902_11h26m26s</title>
<path fill="none" stroke="black" d="M2013.92,-74.0262C2103.46,-62.6916 2226.37,-47.134 2318.65,-35.4525"/>
<polygon fill="black" stroke="black" points="2319.13,-38.9196 2328.61,-34.1914 2318.25,-31.975 2319.13,-38.9196"/>
</g>
<!-- M8cCoN1oQXmrk8CPBGjhiexrn47mR7jX2T_20180902_11h26m26s -->
<g id="node11" class="node"><title>M8cCoN1oQXmrk8CPBGjhiexrn47mR7jX2T_20180902_11h26m26s</title>
<ellipse fill="none" stroke="black" cx="2430.63" cy="-90" rx="262.653" ry="18"/>
<text text-anchor="middle" x="2430.63" y="-86.3" font-family="Times,serif" font-size="14.00">M8cCoN1oQXmrk8CPBGjhiexrn47mR7jX2T_20180902_11h26m26s</text>
</g>
<!-- M8cCoN1oQXmrk8CPBGjhiexrn47mR7jX2T_20180902_11h26m26s&#45;&gt;MP7rwbgHiEALz44q96UY4iXkbEJRXjvVoA_20180902_11h26m26s -->
<g id="edge9" class="edge"><title>M8cCoN1oQXmrk8CPBGjhiexrn47mR7jX2T_20180902_11h26m26s&#45;&gt;MP7rwbgHiEALz44q96UY4iXkbEJRXjvVoA_20180902_11h26m26s</title>
<path fill="none" stroke="black" d="M2314.54,-73.811C2228.13,-62.5054 2110.3,-47.0877 2021.61,-35.4835"/>
<polygon fill="black" stroke="black" points="2021.86,-31.9863 2011.49,-34.1593 2020.95,-38.9272 2021.86,-31.9863"/>
</g>
<!-- M8cCoN1oQXmrk8CPBGjhiexrn47mR7jX2T_20180902_11h26m26s&#45;&gt;MVoVXLsqobu5K3AWJTAh4ZBSRs1J6iiMW7_20180902_11h26m26s -->
<g id="edge12" class="edge"><title>M8cCoN1oQXmrk8CPBGjhiexrn47mR7jX2T_20180902_11h26m26s&#45;&gt;MVoVXLsqobu5K3AWJTAh4ZBSRs1J6iiMW7_20180902_11h26m26s</title>
<path fill="none" stroke="black" d="M2435.08,-71.6966C2437.08,-63.8979 2439.49,-54.5085 2441.73,-45.8292"/>
<polygon fill="black" stroke="black" points="2445.13,-46.6609 2444.23,-36.1043 2438.35,-44.9176 2445.13,-46.6609"/>
</g>
<!-- MFckG1iHPNAp9bUdC3Ta3yLHvPddPL82sn_20180902_11h26m26s -->
<g id="node12" class="node"><title>MFckG1iHPNAp9bUdC3Ta3yLHvPddPL82sn_20180902_11h26m26s</title>
<ellipse fill="none" stroke="black" cx="2974.63" cy="-90" rx="263.453" ry="18"/>
<text text-anchor="middle" x="2974.63" y="-86.3" font-family="Times,serif" font-size="14.00">MFckG1iHPNAp9bUdC3Ta3yLHvPddPL82sn_20180902_11h26m26s</text>
</g>
<!-- MFckG1iHPNAp9bUdC3Ta3yLHvPddPL82sn_20180902_11h26m26s&#45;&gt;MP7rwbgHiEALz44q96UY4iXkbEJRXjvVoA_20180902_11h26m26s -->
<g id="edge14" class="edge"><title>MFckG1iHPNAp9bUdC3Ta3yLHvPddPL82sn_20180902_11h26m26s&#45;&gt;MP7rwbgHiEALz44q96UY4iXkbEJRXjvVoA_20180902_11h26m26s</title>
<path fill="none" stroke="black" d="M2790.98,-77.0858C2595.75,-64.4205 2288.31,-44.475 2089.33,-31.5664"/>
<polygon fill="black" stroke="black" points="2089.55,-28.0735 2079.34,-30.9187 2089.1,-35.0588 2089.55,-28.0735"/>
</g>
<!-- MFckG1iHPNAp9bUdC3Ta3yLHvPddPL82sn_20180902_11h26m26s&#45;&gt;MVoVXLsqobu5K3AWJTAh4ZBSRs1J6iiMW7_20180902_11h26m26s -->
<g id="edge21" class="edge"><title>MFckG1iHPNAp9bUdC3Ta3yLHvPddPL82sn_20180902_11h26m26s&#45;&gt;MVoVXLsqobu5K3AWJTAh4ZBSRs1J6iiMW7_20180902_11h26m26s</title>
<path fill="none" stroke="black" d="M2860.17,-73.7679C2775.63,-62.5178 2660.63,-47.2134 2573.68,-35.6425"/>
<polygon fill="black" stroke="black" points="2574.13,-32.1716 2563.76,-34.3218 2573.21,-39.1104 2574.13,-32.1716"/>
</g>
<!-- MNDv4oRHUxJxjn6EtrytHfFevoTz1WVYGv_20180902_11h26m26s -->
<g id="node13" class="node"><title>MNDv4oRHUxJxjn6EtrytHfFevoTz1WVYGv_20180902_11h26m26s</title>
<ellipse fill="none" stroke="black" cx="3518.63" cy="-90" rx="262.653" ry="18"/>
<text text-anchor="middle" x="3518.63" y="-86.3" font-family="Times,serif" font-size="14.00">MNDv4oRHUxJxjn6EtrytHfFevoTz1WVYGv_20180902_11h26m26s</text>
</g>
<!-- MNDv4oRHUxJxjn6EtrytHfFevoTz1WVYGv_20180902_11h26m26s&#45;&gt;MP7rwbgHiEALz44q96UY4iXkbEJRXjvVoA_20180902_11h26m26s -->
<g id="edge20" class="edge"><title>MNDv4oRHUxJxjn6EtrytHfFevoTz1WVYGv_20180902_11h26m26s&#45;&gt;MP7rwbgHiEALz44q96UY4iXkbEJRXjvVoA_20180902_11h26m26s</title>
<path fill="none" stroke="black" d="M3337.61,-76.9494C3307.24,-75.1392 3276.05,-73.4098 3246.63,-72 2767.35,-49.0323 2646.9,-58.9677 2167.63,-36 2141.42,-34.7444 2113.81,-33.2353 2086.63,-31.6414"/>
<polygon fill="black" stroke="black" points="2086.83,-28.1471 2076.64,-31.0506 2086.42,-35.1349 2086.83,-28.1471"/>
</g>
<!-- MNDv4oRHUxJxjn6EtrytHfFevoTz1WVYGv_20180902_11h26m26s&#45;&gt;MVoVXLsqobu5K3AWJTAh4ZBSRs1J6iiMW7_20180902_11h26m26s -->
<g id="edge16" class="edge"><title>MNDv4oRHUxJxjn6EtrytHfFevoTz1WVYGv_20180902_11h26m26s&#45;&gt;MVoVXLsqobu5K3AWJTAh4ZBSRs1J6iiMW7_20180902_11h26m26s</title>
<path fill="none" stroke="black" d="M3335.9,-77.0461C3143.62,-64.4667 2842.04,-44.7373 2644.83,-31.8355"/>
<polygon fill="black" stroke="black" points="2644.84,-28.3292 2634.63,-31.1688 2644.38,-35.3143 2644.84,-28.3292"/>
</g>
</g>
</svg>
