<?xml version="1.0" encoding="UTF-8" standalone="no"?>
<!DOCTYPE svg PUBLIC "-//W3C//DTD SVG 1.1//EN"
 "http://www.w3.org/Graphics/SVG/1.1/DTD/svg11.dtd">
<!-- Generated by graphviz version 2.38.0 (20140413.2041)
 -->
<!-- Title: G Pages: 1 -->
<svg width="4354pt" height="260pt"
 viewBox="0.00 0.00 4353.70 260.00" xmlns="http://www.w3.org/2000/svg" xmlns:xlink="http://www.w3.org/1999/xlink">
<g id="graph0" class="graph" transform="scale(1 1) rotate(0) translate(4 256)">
<title>G</title>
<polygon fill="white" stroke="none" points="-4,4 -4,-256 4349.7,-256 4349.7,4 -4,4"/>
<!-- MEA6vpvJS61v4L1adoEMNko1SdgajcvqaR_20180902_11h26m26s -->
<g id="node1" class="node"><title>MEA6vpvJS61v4L1adoEMNko1SdgajcvqaR_20180902_11h26m26s</title>
<ellipse fill="none" stroke="black" cx="1343.58" cy="-90" rx="257.254" ry="18"/>
<text text-anchor="middle" x="1343.58" y="-86.3" font-family="Times,serif" font-size="14.00">MEA6vpvJS61v4L1adoEMNko1SdgajcvqaR_20180902_11h26m26s</text>
</g>
<!-- MP7rwbgHiEALz44q96UY4iXkbEJRXjvVoA_20180902_11h26m26s -->
<g id="node2" class="node"><title>MP7rwbgHiEALz44q96UY4iXkbEJRXjvVoA_20180902_11h26m26s</title>
<ellipse fill="none" stroke="black" cx="1877.58" cy="-18" rx="262.653" ry="18"/>
<text text-anchor="middle" x="1877.58" y="-14.3" font-family="Times,serif" font-size="14.00">MP7rwbgHiEALz44q96UY4iXkbEJRXjvVoA_20180902_11h26m26s</text>
</g>
<!-- MEA6vpvJS61v4L1adoEMNko1SdgajcvqaR_20180902_11h26m26s&#45;&gt;MP7rwbgHiEALz44q96UY4iXkbEJRXjvVoA_20180902_11h26m26s -->
<g id="edge1" class="edge"><title>MEA6vpvJS61v4L1adoEMNko1SdgajcvqaR_20180902_11h26m26s&#45;&gt;MP7rwbgHiEALz44q96UY4iXkbEJRXjvVoA_20180902_11h26m26s</title>
<path fill="none" stroke="black" d="M1458.79,-73.8972C1545,-62.5968 1662.81,-47.1526 1751.53,-35.5235"/>
<polygon fill="black" stroke="black" points="1752.19,-38.9665 1761.65,-34.1964 1751.28,-32.0259 1752.19,-38.9665"/>
</g>
<!-- MVoVXLsqobu5K3AWJTAh4ZBSRs1J6iiMW7_20180902_11h26m26s -->
<g id="node5" class="node"><title>MVoVXLsqobu5K3AWJTAh4ZBSRs1J6iiMW7_20180902_11h26m26s</title>
<ellipse fill="none" stroke="black" cx="2430.58" cy="-18" rx="272.152" ry="18"/>
<text text-anchor="middle" x="2430.58" y="-14.3" font-family="Times,serif" font-size="14.00">MVoVXLsqobu5K3AWJTAh4ZBSRs1J6iiMW7_20180902_11h26m26s</text>
</g>
<!-- MEA6vpvJS61v4L1adoEMNko1SdgajcvqaR_20180902_11h26m26s&#45;&gt;MVoVXLsqobu5K3AWJTAh4ZBSRs1J6iiMW7_20180902_11h26m26s -->
<g id="edge14" class="edge"><title>MEA6vpvJS61v4L1adoEMNko1SdgajcvqaR_20180902_11h26m26s&#45;&gt;MVoVXLsqobu5K3AWJTAh4ZBSRs1J6iiMW7_20180902_11h26m26s</title>
<path fill="none" stroke="black" d="M1525.82,-77.2639C1721.57,-64.6585 2031.56,-44.6954 2233.03,-31.7216"/>
<polygon fill="black" stroke="black" points="2233.38,-35.2061 2243.14,-31.0706 2232.93,-28.2206 2233.38,-35.2061"/>
</g>
<!-- MFckG1iHPNAp9bUdC3Ta3yLHvPddPL82sn_20180902_11h26m26s -->
<g id="node3" class="node"><title>MFckG1iHPNAp9bUdC3Ta3yLHvPddPL82sn_20180902_11h26m26s</title>
<ellipse fill="none" stroke="black" cx="1882.58" cy="-90" rx="263.453" ry="18"/>
<text text-anchor="middle" x="1882.58" y="-86.3" font-family="Times,serif" font-size="14.00">MFckG1iHPNAp9bUdC3Ta3yLHvPddPL82sn_20180902_11h26m26s</text>
</g>
<!-- MFckG1iHPNAp9bUdC3Ta3yLHvPddPL82sn_20180902_11h26m26s&#45;&gt;MP7rwbgHiEALz44q96UY4iXkbEJRXjvVoA_20180902_11h26m26s -->
<g id="edge2" class="edge"><title>MFckG1iHPNAp9bUdC3Ta3yLHvPddPL82sn_20180902_11h26m26s&#45;&gt;MP7rwbgHiEALz44q96UY4iXkbEJRXjvVoA_20180902_11h26m26s</title>
<path fill="none" stroke="black" d="M1881.34,-71.6966C1880.79,-63.9827 1880.13,-54.7125 1879.51,-46.1124"/>
<polygon fill="black" stroke="black" points="1883,-45.8295 1878.8,-36.1043 1876.02,-46.3283 1883,-45.8295"/>
</g>
<!-- MFckG1iHPNAp9bUdC3Ta3yLHvPddPL82sn_20180902_11h26m26s&#45;&gt;MVoVXLsqobu5K3AWJTAh4ZBSRs1J6iiMW7_20180902_11h26m26s -->
<g id="edge6" class="edge"><title>MFckG1iHPNAp9bUdC3Ta3yLHvPddPL82sn_20180902_11h26m26s&#45;&gt;MVoVXLsqobu5K3AWJTAh4ZBSRs1J6iiMW7_20180902_11h26m26s</title>
<path fill="none" stroke="black" d="M2000.81,-73.8972C2089.37,-62.5853 2210.43,-47.1212 2301.5,-35.4881"/>
<polygon fill="black" stroke="black" points="2302.13,-38.9353 2311.61,-34.1964 2301.25,-31.9917 2302.13,-38.9353"/>
</g>
<!-- MGsG3Zc95j79nA5iJa5mHbDY5Nf37LsQVn_20180902_11h26m26s -->
<g id="node4" class="node"><title>MGsG3Zc95j79nA5iJa5mHbDY5Nf37LsQVn_20180902_11h26m26s</title>
<ellipse fill="none" stroke="black" cx="2426.58" cy="-90" rx="262.653" ry="18"/>
<text text-anchor="middle" x="2426.58" y="-86.3" font-family="Times,serif" font-size="14.00">MGsG3Zc95j79nA5iJa5mHbDY5Nf37LsQVn_20180902_11h26m26s</text>
</g>
<!-- MGsG3Zc95j79nA5iJa5mHbDY5Nf37LsQVn_20180902_11h26m26s&#45;&gt;MP7rwbgHiEALz44q96UY4iXkbEJRXjvVoA_20180902_11h26m26s -->
<g id="edge23" class="edge"><title>MGsG3Zc95j79nA5iJa5mHbDY5Nf37LsQVn_20180902_11h26m26s&#45;&gt;MP7rwbgHiEALz44q96UY4iXkbEJRXjvVoA_20180902_11h26m26s</title>
<path fill="none" stroke="black" d="M2308.13,-73.8972C2219.11,-62.5466 2097.3,-47.0153 2005.95,-35.3687"/>
<polygon fill="black" stroke="black" points="2006.18,-31.8687 1995.81,-34.0757 2005.29,-38.8125 2006.18,-31.8687"/>
</g>
<!-- MGsG3Zc95j79nA5iJa5mHbDY5Nf37LsQVn_20180902_11h26m26s&#45;&gt;MVoVXLsqobu5K3AWJTAh4ZBSRs1J6iiMW7_20180902_11h26m26s -->
<g id="edge3" class="edge"><title>MGsG3Zc95j79nA5iJa5mHbDY5Nf37LsQVn_20180902_11h26m26s&#45;&gt;MVoVXLsqobu5K3AWJTAh4ZBSRs1J6iiMW7_20180902_11h26m26s</title>
<path fill="none" stroke="black" d="M2427.57,-71.6966C2428.01,-63.9827 2428.54,-54.7125 2429.03,-46.1124"/>
<polygon fill="black" stroke="black" points="2432.52,-46.2878 2429.6,-36.1043 2425.53,-45.8883 2432.52,-46.2878"/>
</g>
<!-- MGsG3Zc95j79nA5iJa5mHbDY5Nf37LsQVn_20180902_10h35m36s -->
<g id="node6" class="node"><title>MGsG3Zc95j79nA5iJa5mHbDY5Nf37LsQVn_20180902_10h35m36s</title>
<ellipse fill="none" stroke="black" cx="2282.58" cy="-234" rx="262.653" ry="18"/>
<text text-anchor="middle" x="2282.58" y="-230.3" font-family="Times,serif" font-size="14.00">MGsG3Zc95j79nA5iJa5mHbDY5Nf37LsQVn_20180902_10h35m36s</text>
</g>
<!-- MGsG3Zc95j79nA5iJa5mHbDY5Nf37LsQVn_20180902_10h35m36s&#45;&gt;MGsG3Zc95j79nA5iJa5mHbDY5Nf37LsQVn_20180902_11h26m26s -->
<g id="edge8" class="edge"><title>MGsG3Zc95j79nA5iJa5mHbDY5Nf37LsQVn_20180902_10h35m36s&#45;&gt;MGsG3Zc95j79nA5iJa5mHbDY5Nf37LsQVn_20180902_11h26m26s</title>
<path fill="none" stroke="black" d="M2281.78,-215.937C2281.78,-196.403 2284.68,-164.471 2301.58,-144 2313.41,-129.659 2329.83,-119.123 2346.87,-111.41"/>
<polygon fill="black" stroke="black" points="2348.52,-114.513 2356.38,-107.409 2345.8,-108.061 2348.52,-114.513"/>
</g>
<!-- M8KNqZgR94iXYNWPffmyum41DHs6Ve79A1_20180902_10h35m36s -->
<g id="node7" class="node"><title>M8KNqZgR94iXYNWPffmyum41DHs6Ve79A1_20180902_10h35m36s</title>
<ellipse fill="none" stroke="black" cx="3124.58" cy="-162" rx="273.751" ry="18"/>
<text text-anchor="middle" x="3124.58" y="-158.3" font-family="Times,serif" font-size="14.00">M8KNqZgR94iXYNWPffmyum41DHs6Ve79A1_20180902_10h35m36s</text>
</g>
<!-- MGsG3Zc95j79nA5iJa5mHbDY5Nf37LsQVn_20180902_10h35m36s&#45;&gt;M8KNqZgR94iXYNWPffmyum41DHs6Ve79A1_20180902_10h35m36s -->
<g id="edge4" class="edge"><title>MGsG3Zc95j79nA5iJa5mHbDY5Nf37LsQVn_20180902_10h35m36s&#45;&gt;M8KNqZgR94iXYNWPffmyum41DHs6Ve79A1_20180902_10h35m36s</title>
<path fill="none" stroke="black" d="M2442.44,-219.71C2588.02,-207.607 2802.46,-189.779 2951.92,-177.354"/>
<polygon fill="black" stroke="black" points="2952.44,-180.823 2962.11,-176.506 2951.86,-173.847 2952.44,-180.823"/>
</g>
<!-- MTYLt6M5U633pZn3jj4JjTUkoAru1DKpmp_20180902_10h35m36s -->
<g id="node13" class="node"><title>MTYLt6M5U633pZn3jj4JjTUkoAru1DKpmp_20180902_10h35m36s</title>
<ellipse fill="none" stroke="black" cx="2571.58" cy="-162" rx="261.054" ry="18"/>
<text text-anchor="middle" x="2571.58" y="-158.3" font-family="Times,serif" font-size="14.00">MTYLt6M5U633pZn3jj4JjTUkoAru1DKpmp_20180902_10h35m36s</text>
</g>
<!-- MGsG3Zc95j79nA5iJa5mHbDY5Nf37LsQVn_20180902_10h35m36s&#45;&gt;MTYLt6M5U633pZn3jj4JjTUkoAru1DKpmp_20180902_10h35m36s -->
<g id="edge13" class="edge"><title>MGsG3Zc95j79nA5iJa5mHbDY5Nf37LsQVn_20180902_10h35m36s&#45;&gt;MTYLt6M5U633pZn3jj4JjTUkoAru1DKpmp_20180902_10h35m36s</title>
<path fill="none" stroke="black" d="M2350.33,-216.588C2393.3,-206.182 2449.01,-192.687 2493.78,-181.843"/>
<polygon fill="black" stroke="black" points="2494.85,-185.186 2503.74,-179.43 2493.2,-178.383 2494.85,-185.186"/>
</g>
<!-- M8KNqZgR94iXYNWPffmyum41DHs6Ve79A1_20180902_11h26m26s -->
<g id="node8" class="node"><title>M8KNqZgR94iXYNWPffmyum41DHs6Ve79A1_20180902_11h26m26s</title>
<ellipse fill="none" stroke="black" cx="2980.58" cy="-90" rx="273.751" ry="18"/>
<text text-anchor="middle" x="2980.58" y="-86.3" font-family="Times,serif" font-size="14.00">M8KNqZgR94iXYNWPffmyum41DHs6Ve79A1_20180902_11h26m26s</text>
</g>
<!-- M8KNqZgR94iXYNWPffmyum41DHs6Ve79A1_20180902_10h35m36s&#45;&gt;M8KNqZgR94iXYNWPffmyum41DHs6Ve79A1_20180902_11h26m26s -->
<g id="edge5" class="edge"><title>M8KNqZgR94iXYNWPffmyum41DHs6Ve79A1_20180902_10h35m36s&#45;&gt;M8KNqZgR94iXYNWPffmyum41DHs6Ve79A1_20180902_11h26m26s</title>
<path fill="none" stroke="black" d="M3089.72,-144.055C3070.07,-134.503 3045.34,-122.481 3024.39,-112.297"/>
<polygon fill="black" stroke="black" points="3025.89,-109.134 3015.36,-107.91 3022.83,-115.43 3025.89,-109.134"/>
</g>
<!-- M8KNqZgR94iXYNWPffmyum41DHs6Ve79A1_20180902_11h26m26s&#45;&gt;MP7rwbgHiEALz44q96UY4iXkbEJRXjvVoA_20180902_11h26m26s -->
<g id="edge12" class="edge"><title>M8KNqZgR94iXYNWPffmyum41DHs6Ve79A1_20180902_11h26m26s&#45;&gt;MP7rwbgHiEALz44q96UY4iXkbEJRXjvVoA_20180902_11h26m26s</title>
<path fill="none" stroke="black" d="M2791.28,-76.9865C2590.84,-64.2659 2275.96,-44.2826 2073.16,-31.4125"/>
<polygon fill="black" stroke="black" points="2073.19,-27.9074 2062.99,-30.7669 2072.75,-34.8933 2073.19,-27.9074"/>
</g>
<!-- M8KNqZgR94iXYNWPffmyum41DHs6Ve79A1_20180902_11h26m26s&#45;&gt;MVoVXLsqobu5K3AWJTAh4ZBSRs1J6iiMW7_20180902_11h26m26s -->
<g id="edge20" class="edge"><title>M8KNqZgR94iXYNWPffmyum41DHs6Ve79A1_20180902_11h26m26s&#45;&gt;MVoVXLsqobu5K3AWJTAh4ZBSRs1J6iiMW7_20180902_11h26m26s</title>
<path fill="none" stroke="black" d="M2860.9,-73.7679C2772.11,-62.4676 2651.18,-47.0768 2560.12,-35.4879"/>
<polygon fill="black" stroke="black" points="2560.38,-31.9917 2550.01,-34.201 2559.49,-38.9357 2560.38,-31.9917"/>
</g>
<!-- MEA1vsjm6rLo8vpcN1UjjsUpiz4vDFz1QK_20180902_10h35m36s -->
<g id="node9" class="node"><title>MEA1vsjm6rLo8vpcN1UjjsUpiz4vDFz1QK_20180902_10h35m36s</title>
<ellipse fill="none" stroke="black" cx="3371.58" cy="-234" rx="255.355" ry="18"/>
<text text-anchor="middle" x="3371.58" y="-230.3" font-family="Times,serif" font-size="14.00">MEA1vsjm6rLo8vpcN1UjjsUpiz4vDFz1QK_20180902_10h35m36s</text>
</g>
<!-- MEA1vsjm6rLo8vpcN1UjjsUpiz4vDFz1QK_20180902_10h35m36s&#45;&gt;M8KNqZgR94iXYNWPffmyum41DHs6Ve79A1_20180902_10h35m36s -->
<g id="edge7" class="edge"><title>MEA1vsjm6rLo8vpcN1UjjsUpiz4vDFz1QK_20180902_10h35m36s&#45;&gt;M8KNqZgR94iXYNWPffmyum41DHs6Ve79A1_20180902_10h35m36s</title>
<path fill="none" stroke="black" d="M3313.04,-216.411C3277.03,-206.205 3230.71,-193.079 3193.01,-182.393"/>
<polygon fill="black" stroke="black" points="3193.7,-178.95 3183.12,-179.591 3191.79,-185.685 3193.7,-178.95"/>
</g>
<!-- MEA1vsjm6rLo8vpcN1UjjsUpiz4vDFz1QK_20180902_10h35m36s&#45;&gt;MTYLt6M5U633pZn3jj4JjTUkoAru1DKpmp_20180902_10h35m36s -->
<g id="edge19" class="edge"><title>MEA1vsjm6rLo8vpcN1UjjsUpiz4vDFz1QK_20180902_10h35m36s&#45;&gt;MTYLt6M5U633pZn3jj4JjTUkoAru1DKpmp_20180902_10h35m36s</title>
<path fill="none" stroke="black" d="M3218.28,-219.586C3080.15,-207.5 2877.64,-189.78 2736.14,-177.4"/>
<polygon fill="black" stroke="black" points="2736.33,-173.903 2726.06,-176.517 2735.72,-180.876 2736.33,-173.903"/>
</g>
<!-- M8PWmpVoG6MyM29x86bg5bHrQ3X7pXiGyf_20180902_11h26m26s -->
<g id="node10" class="node"><title>M8PWmpVoG6MyM29x86bg5bHrQ3X7pXiGyf_20180902_11h26m26s</title>
<ellipse fill="none" stroke="black" cx="3545.58" cy="-90" rx="273.751" ry="18"/>
<text text-anchor="middle" x="3545.58" y="-86.3" font-family="Times,serif" font-size="14.00">M8PWmpVoG6MyM29x86bg5bHrQ3X7pXiGyf_20180902_11h26m26s</text>
</g>
<!-- M8PWmpVoG6MyM29x86bg5bHrQ3X7pXiGyf_20180902_11h26m26s&#45;&gt;MP7rwbgHiEALz44q96UY4iXkbEJRXjvVoA_20180902_11h26m26s -->
<g id="edge9" class="edge"><title>M8PWmpVoG6MyM29x86bg5bHrQ3X7pXiGyf_20180902_11h26m26s&#45;&gt;MP7rwbgHiEALz44q96UY4iXkbEJRXjvVoA_20180902_11h26m26s</title>
<path fill="none" stroke="black" d="M3357.14,-76.9092C3325.9,-75.1145 3293.83,-73.4005 3263.58,-72 2768.74,-49.0935 2644.39,-59.4528 2149.58,-36 2123.37,-34.7581 2095.76,-33.2568 2068.58,-31.6666"/>
<polygon fill="black" stroke="black" points="2068.78,-28.1723 2058.59,-31.0771 2068.37,-35.1602 2068.78,-28.1723"/>
</g>
<!-- M8PWmpVoG6MyM29x86bg5bHrQ3X7pXiGyf_20180902_11h26m26s&#45;&gt;MVoVXLsqobu5K3AWJTAh4ZBSRs1J6iiMW7_20180902_11h26m26s -->
<g id="edge16" class="edge"><title>M8PWmpVoG6MyM29x86bg5bHrQ3X7pXiGyf_20180902_11h26m26s&#45;&gt;MVoVXLsqobu5K3AWJTAh4ZBSRs1J6iiMW7_20180902_11h26m26s</title>
<path fill="none" stroke="black" d="M3355.17,-77.0461C3153.37,-64.3773 2836.07,-44.4567 2630.67,-31.5617"/>
<polygon fill="black" stroke="black" points="2630.87,-28.0674 2620.67,-30.9338 2630.43,-35.0536 2630.87,-28.0674"/>
</g>
<!-- MDKqrNEgRdyTdAx7iuQjjiunatPAQugJ22_20180902_11h26m26s -->
<g id="node11" class="node"><title>MDKqrNEgRdyTdAx7iuQjjiunatPAQugJ22_20180902_11h26m26s</title>
<ellipse fill="none" stroke="black" cx="4091.58" cy="-90" rx="254.255" ry="18"/>
<text text-anchor="middle" x="4091.58" y="-86.3" font-family="Times,serif" font-size="14.00">MDKqrNEgRdyTdAx7iuQjjiunatPAQugJ22_20180902_11h26m26s</text>
</g>
<!-- MDKqrNEgRdyTdAx7iuQjjiunatPAQugJ22_20180902_11h26m26s&#45;&gt;MP7rwbgHiEALz44q96UY4iXkbEJRXjvVoA_20180902_11h26m26s -->
<g id="edge10" class="edge"><title>MDKqrNEgRdyTdAx7iuQjjiunatPAQugJ22_20180902_11h26m26s&#45;&gt;MP7rwbgHiEALz44q96UY4iXkbEJRXjvVoA_20180902_11h26m26s</title>
<path fill="none" stroke="black" d="M3919.04,-76.7801C3888.9,-74.9504 3857.83,-73.2586 3828.58,-72 3082.87,-39.9198 2895.31,-67.2859 2149.58,-36 2122.74,-34.874 2094.42,-33.4112 2066.61,-31.8164"/>
<polygon fill="black" stroke="black" points="2066.57,-28.3086 2056.39,-31.2233 2066.17,-35.2969 2066.57,-28.3086"/>
</g>
<!-- MDKqrNEgRdyTdAx7iuQjjiunatPAQugJ22_20180902_11h26m26s&#45;&gt;MVoVXLsqobu5K3AWJTAh4ZBSRs1J6iiMW7_20180902_11h26m26s -->
<g id="edge17" class="edge"><title>MDKqrNEgRdyTdAx7iuQjjiunatPAQugJ22_20180902_11h26m26s&#45;&gt;MVoVXLsqobu5K3AWJTAh4ZBSRs1J6iiMW7_20180902_11h26m26s</title>
<path fill="none" stroke="black" d="M3915.84,-76.9888C3886.7,-75.1844 3856.79,-73.4466 3828.58,-72 3428.44,-51.4866 2963.5,-35.4031 2683.42,-26.5581"/>
<polygon fill="black" stroke="black" points="2683.22,-23.0503 2673.12,-26.2335 2683,-30.0469 2683.22,-23.0503"/>
</g>
<!-- MALWZcApjcWpSEf5fpCaWpqBRctyeivAFN_20180902_10h35m36s -->
<g id="node12" class="node"><title>MALWZcApjcWpSEf5fpCaWpqBRctyeivAFN_20180902_10h35m36s</title>
<ellipse fill="none" stroke="black" cx="2830.58" cy="-234" rx="267.253" ry="18"/>
<text text-anchor="middle" x="2830.58" y="-230.3" font-family="Times,serif" font-size="14.00">MALWZcApjcWpSEf5fpCaWpqBRctyeivAFN_20180902_10h35m36s</text>
</g>
<!-- MALWZcApjcWpSEf5fpCaWpqBRctyeivAFN_20180902_10h35m36s&#45;&gt;M8KNqZgR94iXYNWPffmyum41DHs6Ve79A1_20180902_10h35m36s -->
<g id="edge11" class="edge"><title>MALWZcApjcWpSEf5fpCaWpqBRctyeivAFN_20180902_10h35m36s&#45;&gt;M8KNqZgR94iXYNWPffmyum41DHs6Ve79A1_20180902_10h35m36s</title>
<path fill="none" stroke="black" d="M2899.51,-216.588C2943.31,-206.16 3000.13,-192.63 3045.72,-181.774"/>
<polygon fill="black" stroke="black" points="3046.65,-185.151 3055.57,-179.43 3045.03,-178.342 3046.65,-185.151"/>
</g>
<!-- MALWZcApjcWpSEf5fpCaWpqBRctyeivAFN_20180902_10h35m36s&#45;&gt;MTYLt6M5U633pZn3jj4JjTUkoAru1DKpmp_20180902_10h35m36s -->
<g id="edge15" class="edge"><title>MALWZcApjcWpSEf5fpCaWpqBRctyeivAFN_20180902_10h35m36s&#45;&gt;MTYLt6M5U633pZn3jj4JjTUkoAru1DKpmp_20180902_10h35m36s</title>
<path fill="none" stroke="black" d="M2769.2,-216.411C2731.27,-206.161 2682.46,-192.967 2642.83,-182.257"/>
<polygon fill="black" stroke="black" points="2643.53,-178.821 2632.96,-179.591 2641.7,-185.579 2643.53,-178.821"/>
</g>
<!-- M8cCoN1oQXmrk8CPBGjhiexrn47mR7jX2T_20180902_11h26m26s -->
<g id="node14" class="node"><title>M8cCoN1oQXmrk8CPBGjhiexrn47mR7jX2T_20180902_11h26m26s</title>
<ellipse fill="none" stroke="black" cx="262.577" cy="-90" rx="262.653" ry="18"/>
<text text-anchor="middle" x="262.577" y="-86.3" font-family="Times,serif" font-size="14.00">M8cCoN1oQXmrk8CPBGjhiexrn47mR7jX2T_20180902_11h26m26s</text>
</g>
<!-- M8cCoN1oQXmrk8CPBGjhiexrn47mR7jX2T_20180902_11h26m26s&#45;&gt;MP7rwbgHiEALz44q96UY4iXkbEJRXjvVoA_20180902_11h26m26s -->
<g id="edge18" class="edge"><title>M8cCoN1oQXmrk8CPBGjhiexrn47mR7jX2T_20180902_11h26m26s&#45;&gt;MP7rwbgHiEALz44q96UY4iXkbEJRXjvVoA_20180902_11h26m26s</title>
<path fill="none" stroke="black" d="M444.395,-77.0109C474.189,-75.214 504.74,-73.4728 533.577,-72 918.814,-52.3238 1366.49,-35.9728 1635.62,-26.8483"/>
<polygon fill="black" stroke="black" points="1636.04,-30.3363 1645.92,-26.4999 1635.8,-23.3403 1636.04,-30.3363"/>
</g>
<!-- M8cCoN1oQXmrk8CPBGjhiexrn47mR7jX2T_20180902_11h26m26s&#45;&gt;MVoVXLsqobu5K3AWJTAh4ZBSRs1J6iiMW7_20180902_11h26m26s -->
<g id="edge21" class="edge"><title>M8cCoN1oQXmrk8CPBGjhiexrn47mR7jX2T_20180902_11h26m26s&#45;&gt;MVoVXLsqobu5K3AWJTAh4ZBSRs1J6iiMW7_20180902_11h26m26s</title>
<path fill="none" stroke="black" d="M441.095,-76.7744C471.925,-74.9569 503.669,-73.2707 533.577,-72 1251.33,-41.5051 1431.79,-65.6967 2149.58,-36 2177.31,-34.8524 2206.58,-33.3771 2235.32,-31.7761"/>
<polygon fill="black" stroke="black" points="2235.68,-35.2617 2245.47,-31.2048 2235.29,-28.2727 2235.68,-35.2617"/>
</g>
<!-- MNDv4oRHUxJxjn6EtrytHfFevoTz1WVYGv_20180902_11h26m26s -->
<g id="node15" class="node"><title>MNDv4oRHUxJxjn6EtrytHfFevoTz1WVYGv_20180902_11h26m26s</title>
<ellipse fill="none" stroke="black" cx="805.577" cy="-90" rx="262.653" ry="18"/>
<text text-anchor="middle" x="805.577" y="-86.3" font-family="Times,serif" font-size="14.00">MNDv4oRHUxJxjn6EtrytHfFevoTz1WVYGv_20180902_11h26m26s</text>
</g>
<!-- MNDv4oRHUxJxjn6EtrytHfFevoTz1WVYGv_20180902_11h26m26s&#45;&gt;MP7rwbgHiEALz44q96UY4iXkbEJRXjvVoA_20180902_11h26m26s -->
<g id="edge24" class="edge"><title>MNDv4oRHUxJxjn6EtrytHfFevoTz1WVYGv_20180902_11h26m26s&#45;&gt;MP7rwbgHiEALz44q96UY4iXkbEJRXjvVoA_20180902_11h26m26s</title>
<path fill="none" stroke="black" d="M988.338,-77.066C1182.11,-64.4132 1486.9,-44.5107 1684.5,-31.6075"/>
<polygon fill="black" stroke="black" points="1684.96,-35.0852 1694.71,-30.9409 1684.5,-28.1 1684.96,-35.0852"/>
</g>
<!-- MNDv4oRHUxJxjn6EtrytHfFevoTz1WVYGv_20180902_11h26m26s&#45;&gt;MVoVXLsqobu5K3AWJTAh4ZBSRs1J6iiMW7_20180902_11h26m26s -->
<g id="edge22" class="edge"><title>MNDv4oRHUxJxjn6EtrytHfFevoTz1WVYGv_20180902_11h26m26s&#45;&gt;MVoVXLsqobu5K3AWJTAh4ZBSRs1J6iiMW7_20180902_11h26m26s</title>
<path fill="none" stroke="black" d="M986.595,-76.9549C1016.96,-75.1441 1048.16,-73.413 1077.58,-72 1553.74,-49.1293 1673.39,-58.3958 2149.58,-36 2176.43,-34.7372 2204.71,-33.2325 2232.57,-31.6479"/>
<polygon fill="black" stroke="black" points="2233.03,-35.1275 2242.81,-31.0609 2232.62,-28.139 2233.03,-35.1275"/>
</g>
</g>
</svg>
