<?xml version="1.0" encoding="UTF-8" standalone="no"?>
<!DOCTYPE svg PUBLIC "-//W3C//DTD SVG 1.1//EN"
 "http://www.w3.org/Graphics/SVG/1.1/DTD/svg11.dtd">
<!-- Generated by graphviz version 2.38.0 (20140413.2041)
 -->
<!-- Title: G Pages: 1 -->
<svg width="4354pt" height="260pt"
 viewBox="0.00 0.00 4353.80 260.00" xmlns="http://www.w3.org/2000/svg" xmlns:xlink="http://www.w3.org/1999/xlink">
<g id="graph0" class="graph" transform="scale(1 1) rotate(0) translate(4 256)">
<title>G</title>
<polygon fill="white" stroke="none" points="-4,4 -4,-256 4349.8,-256 4349.8,4 -4,4"/>
<!-- M8KNqZgR94iXYNWPffmyum41DHs6Ve79A1_20180902_11h26m26s -->
<g id="node1" class="node"><title>M8KNqZgR94iXYNWPffmyum41DHs6Ve79A1_20180902_11h26m26s</title>
<ellipse fill="none" stroke="black" cx="1359.58" cy="-90" rx="273.751" ry="18"/>
<text text-anchor="middle" x="1359.58" y="-86.3" font-family="Times,serif" font-size="14.00">M8KNqZgR94iXYNWPffmyum41DHs6Ve79A1_20180902_11h26m26s</text>
</g>
<!-- MP7rwbgHiEALz44q96UY4iXkbEJRXjvVoA_20180902_11h26m26s -->
<g id="node2" class="node"><title>MP7rwbgHiEALz44q96UY4iXkbEJRXjvVoA_20180902_11h26m26s</title>
<ellipse fill="none" stroke="black" cx="1906.58" cy="-18" rx="262.653" ry="18"/>
<text text-anchor="middle" x="1906.58" y="-14.3" font-family="Times,serif" font-size="14.00">MP7rwbgHiEALz44q96UY4iXkbEJRXjvVoA_20180902_11h26m26s</text>
</g>
<!-- M8KNqZgR94iXYNWPffmyum41DHs6Ve79A1_20180902_11h26m26s&#45;&gt;MP7rwbgHiEALz44q96UY4iXkbEJRXjvVoA_20180902_11h26m26s -->
<g id="edge1" class="edge"><title>M8KNqZgR94iXYNWPffmyum41DHs6Ve79A1_20180902_11h26m26s&#45;&gt;MP7rwbgHiEALz44q96UY4iXkbEJRXjvVoA_20180902_11h26m26s</title>
<path fill="none" stroke="black" d="M1478.6,-73.7679C1567.06,-62.4483 1687.59,-47.024 1778.2,-35.4283"/>
<polygon fill="black" stroke="black" points="1778.79,-38.8819 1788.26,-34.1408 1777.9,-31.9386 1778.79,-38.8819"/>
</g>
<!-- MVoVXLsqobu5K3AWJTAh4ZBSRs1J6iiMW7_20180902_11h26m26s -->
<g id="node7" class="node"><title>MVoVXLsqobu5K3AWJTAh4ZBSRs1J6iiMW7_20180902_11h26m26s</title>
<ellipse fill="none" stroke="black" cx="2459.58" cy="-18" rx="272.152" ry="18"/>
<text text-anchor="middle" x="2459.58" y="-14.3" font-family="Times,serif" font-size="14.00">MVoVXLsqobu5K3AWJTAh4ZBSRs1J6iiMW7_20180902_11h26m26s</text>
</g>
<!-- M8KNqZgR94iXYNWPffmyum41DHs6Ve79A1_20180902_11h26m26s&#45;&gt;MVoVXLsqobu5K3AWJTAh4ZBSRs1J6iiMW7_20180902_11h26m26s -->
<g id="edge10" class="edge"><title>M8KNqZgR94iXYNWPffmyum41DHs6Ve79A1_20180902_11h26m26s&#45;&gt;MVoVXLsqobu5K3AWJTAh4ZBSRs1J6iiMW7_20180902_11h26m26s</title>
<path fill="none" stroke="black" d="M1548.67,-76.9666C1747.41,-64.3195 2058.71,-44.5094 2260.96,-31.6391"/>
<polygon fill="black" stroke="black" points="2261.35,-35.1214 2271.11,-30.9933 2260.91,-28.1356 2261.35,-35.1214"/>
</g>
<!-- MEdJsApdHA1f7KGtrLnQ7Wf5YiXVNVMGHe_20180902_10h03m36s -->
<g id="node3" class="node"><title>MEdJsApdHA1f7KGtrLnQ7Wf5YiXVNVMGHe_20180902_10h03m36s</title>
<ellipse fill="none" stroke="black" cx="1906.58" cy="-234" rx="274.052" ry="18"/>
<text text-anchor="middle" x="1906.58" y="-230.3" font-family="Times,serif" font-size="14.00">MEdJsApdHA1f7KGtrLnQ7Wf5YiXVNVMGHe_20180902_10h03m36s</text>
</g>
<!-- MEA6vpvJS61v4L1adoEMNko1SdgajcvqaR_20180902_10h03m36s -->
<g id="node4" class="node"><title>MEA6vpvJS61v4L1adoEMNko1SdgajcvqaR_20180902_10h03m36s</title>
<ellipse fill="none" stroke="black" cx="1908.58" cy="-162" rx="257.254" ry="18"/>
<text text-anchor="middle" x="1908.58" y="-158.3" font-family="Times,serif" font-size="14.00">MEA6vpvJS61v4L1adoEMNko1SdgajcvqaR_20180902_10h03m36s</text>
</g>
<!-- MEdJsApdHA1f7KGtrLnQ7Wf5YiXVNVMGHe_20180902_10h03m36s&#45;&gt;MEA6vpvJS61v4L1adoEMNko1SdgajcvqaR_20180902_10h03m36s -->
<g id="edge2" class="edge"><title>MEdJsApdHA1f7KGtrLnQ7Wf5YiXVNVMGHe_20180902_10h03m36s&#45;&gt;MEA6vpvJS61v4L1adoEMNko1SdgajcvqaR_20180902_10h03m36s</title>
<path fill="none" stroke="black" d="M1907.07,-215.697C1907.29,-207.983 1907.56,-198.712 1907.8,-190.112"/>
<polygon fill="black" stroke="black" points="1911.3,-190.2 1908.09,-180.104 1904.3,-190 1911.3,-190.2"/>
</g>
<!-- MH7iB3uiHMtCmrvgFP3as3Y8vNKRhj2FdE_20180902_10h03m36s -->
<g id="node5" class="node"><title>MH7iB3uiHMtCmrvgFP3as3Y8vNKRhj2FdE_20180902_10h03m36s</title>
<ellipse fill="none" stroke="black" cx="2450.58" cy="-162" rx="261.854" ry="18"/>
<text text-anchor="middle" x="2450.58" y="-158.3" font-family="Times,serif" font-size="14.00">MH7iB3uiHMtCmrvgFP3as3Y8vNKRhj2FdE_20180902_10h03m36s</text>
</g>
<!-- MEdJsApdHA1f7KGtrLnQ7Wf5YiXVNVMGHe_20180902_10h03m36s&#45;&gt;MH7iB3uiHMtCmrvgFP3as3Y8vNKRhj2FdE_20180902_10h03m36s -->
<g id="edge3" class="edge"><title>MEdJsApdHA1f7KGtrLnQ7Wf5YiXVNVMGHe_20180902_10h03m36s&#45;&gt;MH7iB3uiHMtCmrvgFP3as3Y8vNKRhj2FdE_20180902_10h03m36s</title>
<path fill="none" stroke="black" d="M2025.29,-217.725C2113.28,-206.403 2233.04,-190.992 2323.06,-179.408"/>
<polygon fill="black" stroke="black" points="2323.58,-182.87 2333.05,-178.122 2322.69,-175.927 2323.58,-182.87"/>
</g>
<!-- MEA6vpvJS61v4L1adoEMNko1SdgajcvqaR_20180902_11h26m26s -->
<g id="node6" class="node"><title>MEA6vpvJS61v4L1adoEMNko1SdgajcvqaR_20180902_11h26m26s</title>
<ellipse fill="none" stroke="black" cx="1908.58" cy="-90" rx="257.254" ry="18"/>
<text text-anchor="middle" x="1908.58" y="-86.3" font-family="Times,serif" font-size="14.00">MEA6vpvJS61v4L1adoEMNko1SdgajcvqaR_20180902_11h26m26s</text>
</g>
<!-- MEA6vpvJS61v4L1adoEMNko1SdgajcvqaR_20180902_10h03m36s&#45;&gt;MEA6vpvJS61v4L1adoEMNko1SdgajcvqaR_20180902_11h26m26s -->
<g id="edge9" class="edge"><title>MEA6vpvJS61v4L1adoEMNko1SdgajcvqaR_20180902_10h03m36s&#45;&gt;MEA6vpvJS61v4L1adoEMNko1SdgajcvqaR_20180902_11h26m26s</title>
<path fill="none" stroke="black" d="M1908.58,-143.697C1908.58,-135.983 1908.58,-126.712 1908.58,-118.112"/>
<polygon fill="black" stroke="black" points="1912.08,-118.104 1908.58,-108.104 1905.08,-118.104 1912.08,-118.104"/>
</g>
<!-- MEA6vpvJS61v4L1adoEMNko1SdgajcvqaR_20180902_11h26m26s&#45;&gt;MP7rwbgHiEALz44q96UY4iXkbEJRXjvVoA_20180902_11h26m26s -->
<g id="edge12" class="edge"><title>MEA6vpvJS61v4L1adoEMNko1SdgajcvqaR_20180902_11h26m26s&#45;&gt;MP7rwbgHiEALz44q96UY4iXkbEJRXjvVoA_20180902_11h26m26s</title>
<path fill="none" stroke="black" d="M1908.08,-71.6966C1907.86,-63.9827 1907.6,-54.7125 1907.35,-46.1124"/>
<polygon fill="black" stroke="black" points="1910.85,-46.0003 1907.07,-36.1043 1903.85,-46.2002 1910.85,-46.0003"/>
</g>
<!-- MEA6vpvJS61v4L1adoEMNko1SdgajcvqaR_20180902_11h26m26s&#45;&gt;MVoVXLsqobu5K3AWJTAh4ZBSRs1J6iiMW7_20180902_11h26m26s -->
<g id="edge4" class="edge"><title>MEA6vpvJS61v4L1adoEMNko1SdgajcvqaR_20180902_11h26m26s&#45;&gt;MVoVXLsqobu5K3AWJTAh4ZBSRs1J6iiMW7_20180902_11h26m26s</title>
<path fill="none" stroke="black" d="M2026.78,-73.9832C2115.78,-62.6767 2237.71,-47.1861 2329.48,-35.528"/>
<polygon fill="black" stroke="black" points="2330.19,-38.9659 2339.67,-34.2335 2329.31,-32.0217 2330.19,-38.9659"/>
</g>
<!-- M8PWmpVoG6MyM29x86bg5bHrQ3X7pXiGyf_20180902_11h26m26s -->
<g id="node8" class="node"><title>M8PWmpVoG6MyM29x86bg5bHrQ3X7pXiGyf_20180902_11h26m26s</title>
<ellipse fill="none" stroke="black" cx="2457.58" cy="-90" rx="273.751" ry="18"/>
<text text-anchor="middle" x="2457.58" y="-86.3" font-family="Times,serif" font-size="14.00">M8PWmpVoG6MyM29x86bg5bHrQ3X7pXiGyf_20180902_11h26m26s</text>
</g>
<!-- M8PWmpVoG6MyM29x86bg5bHrQ3X7pXiGyf_20180902_11h26m26s&#45;&gt;MP7rwbgHiEALz44q96UY4iXkbEJRXjvVoA_20180902_11h26m26s -->
<g id="edge17" class="edge"><title>M8PWmpVoG6MyM29x86bg5bHrQ3X7pXiGyf_20180902_11h26m26s&#45;&gt;MP7rwbgHiEALz44q96UY4iXkbEJRXjvVoA_20180902_11h26m26s</title>
<path fill="none" stroke="black" d="M2337.68,-73.7679C2248.42,-62.4289 2126.75,-46.9712 2035.42,-35.3688"/>
<polygon fill="black" stroke="black" points="2035.64,-31.8689 2025.28,-34.0806 2034.76,-38.8131 2035.64,-31.8689"/>
</g>
<!-- M8PWmpVoG6MyM29x86bg5bHrQ3X7pXiGyf_20180902_11h26m26s&#45;&gt;MVoVXLsqobu5K3AWJTAh4ZBSRs1J6iiMW7_20180902_11h26m26s -->
<g id="edge5" class="edge"><title>M8PWmpVoG6MyM29x86bg5bHrQ3X7pXiGyf_20180902_11h26m26s&#45;&gt;MVoVXLsqobu5K3AWJTAh4ZBSRs1J6iiMW7_20180902_11h26m26s</title>
<path fill="none" stroke="black" d="M2458.07,-71.6966C2458.29,-63.9827 2458.56,-54.7125 2458.8,-46.1124"/>
<polygon fill="black" stroke="black" points="2462.3,-46.2002 2459.09,-36.1043 2455.3,-46.0003 2462.3,-46.2002"/>
</g>
<!-- M8Z484Unxgsv2x9N3TjzEDxBgrNybpr6on_20180902_10h03m36s -->
<g id="node9" class="node"><title>M8Z484Unxgsv2x9N3TjzEDxBgrNybpr6on_20180902_10h03m36s</title>
<ellipse fill="none" stroke="black" cx="2453.58" cy="-234" rx="254.555" ry="18"/>
<text text-anchor="middle" x="2453.58" y="-230.3" font-family="Times,serif" font-size="14.00">M8Z484Unxgsv2x9N3TjzEDxBgrNybpr6on_20180902_10h03m36s</text>
</g>
<!-- M8Z484Unxgsv2x9N3TjzEDxBgrNybpr6on_20180902_10h03m36s&#45;&gt;MEA6vpvJS61v4L1adoEMNko1SdgajcvqaR_20180902_10h03m36s -->
<g id="edge11" class="edge"><title>M8Z484Unxgsv2x9N3TjzEDxBgrNybpr6on_20180902_10h03m36s&#45;&gt;MEA6vpvJS61v4L1adoEMNko1SdgajcvqaR_20180902_10h03m36s</title>
<path fill="none" stroke="black" d="M2336.66,-217.983C2248.18,-206.619 2126.79,-191.027 2035.86,-179.349"/>
<polygon fill="black" stroke="black" points="2036.13,-175.855 2025.77,-178.052 2035.24,-182.798 2036.13,-175.855"/>
</g>
<!-- M8Z484Unxgsv2x9N3TjzEDxBgrNybpr6on_20180902_10h03m36s&#45;&gt;MH7iB3uiHMtCmrvgFP3as3Y8vNKRhj2FdE_20180902_10h03m36s -->
<g id="edge6" class="edge"><title>M8Z484Unxgsv2x9N3TjzEDxBgrNybpr6on_20180902_10h03m36s&#45;&gt;MH7iB3uiHMtCmrvgFP3as3Y8vNKRhj2FdE_20180902_10h03m36s</title>
<path fill="none" stroke="black" d="M2452.84,-215.697C2452.5,-207.983 2452.11,-198.712 2451.74,-190.112"/>
<polygon fill="black" stroke="black" points="2455.23,-189.945 2451.31,-180.104 2448.24,-190.245 2455.23,-189.945"/>
</g>
<!-- MDKqrNEgRdyTdAx7iuQjjiunatPAQugJ22_20180902_11h26m26s -->
<g id="node10" class="node"><title>MDKqrNEgRdyTdAx7iuQjjiunatPAQugJ22_20180902_11h26m26s</title>
<ellipse fill="none" stroke="black" cx="3003.58" cy="-90" rx="254.255" ry="18"/>
<text text-anchor="middle" x="3003.58" y="-86.3" font-family="Times,serif" font-size="14.00">MDKqrNEgRdyTdAx7iuQjjiunatPAQugJ22_20180902_11h26m26s</text>
</g>
<!-- MDKqrNEgRdyTdAx7iuQjjiunatPAQugJ22_20180902_11h26m26s&#45;&gt;MP7rwbgHiEALz44q96UY4iXkbEJRXjvVoA_20180902_11h26m26s -->
<g id="edge18" class="edge"><title>MDKqrNEgRdyTdAx7iuQjjiunatPAQugJ22_20180902_11h26m26s&#45;&gt;MP7rwbgHiEALz44q96UY4iXkbEJRXjvVoA_20180902_11h26m26s</title>
<path fill="none" stroke="black" d="M2823.2,-77.3145C2795.53,-75.5294 2767.29,-73.7121 2740.58,-72 2522.14,-57.9994 2271.51,-42.0932 2102.49,-31.39"/>
<polygon fill="black" stroke="black" points="2102.69,-27.8957 2092.49,-30.7566 2102.25,-34.8817 2102.69,-27.8957"/>
</g>
<!-- MDKqrNEgRdyTdAx7iuQjjiunatPAQugJ22_20180902_11h26m26s&#45;&gt;MVoVXLsqobu5K3AWJTAh4ZBSRs1J6iiMW7_20180902_11h26m26s -->
<g id="edge7" class="edge"><title>MDKqrNEgRdyTdAx7iuQjjiunatPAQugJ22_20180902_11h26m26s&#45;&gt;MVoVXLsqobu5K3AWJTAh4ZBSRs1J6iiMW7_20180902_11h26m26s</title>
<path fill="none" stroke="black" d="M2886.88,-73.9832C2799.01,-62.6767 2678.62,-47.1861 2588.02,-35.528"/>
<polygon fill="black" stroke="black" points="2588.33,-32.0384 2577.96,-34.2335 2587.43,-38.9812 2588.33,-32.0384"/>
</g>
<!-- M8cCoN1oQXmrk8CPBGjhiexrn47mR7jX2T_20180902_11h26m26s -->
<g id="node11" class="node"><title>M8cCoN1oQXmrk8CPBGjhiexrn47mR7jX2T_20180902_11h26m26s</title>
<ellipse fill="none" stroke="black" cx="3538.58" cy="-90" rx="262.653" ry="18"/>
<text text-anchor="middle" x="3538.58" y="-86.3" font-family="Times,serif" font-size="14.00">M8cCoN1oQXmrk8CPBGjhiexrn47mR7jX2T_20180902_11h26m26s</text>
</g>
<!-- M8cCoN1oQXmrk8CPBGjhiexrn47mR7jX2T_20180902_11h26m26s&#45;&gt;MP7rwbgHiEALz44q96UY4iXkbEJRXjvVoA_20180902_11h26m26s -->
<g id="edge8" class="edge"><title>M8cCoN1oQXmrk8CPBGjhiexrn47mR7jX2T_20180902_11h26m26s&#45;&gt;MP7rwbgHiEALz44q96UY4iXkbEJRXjvVoA_20180902_11h26m26s</title>
<path fill="none" stroke="black" d="M3357.56,-76.9424C3327.19,-75.1331 3296,-73.4058 3266.58,-72 2783.31,-48.9076 2661.85,-59.0924 2178.58,-36 2152.37,-34.748 2124.76,-33.2409 2097.59,-31.648"/>
<polygon fill="black" stroke="black" points="2097.78,-28.1537 2087.59,-31.0576 2097.37,-35.1415 2097.78,-28.1537"/>
</g>
<!-- M8cCoN1oQXmrk8CPBGjhiexrn47mR7jX2T_20180902_11h26m26s&#45;&gt;MVoVXLsqobu5K3AWJTAh4ZBSRs1J6iiMW7_20180902_11h26m26s -->
<g id="edge15" class="edge"><title>M8cCoN1oQXmrk8CPBGjhiexrn47mR7jX2T_20180902_11h26m26s&#45;&gt;MVoVXLsqobu5K3AWJTAh4ZBSRs1J6iiMW7_20180902_11h26m26s</title>
<path fill="none" stroke="black" d="M3355.23,-77.1056C3161.09,-64.5109 2855.74,-44.7008 2656.57,-31.7798"/>
<polygon fill="black" stroke="black" points="2656.78,-28.2862 2646.57,-31.1314 2656.33,-35.2715 2656.78,-28.2862"/>
</g>
<!-- MFckG1iHPNAp9bUdC3Ta3yLHvPddPL82sn_20180902_11h26m26s -->
<g id="node12" class="node"><title>MFckG1iHPNAp9bUdC3Ta3yLHvPddPL82sn_20180902_11h26m26s</title>
<ellipse fill="none" stroke="black" cx="4082.58" cy="-90" rx="263.453" ry="18"/>
<text text-anchor="middle" x="4082.58" y="-86.3" font-family="Times,serif" font-size="14.00">MFckG1iHPNAp9bUdC3Ta3yLHvPddPL82sn_20180902_11h26m26s</text>
</g>
<!-- MFckG1iHPNAp9bUdC3Ta3yLHvPddPL82sn_20180902_11h26m26s&#45;&gt;MP7rwbgHiEALz44q96UY4iXkbEJRXjvVoA_20180902_11h26m26s -->
<g id="edge13" class="edge"><title>MFckG1iHPNAp9bUdC3Ta3yLHvPddPL82sn_20180902_11h26m26s&#45;&gt;MP7rwbgHiEALz44q96UY4iXkbEJRXjvVoA_20180902_11h26m26s</title>
<path fill="none" stroke="black" d="M3903.4,-76.771C3872.46,-74.9538 3840.59,-73.2686 3810.58,-72 3085.71,-41.3657 2903.44,-66.6343 2178.58,-36 2151.74,-34.8657 2123.42,-33.3983 2095.61,-31.8014"/>
<polygon fill="black" stroke="black" points="2095.57,-28.2936 2085.39,-31.2076 2095.17,-35.2818 2095.57,-28.2936"/>
</g>
<!-- MFckG1iHPNAp9bUdC3Ta3yLHvPddPL82sn_20180902_11h26m26s&#45;&gt;MVoVXLsqobu5K3AWJTAh4ZBSRs1J6iiMW7_20180902_11h26m26s -->
<g id="edge21" class="edge"><title>MFckG1iHPNAp9bUdC3Ta3yLHvPddPL82sn_20180902_11h26m26s&#45;&gt;MVoVXLsqobu5K3AWJTAh4ZBSRs1J6iiMW7_20180902_11h26m26s</title>
<path fill="none" stroke="black" d="M3900.09,-77.0094C3870.18,-75.2127 3839.52,-73.472 3810.58,-72 3426.08,-52.4452 2979.71,-36.192 2708.58,-27.0366"/>
<polygon fill="black" stroke="black" points="2708.32,-23.526 2698.2,-26.687 2708.08,-30.522 2708.32,-23.526"/>
</g>
<!-- MGsG3Zc95j79nA5iJa5mHbDY5Nf37LsQVn_20180902_11h26m26s -->
<g id="node13" class="node"><title>MGsG3Zc95j79nA5iJa5mHbDY5Nf37LsQVn_20180902_11h26m26s</title>
<ellipse fill="none" stroke="black" cx="262.577" cy="-90" rx="262.653" ry="18"/>
<text text-anchor="middle" x="262.577" y="-86.3" font-family="Times,serif" font-size="14.00">MGsG3Zc95j79nA5iJa5mHbDY5Nf37LsQVn_20180902_11h26m26s</text>
</g>
<!-- MGsG3Zc95j79nA5iJa5mHbDY5Nf37LsQVn_20180902_11h26m26s&#45;&gt;MP7rwbgHiEALz44q96UY4iXkbEJRXjvVoA_20180902_11h26m26s -->
<g id="edge19" class="edge"><title>MGsG3Zc95j79nA5iJa5mHbDY5Nf37LsQVn_20180902_11h26m26s&#45;&gt;MP7rwbgHiEALz44q96UY4iXkbEJRXjvVoA_20180902_11h26m26s</title>
<path fill="none" stroke="black" d="M444.394,-76.9901C474.189,-75.1958 504.74,-73.4608 533.577,-72 928.934,-51.9717 1388.67,-35.6383 1663.19,-26.6256"/>
<polygon fill="black" stroke="black" points="1663.4,-30.1207 1673.28,-26.2949 1663.17,-23.1244 1663.4,-30.1207"/>
</g>
<!-- MGsG3Zc95j79nA5iJa5mHbDY5Nf37LsQVn_20180902_11h26m26s&#45;&gt;MVoVXLsqobu5K3AWJTAh4ZBSRs1J6iiMW7_20180902_11h26m26s -->
<g id="edge14" class="edge"><title>MGsG3Zc95j79nA5iJa5mHbDY5Nf37LsQVn_20180902_11h26m26s&#45;&gt;MVoVXLsqobu5K3AWJTAh4ZBSRs1J6iiMW7_20180902_11h26m26s</title>
<path fill="none" stroke="black" d="M441.094,-76.7645C471.924,-74.9481 503.669,-73.2648 533.577,-72 1264.21,-41.1016 1447.91,-66.086 2178.58,-36 2206.31,-34.8579 2235.58,-33.3856 2264.32,-31.7859"/>
<polygon fill="black" stroke="black" points="2264.68,-35.2716 2274.47,-31.2151 2264.29,-28.2826 2264.68,-35.2716"/>
</g>
<!-- MNDv4oRHUxJxjn6EtrytHfFevoTz1WVYGv_20180902_11h26m26s -->
<g id="node14" class="node"><title>MNDv4oRHUxJxjn6EtrytHfFevoTz1WVYGv_20180902_11h26m26s</title>
<ellipse fill="none" stroke="black" cx="805.577" cy="-90" rx="262.653" ry="18"/>
<text text-anchor="middle" x="805.577" y="-86.3" font-family="Times,serif" font-size="14.00">MNDv4oRHUxJxjn6EtrytHfFevoTz1WVYGv_20180902_11h26m26s</text>
</g>
<!-- MNDv4oRHUxJxjn6EtrytHfFevoTz1WVYGv_20180902_11h26m26s&#45;&gt;MP7rwbgHiEALz44q96UY4iXkbEJRXjvVoA_20180902_11h26m26s -->
<g id="edge20" class="edge"><title>MNDv4oRHUxJxjn6EtrytHfFevoTz1WVYGv_20180902_11h26m26s&#45;&gt;MP7rwbgHiEALz44q96UY4iXkbEJRXjvVoA_20180902_11h26m26s</title>
<path fill="none" stroke="black" d="M990.791,-77.2244C1190.52,-64.5258 1507.17,-44.3936 1710.88,-31.442"/>
<polygon fill="black" stroke="black" points="1711.34,-34.9198 1721.1,-30.7922 1710.9,-27.9339 1711.34,-34.9198"/>
</g>
<!-- MNDv4oRHUxJxjn6EtrytHfFevoTz1WVYGv_20180902_11h26m26s&#45;&gt;MVoVXLsqobu5K3AWJTAh4ZBSRs1J6iiMW7_20180902_11h26m26s -->
<g id="edge16" class="edge"><title>MNDv4oRHUxJxjn6EtrytHfFevoTz1WVYGv_20180902_11h26m26s&#45;&gt;MVoVXLsqobu5K3AWJTAh4ZBSRs1J6iiMW7_20180902_11h26m26s</title>
<path fill="none" stroke="black" d="M986.293,-76.907C1016.43,-75.1072 1047.38,-73.3922 1076.58,-72 1566.06,-48.6573 1689.07,-58.7984 2178.58,-36 2205.54,-34.7444 2233.94,-33.2396 2261.91,-31.6514"/>
<polygon fill="black" stroke="black" points="2262.4,-35.1287 2272.19,-31.0628 2262,-28.1402 2262.4,-35.1287"/>
</g>
</g>
</svg>
