<?xml version="1.0" encoding="UTF-8" standalone="no"?>
<!DOCTYPE svg PUBLIC "-//W3C//DTD SVG 1.1//EN"
 "http://www.w3.org/Graphics/SVG/1.1/DTD/svg11.dtd">
<!-- Generated by graphviz version 2.38.0 (20140413.2041)
 -->
<!-- Title: G Pages: 1 -->
<svg width="4354pt" height="260pt"
 viewBox="0.00 0.00 4353.80 260.00" xmlns="http://www.w3.org/2000/svg" xmlns:xlink="http://www.w3.org/1999/xlink">
<g id="graph0" class="graph" transform="scale(1 1) rotate(0) translate(4 256)">
<title>G</title>
<polygon fill="white" stroke="none" points="-4,4 -4,-256 4349.8,-256 4349.8,4 -4,4"/>
<!-- M8KNqZgR94iXYNWPffmyum41DHs6Ve79A1_20180902_11h26m26s -->
<g id="node1" class="node"><title>M8KNqZgR94iXYNWPffmyum41DHs6Ve79A1_20180902_11h26m26s</title>
<ellipse fill="none" stroke="black" cx="1361.23" cy="-90" rx="273.751" ry="18"/>
<text text-anchor="middle" x="1361.23" y="-86.3" font-family="Times,serif" font-size="14.00">M8KNqZgR94iXYNWPffmyum41DHs6Ve79A1_20180902_11h26m26s</text>
</g>
<!-- MP7rwbgHiEALz44q96UY4iXkbEJRXjvVoA_20180902_11h26m26s -->
<g id="node2" class="node"><title>MP7rwbgHiEALz44q96UY4iXkbEJRXjvVoA_20180902_11h26m26s</title>
<ellipse fill="none" stroke="black" cx="1907.23" cy="-18" rx="262.653" ry="18"/>
<text text-anchor="middle" x="1907.23" y="-14.3" font-family="Times,serif" font-size="14.00">MP7rwbgHiEALz44q96UY4iXkbEJRXjvVoA_20180902_11h26m26s</text>
</g>
<!-- M8KNqZgR94iXYNWPffmyum41DHs6Ve79A1_20180902_11h26m26s&#45;&gt;MP7rwbgHiEALz44q96UY4iXkbEJRXjvVoA_20180902_11h26m26s -->
<g id="edge1" class="edge"><title>M8KNqZgR94iXYNWPffmyum41DHs6Ve79A1_20180902_11h26m26s&#45;&gt;MP7rwbgHiEALz44q96UY4iXkbEJRXjvVoA_20180902_11h26m26s</title>
<path fill="none" stroke="black" d="M1480.04,-73.7679C1568.33,-62.4483 1688.64,-47.024 1779.09,-35.4283"/>
<polygon fill="black" stroke="black" points="1779.65,-38.8841 1789.13,-34.1408 1778.76,-31.9409 1779.65,-38.8841"/>
</g>
<!-- MVoVXLsqobu5K3AWJTAh4ZBSRs1J6iiMW7_20180902_11h26m26s -->
<g id="node6" class="node"><title>MVoVXLsqobu5K3AWJTAh4ZBSRs1J6iiMW7_20180902_11h26m26s</title>
<ellipse fill="none" stroke="black" cx="2460.23" cy="-18" rx="272.152" ry="18"/>
<text text-anchor="middle" x="2460.23" y="-14.3" font-family="Times,serif" font-size="14.00">MVoVXLsqobu5K3AWJTAh4ZBSRs1J6iiMW7_20180902_11h26m26s</text>
</g>
<!-- M8KNqZgR94iXYNWPffmyum41DHs6Ve79A1_20180902_11h26m26s&#45;&gt;MVoVXLsqobu5K3AWJTAh4ZBSRs1J6iiMW7_20180902_11h26m26s -->
<g id="edge10" class="edge"><title>M8KNqZgR94iXYNWPffmyum41DHs6Ve79A1_20180902_11h26m26s&#45;&gt;MVoVXLsqobu5K3AWJTAh4ZBSRs1J6iiMW7_20180902_11h26m26s</title>
<path fill="none" stroke="black" d="M1550.15,-76.9666C1748.56,-64.3291 2059.26,-44.5395 2261.33,-31.6685"/>
<polygon fill="black" stroke="black" points="2261.71,-35.1513 2271.47,-31.0226 2261.27,-28.1654 2261.71,-35.1513"/>
</g>
<!-- MNDv4oRHUxJxjn6EtrytHfFevoTz1WVYGv_20180901_16h45m33s -->
<g id="node3" class="node"><title>MNDv4oRHUxJxjn6EtrytHfFevoTz1WVYGv_20180901_16h45m33s</title>
<ellipse fill="none" stroke="black" cx="1915.23" cy="-162" rx="262.653" ry="18"/>
<text text-anchor="middle" x="1915.23" y="-158.3" font-family="Times,serif" font-size="14.00">MNDv4oRHUxJxjn6EtrytHfFevoTz1WVYGv_20180901_16h45m33s</text>
</g>
<!-- MNDv4oRHUxJxjn6EtrytHfFevoTz1WVYGv_20180902_11h26m26s -->
<g id="node4" class="node"><title>MNDv4oRHUxJxjn6EtrytHfFevoTz1WVYGv_20180902_11h26m26s</title>
<ellipse fill="none" stroke="black" cx="1915.23" cy="-90" rx="262.653" ry="18"/>
<text text-anchor="middle" x="1915.23" y="-86.3" font-family="Times,serif" font-size="14.00">MNDv4oRHUxJxjn6EtrytHfFevoTz1WVYGv_20180902_11h26m26s</text>
</g>
<!-- MNDv4oRHUxJxjn6EtrytHfFevoTz1WVYGv_20180901_16h45m33s&#45;&gt;MNDv4oRHUxJxjn6EtrytHfFevoTz1WVYGv_20180902_11h26m26s -->
<g id="edge2" class="edge"><title>MNDv4oRHUxJxjn6EtrytHfFevoTz1WVYGv_20180901_16h45m33s&#45;&gt;MNDv4oRHUxJxjn6EtrytHfFevoTz1WVYGv_20180902_11h26m26s</title>
<path fill="none" stroke="black" d="M1915.23,-143.697C1915.23,-135.983 1915.23,-126.712 1915.23,-118.112"/>
<polygon fill="black" stroke="black" points="1918.73,-118.104 1915.23,-108.104 1911.73,-118.104 1918.73,-118.104"/>
</g>
<!-- MNDv4oRHUxJxjn6EtrytHfFevoTz1WVYGv_20180902_11h26m26s&#45;&gt;MP7rwbgHiEALz44q96UY4iXkbEJRXjvVoA_20180902_11h26m26s -->
<g id="edge20" class="edge"><title>MNDv4oRHUxJxjn6EtrytHfFevoTz1WVYGv_20180902_11h26m26s&#45;&gt;MP7rwbgHiEALz44q96UY4iXkbEJRXjvVoA_20180902_11h26m26s</title>
<path fill="none" stroke="black" d="M1913.25,-71.6966C1912.37,-63.9827 1911.31,-54.7125 1910.33,-46.1124"/>
<polygon fill="black" stroke="black" points="1913.79,-45.6422 1909.18,-36.1043 1906.84,-46.4371 1913.79,-45.6422"/>
</g>
<!-- MNDv4oRHUxJxjn6EtrytHfFevoTz1WVYGv_20180902_11h26m26s&#45;&gt;MVoVXLsqobu5K3AWJTAh4ZBSRs1J6iiMW7_20180902_11h26m26s -->
<g id="edge15" class="edge"><title>MNDv4oRHUxJxjn6EtrytHfFevoTz1WVYGv_20180902_11h26m26s&#45;&gt;MVoVXLsqobu5K3AWJTAh4ZBSRs1J6iiMW7_20180902_11h26m26s</title>
<path fill="none" stroke="black" d="M2032.81,-73.8972C2120.73,-62.6047 2240.87,-47.1742 2331.39,-35.5479"/>
<polygon fill="black" stroke="black" points="2331.97,-39.0023 2341.44,-34.2568 2331.08,-32.0594 2331.97,-39.0023"/>
</g>
<!-- MEA6vpvJS61v4L1adoEMNko1SdgajcvqaR_20180902_11h26m26s -->
<g id="node5" class="node"><title>MEA6vpvJS61v4L1adoEMNko1SdgajcvqaR_20180902_11h26m26s</title>
<ellipse fill="none" stroke="black" cx="2453.23" cy="-90" rx="257.254" ry="18"/>
<text text-anchor="middle" x="2453.23" y="-86.3" font-family="Times,serif" font-size="14.00">MEA6vpvJS61v4L1adoEMNko1SdgajcvqaR_20180902_11h26m26s</text>
</g>
<!-- MEA6vpvJS61v4L1adoEMNko1SdgajcvqaR_20180902_11h26m26s&#45;&gt;MP7rwbgHiEALz44q96UY4iXkbEJRXjvVoA_20180902_11h26m26s -->
<g id="edge12" class="edge"><title>MEA6vpvJS61v4L1adoEMNko1SdgajcvqaR_20180902_11h26m26s&#45;&gt;MP7rwbgHiEALz44q96UY4iXkbEJRXjvVoA_20180902_11h26m26s</title>
<path fill="none" stroke="black" d="M2335.76,-73.9403C2247.25,-62.5923 2126,-47.0476 2035.06,-35.3885"/>
<polygon fill="black" stroke="black" points="2035.32,-31.8943 2024.96,-34.0941 2034.43,-38.8374 2035.32,-31.8943"/>
</g>
<!-- MEA6vpvJS61v4L1adoEMNko1SdgajcvqaR_20180902_11h26m26s&#45;&gt;MVoVXLsqobu5K3AWJTAh4ZBSRs1J6iiMW7_20180902_11h26m26s -->
<g id="edge3" class="edge"><title>MEA6vpvJS61v4L1adoEMNko1SdgajcvqaR_20180902_11h26m26s&#45;&gt;MVoVXLsqobu5K3AWJTAh4ZBSRs1J6iiMW7_20180902_11h26m26s</title>
<path fill="none" stroke="black" d="M2454.96,-71.6966C2455.73,-63.9827 2456.66,-54.7125 2457.52,-46.1124"/>
<polygon fill="black" stroke="black" points="2461,-46.403 2458.52,-36.1043 2454.04,-45.7064 2461,-46.403"/>
</g>
<!-- M8PWmpVoG6MyM29x86bg5bHrQ3X7pXiGyf_20180902_11h26m26s -->
<g id="node7" class="node"><title>M8PWmpVoG6MyM29x86bg5bHrQ3X7pXiGyf_20180902_11h26m26s</title>
<ellipse fill="none" stroke="black" cx="3002.23" cy="-90" rx="273.751" ry="18"/>
<text text-anchor="middle" x="3002.23" y="-86.3" font-family="Times,serif" font-size="14.00">M8PWmpVoG6MyM29x86bg5bHrQ3X7pXiGyf_20180902_11h26m26s</text>
</g>
<!-- M8PWmpVoG6MyM29x86bg5bHrQ3X7pXiGyf_20180902_11h26m26s&#45;&gt;MP7rwbgHiEALz44q96UY4iXkbEJRXjvVoA_20180902_11h26m26s -->
<g id="edge17" class="edge"><title>M8PWmpVoG6MyM29x86bg5bHrQ3X7pXiGyf_20180902_11h26m26s&#45;&gt;MP7rwbgHiEALz44q96UY4iXkbEJRXjvVoA_20180902_11h26m26s</title>
<path fill="none" stroke="black" d="M2813.68,-76.9467C2614.89,-64.2386 2303.21,-44.3143 2102.08,-31.4562"/>
<polygon fill="black" stroke="black" points="2102.19,-27.9563 2091.99,-30.8111 2101.74,-34.942 2102.19,-27.9563"/>
</g>
<!-- M8PWmpVoG6MyM29x86bg5bHrQ3X7pXiGyf_20180902_11h26m26s&#45;&gt;MVoVXLsqobu5K3AWJTAh4ZBSRs1J6iiMW7_20180902_11h26m26s -->
<g id="edge4" class="edge"><title>M8PWmpVoG6MyM29x86bg5bHrQ3X7pXiGyf_20180902_11h26m26s&#45;&gt;MVoVXLsqobu5K3AWJTAh4ZBSRs1J6iiMW7_20180902_11h26m26s</title>
<path fill="none" stroke="black" d="M2883.95,-73.7247C2796.59,-62.4413 2677.78,-47.0971 2588.2,-35.5275"/>
<polygon fill="black" stroke="black" points="2588.61,-32.0525 2578.25,-34.2427 2587.72,-38.9949 2588.61,-32.0525"/>
</g>
<!-- MDKqrNEgRdyTdAx7iuQjjiunatPAQugJ22_20180902_11h26m26s -->
<g id="node8" class="node"><title>MDKqrNEgRdyTdAx7iuQjjiunatPAQugJ22_20180902_11h26m26s</title>
<ellipse fill="none" stroke="black" cx="3548.23" cy="-90" rx="254.255" ry="18"/>
<text text-anchor="middle" x="3548.23" y="-86.3" font-family="Times,serif" font-size="14.00">MDKqrNEgRdyTdAx7iuQjjiunatPAQugJ22_20180902_11h26m26s</text>
</g>
<!-- MDKqrNEgRdyTdAx7iuQjjiunatPAQugJ22_20180902_11h26m26s&#45;&gt;MP7rwbgHiEALz44q96UY4iXkbEJRXjvVoA_20180902_11h26m26s -->
<g id="edge18" class="edge"><title>MDKqrNEgRdyTdAx7iuQjjiunatPAQugJ22_20180902_11h26m26s&#45;&gt;MP7rwbgHiEALz44q96UY4iXkbEJRXjvVoA_20180902_11h26m26s</title>
<path fill="none" stroke="black" d="M3373.56,-76.9235C3344.08,-75.111 3313.79,-73.3877 3285.23,-72 2793.99,-48.1349 2670.49,-59.3419 2179.23,-36 2153.02,-34.755 2125.41,-33.252 2098.23,-31.661"/>
<polygon fill="black" stroke="black" points="2098.43,-28.1667 2088.24,-31.0712 2098.02,-35.1545 2098.43,-28.1667"/>
</g>
<!-- MDKqrNEgRdyTdAx7iuQjjiunatPAQugJ22_20180902_11h26m26s&#45;&gt;MVoVXLsqobu5K3AWJTAh4ZBSRs1J6iiMW7_20180902_11h26m26s -->
<g id="edge5" class="edge"><title>MDKqrNEgRdyTdAx7iuQjjiunatPAQugJ22_20180902_11h26m26s&#45;&gt;MVoVXLsqobu5K3AWJTAh4ZBSRs1J6iiMW7_20180902_11h26m26s</title>
<path fill="none" stroke="black" d="M3367.49,-77.308C3339.93,-75.5281 3311.82,-73.7139 3285.23,-72 3071,-58.1952 2825.48,-42.4297 2658.37,-31.7069"/>
<polygon fill="black" stroke="black" points="2658.43,-28.2037 2648.22,-31.0561 2657.98,-35.1893 2658.43,-28.2037"/>
</g>
<!-- M8cCoN1oQXmrk8CPBGjhiexrn47mR7jX2T_20180902_11h26m26s -->
<g id="node9" class="node"><title>M8cCoN1oQXmrk8CPBGjhiexrn47mR7jX2T_20180902_11h26m26s</title>
<ellipse fill="none" stroke="black" cx="4083.23" cy="-90" rx="262.653" ry="18"/>
<text text-anchor="middle" x="4083.23" y="-86.3" font-family="Times,serif" font-size="14.00">M8cCoN1oQXmrk8CPBGjhiexrn47mR7jX2T_20180902_11h26m26s</text>
</g>
<!-- M8cCoN1oQXmrk8CPBGjhiexrn47mR7jX2T_20180902_11h26m26s&#45;&gt;MP7rwbgHiEALz44q96UY4iXkbEJRXjvVoA_20180902_11h26m26s -->
<g id="edge6" class="edge"><title>M8cCoN1oQXmrk8CPBGjhiexrn47mR7jX2T_20180902_11h26m26s&#45;&gt;MP7rwbgHiEALz44q96UY4iXkbEJRXjvVoA_20180902_11h26m26s</title>
<path fill="none" stroke="black" d="M3904.42,-76.7924C3873.36,-74.9671 3841.36,-73.2736 3811.23,-72 3086.36,-41.3657 2904.09,-66.6343 2179.23,-36 2152.39,-34.8657 2124.07,-33.3983 2096.26,-31.8014"/>
<polygon fill="black" stroke="black" points="2096.22,-28.2936 2086.04,-31.2076 2095.82,-35.2818 2096.22,-28.2936"/>
</g>
<!-- M8cCoN1oQXmrk8CPBGjhiexrn47mR7jX2T_20180902_11h26m26s&#45;&gt;MVoVXLsqobu5K3AWJTAh4ZBSRs1J6iiMW7_20180902_11h26m26s -->
<g id="edge11" class="edge"><title>M8cCoN1oQXmrk8CPBGjhiexrn47mR7jX2T_20180902_11h26m26s&#45;&gt;MVoVXLsqobu5K3AWJTAh4ZBSRs1J6iiMW7_20180902_11h26m26s</title>
<path fill="none" stroke="black" d="M3901.1,-77.0314C3871.08,-75.2269 3840.29,-73.478 3811.23,-72 3426.73,-52.4452 2980.36,-36.192 2709.23,-27.0366"/>
<polygon fill="black" stroke="black" points="2708.97,-23.526 2698.85,-26.687 2708.73,-30.522 2708.97,-23.526"/>
</g>
<!-- MREPJ21ejZVS57LvCB8wyuADXMwFvDFhUL_20180901_16h45m33s -->
<g id="node10" class="node"><title>MREPJ21ejZVS57LvCB8wyuADXMwFvDFhUL_20180901_16h45m33s</title>
<ellipse fill="none" stroke="black" cx="1913.23" cy="-234" rx="275.651" ry="18"/>
<text text-anchor="middle" x="1913.23" y="-230.3" font-family="Times,serif" font-size="14.00">MREPJ21ejZVS57LvCB8wyuADXMwFvDFhUL_20180901_16h45m33s</text>
</g>
<!-- MREPJ21ejZVS57LvCB8wyuADXMwFvDFhUL_20180901_16h45m33s&#45;&gt;MNDv4oRHUxJxjn6EtrytHfFevoTz1WVYGv_20180901_16h45m33s -->
<g id="edge9" class="edge"><title>MREPJ21ejZVS57LvCB8wyuADXMwFvDFhUL_20180901_16h45m33s&#45;&gt;MNDv4oRHUxJxjn6EtrytHfFevoTz1WVYGv_20180901_16h45m33s</title>
<path fill="none" stroke="black" d="M1913.72,-215.697C1913.94,-207.983 1914.21,-198.712 1914.45,-190.112"/>
<polygon fill="black" stroke="black" points="1917.95,-190.2 1914.74,-180.104 1910.95,-190 1917.95,-190.2"/>
</g>
<!-- MGbkJuJ9fdTXvEBNek4SK8rCwydW5NPKmX_20180901_16h45m33s -->
<g id="node11" class="node"><title>MGbkJuJ9fdTXvEBNek4SK8rCwydW5NPKmX_20180901_16h45m33s</title>
<ellipse fill="none" stroke="black" cx="2472.23" cy="-162" rx="272.152" ry="18"/>
<text text-anchor="middle" x="2472.23" y="-158.3" font-family="Times,serif" font-size="14.00">MGbkJuJ9fdTXvEBNek4SK8rCwydW5NPKmX_20180901_16h45m33s</text>
</g>
<!-- MREPJ21ejZVS57LvCB8wyuADXMwFvDFhUL_20180901_16h45m33s&#45;&gt;MGbkJuJ9fdTXvEBNek4SK8rCwydW5NPKmX_20180901_16h45m33s -->
<g id="edge7" class="edge"><title>MREPJ21ejZVS57LvCB8wyuADXMwFvDFhUL_20180901_16h45m33s&#45;&gt;MGbkJuJ9fdTXvEBNek4SK8rCwydW5NPKmX_20180901_16h45m33s</title>
<path fill="none" stroke="black" d="M2034.52,-217.811C2124.99,-206.482 2248.43,-191.025 2341.16,-179.413"/>
<polygon fill="black" stroke="black" points="2341.68,-182.875 2351.17,-178.159 2340.81,-175.929 2341.68,-182.875"/>
</g>
<!-- MVe4KJ196b5faHvmKkvWuGZ5R8aAnqyCYj_20180901_16h45m33s -->
<g id="node12" class="node"><title>MVe4KJ196b5faHvmKkvWuGZ5R8aAnqyCYj_20180901_16h45m33s</title>
<ellipse fill="none" stroke="black" cx="2475.23" cy="-234" rx="268.352" ry="18"/>
<text text-anchor="middle" x="2475.23" y="-230.3" font-family="Times,serif" font-size="14.00">MVe4KJ196b5faHvmKkvWuGZ5R8aAnqyCYj_20180901_16h45m33s</text>
</g>
<!-- MVe4KJ196b5faHvmKkvWuGZ5R8aAnqyCYj_20180901_16h45m33s&#45;&gt;MNDv4oRHUxJxjn6EtrytHfFevoTz1WVYGv_20180901_16h45m33s -->
<g id="edge8" class="edge"><title>MVe4KJ196b5faHvmKkvWuGZ5R8aAnqyCYj_20180901_16h45m33s&#45;&gt;MNDv4oRHUxJxjn6EtrytHfFevoTz1WVYGv_20180901_16h45m33s</title>
<path fill="none" stroke="black" d="M2354.4,-217.897C2263.35,-206.516 2138.67,-190.931 2045.42,-179.274"/>
<polygon fill="black" stroke="black" points="2045.71,-175.783 2035.35,-178.015 2044.84,-182.729 2045.71,-175.783"/>
</g>
<!-- MVe4KJ196b5faHvmKkvWuGZ5R8aAnqyCYj_20180901_16h45m33s&#45;&gt;MGbkJuJ9fdTXvEBNek4SK8rCwydW5NPKmX_20180901_16h45m33s -->
<g id="edge19" class="edge"><title>MVe4KJ196b5faHvmKkvWuGZ5R8aAnqyCYj_20180901_16h45m33s&#45;&gt;MGbkJuJ9fdTXvEBNek4SK8rCwydW5NPKmX_20180901_16h45m33s</title>
<path fill="none" stroke="black" d="M2474.49,-215.697C2474.15,-207.983 2473.76,-198.712 2473.39,-190.112"/>
<polygon fill="black" stroke="black" points="2476.88,-189.945 2472.96,-180.104 2469.89,-190.245 2476.88,-189.945"/>
</g>
<!-- MFckG1iHPNAp9bUdC3Ta3yLHvPddPL82sn_20180902_11h26m26s -->
<g id="node13" class="node"><title>MFckG1iHPNAp9bUdC3Ta3yLHvPddPL82sn_20180902_11h26m26s</title>
<ellipse fill="none" stroke="black" cx="263.227" cy="-90" rx="263.453" ry="18"/>
<text text-anchor="middle" x="263.227" y="-86.3" font-family="Times,serif" font-size="14.00">MFckG1iHPNAp9bUdC3Ta3yLHvPddPL82sn_20180902_11h26m26s</text>
</g>
<!-- MFckG1iHPNAp9bUdC3Ta3yLHvPddPL82sn_20180902_11h26m26s&#45;&gt;MP7rwbgHiEALz44q96UY4iXkbEJRXjvVoA_20180902_11h26m26s -->
<g id="edge13" class="edge"><title>MFckG1iHPNAp9bUdC3Ta3yLHvPddPL82sn_20180902_11h26m26s&#45;&gt;MP7rwbgHiEALz44q96UY4iXkbEJRXjvVoA_20180902_11h26m26s</title>
<path fill="none" stroke="black" d="M445.715,-76.9943C475.62,-75.1995 506.284,-73.4633 535.227,-72 930.299,-52.0261 1389.7,-35.6766 1664.02,-26.6458"/>
<polygon fill="black" stroke="black" points="1664.22,-30.1411 1674.1,-26.3144 1663.99,-23.1448 1664.22,-30.1411"/>
</g>
<!-- MFckG1iHPNAp9bUdC3Ta3yLHvPddPL82sn_20180902_11h26m26s&#45;&gt;MVoVXLsqobu5K3AWJTAh4ZBSRs1J6iiMW7_20180902_11h26m26s -->
<g id="edge21" class="edge"><title>MFckG1iHPNAp9bUdC3Ta3yLHvPddPL82sn_20180902_11h26m26s&#45;&gt;MVoVXLsqobu5K3AWJTAh4ZBSRs1J6iiMW7_20180902_11h26m26s</title>
<path fill="none" stroke="black" d="M442.038,-76.7883C473.096,-74.9635 505.091,-73.2712 535.227,-72 1265.42,-41.1993 1449,-66.0725 2179.23,-36 2206.96,-34.8577 2236.23,-33.3853 2264.97,-31.7856"/>
<polygon fill="black" stroke="black" points="2265.33,-35.2712 2275.12,-31.2148 2264.94,-28.2823 2265.33,-35.2712"/>
</g>
<!-- MGsG3Zc95j79nA5iJa5mHbDY5Nf37LsQVn_20180902_11h26m26s -->
<g id="node14" class="node"><title>MGsG3Zc95j79nA5iJa5mHbDY5Nf37LsQVn_20180902_11h26m26s</title>
<ellipse fill="none" stroke="black" cx="807.227" cy="-90" rx="262.653" ry="18"/>
<text text-anchor="middle" x="807.227" y="-86.3" font-family="Times,serif" font-size="14.00">MGsG3Zc95j79nA5iJa5mHbDY5Nf37LsQVn_20180902_11h26m26s</text>
</g>
<!-- MGsG3Zc95j79nA5iJa5mHbDY5Nf37LsQVn_20180902_11h26m26s&#45;&gt;MP7rwbgHiEALz44q96UY4iXkbEJRXjvVoA_20180902_11h26m26s -->
<g id="edge16" class="edge"><title>MGsG3Zc95j79nA5iJa5mHbDY5Nf37LsQVn_20180902_11h26m26s&#45;&gt;MP7rwbgHiEALz44q96UY4iXkbEJRXjvVoA_20180902_11h26m26s</title>
<path fill="none" stroke="black" d="M992.272,-77.2244C1191.82,-64.5258 1508.18,-44.3936 1711.71,-31.442"/>
<polygon fill="black" stroke="black" points="1712.16,-34.9203 1721.92,-30.7922 1711.72,-27.9345 1712.16,-34.9203"/>
</g>
<!-- MGsG3Zc95j79nA5iJa5mHbDY5Nf37LsQVn_20180902_11h26m26s&#45;&gt;MVoVXLsqobu5K3AWJTAh4ZBSRs1J6iiMW7_20180902_11h26m26s -->
<g id="edge14" class="edge"><title>MGsG3Zc95j79nA5iJa5mHbDY5Nf37LsQVn_20180902_11h26m26s&#45;&gt;MVoVXLsqobu5K3AWJTAh4ZBSRs1J6iiMW7_20180902_11h26m26s</title>
<path fill="none" stroke="black" d="M987.943,-76.9077C1018.08,-75.1079 1049.03,-73.3927 1078.23,-72 1567.27,-48.6712 1690.16,-58.785 2179.23,-36 2206.18,-34.744 2234.59,-33.239 2262.56,-31.6507"/>
<polygon fill="black" stroke="black" points="2263.05,-35.128 2272.84,-31.062 2262.65,-28.1394 2263.05,-35.128"/>
</g>
</g>
</svg>
